<svg width="128" height="50" viewBox="0 0 128 50" fill="none" xmlns="http://www.w3.org/2000/svg">
<rect width="128" height="50" rx="10" fill="#0071E0"/>
<path d="M21.7611 15.0024C22.5738 14.9833 23.3853 15.0797 24.1736 15.2889C24.8407 15.4167 25.4782 15.6791 26.051 16.0617C26.586 16.4157 27.0055 16.9338 27.2532 17.5465C27.533 18.2619 27.6704 19.0303 27.6567 19.804C27.6892 20.6864 27.4398 21.5548 26.9485 22.27C26.4632 22.97 25.8172 23.5287 25.0712 23.8937C26.098 24.1679 26.9995 24.817 27.6155 25.7258C28.1929 26.6474 28.4968 27.7296 28.4883 28.8342C28.5005 29.7147 28.3172 30.5859 27.9531 31.3783C27.6082 32.0788 27.1013 32.6761 26.4792 33.1149C25.824 33.5706 25.1 33.9053 24.3383 34.1048C23.5511 34.3279 22.7408 34.4475 21.9257 34.4608H13V15.0024H21.7611ZM21.2258 22.9038C21.8666 22.9356 22.5006 22.7533 23.0373 22.3828C23.2709 22.1697 23.4532 21.9011 23.5691 21.5992C23.6851 21.2973 23.7314 20.9707 23.7043 20.6463C23.7162 20.2594 23.6488 19.8744 23.5067 19.5175C23.3627 19.2356 23.1565 18.9944 22.9056 18.8142C22.6283 18.6258 22.3258 18.4823 22.0081 18.3887C21.6543 18.3284 21.2958 18.3051 20.9376 18.3192H17.0676V22.9038H21.2258ZM21.4235 31.2307C21.8092 31.2163 22.1927 31.161 22.568 31.0658C22.9067 30.9984 23.2272 30.8531 23.5067 30.6403C23.7778 30.4347 24.005 30.1715 24.1736 29.8675C24.3493 29.4779 24.4527 29.0564 24.4783 28.6259C24.5054 28.2194 24.4455 27.8117 24.3029 27.4329C24.1604 27.0542 23.9389 26.7141 23.6549 26.4378C23.0243 25.9895 22.2737 25.7673 21.514 25.8039H17.0676V31.2394L21.4235 31.2307ZM34.3592 31.1613C34.6864 31.4678 35.0684 31.7024 35.4826 31.8515C35.8968 32.0006 36.3351 32.0611 36.7718 32.0296C37.4569 32.0372 38.1302 31.8416 38.715 31.4652C39.1531 31.1539 39.4941 30.7128 39.6949 30.1975H42.9885C42.5938 31.6705 41.7449 32.9629 40.5759 33.8703C39.412 34.6295 38.0661 35.0212 36.6977 34.9991C35.7148 35.001 34.7403 34.8096 33.824 34.4347C33.0001 34.11 32.2648 33.5762 31.6831 32.8805C31.061 32.2331 30.5999 31.4338 30.341 30.5535C30.0079 29.5827 29.8488 28.5552 29.8716 27.5231C29.8531 26.5141 30.0123 25.5101 30.341 24.5623C30.6653 23.6782 31.1428 22.8656 31.749 22.1658C32.3618 21.508 33.0885 20.9804 33.8899 20.6115C34.7828 20.2351 35.7361 20.0435 36.6977 20.0471C37.7422 20.0126 38.7782 20.2544 39.7113 20.7505C40.5372 21.1815 41.2456 21.8269 41.7699 22.626C42.3151 23.4401 42.7218 24.3479 42.972 25.309C43.1197 26.3374 43.1638 27.3793 43.1038 28.4175H33.404C33.3879 29.4255 33.7284 30.4037 34.3592 31.1613ZM38.575 23.7547C38.0066 23.2195 37.2612 22.9419 36.5001 22.982C35.9889 22.9752 35.4836 23.0973 35.0262 23.338C34.6741 23.5378 34.3567 23.7991 34.0875 24.1107C33.8406 24.3837 33.6771 24.7285 33.6181 25.1006C33.5464 25.4022 33.5023 25.7105 33.4864 26.021H39.5055C39.4435 25.174 39.1095 24.3746 38.5586 23.7547H38.575ZM48.3571 15.0024V22.3828C48.7684 21.617 49.3999 21.0089 50.1604 20.6463C50.826 20.2945 51.557 20.1018 52.3012 20.0819C53.1246 20.0478 53.9458 20.1926 54.7138 20.5073C55.2957 20.7646 55.8038 21.1776 56.1877 21.7056C56.5512 22.2553 56.8009 22.8795 56.9206 23.5377C57.0732 24.3003 57.1559 25.0767 57.1676 25.856V34.5389H53.487V26.5767C53.5378 25.6731 53.3527 24.7722 52.9517 23.9718C52.7515 23.6711 52.4789 23.4321 52.1619 23.2795C51.8449 23.1269 51.4951 23.0661 51.1485 23.1035C50.7482 23.0699 50.3461 23.1356 49.9743 23.2954C49.6025 23.4553 49.2714 23.7048 49.0076 24.0239C48.4869 24.9656 48.2593 26.0559 48.3571 27.1411V34.5389H44.6518V15.0024H48.3571ZM59.8437 22.4784C60.2317 21.8808 60.7337 21.3751 61.3176 20.9936C61.9429 20.6223 62.6215 20.3613 63.3267 20.2208C64.0548 20.0818 64.7934 20.012 65.5334 20.0124C66.2004 20.0124 66.8756 20.0819 67.6084 20.1513C68.261 20.2203 68.8968 20.4114 69.4858 20.7157C70.0375 20.9936 70.5197 21.404 70.8938 21.914C71.2626 22.5244 71.4437 23.2401 71.4125 23.9631V31.3697C71.4203 31.9826 71.4643 32.5945 71.5443 33.2017C71.5972 33.682 71.7612 34.1412 72.0219 34.5389H68.2754C68.1452 34.3491 68.0527 34.1335 68.0036 33.9051C67.9493 33.6753 67.9271 33.4383 67.9378 33.2017C67.3583 33.8172 66.6465 34.2759 65.8628 34.5389C65.0824 34.7956 64.2674 34.9158 63.4502 34.8949C62.838 34.9089 62.228 34.812 61.6469 34.6084C61.1136 34.4517 60.6134 34.1895 60.173 33.8356C59.7526 33.4695 59.4102 33.0138 59.1685 32.4984C58.9424 31.8929 58.8279 31.2476 58.8309 30.5969C58.8055 29.9117 58.9443 29.2309 59.2343 28.6172C59.4939 28.1342 59.8343 27.7047 60.2389 27.3495C60.6902 27.0312 61.1882 26.7936 61.7128 26.6462C62.2534 26.4882 62.8036 26.3692 63.3596 26.2902L65.0064 26.0818C65.5554 26.0123 66.0247 25.9428 66.4145 25.8734C66.7719 25.7651 67.1109 25.598 67.419 25.3784C67.5454 25.2685 67.6429 25.126 67.702 24.9648C67.7612 24.8036 67.7799 24.6291 67.7566 24.4581C67.7784 24.1152 67.71 23.7727 67.559 23.4682C67.4152 23.2468 67.2337 23.0554 67.0238 22.9038C66.7961 22.7665 66.5485 22.6697 66.2909 22.6173C65.9816 22.5564 65.6666 22.5331 65.3523 22.5478C64.7649 22.5005 64.1809 22.676 63.7054 23.0427C63.2684 23.4615 63.0052 24.0447 62.9726 24.6664H59.2426C59.2485 23.8927 59.4565 23.1356 59.8437 22.4784ZM67.1391 27.9833C66.9414 28.0528 66.6697 28.1223 66.4062 28.1917C66.1427 28.2612 65.871 28.2612 65.5334 28.3306C65.1958 28.4001 64.9323 28.4001 64.6606 28.4696L63.8372 28.678C63.5909 28.738 63.362 28.8602 63.1702 29.034C62.9799 29.1875 62.8204 29.3793 62.7009 29.5983C62.5339 29.8708 62.4639 30.1969 62.5033 30.5187C62.4841 30.8226 62.5531 31.1254 62.7009 31.387C62.8246 31.6006 62.9868 31.7864 63.1785 31.934C63.4062 32.0714 63.6537 32.1682 63.9113 32.2206C64.1984 32.2817 64.4916 32.305 64.7841 32.29C65.3655 32.3128 65.9437 32.1908 66.4721 31.934C66.8073 31.6983 67.0885 31.3869 67.2955 31.0223C67.4974 30.7082 67.6141 30.342 67.6331 29.963C67.6844 29.6769 67.7065 29.3858 67.699 29.0947V27.5926C67.5284 27.7467 67.3403 27.878 67.1391 27.9833ZM76.9705 20.3684V22.3828H77.0364C77.4477 21.617 78.0792 21.0089 78.8397 20.6463C79.552 20.2943 80.3259 20.1021 81.1123 20.0819C81.9356 20.0478 82.7568 20.1926 83.5249 20.5073C84.1168 20.7459 84.6293 21.1626 84.9988 21.7056C85.3647 22.2657 85.6427 22.8843 85.8222 23.5377C85.9527 24.3026 86.0134 25.0789 86.0033 25.856V34.5389H82.3227V26.5767C82.3735 25.6731 82.1884 24.7722 81.7875 23.9718C81.5807 23.6559 81.2977 23.404 80.9676 23.2421C80.6375 23.0803 80.2724 23.0145 79.9101 23.0514C79.4898 23.0348 79.0718 23.1228 78.6898 23.3083C78.3078 23.4939 77.9727 23.7718 77.7116 24.1194C77.1868 25.0567 76.9536 26.1437 77.0446 27.2279V34.6344H73.3558V20.3684H76.9705ZM94.2374 22.9038C93.7164 22.8836 93.2021 23.0321 92.7635 23.3293C92.3477 23.6152 92.0031 24.0023 91.7589 24.4581C91.5003 24.9165 91.3192 25.4189 91.2237 25.9428C91.1116 26.4843 91.0673 27.039 91.092 27.5926C91.1018 28.1133 91.1459 28.6326 91.2237 29.1468C91.3199 29.6487 91.5012 30.1282 91.7589 30.5621C91.9996 30.9794 92.3191 31.34 92.6976 31.6215C93.1362 31.9187 93.6505 32.0671 94.1715 32.0469C94.9308 32.0743 95.672 31.7983 96.2465 31.2741C96.7719 30.7032 97.0822 29.9501 97.1193 29.1555H100.668C100.534 30.8309 99.7904 32.3865 98.5932 33.497C97.3355 34.528 95.7713 35.0542 94.1798 34.9817C93.2395 34.9852 92.3078 34.7934 91.4378 34.4174C90.6307 34.0917 89.9002 33.5851 89.297 32.9326C88.6808 32.2623 88.1992 31.4679 87.8807 30.5969C87.5526 29.673 87.3933 28.6919 87.4114 27.7055C87.3875 26.6705 87.5466 25.6399 87.8807 24.6664C88.1813 23.7648 88.6362 22.929 89.2228 22.2005C89.8325 21.5211 90.559 20.9701 91.3637 20.5768C92.28 20.2019 93.2546 20.0105 94.2374 20.0124C95.0067 20.0218 95.7713 20.1416 96.51 20.3684C97.2104 20.5683 97.8694 20.904 98.4532 21.3583C99.0612 21.7942 99.5474 22.3938 99.8613 23.0948C100.218 23.8407 100.423 24.657 100.462 25.4913H96.8476C96.8668 25.1319 96.8111 24.7723 96.6845 24.4379C96.5578 24.1036 96.3633 23.8025 96.1145 23.5559C95.8658 23.3093 95.5688 23.1231 95.2445 23.0105C94.9202 22.8978 94.5765 22.8614 94.2374 22.9038ZM32.6712 16.3395H40.1642V18.2411H32.6712V16.3395ZM106.218 31.1613C106.884 31.7721 107.75 32.0837 108.631 32.0296C109.316 32.0372 109.989 31.8416 110.574 31.4652C111.018 31.1564 111.365 30.7151 111.57 30.1975H114.781C114.387 31.6705 113.538 32.9629 112.369 33.8703C111.195 34.6252 109.84 35.008 108.466 34.9731C107.483 34.975 106.508 34.7836 105.592 34.4087C104.784 34.0592 104.055 33.5324 103.455 32.8633C102.854 32.1941 102.395 31.3978 102.109 30.5274C101.776 29.5567 101.617 28.5291 101.64 27.4971C101.621 26.488 101.78 25.4841 102.109 24.5362C102.435 23.6485 102.915 22.8327 103.525 22.131C104.138 21.4733 104.865 20.9457 105.666 20.5768C106.561 20.2084 107.513 20.0171 108.474 20.0124C109.498 19.9683 110.515 20.2109 111.422 20.7157C112.257 21.1516 112.971 21.8064 113.497 22.6173C114.042 23.4314 114.449 24.3392 114.699 25.3003C114.961 26.3355 115.053 27.4103 114.971 28.4782H105.279C105.267 29.4641 105.602 30.4198 106.218 31.1613ZM110.5 23.7547C109.931 23.2195 109.186 22.9419 108.425 22.982C107.914 22.9752 107.408 23.0973 106.951 23.338C106.581 23.5195 106.254 23.7866 105.996 24.1194C105.774 24.4101 105.614 24.7477 105.526 25.1093C105.455 25.4109 105.41 25.7191 105.395 26.0297H111.414C111.292 25.2041 110.968 24.4261 110.475 23.7721L110.5 23.7547Z" fill="white"/>
</svg>
