<svg width="296" height="78" viewBox="0 0 296 78" fill="none" xmlns="http://www.w3.org/2000/svg">
<rect width="296" height="78" rx="39" fill="#0071E0" fill-opacity="0.2"/>
<path d="M42.5312 34C41.9941 34 41.6523 33.6484 41.6523 33.0918V20.8164C41.6523 20.2598 41.9941 19.9082 42.5312 19.9082H46.9941C49.4062 19.9082 51.0371 21.3145 51.0371 23.4238C51.0371 24.8887 49.9629 26.2559 48.6055 26.5V26.5781C50.5195 26.8223 51.75 28.1699 51.75 30.0449C51.75 32.5254 49.9727 34 46.9746 34H42.5312ZM43.4102 25.9824H46.0469C48.127 25.9824 49.2598 25.1523 49.2598 23.6289C49.2598 22.2324 48.3027 21.4609 46.5938 21.4609H43.4102V25.9824ZM43.4102 32.4473H46.7109C48.8301 32.4473 49.9434 31.5879 49.9434 29.957C49.9434 28.3262 48.791 27.4961 46.5449 27.4961H43.4102V32.4473ZM57.6875 34.1758C54.875 34.1758 52.9805 32.1543 52.9805 28.9219C52.9805 25.6797 54.875 23.668 57.6875 23.668C60.4902 23.668 62.3848 25.6797 62.3848 28.9219C62.3848 32.1543 60.4902 34.1758 57.6875 34.1758ZM57.6875 32.6816C59.4844 32.6816 60.6562 31.3145 60.6562 28.9219C60.6562 26.5293 59.4844 25.1621 57.6875 25.1621C55.8906 25.1621 54.709 26.5293 54.709 28.9219C54.709 31.3145 55.8906 32.6816 57.6875 32.6816ZM64.6504 31.6562V25.2402H63.8008C63.3125 25.2402 63.0391 24.9863 63.0391 24.5371C63.0391 24.0977 63.3125 23.8438 63.8008 23.8438H64.6504V22.1055C64.6504 21.5684 65.002 21.1973 65.5 21.1973C65.998 21.1973 66.3496 21.5684 66.3496 22.1055V23.8438H67.6582C68.1465 23.8438 68.4199 24.0977 68.4199 24.5371C68.4199 24.9863 68.1465 25.2402 67.6582 25.2402H66.3496V31.2852C66.3496 32.1445 66.6523 32.5547 67.502 32.6133L67.6484 32.623C68.2051 32.6621 68.459 32.8867 68.459 33.2871C68.459 33.8047 68.166 34.0781 67.2188 34.0781H67.1113C65.4707 34.0781 64.6504 33.2773 64.6504 31.6562ZM71.418 22.4473C71.0664 22.4473 70.8516 22.2129 70.8516 21.8223C70.8516 20.5039 71.6523 19.7129 72.7266 19.7129C74.0742 19.7129 74.5137 21.1973 75.2461 21.1973C75.6074 21.1973 75.8125 20.8945 75.9102 20.2207C75.9688 19.7617 76.1348 19.5664 76.4863 19.5664C76.8281 19.5664 77.0527 19.8105 77.0527 20.1816C77.0527 21.4512 76.2422 22.3008 75.2363 22.3008C73.9473 22.3008 73.459 20.8164 72.7168 20.8164C72.2676 20.8164 72.0723 21.1094 71.9941 21.8516C71.9551 22.252 71.7695 22.4473 71.418 22.4473ZM73 34.1758C70.9785 34.1758 69.6211 32.9551 69.6211 31.1289C69.6211 29.3906 70.959 28.2969 73.3027 28.1602L76.2227 27.9941V27.1445C76.2227 25.9043 75.4023 25.1621 73.9961 25.1621C72.8926 25.1621 72.1406 25.5625 71.5742 26.5684C71.418 26.8516 71.1934 26.9785 70.8711 26.9785C70.4316 26.9785 70.1191 26.6758 70.1191 26.2168C70.1191 26.002 70.1875 25.7578 70.3242 25.5137C70.9004 24.4004 72.3848 23.668 74.0352 23.668C76.418 23.668 77.9219 24.957 77.9219 26.9785V33.3164C77.9219 33.8242 77.5898 34.1758 77.1211 34.1758C76.6426 34.1758 76.3105 33.8242 76.3105 33.3164V32.252H76.2715C75.666 33.4141 74.3672 34.1758 73 34.1758ZM73.3809 32.7305C74.9824 32.7305 76.2227 31.6074 76.2227 30.1426V29.3125L73.498 29.4785C72.1309 29.5664 71.3496 30.1719 71.3496 31.1289C71.3496 32.0957 72.1602 32.7305 73.3809 32.7305ZM84.2891 34.1758C81.4766 34.1758 79.582 32.1543 79.582 28.9219C79.582 25.6797 81.4766 23.668 84.2891 23.668C87.0918 23.668 88.9863 25.6797 88.9863 28.9219C88.9863 32.1543 87.0918 34.1758 84.2891 34.1758ZM84.2891 32.6816C86.0859 32.6816 87.2578 31.3145 87.2578 28.9219C87.2578 26.5293 86.0859 25.1621 84.2891 25.1621C82.4922 25.1621 81.3105 26.5293 81.3105 28.9219C81.3105 31.3145 82.4922 32.6816 84.2891 32.6816ZM95.6562 37.584C95.1582 37.584 94.8066 37.2129 94.8066 36.6758V24.5273C94.8066 24.0195 95.1387 23.668 95.6172 23.668C96.0859 23.668 96.418 24.0195 96.418 24.5273V25.5625H96.457C97.082 24.4199 98.2637 23.668 99.7383 23.668C102.326 23.668 104.084 25.7383 104.084 28.9219C104.084 32.1055 102.336 34.1758 99.7773 34.1758C98.3223 34.1758 97.1504 33.4629 96.5449 32.3496H96.5059V36.6758C96.5059 37.2129 96.1543 37.584 95.6562 37.584ZM99.4062 32.6816C101.213 32.6816 102.346 31.2266 102.346 28.9219C102.346 26.627 101.213 25.1621 99.4062 25.1621C97.668 25.1621 96.4961 26.666 96.4961 28.9219C96.4961 31.1875 97.668 32.6816 99.4062 32.6816ZM108.762 34.1758C106.74 34.1758 105.383 32.9551 105.383 31.1289C105.383 29.3906 106.721 28.2969 109.064 28.1602L111.984 27.9941V27.1445C111.984 25.9043 111.164 25.1621 109.758 25.1621C108.654 25.1621 107.902 25.5625 107.336 26.5684C107.18 26.8516 106.955 26.9785 106.633 26.9785C106.193 26.9785 105.881 26.6758 105.881 26.2168C105.881 26.002 105.949 25.7578 106.086 25.5137C106.662 24.4004 108.146 23.668 109.797 23.668C112.18 23.668 113.684 24.957 113.684 26.9785V33.3164C113.684 33.8242 113.352 34.1758 112.883 34.1758C112.404 34.1758 112.072 33.8242 112.072 33.3164V32.252H112.033C111.428 33.4141 110.129 34.1758 108.762 34.1758ZM109.143 32.7305C110.744 32.7305 111.984 31.6074 111.984 30.1426V29.3125L109.26 29.4785C107.893 29.5664 107.111 30.1719 107.111 31.1289C107.111 32.0957 107.922 32.7305 109.143 32.7305ZM116.691 34.1758C116.193 34.1758 115.842 33.8047 115.842 33.2676V24.5273C115.842 24.0195 116.174 23.668 116.643 23.668C117.111 23.668 117.443 24.0195 117.443 24.5273V25.5039H117.482C117.775 24.4492 118.771 23.668 119.787 23.668C120.158 23.668 120.422 23.7559 120.588 23.9121C120.734 24.0488 120.803 24.2441 120.803 24.4785C120.803 24.7422 120.715 24.9375 120.539 25.0742C120.363 25.2207 120.1 25.2891 119.729 25.2891C118.195 25.2891 117.541 26.3926 117.541 27.6914V33.2676C117.541 33.8047 117.189 34.1758 116.691 34.1758ZM124.777 34.1758C122.756 34.1758 121.398 32.9551 121.398 31.1289C121.398 29.3906 122.736 28.2969 125.08 28.1602L128 27.9941V27.1445C128 25.9043 127.18 25.1621 125.773 25.1621C124.67 25.1621 123.918 25.5625 123.352 26.5684C123.195 26.8516 122.971 26.9785 122.648 26.9785C122.209 26.9785 121.896 26.6758 121.896 26.2168C121.896 26.002 121.965 25.7578 122.102 25.5137C122.678 24.4004 124.162 23.668 125.812 23.668C128.195 23.668 129.699 24.957 129.699 26.9785V33.3164C129.699 33.8242 129.367 34.1758 128.898 34.1758C128.42 34.1758 128.088 33.8242 128.088 33.3164V32.252H128.049C127.443 33.4141 126.145 34.1758 124.777 34.1758ZM125.158 32.7305C126.76 32.7305 128 31.6074 128 30.1426V29.3125L125.275 29.4785C123.908 29.5664 123.127 30.1719 123.127 31.1289C123.127 32.0957 123.938 32.7305 125.158 32.7305ZM138.918 34.1758C136.896 34.1758 135.539 32.9551 135.539 31.1289C135.539 29.3906 136.877 28.2969 139.221 28.1602L142.141 27.9941V27.1445C142.141 25.9043 141.32 25.1621 139.914 25.1621C138.811 25.1621 138.059 25.5625 137.492 26.5684C137.336 26.8516 137.111 26.9785 136.789 26.9785C136.35 26.9785 136.037 26.6758 136.037 26.2168C136.037 26.002 136.105 25.7578 136.242 25.5137C136.818 24.4004 138.303 23.668 139.953 23.668C142.336 23.668 143.84 24.957 143.84 26.9785V33.3164C143.84 33.8242 143.508 34.1758 143.039 34.1758C142.561 34.1758 142.229 33.8242 142.229 33.3164V32.252H142.189C141.584 33.4141 140.285 34.1758 138.918 34.1758ZM139.299 32.7305C140.9 32.7305 142.141 31.6074 142.141 30.1426V29.3125L139.416 29.4785C138.049 29.5664 137.268 30.1719 137.268 31.1289C137.268 32.0957 138.078 32.7305 139.299 32.7305ZM150.188 34.1758C147.375 34.1758 145.5 32.1543 145.5 28.9414C145.5 25.748 147.355 23.668 150.168 23.668C152.082 23.668 153.752 24.752 154.143 26.1582C154.182 26.2852 154.201 26.4121 154.201 26.5195C154.201 26.9688 153.918 27.2617 153.479 27.2617C153.107 27.2617 152.902 27.1055 152.668 26.666C152.131 25.6602 151.359 25.1621 150.188 25.1621C148.42 25.1621 147.229 26.6465 147.229 28.9219C147.229 31.2559 148.439 32.6816 150.188 32.6816C151.408 32.6816 152.15 32.1543 152.678 31.1777C152.922 30.7188 153.107 30.582 153.479 30.582C153.918 30.582 154.211 30.8848 154.211 31.3242C154.211 31.4512 154.182 31.5977 154.133 31.7539C153.645 33.1602 152.033 34.1758 150.188 34.1758ZM160.275 34.1758C157.277 34.1758 155.52 32.2422 155.52 28.9609C155.52 25.7578 157.326 23.668 160.129 23.668C162.727 23.668 164.553 25.6113 164.553 28.3945C164.553 29.0098 164.201 29.3809 163.615 29.3809H157.268C157.268 31.4316 158.391 32.7012 160.207 32.7012C161.418 32.7012 162.16 32.2715 162.951 31.1191C163.127 30.875 163.322 30.7773 163.586 30.7773C164.035 30.7773 164.338 31.0703 164.338 31.5195C164.338 31.6562 164.289 31.832 164.211 32.0176C163.557 33.3945 162.131 34.1758 160.275 34.1758ZM157.277 28.0527H162.795C162.756 26.2949 161.672 25.1426 160.1 25.1426C158.518 25.1426 157.385 26.3047 157.277 28.0527ZM169.797 34.1758C167.99 34.1758 166.574 33.3652 166.086 32.0957C166.027 31.9492 166.008 31.8223 166.008 31.6953C166.008 31.2461 166.34 30.9922 166.779 30.9922C167.082 30.9922 167.326 31.1484 167.521 31.5C168.029 32.3887 168.635 32.7891 169.934 32.7891C171.232 32.7891 172.111 32.2227 172.111 31.2754C172.111 30.543 171.691 30.1523 170.549 29.8691L168.996 29.4785C167.033 28.9902 166.086 28.0625 166.086 26.6367C166.086 24.8691 167.639 23.668 169.934 23.668C171.604 23.668 173.088 24.6055 173.352 25.8262C173.371 25.9238 173.381 26.002 173.381 26.0801C173.381 26.4805 173.127 26.7441 172.717 26.7441C172.385 26.7441 172.15 26.6367 171.965 26.2852C171.525 25.4355 170.871 25.0645 169.836 25.0645C168.615 25.0645 167.766 25.6797 167.766 26.5488C167.766 27.252 168.312 27.7402 169.426 28.0137L170.939 28.3848C173.059 28.9023 173.84 29.6445 173.84 31.1387C173.84 32.9551 172.209 34.1758 169.797 34.1758ZM179.113 34.1758C177.307 34.1758 175.891 33.3652 175.402 32.0957C175.344 31.9492 175.324 31.8223 175.324 31.6953C175.324 31.2461 175.656 30.9922 176.096 30.9922C176.398 30.9922 176.643 31.1484 176.838 31.5C177.346 32.3887 177.951 32.7891 179.25 32.7891C180.549 32.7891 181.428 32.2227 181.428 31.2754C181.428 30.543 181.008 30.1523 179.865 29.8691L178.312 29.4785C176.35 28.9902 175.402 28.0625 175.402 26.6367C175.402 24.8691 176.955 23.668 179.25 23.668C180.92 23.668 182.404 24.6055 182.668 25.8262C182.688 25.9238 182.697 26.002 182.697 26.0801C182.697 26.4805 182.443 26.7441 182.033 26.7441C181.701 26.7441 181.467 26.6367 181.281 26.2852C180.842 25.4355 180.188 25.0645 179.152 25.0645C177.932 25.0645 177.082 25.6797 177.082 26.5488C177.082 27.252 177.629 27.7402 178.742 28.0137L180.256 28.3848C182.375 28.9023 183.156 29.6445 183.156 31.1387C183.156 32.9551 181.525 34.1758 179.113 34.1758ZM187.863 34.1758C185.842 34.1758 184.484 32.9551 184.484 31.1289C184.484 29.3906 185.822 28.2969 188.166 28.1602L191.086 27.9941V27.1445C191.086 25.9043 190.266 25.1621 188.859 25.1621C187.756 25.1621 187.004 25.5625 186.438 26.5684C186.281 26.8516 186.057 26.9785 185.734 26.9785C185.295 26.9785 184.982 26.6758 184.982 26.2168C184.982 26.002 185.051 25.7578 185.188 25.5137C185.764 24.4004 187.248 23.668 188.898 23.668C191.281 23.668 192.785 24.957 192.785 26.9785V33.3164C192.785 33.8242 192.453 34.1758 191.984 34.1758C191.506 34.1758 191.174 33.8242 191.174 33.3164V32.252H191.135C190.529 33.4141 189.23 34.1758 187.863 34.1758ZM188.244 32.7305C189.846 32.7305 191.086 31.6074 191.086 30.1426V29.3125L188.361 29.4785C186.994 29.5664 186.213 30.1719 186.213 31.1289C186.213 32.0957 187.023 32.7305 188.244 32.7305ZM195.793 34.1758C195.295 34.1758 194.943 33.8047 194.943 33.2676V24.5273C194.943 24.0195 195.275 23.668 195.744 23.668C196.213 23.668 196.545 24.0195 196.545 24.5273V25.5039H196.584C196.877 24.4492 197.873 23.668 198.889 23.668C199.26 23.668 199.523 23.7559 199.689 23.9121C199.836 24.0488 199.904 24.2441 199.904 24.4785C199.904 24.7422 199.816 24.9375 199.641 25.0742C199.465 25.2207 199.201 25.2891 198.83 25.2891C197.297 25.2891 196.643 26.3926 196.643 27.6914V33.2676C196.643 33.8047 196.291 34.1758 195.793 34.1758ZM209.426 34.1758C206.613 34.1758 204.719 32.1543 204.719 28.9219C204.719 25.6797 206.613 23.668 209.426 23.668C212.229 23.668 214.123 25.6797 214.123 28.9219C214.123 32.1543 212.229 34.1758 209.426 34.1758ZM209.426 32.6816C211.223 32.6816 212.395 31.3145 212.395 28.9219C212.395 26.5293 211.223 25.1621 209.426 25.1621C207.629 25.1621 206.447 26.5293 206.447 28.9219C206.447 31.3145 207.629 32.6816 209.426 32.6816ZM220.793 34.1758C220.275 34.1758 219.943 33.7852 219.943 33.2676V24.5273C219.943 24.0195 220.275 23.668 220.744 23.668C221.213 23.668 221.545 24.0195 221.545 24.5273V25.4648H221.584C222.062 24.3906 223.098 23.668 224.465 23.668C225.852 23.668 226.877 24.3711 227.316 25.6016H227.355C227.922 24.3906 229.113 23.668 230.539 23.668C232.551 23.668 233.85 24.9766 233.85 26.9883V33.2676C233.85 33.7852 233.518 34.1758 233 34.1758C232.482 34.1758 232.15 33.7852 232.15 33.2676V27.3789C232.15 25.9922 231.379 25.1719 230.041 25.1719C228.693 25.1719 227.746 26.168 227.746 27.5449V33.2676C227.746 33.7852 227.414 34.1758 226.896 34.1758C226.379 34.1758 226.047 33.7852 226.047 33.2676V27.1934C226.047 25.9727 225.227 25.1719 223.967 25.1719C222.619 25.1719 221.643 26.2266 221.643 27.6328V33.2676C221.643 33.7852 221.311 34.1758 220.793 34.1758ZM240.275 34.1758C237.277 34.1758 235.52 32.2422 235.52 28.9609C235.52 25.7578 237.326 23.668 240.129 23.668C242.727 23.668 244.553 25.6113 244.553 28.3945C244.553 29.0098 244.201 29.3809 243.615 29.3809H237.268C237.268 31.4316 238.391 32.7012 240.207 32.7012C241.418 32.7012 242.16 32.2715 242.951 31.1191C243.127 30.875 243.322 30.7773 243.586 30.7773C244.035 30.7773 244.338 31.0703 244.338 31.5195C244.338 31.6562 244.289 31.832 244.211 32.0176C243.557 33.3945 242.131 34.1758 240.275 34.1758ZM237.277 28.0527H242.795C242.756 26.2949 241.672 25.1426 240.1 25.1426C238.518 25.1426 237.385 26.3047 237.277 28.0527ZM249.738 34.1758C247.521 34.1758 246.223 32.7402 246.223 30.4355V24.5762C246.223 24.0391 246.574 23.668 247.072 23.668C247.57 23.668 247.922 24.0391 247.922 24.5762V30.1328C247.922 31.7832 248.693 32.6719 250.266 32.6719C251.916 32.6719 252.912 31.5391 252.912 29.8105V24.5762C252.912 24.0391 253.264 23.668 253.762 23.668C254.26 23.668 254.611 24.0391 254.611 24.5762V33.3164C254.611 33.8047 254.299 34.1758 253.811 34.1758C253.322 34.1758 253 33.8047 253 33.3164V32.3496H252.961C252.355 33.5215 251.301 34.1758 249.738 34.1758ZM110.598 58C109.67 58 109.123 57.4336 109.123 56.457V45.4414C109.123 44.4746 109.67 43.9082 110.598 43.9082H115.256C117.902 43.9082 119.562 45.2656 119.562 47.4238C119.562 48.9668 118.41 50.2559 116.916 50.4805V50.5586C118.83 50.7051 120.236 52.1016 120.236 53.9668C120.236 56.4473 118.371 58 115.363 58H110.598ZM112.072 49.7676H114.191C115.764 49.7676 116.662 49.0742 116.662 47.8828C116.662 46.75 115.871 46.1055 114.494 46.1055H112.072V49.7676ZM112.072 55.8027H114.611C116.311 55.8027 117.229 55.0801 117.229 53.7324C117.229 52.4141 116.281 51.7109 114.543 51.7109H112.072V55.8027ZM126.486 58.2246C123.215 58.2246 121.291 56.2031 121.291 52.8145C121.291 49.4453 123.254 47.3066 126.35 47.3066C129.318 47.3066 131.311 49.3379 131.311 52.1797C131.311 52.9707 130.861 53.4199 130.07 53.4199H124.094V53.5469C124.094 55.0996 125.031 56.1152 126.477 56.1152C127.521 56.1152 128.205 55.7637 128.977 54.8555C129.279 54.543 129.533 54.4355 129.904 54.4355C130.52 54.4355 131.018 54.8262 131.018 55.4805C131.018 55.7051 130.949 55.9395 130.822 56.1738C130.129 57.4629 128.508 58.2246 126.486 58.2246ZM124.123 51.6719H128.566C128.508 50.3047 127.629 49.416 126.379 49.416C125.129 49.416 124.221 50.334 124.123 51.6719ZM134.279 58.2051C133.449 58.2051 132.854 57.6973 132.854 56.7207V45.1582C132.854 44.2402 133.381 43.6934 134.26 43.6934C135.139 43.6934 135.656 44.2402 135.656 45.1582V49.3965H135.715C136.271 48.0781 137.414 47.3359 139.006 47.3359C141.33 47.3359 142.658 48.8398 142.658 51.2617V56.7207C142.658 57.6973 142.072 58.2051 141.232 58.2051C140.402 58.2051 139.807 57.6973 139.807 56.7207V51.8672C139.807 50.5195 139.143 49.6992 137.844 49.6992C136.496 49.6992 135.705 50.6465 135.705 52.0234V56.7207C135.705 57.6973 135.119 58.2051 134.279 58.2051ZM147.58 58.166C145.588 58.166 144.074 56.877 144.074 54.9922C144.074 53.0879 145.539 51.9844 148.156 51.8281L150.793 51.6719V50.9785C150.793 50.002 150.109 49.4355 149.035 49.4355C148.166 49.4355 147.639 49.7188 147.004 50.5391C146.691 50.8906 146.33 51.0664 145.871 51.0664C145.178 51.0664 144.68 50.6172 144.68 49.9727C144.68 49.748 144.729 49.543 144.826 49.3281C145.314 48.0781 146.994 47.3066 149.162 47.3066C151.848 47.3066 153.596 48.6934 153.596 50.8027V56.7695C153.596 57.7168 153.02 58.2051 152.209 58.2051C151.438 58.2051 150.9 57.7754 150.842 56.9355V56.3984H150.783C150.197 57.5117 148.889 58.166 147.58 58.166ZM148.518 56.1055C149.768 56.1055 150.793 55.2949 150.793 54.1621V53.4004L148.586 53.5371C147.521 53.6152 146.916 54.0938 146.916 54.8359C146.916 55.6172 147.561 56.1055 148.518 56.1055ZM156.867 58.2051C156.037 58.2051 155.441 57.6973 155.441 56.7207V48.752C155.441 47.8633 155.959 47.3164 156.818 47.3164C157.678 47.3164 158.244 47.8633 158.244 48.7617V49.3477H158.303C158.859 48.0488 159.914 47.3359 161.525 47.3359C163.85 47.3359 165.158 48.8008 165.158 51.252V56.7207C165.158 57.6973 164.562 58.2051 163.732 58.2051C162.893 58.2051 162.307 57.6973 162.307 56.7207V51.8477C162.307 50.4805 161.662 49.6992 160.383 49.6992C159.104 49.6992 158.293 50.6367 158.293 51.9941V56.7207C158.293 57.6973 157.707 58.2051 156.867 58.2051ZM171.74 58.2246C168.586 58.2246 166.584 56.1543 166.584 52.7656C166.584 49.416 168.576 47.3066 171.721 47.3066C173.82 47.3066 175.568 48.3223 176.135 49.8066C176.232 50.0508 176.291 50.3047 176.291 50.5098C176.291 51.2129 175.744 51.623 175.07 51.623C174.504 51.623 174.162 51.3984 173.869 50.8809C173.352 49.9629 172.717 49.543 171.809 49.543C170.363 49.543 169.475 50.7344 169.475 52.7559C169.475 54.8164 170.363 55.9883 171.789 55.9883C172.785 55.9883 173.4 55.5 173.84 54.7578C174.221 54.1621 174.533 53.918 175.139 53.918C175.803 53.918 176.34 54.3574 176.34 55.0605C176.34 55.2852 176.281 55.5195 176.154 55.8027C175.529 57.2285 173.742 58.2246 171.74 58.2246ZM182.678 58.2246C179.406 58.2246 177.482 56.2031 177.482 52.8145C177.482 49.4453 179.445 47.3066 182.541 47.3066C185.51 47.3066 187.502 49.3379 187.502 52.1797C187.502 52.9707 187.053 53.4199 186.262 53.4199H180.285V53.5469C180.285 55.0996 181.223 56.1152 182.668 56.1152C183.713 56.1152 184.396 55.7637 185.168 54.8555C185.471 54.543 185.725 54.4355 186.096 54.4355C186.711 54.4355 187.209 54.8262 187.209 55.4805C187.209 55.7051 187.141 55.9395 187.014 56.1738C186.32 57.4629 184.699 58.2246 182.678 58.2246ZM180.314 51.6719H184.758C184.699 50.3047 183.82 49.416 182.57 49.416C181.32 49.416 180.412 50.334 180.314 51.6719Z" fill="#66B3FF"/>
</svg>
