<svg width="250" height="101" viewBox="0 0 250 101" fill="none" xmlns="http://www.w3.org/2000/svg">
<rect width="250" height="100.5" rx="12.5" fill="#317BFF" fill-opacity="0.2"/>
<path d="M44.0498 46.2498C43.2148 46.2498 42.7227 45.74 42.7227 44.8611V34.947C42.7227 34.0769 43.2148 33.5671 44.0498 33.5671H48.2422C50.624 33.5671 52.1182 34.7888 52.1182 36.7312C52.1182 38.1199 51.0811 39.28 49.7363 39.4822V39.5525C51.459 39.6843 52.7246 40.9412 52.7246 42.6199C52.7246 44.8523 51.0459 46.2498 48.3389 46.2498H44.0498ZM45.377 38.8406H47.2842C48.6992 38.8406 49.5078 38.2166 49.5078 37.1443C49.5078 36.1248 48.7959 35.5447 47.5566 35.5447H45.377V38.8406ZM45.377 44.2722H47.6621C49.1914 44.2722 50.0176 43.6218 50.0176 42.4089C50.0176 41.2224 49.165 40.5896 47.6006 40.5896H45.377V44.2722ZM58.3408 46.4519C55.4932 46.4519 53.6738 44.6238 53.6738 41.53C53.6738 38.4802 55.5195 36.6257 58.3408 36.6257C61.1621 36.6257 63.0078 38.4714 63.0078 41.53C63.0078 44.6326 61.1885 46.4519 58.3408 46.4519ZM58.3408 44.4919C59.5977 44.4919 60.3975 43.4285 60.3975 41.5388C60.3975 39.6667 59.5889 38.5857 58.3408 38.5857C57.0928 38.5857 56.2754 39.6667 56.2754 41.5388C56.2754 43.4285 57.0752 44.4919 58.3408 44.4919ZM65.0205 43.8416V38.7615H64.5283C63.9219 38.7615 63.5352 38.3923 63.5352 37.7947C63.5352 37.197 63.9219 36.8279 64.5283 36.8279H65.0205V35.782C65.0205 34.9558 65.5039 34.446 66.3037 34.446C67.1035 34.446 67.5869 34.9558 67.5869 35.782V36.8279H68.4922C69.0986 36.8279 69.4766 37.2058 69.4766 37.7947C69.4766 38.3835 69.0986 38.7615 68.4922 38.7615H67.5869V43.2703C67.5869 43.9382 67.8154 44.2195 68.3691 44.2634L68.5361 44.281C69.1689 44.3513 69.5117 44.615 69.5117 45.2126C69.5117 45.9685 68.7734 46.3552 67.6924 46.3552H67.6045C65.8906 46.3552 65.0205 45.5027 65.0205 43.8416ZM72.4824 35.6414C72.0781 35.6414 71.8057 35.3601 71.8057 34.9382C71.8057 33.8044 72.6318 33.0134 73.6953 33.0134C74.9434 33.0134 75.374 34.2 76.0244 34.2C76.3057 34.2 76.4814 34.0242 76.5781 33.5496C76.6748 33.1365 76.8682 32.9167 77.2725 32.9167C77.6768 32.9167 77.958 33.198 77.958 33.6111C77.958 34.7273 77.123 35.5447 76.0859 35.5447C74.8643 35.5447 74.416 34.3494 73.7568 34.3494C73.458 34.3494 73.2734 34.5251 73.1768 35.0261C73.0889 35.4128 72.8867 35.6414 72.4824 35.6414ZM73.4668 46.3992C71.6738 46.3992 70.3115 45.239 70.3115 43.5427C70.3115 41.8289 71.6299 40.8357 73.9854 40.6951L76.3584 40.5544V39.9304C76.3584 39.0515 75.7432 38.5417 74.7764 38.5417C73.9941 38.5417 73.5195 38.7966 72.9482 39.5349C72.667 39.8513 72.3418 40.0095 71.9287 40.0095C71.3047 40.0095 70.8564 39.6052 70.8564 39.0251C70.8564 38.823 70.9004 38.6384 70.9883 38.4451C71.4277 37.3201 72.9395 36.6257 74.8906 36.6257C77.3076 36.6257 78.8809 37.8738 78.8809 39.7722V45.1423C78.8809 45.9949 78.3623 46.4343 77.6328 46.4343C76.9385 46.4343 76.4551 46.0476 76.4023 45.2917V44.8083H76.3496C75.8223 45.8103 74.6445 46.3992 73.4668 46.3992ZM74.3105 44.5447C75.4355 44.5447 76.3584 43.8152 76.3584 42.7957V42.1101L74.3721 42.2332C73.4141 42.3035 72.8691 42.7341 72.8691 43.4021C72.8691 44.1052 73.4492 44.5447 74.3105 44.5447ZM84.8662 46.4519C82.0186 46.4519 80.1992 44.6238 80.1992 41.53C80.1992 38.4802 82.0449 36.6257 84.8662 36.6257C87.6875 36.6257 89.5332 38.4714 89.5332 41.53C89.5332 44.6326 87.7139 46.4519 84.8662 46.4519ZM84.8662 44.4919C86.123 44.4919 86.9229 43.4285 86.9229 41.5388C86.9229 39.6667 86.1143 38.5857 84.8662 38.5857C83.6182 38.5857 82.8008 39.6667 82.8008 41.5388C82.8008 43.4285 83.6006 44.4919 84.8662 44.4919ZM95.7119 49.6072C94.9648 49.6072 94.4287 49.1501 94.4287 48.2712V37.9529C94.4287 37.0916 94.9561 36.6345 95.6943 36.6345C96.4326 36.6345 96.96 37.0916 96.96 37.9617V38.4714H97.0127C97.5225 37.364 98.5684 36.6785 99.9307 36.6785C102.321 36.6785 103.789 38.4978 103.789 41.5388C103.789 44.571 102.33 46.3992 99.9746 46.3992C98.6035 46.3992 97.5488 45.7312 97.0479 44.6677H96.9951V48.2712C96.9951 49.1501 96.4678 49.6072 95.7119 49.6072ZM99.0693 44.3337C100.353 44.3337 101.161 43.2527 101.161 41.5388C101.161 39.8337 100.353 38.7351 99.0693 38.7351C97.8125 38.7351 96.9863 39.8513 96.9863 41.5388C96.9863 43.2439 97.8125 44.3337 99.0693 44.3337ZM107.902 46.3992C106.109 46.3992 104.747 45.239 104.747 43.5427C104.747 41.8289 106.065 40.8357 108.421 40.6951L110.794 40.5544V39.9304C110.794 39.0515 110.179 38.5417 109.212 38.5417C108.43 38.5417 107.955 38.7966 107.384 39.5349C107.103 39.8513 106.777 40.0095 106.364 40.0095C105.74 40.0095 105.292 39.6052 105.292 39.0251C105.292 38.823 105.336 38.6384 105.424 38.4451C105.863 37.3201 107.375 36.6257 109.326 36.6257C111.743 36.6257 113.316 37.8738 113.316 39.7722V45.1423C113.316 45.9949 112.798 46.4343 112.068 46.4343C111.374 46.4343 110.891 46.0476 110.838 45.2917V44.8083H110.785C110.258 45.8103 109.08 46.3992 107.902 46.3992ZM108.746 44.5447C109.871 44.5447 110.794 43.8152 110.794 42.7957V42.1101L108.808 42.2332C107.85 42.3035 107.305 42.7341 107.305 43.4021C107.305 44.1052 107.885 44.5447 108.746 44.5447ZM116.261 46.4343C115.487 46.4343 114.978 45.9509 114.978 45.0984V37.9265C114.978 37.1091 115.479 36.6345 116.217 36.6345C116.938 36.6345 117.43 37.1091 117.43 37.9265V38.5417H117.482C117.729 37.3728 118.502 36.6785 119.442 36.6785C119.785 36.6785 120.058 36.7576 120.242 36.9158C120.488 37.1091 120.611 37.4255 120.611 37.865C120.611 38.2693 120.488 38.5769 120.242 38.7878C119.996 38.9988 119.627 39.113 119.126 39.1218C117.957 39.1394 117.544 39.7986 117.544 40.9148V45.0984C117.544 45.9509 117.043 46.4343 116.261 46.4343ZM124.092 46.3992C122.299 46.3992 120.937 45.239 120.937 43.5427C120.937 41.8289 122.255 40.8357 124.61 40.6951L126.983 40.5544V39.9304C126.983 39.0515 126.368 38.5417 125.401 38.5417C124.619 38.5417 124.145 38.7966 123.573 39.5349C123.292 39.8513 122.967 40.0095 122.554 40.0095C121.93 40.0095 121.481 39.6052 121.481 39.0251C121.481 38.823 121.525 38.6384 121.613 38.4451C122.053 37.3201 123.564 36.6257 125.516 36.6257C127.933 36.6257 129.506 37.8738 129.506 39.7722V45.1423C129.506 45.9949 128.987 46.4343 128.258 46.4343C127.563 46.4343 127.08 46.0476 127.027 45.2917V44.8083H126.975C126.447 45.8103 125.27 46.3992 124.092 46.3992ZM124.936 44.5447C126.061 44.5447 126.983 43.8152 126.983 42.7957V42.1101L124.997 42.2332C124.039 42.3035 123.494 42.7341 123.494 43.4021C123.494 44.1052 124.074 44.5447 124.936 44.5447ZM30.6113 67.3992C28.8184 67.3992 27.4561 66.239 27.4561 64.5427C27.4561 62.8289 28.7744 61.8357 31.1299 61.6951L33.5029 61.5544V60.9304C33.5029 60.0515 32.8877 59.5417 31.9209 59.5417C31.1387 59.5417 30.6641 59.7966 30.0928 60.5349C29.8115 60.8513 29.4863 61.0095 29.0732 61.0095C28.4492 61.0095 28.001 60.6052 28.001 60.0251C28.001 59.823 28.0449 59.6384 28.1328 59.4451C28.5723 58.3201 30.084 57.6257 32.0352 57.6257C34.4521 57.6257 36.0254 58.8738 36.0254 60.7722V66.1423C36.0254 66.9949 35.5068 67.4343 34.7773 67.4343C34.083 67.4343 33.5996 67.0476 33.5469 66.2917V65.8083H33.4941C32.9668 66.8103 31.7891 67.3992 30.6113 67.3992ZM31.4551 65.5447C32.5801 65.5447 33.5029 64.8152 33.5029 63.7957V63.1101L31.5166 63.2332C30.5586 63.3035 30.0137 63.7341 30.0137 64.4021C30.0137 65.1052 30.5938 65.5447 31.4551 65.5447ZM41.9844 67.4519C39.1455 67.4519 37.3438 65.5886 37.3438 62.5388C37.3438 59.5242 39.1367 57.6257 41.9668 57.6257C43.8564 57.6257 45.4297 58.5398 45.9395 59.8757C46.0273 60.0955 46.0801 60.324 46.0801 60.5085C46.0801 61.1414 45.5879 61.5105 44.9814 61.5105C44.4717 61.5105 44.1641 61.3083 43.9004 60.8425C43.4346 60.0164 42.8633 59.6384 42.0459 59.6384C40.7451 59.6384 39.9453 60.7107 39.9453 62.53C39.9453 64.3845 40.7451 65.4392 42.0283 65.4392C42.9248 65.4392 43.4785 64.9998 43.874 64.3318C44.2168 63.7957 44.498 63.5759 45.043 63.5759C45.6406 63.5759 46.124 63.9714 46.124 64.6042C46.124 64.8064 46.0713 65.0173 45.957 65.2722C45.3945 66.5554 43.7861 67.4519 41.9844 67.4519ZM51.8281 67.4519C48.8838 67.4519 47.1523 65.6326 47.1523 62.5828C47.1523 59.5505 48.9189 57.6257 51.7051 57.6257C54.377 57.6257 56.1699 59.4539 56.1699 62.0115C56.1699 62.7234 55.7656 63.1277 55.0537 63.1277H49.6748V63.2419C49.6748 64.6394 50.5186 65.5535 51.8193 65.5535C52.7598 65.5535 53.375 65.2371 54.0693 64.4197C54.3418 64.1384 54.5703 64.0417 54.9043 64.0417C55.458 64.0417 55.9062 64.3933 55.9062 64.9822C55.9062 65.1843 55.8447 65.3953 55.7305 65.6062C55.1064 66.7664 53.6475 67.4519 51.8281 67.4519ZM49.7012 61.5544H53.7002C53.6475 60.324 52.8564 59.5242 51.7314 59.5242C50.6064 59.5242 49.7891 60.3503 49.7012 61.5544ZM61.3379 67.4519C59.1758 67.4519 57.7344 66.6785 57.2861 65.571C57.2246 65.4041 57.1895 65.2371 57.1895 65.0964C57.1895 64.5076 57.6289 64.1121 58.2266 64.1121C58.6396 64.1121 58.9912 64.2966 59.3428 64.6921C59.8438 65.3513 60.4238 65.6501 61.3994 65.6501C62.3311 65.6501 62.9375 65.2634 62.9375 64.6394C62.9375 64.1296 62.6123 63.8572 61.6895 63.655L60.1074 63.321C58.2617 62.9255 57.3301 61.9851 57.3301 60.5876C57.3301 58.7859 58.8857 57.6257 61.3291 57.6257C63.2803 57.6257 64.7129 58.5134 65.0205 59.5769C65.0557 59.7087 65.082 59.8318 65.082 59.9548C65.082 60.4734 64.7568 60.8337 64.0977 60.8337C63.7637 60.8337 63.3945 60.7107 63.166 60.4382C62.7178 59.8669 62.208 59.4275 61.2852 59.4275C60.415 59.4275 59.8086 59.8406 59.8086 60.447C59.8086 60.9392 60.1777 61.2644 61.1182 61.4666L62.6738 61.8005C64.6777 62.2224 65.5039 62.9607 65.5039 64.3669C65.5039 66.239 63.8252 67.4519 61.3379 67.4519ZM70.6191 67.4519C68.457 67.4519 67.0156 66.6785 66.5674 65.571C66.5059 65.4041 66.4707 65.2371 66.4707 65.0964C66.4707 64.5076 66.9102 64.1121 67.5078 64.1121C67.9209 64.1121 68.2725 64.2966 68.624 64.6921C69.125 65.3513 69.7051 65.6501 70.6807 65.6501C71.6123 65.6501 72.2188 65.2634 72.2188 64.6394C72.2188 64.1296 71.8936 63.8572 70.9707 63.655L69.3887 63.321C67.543 62.9255 66.6113 61.9851 66.6113 60.5876C66.6113 58.7859 68.167 57.6257 70.6104 57.6257C72.5615 57.6257 73.9941 58.5134 74.3018 59.5769C74.3369 59.7087 74.3633 59.8318 74.3633 59.9548C74.3633 60.4734 74.0381 60.8337 73.3789 60.8337C73.0449 60.8337 72.6758 60.7107 72.4473 60.4382C71.999 59.8669 71.4893 59.4275 70.5664 59.4275C69.6963 59.4275 69.0898 59.8406 69.0898 60.447C69.0898 60.9392 69.459 61.2644 70.3994 61.4666L71.9551 61.8005C73.959 62.2224 74.7852 62.9607 74.7852 64.3669C74.7852 66.239 73.1064 67.4519 70.6191 67.4519ZM78.8457 67.3992C77.0527 67.3992 75.6904 66.239 75.6904 64.5427C75.6904 62.8289 77.0088 61.8357 79.3643 61.6951L81.7373 61.5544V60.9304C81.7373 60.0515 81.1221 59.5417 80.1553 59.5417C79.373 59.5417 78.8984 59.7966 78.3271 60.5349C78.0459 60.8513 77.7207 61.0095 77.3076 61.0095C76.6836 61.0095 76.2354 60.6052 76.2354 60.0251C76.2354 59.823 76.2793 59.6384 76.3672 59.4451C76.8066 58.3201 78.3184 57.6257 80.2695 57.6257C82.6865 57.6257 84.2598 58.8738 84.2598 60.7722V66.1423C84.2598 66.9949 83.7412 67.4343 83.0117 67.4343C82.3174 67.4343 81.834 67.0476 81.7812 66.2917V65.8083H81.7285C81.2012 66.8103 80.0234 67.3992 78.8457 67.3992ZM79.6895 65.5447C80.8145 65.5447 81.7373 64.8152 81.7373 63.7957V63.1101L79.751 63.2332C78.793 63.3035 78.248 63.7341 78.248 64.4021C78.248 65.1052 78.8281 65.5447 79.6895 65.5447ZM87.2041 67.4343C86.4307 67.4343 85.9209 66.9509 85.9209 66.0984V58.9265C85.9209 58.1091 86.4219 57.6345 87.1602 57.6345C87.8809 57.6345 88.373 58.1091 88.373 58.9265V59.5417H88.4258C88.6719 58.3728 89.4453 57.6785 90.3857 57.6785C90.7285 57.6785 91.001 57.7576 91.1855 57.9158C91.4316 58.1091 91.5547 58.4255 91.5547 58.865C91.5547 59.2693 91.4316 59.5769 91.1855 59.7878C90.9395 59.9988 90.5703 60.113 90.0693 60.1218C88.9004 60.1394 88.4873 60.7986 88.4873 61.9148V66.0984C88.4873 66.9509 87.9863 67.4343 87.2041 67.4343ZM100.37 67.4519C97.5225 67.4519 95.7031 65.6238 95.7031 62.53C95.7031 59.4802 97.5488 57.6257 100.37 57.6257C103.191 57.6257 105.037 59.4714 105.037 62.53C105.037 65.6326 103.218 67.4519 100.37 67.4519ZM100.37 65.4919C101.627 65.4919 102.427 64.4285 102.427 62.5388C102.427 60.6667 101.618 59.5857 100.37 59.5857C99.1221 59.5857 98.3047 60.6667 98.3047 62.5388C98.3047 64.4285 99.1045 65.4919 100.37 65.4919ZM111.216 67.4343C110.451 67.4343 109.933 66.9685 109.933 66.0984V58.9441C109.933 58.0828 110.442 57.6345 111.172 57.6345C111.901 57.6345 112.411 58.0828 112.411 58.9441V59.533H112.464C112.859 58.3992 113.87 57.6521 115.153 57.6521C116.516 57.6521 117.465 58.3552 117.781 59.5857H117.834C118.256 58.3992 119.381 57.6521 120.761 57.6521C122.606 57.6521 123.846 58.9177 123.846 60.8162V66.0984C123.846 66.9685 123.318 67.4343 122.554 67.4343C121.798 67.4343 121.279 66.9685 121.279 66.0984V61.4578C121.279 60.3679 120.734 59.7703 119.741 59.7703C118.766 59.7703 118.124 60.4822 118.124 61.5281V66.0984C118.124 66.9685 117.649 67.4343 116.885 67.4343C116.129 67.4343 115.654 66.9685 115.654 66.0984V61.3787C115.654 60.3679 115.083 59.7703 114.134 59.7703C113.158 59.7703 112.499 60.5085 112.499 61.5632V66.0984C112.499 66.9685 111.972 67.4343 111.216 67.4343ZM129.805 67.4519C126.86 67.4519 125.129 65.6326 125.129 62.5828C125.129 59.5505 126.896 57.6257 129.682 57.6257C132.354 57.6257 134.146 59.4539 134.146 62.0115C134.146 62.7234 133.742 63.1277 133.03 63.1277H127.651V63.2419C127.651 64.6394 128.495 65.5535 129.796 65.5535C130.736 65.5535 131.352 65.2371 132.046 64.4197C132.318 64.1384 132.547 64.0417 132.881 64.0417C133.435 64.0417 133.883 64.3933 133.883 64.9822C133.883 65.1843 133.821 65.3953 133.707 65.6062C133.083 66.7664 131.624 67.4519 129.805 67.4519ZM127.678 61.5544H131.677C131.624 60.324 130.833 59.5242 129.708 59.5242C128.583 59.5242 127.766 60.3503 127.678 61.5544ZM138.822 67.4255C136.783 67.4255 135.43 66.0984 135.43 63.9011V58.9792C135.43 58.1003 135.966 57.6345 136.713 57.6345C137.469 57.6345 137.996 58.1003 137.996 58.9792V63.365C137.996 64.6218 138.62 65.2898 139.754 65.2898C140.896 65.2898 141.608 64.4724 141.608 63.2244V58.9792C141.608 58.1003 142.145 57.6345 142.892 57.6345C143.647 57.6345 144.175 58.1003 144.175 58.9792V66.1335C144.175 66.9861 143.674 67.4343 142.936 67.4343C142.197 67.4343 141.696 66.9861 141.696 66.1335V65.5535H141.644C141.178 66.74 140.246 67.4255 138.822 67.4255Z" fill="#317BFF"/>
<path d="M218.499 24.9999H201V20H218.499V24.9999ZM222.814 49.9996C221.709 53.2421 217.742 57.4995 210.062 57.4995C202.377 57.4995 196.152 53.1771 196.152 43.3122C196.152 33.5373 201.965 28.5124 209.817 28.5124C217.522 28.5124 222.227 32.9673 223.254 39.5773C223.449 40.8422 223.527 42.5472 223.492 44.9272H203.424C203.749 52.9546 212.132 53.2071 214.894 49.9996H222.814ZM203.599 39.9997H216.012C215.749 36.1323 213.172 34.4523 209.819 34.4523C206.154 34.4523 204.127 36.3723 203.599 39.9997ZM179.665 57.4695H163.5V20.0525H180.882C194.572 20.255 194.832 33.6623 187.682 37.3173C196.335 40.4672 196.625 57.4695 179.665 57.4695ZM171 34.9998H179.96C186.23 34.9998 187.225 27.4999 179.18 27.4999H171V34.9998ZM179.477 42.4997H171V50.0396H179.352C186.99 50.0396 186.522 42.4997 179.477 42.4997Z" fill="#317BFF"/>
<path d="M159.838 80.4995C159.003 80.4995 158.511 79.9897 158.511 79.1108V69.1968C158.511 68.3267 159.003 67.8169 159.838 67.8169H164.03C166.412 67.8169 167.906 69.0386 167.906 70.981C167.906 72.3696 166.869 73.5298 165.524 73.7319V73.8022C167.247 73.9341 168.513 75.1909 168.513 76.8696C168.513 79.1021 166.834 80.4995 164.127 80.4995H159.838ZM161.165 73.0903H163.072C164.487 73.0903 165.296 72.4663 165.296 71.394C165.296 70.3745 164.584 69.7944 163.345 69.7944H161.165V73.0903ZM161.165 78.522H163.45C164.979 78.522 165.806 77.8716 165.806 76.6587C165.806 75.4722 164.953 74.8394 163.389 74.8394H161.165V78.522ZM174.138 80.7017C171.193 80.7017 169.462 78.8823 169.462 75.8325C169.462 72.8003 171.229 70.8755 174.015 70.8755C176.687 70.8755 178.479 72.7036 178.479 75.2612C178.479 75.9731 178.075 76.3774 177.363 76.3774H171.984V76.4917C171.984 77.8892 172.828 78.8032 174.129 78.8032C175.069 78.8032 175.685 78.4868 176.379 77.6694C176.651 77.3882 176.88 77.2915 177.214 77.2915C177.768 77.2915 178.216 77.6431 178.216 78.2319C178.216 78.4341 178.154 78.645 178.04 78.856C177.416 80.0161 175.957 80.7017 174.138 80.7017ZM172.011 74.8042H176.01C175.957 73.5737 175.166 72.7739 174.041 72.7739C172.916 72.7739 172.099 73.6001 172.011 74.8042ZM181.151 80.6841C180.404 80.6841 179.868 80.2271 179.868 79.3481V68.9419C179.868 68.1157 180.343 67.6235 181.134 67.6235C181.925 67.6235 182.391 68.1157 182.391 68.9419V72.7563H182.443C182.944 71.5698 183.973 70.9019 185.405 70.9019C187.497 70.9019 188.692 72.2554 188.692 74.4351V79.3481C188.692 80.2271 188.165 80.6841 187.409 80.6841C186.662 80.6841 186.126 80.2271 186.126 79.3481V74.98C186.126 73.7671 185.528 73.0288 184.359 73.0288C183.146 73.0288 182.435 73.8813 182.435 75.1206V79.3481C182.435 80.2271 181.907 80.6841 181.151 80.6841ZM193.122 80.6489C191.329 80.6489 189.967 79.4888 189.967 77.7925C189.967 76.0786 191.285 75.0854 193.641 74.9448L196.014 74.8042V74.1802C196.014 73.3013 195.398 72.7915 194.432 72.7915C193.649 72.7915 193.175 73.0464 192.604 73.7847C192.322 74.1011 191.997 74.2593 191.584 74.2593C190.96 74.2593 190.512 73.855 190.512 73.2749C190.512 73.0728 190.556 72.8882 190.644 72.6948C191.083 71.5698 192.595 70.8755 194.546 70.8755C196.963 70.8755 198.536 72.1235 198.536 74.022V79.3921C198.536 80.2446 198.018 80.6841 197.288 80.6841C196.594 80.6841 196.11 80.2974 196.058 79.5415V79.0581H196.005C195.478 80.0601 194.3 80.6489 193.122 80.6489ZM193.966 78.7944C195.091 78.7944 196.014 78.0649 196.014 77.0454V76.3599L194.027 76.4829C193.069 76.5532 192.524 76.9839 192.524 77.6519C192.524 78.355 193.104 78.7944 193.966 78.7944ZM201.48 80.6841C200.733 80.6841 200.197 80.2271 200.197 79.3481V72.1763C200.197 71.3765 200.663 70.8843 201.437 70.8843C202.21 70.8843 202.72 71.3765 202.72 72.1851V72.7124H202.772C203.273 71.5435 204.223 70.9019 205.673 70.9019C207.765 70.9019 208.942 72.2202 208.942 74.4263V79.3481C208.942 80.2271 208.406 80.6841 207.659 80.6841C206.903 80.6841 206.376 80.2271 206.376 79.3481V74.9624C206.376 73.7319 205.796 73.0288 204.645 73.0288C203.493 73.0288 202.764 73.8726 202.764 75.0942V79.3481C202.764 80.2271 202.236 80.6841 201.48 80.6841ZM214.866 80.7017C212.027 80.7017 210.226 78.8384 210.226 75.7886C210.226 72.7739 212.019 70.8755 214.849 70.8755C216.738 70.8755 218.312 71.7896 218.821 73.1255C218.909 73.3452 218.962 73.5737 218.962 73.7583C218.962 74.3911 218.47 74.7603 217.863 74.7603C217.354 74.7603 217.046 74.5581 216.782 74.0923C216.316 73.2661 215.745 72.8882 214.928 72.8882C213.627 72.8882 212.827 73.9604 212.827 75.7798C212.827 77.6343 213.627 78.689 214.91 78.689C215.807 78.689 216.36 78.2495 216.756 77.5815C217.099 77.0454 217.38 76.8257 217.925 76.8257C218.522 76.8257 219.006 77.2212 219.006 77.854C219.006 78.0562 218.953 78.2671 218.839 78.522C218.276 79.8052 216.668 80.7017 214.866 80.7017ZM224.71 80.7017C221.766 80.7017 220.034 78.8823 220.034 75.8325C220.034 72.8003 221.801 70.8755 224.587 70.8755C227.259 70.8755 229.052 72.7036 229.052 75.2612C229.052 75.9731 228.647 76.3774 227.936 76.3774H222.557V76.4917C222.557 77.8892 223.4 78.8032 224.701 78.8032C225.642 78.8032 226.257 78.4868 226.951 77.6694C227.224 77.3882 227.452 77.2915 227.786 77.2915C228.34 77.2915 228.788 77.6431 228.788 78.2319C228.788 78.4341 228.727 78.645 228.612 78.856C227.988 80.0161 226.529 80.7017 224.71 80.7017ZM222.583 74.8042H226.582C226.529 73.5737 225.738 72.7739 224.613 72.7739C223.488 72.7739 222.671 73.6001 222.583 74.8042Z" fill="#317BFF"/>
</svg>
