<svg width="100" height="100" viewBox="0 0 100 100" fill="none" xmlns="http://www.w3.org/2000/svg">
<rect width="100" height="100" rx="12.5" fill="#317BFF" fill-opacity="0.2"/>
<path d="M74.9994 24.7502H57.4996V19.7502H74.9994V24.7502ZM79.3144 49.7499C78.2094 52.9923 74.2419 57.2498 66.562 57.2498C58.8771 57.2498 52.6522 52.9273 52.6522 43.0624C52.6522 33.2876 58.4646 28.2626 66.317 28.2626C74.0219 28.2626 78.7269 32.7176 79.7544 39.3275C79.9494 40.5925 80.0268 42.2975 79.9918 44.6774H59.9246C60.2496 52.7048 68.632 52.9573 71.3945 49.7499H79.3144ZM60.0996 39.75H72.5119C72.2494 35.8825 69.672 34.2026 66.3195 34.2026C62.6546 34.2026 60.6271 36.1225 60.0996 39.75ZM36.1649 57.2198H20.0001V19.8027H37.3824C51.0722 20.0052 51.3322 33.4126 44.1823 37.0675C52.8347 40.2175 53.1247 57.2198 36.1649 57.2198ZM27.5 34.7501H36.4599C42.7298 34.7501 43.7248 27.2501 35.6799 27.2501H27.5V34.7501ZM35.9774 42.25H27.5V49.7899H35.8524C43.4898 49.7899 43.0223 42.25 35.9774 42.25Z" fill="#317BFF"/>
<path d="M16.3379 80.2498C15.5029 80.2498 15.0107 79.74 15.0107 78.8611V68.947C15.0107 68.0769 15.5029 67.5671 16.3379 67.5671H20.5303C22.9121 67.5671 24.4062 68.7888 24.4062 70.7312C24.4062 72.1199 23.3691 73.28 22.0244 73.4822V73.5525C23.7471 73.6843 25.0127 74.9412 25.0127 76.6199C25.0127 78.8523 23.334 80.2498 20.627 80.2498H16.3379ZM17.665 72.8406H19.5723C20.9873 72.8406 21.7959 72.2166 21.7959 71.1443C21.7959 70.1248 21.084 69.5447 19.8447 69.5447H17.665V72.8406ZM17.665 78.2722H19.9502C21.4795 78.2722 22.3057 77.6218 22.3057 76.4089C22.3057 75.2224 21.4531 74.5896 19.8887 74.5896H17.665V78.2722ZM30.6377 80.4519C27.6934 80.4519 25.9619 78.6326 25.9619 75.5828C25.9619 72.5505 27.7285 70.6257 30.5146 70.6257C33.1865 70.6257 34.9795 72.4539 34.9795 75.0115C34.9795 75.7234 34.5752 76.1277 33.8633 76.1277H28.4844V76.2419C28.4844 77.6394 29.3281 78.5535 30.6289 78.5535C31.5693 78.5535 32.1846 78.2371 32.8789 77.4197C33.1514 77.1384 33.3799 77.0417 33.7139 77.0417C34.2676 77.0417 34.7158 77.3933 34.7158 77.9822C34.7158 78.1843 34.6543 78.3953 34.54 78.6062C33.916 79.7664 32.457 80.4519 30.6377 80.4519ZM28.5107 74.5544H32.5098C32.457 73.324 31.666 72.5242 30.541 72.5242C29.416 72.5242 28.5986 73.3503 28.5107 74.5544ZM37.6514 80.4343C36.9043 80.4343 36.3682 79.9773 36.3682 79.0984V68.6921C36.3682 67.866 36.8428 67.3738 37.6338 67.3738C38.4248 67.3738 38.8906 67.866 38.8906 68.6921V72.5066H38.9434C39.4443 71.3201 40.4727 70.6521 41.9053 70.6521C43.9971 70.6521 45.1924 72.0056 45.1924 74.1853V79.0984C45.1924 79.9773 44.665 80.4343 43.9092 80.4343C43.1621 80.4343 42.626 79.9773 42.626 79.0984V74.7302C42.626 73.5173 42.0283 72.7791 40.8594 72.7791C39.6465 72.7791 38.9346 73.6316 38.9346 74.8708V79.0984C38.9346 79.9773 38.4072 80.4343 37.6514 80.4343ZM49.6221 80.3992C47.8291 80.3992 46.4668 79.239 46.4668 77.5427C46.4668 75.8289 47.7852 74.8357 50.1406 74.6951L52.5137 74.5544V73.9304C52.5137 73.0515 51.8984 72.5417 50.9316 72.5417C50.1494 72.5417 49.6748 72.7966 49.1035 73.5349C48.8223 73.8513 48.4971 74.0095 48.084 74.0095C47.46 74.0095 47.0117 73.6052 47.0117 73.0251C47.0117 72.823 47.0557 72.6384 47.1436 72.4451C47.583 71.3201 49.0947 70.6257 51.0459 70.6257C53.4629 70.6257 55.0361 71.8738 55.0361 73.7722V79.1423C55.0361 79.9949 54.5176 80.4343 53.7881 80.4343C53.0938 80.4343 52.6104 80.0476 52.5576 79.2917V78.8083H52.5049C51.9775 79.8103 50.7998 80.3992 49.6221 80.3992ZM50.4658 78.5447C51.5908 78.5447 52.5137 77.8152 52.5137 76.7957V76.1101L50.5273 76.2332C49.5693 76.3035 49.0244 76.7341 49.0244 77.4021C49.0244 78.1052 49.6045 78.5447 50.4658 78.5447ZM57.9805 80.4343C57.2334 80.4343 56.6973 79.9773 56.6973 79.0984V71.9265C56.6973 71.1267 57.1631 70.6345 57.9365 70.6345C58.71 70.6345 59.2197 71.1267 59.2197 71.9353V72.4626H59.2725C59.7734 71.2937 60.7227 70.6521 62.1729 70.6521C64.2646 70.6521 65.4424 71.9705 65.4424 74.1765V79.0984C65.4424 79.9773 64.9062 80.4343 64.1592 80.4343C63.4033 80.4343 62.876 79.9773 62.876 79.0984V74.7126C62.876 73.4822 62.2959 72.7791 61.1445 72.7791C59.9932 72.7791 59.2637 73.6228 59.2637 74.8445V79.0984C59.2637 79.9773 58.7363 80.4343 57.9805 80.4343ZM71.3662 80.4519C68.5273 80.4519 66.7256 78.5886 66.7256 75.5388C66.7256 72.5242 68.5186 70.6257 71.3486 70.6257C73.2383 70.6257 74.8115 71.5398 75.3213 72.8757C75.4092 73.0955 75.4619 73.324 75.4619 73.5085C75.4619 74.1414 74.9697 74.5105 74.3633 74.5105C73.8535 74.5105 73.5459 74.3083 73.2822 73.8425C72.8164 73.0164 72.2451 72.6384 71.4277 72.6384C70.127 72.6384 69.3271 73.7107 69.3271 75.53C69.3271 77.3845 70.127 78.4392 71.4102 78.4392C72.3066 78.4392 72.8604 77.9998 73.2559 77.3318C73.5986 76.7957 73.8799 76.5759 74.4248 76.5759C75.0225 76.5759 75.5059 76.9714 75.5059 77.6042C75.5059 77.8064 75.4531 78.0173 75.3389 78.2722C74.7764 79.5554 73.168 80.4519 71.3662 80.4519ZM81.21 80.4519C78.2656 80.4519 76.5342 78.6326 76.5342 75.5828C76.5342 72.5505 78.3008 70.6257 81.0869 70.6257C83.7588 70.6257 85.5518 72.4539 85.5518 75.0115C85.5518 75.7234 85.1475 76.1277 84.4355 76.1277H79.0566V76.2419C79.0566 77.6394 79.9004 78.5535 81.2012 78.5535C82.1416 78.5535 82.7568 78.2371 83.4512 77.4197C83.7236 77.1384 83.9521 77.0417 84.2861 77.0417C84.8398 77.0417 85.2881 77.3933 85.2881 77.9822C85.2881 78.1843 85.2266 78.3953 85.1123 78.6062C84.4883 79.7664 83.0293 80.4519 81.21 80.4519ZM79.083 74.5544H83.082C83.0293 73.324 82.2383 72.5242 81.1133 72.5242C79.9883 72.5242 79.1709 73.3503 79.083 74.5544Z" fill="#317BFF"/>
</svg>
