<svg width="128" height="128" viewBox="0 0 128 128" fill="none" xmlns="http://www.w3.org/2000/svg">
<rect width="128" height="128" rx="64" fill="#262626"/>
<rect x="20" y="20" width="88" height="88" rx="44" fill="#317BFF"/>
<path d="M56.4717 52.6232C57.5102 52.6232 58.4707 52.7045 59.3484 52.945C60.2276 53.1059 60.9476 53.4277 61.5863 53.8291C62.2267 54.2311 62.7062 54.794 63.0247 55.5178C63.3449 56.241 63.5058 57.1268 63.5058 58.0906C63.5058 59.2169 63.2652 60.1806 62.7062 60.9039C62.2267 61.6287 61.4271 62.2707 60.4682 62.7534C61.8269 63.1565 62.8654 63.8797 63.5058 64.8435C64.1461 65.8073 64.5443 67.0148 64.5443 68.3817C64.5443 69.508 64.3038 70.4718 63.904 71.2763C63.5058 72.0808 62.8654 72.804 62.1454 73.2867C61.363 73.8035 60.4986 74.1838 59.5889 74.4114C58.63 74.6536 57.6711 74.8145 56.7122 74.8145H46.0001V52.6232H56.4717ZM55.8313 61.6271C56.7106 61.6271 57.4306 61.3866 57.9897 60.9851C58.5487 60.5837 58.7893 59.8588 58.7893 58.9747C58.7893 58.492 58.708 58.0093 58.5487 57.6891C58.3895 57.3689 58.1489 57.1252 57.8304 56.8846C57.5047 56.7017 57.1544 56.5665 56.7902 56.4832C56.3904 56.4019 55.9922 56.4019 55.5111 56.4019H50.8759V61.6287L55.8313 61.6271ZM56.0718 71.1154C56.5513 71.1154 57.0307 71.0341 57.4306 70.9545C57.8304 70.8732 58.2302 70.7139 58.5487 70.4718C58.8731 70.2351 59.1453 69.9341 59.3484 69.5876C59.5076 69.1862 59.6685 68.7035 59.6685 68.1412C59.6685 67.0149 59.3484 66.2103 58.7096 65.648C58.0693 65.1653 57.19 64.9248 56.1515 64.9248H50.8759V71.117L56.0718 71.1154ZM71.4988 71.0341C72.1381 71.6777 73.097 71.9995 74.3755 71.9995C75.2548 71.9995 76.0544 71.759 76.6931 71.3575C77.3335 70.8743 77.7333 70.3916 77.8926 69.9094H81.8094C81.1691 71.8386 80.2102 73.2055 78.9327 74.0896C77.652 74.8941 76.134 75.3768 74.2959 75.3768C73.1199 75.3786 71.9541 75.1603 70.8584 74.7332C69.8721 74.3653 68.9929 73.7576 68.3003 72.9649C67.5564 72.226 67.0075 71.3141 66.7027 70.3109C66.3028 69.2658 66.1419 68.1412 66.1419 66.854C66.1419 65.648 66.3028 64.5233 66.7027 63.4767C67.0862 62.4683 67.6557 61.541 68.3816 60.743C69.0999 60.0197 69.9792 59.3778 70.9381 58.9747C72.0055 58.5461 73.1456 58.3276 74.2959 58.3311C75.6546 58.3311 76.854 58.5733 77.8926 59.1356C78.9327 59.6979 79.7307 60.3415 80.3695 61.3069C81.0098 62.1911 81.4909 63.2361 81.8094 64.3624C81.9687 65.4871 82.0483 66.6134 81.9687 67.899H70.379C70.379 69.1862 70.8584 70.3921 71.4988 71.0357M76.5338 62.5941C75.9748 62.0318 75.0955 61.71 74.0553 61.71C73.4454 61.7009 72.8423 61.8385 72.2968 62.1114C71.8173 62.3536 71.4988 62.6754 71.1786 62.9972C70.8826 63.3068 70.6876 63.699 70.6195 64.1219C70.5383 64.525 70.4586 64.8451 70.4586 65.1669H77.652C77.4928 63.961 77.0929 63.1581 76.5338 62.5941ZM69.4997 54.1509H78.4517V56.3223H69.5014L69.4997 54.1509Z" fill="#262626"/>
</svg>
