<svg width="1280" height="300" viewBox="0 0 1280 300" fill="none" xmlns="http://www.w3.org/2000/svg">
<rect width="1280" height="300" rx="60" fill="#262626"/>
<path d="M964.742 186.375C963.102 186.375 962.117 185.344 962.117 183.656V154.523C962.117 152.836 963.102 151.805 964.742 151.805C966.359 151.805 967.367 152.836 967.367 154.523V183.656C967.367 185.344 966.359 186.375 964.742 186.375ZM983.328 195.281C978.852 195.234 975.312 193.5 973.625 190.828C973.297 190.266 973.156 189.75 973.156 189.164C973.156 187.992 974.023 187.148 975.312 187.148C976.086 187.148 976.578 187.406 977.258 188.086C979.273 190.195 981.008 191.109 983.422 191.156C987.547 191.203 990.055 188.859 990.055 185.414V181.5H989.938C988.555 184.172 985.648 185.93 982.133 185.93C975.922 185.93 971.891 181.078 971.891 173.461C971.891 165.75 975.875 160.945 982.25 160.945C985.742 160.945 988.461 162.703 989.961 165.492H990.055V163.5C990.055 161.859 991.156 160.898 992.609 160.898C994.062 160.898 995.141 161.859 995.141 163.5V185.32C995.141 191.414 990.664 195.352 983.328 195.281ZM983.492 181.805C987.453 181.805 990.078 178.57 990.078 173.508C990.078 168.445 987.453 165.117 983.492 165.117C979.602 165.117 977.07 168.352 977.07 173.484C977.07 178.641 979.602 181.805 983.492 181.805ZM1010.73 186.469C1003.67 186.469 999.031 181.617 999.031 173.672C999.031 165.75 1003.7 160.898 1010.73 160.898C1017.76 160.898 1022.42 165.75 1022.42 173.672C1022.42 181.617 1017.78 186.469 1010.73 186.469ZM1010.73 182.297C1014.71 182.297 1017.27 179.156 1017.27 173.672C1017.27 168.211 1014.69 165.07 1010.73 165.07C1006.77 165.07 1004.19 168.211 1004.19 173.672C1004.19 179.156 1006.77 182.297 1010.73 182.297ZM1028.87 186.445C1027.34 186.445 1026.34 185.414 1026.34 183.773V163.453C1026.34 161.906 1027.32 160.898 1028.75 160.898C1030.16 160.898 1031.14 161.906 1031.14 163.453V165.562H1031.26C1031.94 162.797 1034.21 160.945 1036.67 160.945C1037.56 160.945 1038.24 161.156 1038.66 161.555C1039.13 161.93 1039.34 162.539 1039.34 163.336C1039.34 164.133 1039.09 164.719 1038.59 165.117C1038.08 165.562 1037.33 165.773 1036.27 165.773C1032.8 165.797 1031.4 168.117 1031.4 171.188V183.773C1031.4 185.414 1030.37 186.445 1028.87 186.445ZM1066.77 186.562C1057.2 186.562 1051.23 179.859 1051.23 169.078C1051.23 158.367 1057.27 151.617 1066.72 151.617C1072.93 151.617 1077.9 154.641 1080.01 159.633C1080.34 160.312 1080.5 161.016 1080.5 161.648C1080.5 163.055 1079.56 163.969 1078.16 163.969C1076.91 163.969 1076.09 163.359 1075.51 162C1073.94 158.227 1070.61 156.211 1066.72 156.211C1060.58 156.211 1056.59 161.25 1056.59 169.078C1056.59 176.977 1060.53 181.969 1066.74 181.969C1070.87 181.969 1074.03 180.211 1075.6 176.555C1076.16 175.312 1076.84 174.797 1077.99 174.797C1079.42 174.797 1080.41 175.781 1080.41 177.164C1080.41 177.891 1080.22 178.57 1079.84 179.344C1077.66 183.914 1073.05 186.562 1066.77 186.562ZM1088.73 186.258C1087.02 186.258 1085.66 184.898 1085.66 183.188C1085.66 181.477 1087.02 180.117 1088.73 180.117C1090.44 180.117 1091.8 181.477 1091.8 183.188C1091.8 184.898 1090.44 186.258 1088.73 186.258ZM1107.76 186.375C1106.26 186.375 1105.37 185.438 1105.37 183.867V155.133C1105.37 153.094 1106.66 151.805 1108.74 151.805C1110.52 151.805 1111.58 152.602 1112.38 154.57L1122.38 178.875H1122.57L1132.55 154.57C1133.35 152.625 1134.43 151.805 1136.26 151.805C1138.3 151.805 1139.59 153.07 1139.59 155.133V183.867C1139.59 185.438 1138.67 186.375 1137.2 186.375C1135.7 186.375 1134.78 185.438 1134.78 183.867V161.109H1134.62L1125.2 183.82C1124.63 185.18 1123.79 185.789 1122.48 185.789C1121.16 185.789 1120.3 185.18 1119.76 183.867L1110.31 161.109H1110.15V183.867C1110.15 185.438 1109.26 186.375 1107.76 186.375ZM1153.74 186.445C1148.38 186.445 1145.09 182.953 1145.09 177.305V163.594C1145.09 161.906 1146.12 160.898 1147.62 160.898C1149.1 160.898 1150.16 161.906 1150.16 163.594V176.32C1150.16 180.07 1151.94 182.086 1155.43 182.086C1159.09 182.086 1161.29 179.555 1161.29 175.711V163.594C1161.29 161.906 1162.34 160.898 1163.82 160.898C1165.32 160.898 1166.35 161.906 1166.35 163.594V183.867C1166.35 185.438 1165.39 186.445 1163.94 186.445C1162.48 186.445 1161.5 185.438 1161.5 183.891V181.828H1161.38C1160.02 184.781 1157.52 186.445 1153.74 186.445ZM1173.9 186.445C1172.38 186.445 1171.37 185.414 1171.37 183.773V163.453C1171.37 161.906 1172.35 160.898 1173.78 160.898C1175.19 160.898 1176.17 161.906 1176.17 163.453V165.562H1176.29C1176.97 162.797 1179.24 160.945 1181.7 160.945C1182.59 160.945 1183.27 161.156 1183.7 161.555C1184.16 161.93 1184.38 162.539 1184.38 163.336C1184.38 164.133 1184.12 164.719 1183.62 165.117C1183.11 165.562 1182.36 165.773 1181.3 165.773C1177.84 165.797 1176.43 168.117 1176.43 171.188V183.773C1176.43 185.414 1175.4 186.445 1173.9 186.445ZM1193.82 186.422C1188.99 186.422 1185.59 183.422 1185.59 178.992C1185.59 174.68 1188.92 172.031 1194.76 171.703L1201.53 171.305V169.406C1201.53 166.664 1199.68 165.023 1196.59 165.023C1194.15 165.023 1192.53 165.891 1191.12 168.141C1190.61 168.891 1189.95 169.219 1189.06 169.219C1187.8 169.219 1186.88 168.375 1186.88 167.109C1186.88 166.594 1187.02 166.031 1187.33 165.469C1188.62 162.68 1192.34 160.898 1196.77 160.898C1202.75 160.898 1206.57 164.062 1206.57 169.008V183.891C1206.57 185.484 1205.56 186.445 1204.13 186.445C1202.73 186.445 1201.77 185.531 1201.72 184.031V181.945H1201.6C1200.17 184.688 1197.03 186.422 1193.82 186.422ZM1195.2 182.414C1198.74 182.414 1201.53 179.977 1201.53 176.766V174.82L1195.44 175.195C1192.41 175.406 1190.7 176.742 1190.7 178.852C1190.7 181.008 1192.51 182.414 1195.2 182.414ZM1214.19 157.617C1212.57 157.617 1211.26 156.305 1211.26 154.711C1211.26 153.094 1212.57 151.828 1214.19 151.828C1215.83 151.828 1217.14 153.094 1217.14 154.711C1217.14 156.305 1215.83 157.617 1214.19 157.617ZM1214.19 186.445C1212.66 186.445 1211.66 185.391 1211.66 183.773V163.594C1211.66 161.953 1212.66 160.898 1214.19 160.898C1215.71 160.898 1216.72 161.953 1216.72 163.594V183.773C1216.72 185.391 1215.71 186.445 1214.19 186.445Z" fill="white"/>
<rect x="816" y="206" width="219" height="34" rx="17" fill="#9ADDFF"/>
<path d="M838.498 230.156C837.814 230.156 837.404 229.727 837.404 229.023V217.041C837.404 216.338 837.814 215.908 838.498 215.908H845.334C845.949 215.908 846.359 216.279 846.359 216.855C846.359 217.432 845.939 217.803 845.334 217.803H839.592V222.256H844.816C845.402 222.256 845.803 222.617 845.803 223.174C845.803 223.74 845.402 224.102 844.816 224.102H839.592V229.023C839.592 229.727 839.172 230.156 838.498 230.156ZM848.908 230.186C848.273 230.186 847.854 229.756 847.854 229.072V220.605C847.854 219.961 848.264 219.541 848.859 219.541C849.445 219.541 849.855 219.961 849.855 220.605V221.484H849.904C850.188 220.332 851.135 219.561 852.16 219.561C852.531 219.561 852.814 219.648 852.99 219.814C853.186 219.971 853.273 220.225 853.273 220.557C853.273 220.889 853.166 221.133 852.961 221.299C852.746 221.484 852.434 221.572 851.994 221.572C850.549 221.582 849.963 222.549 849.963 223.828V229.072C849.963 229.756 849.533 230.186 848.908 230.186ZM858.381 230.195C855.441 230.195 853.508 228.174 853.508 224.863C853.508 221.562 855.451 219.541 858.381 219.541C861.311 219.541 863.254 221.562 863.254 224.863C863.254 228.174 861.32 230.195 858.381 230.195ZM858.381 228.457C860.041 228.457 861.105 227.148 861.105 224.863C861.105 222.588 860.031 221.279 858.381 221.279C856.73 221.279 855.656 222.588 855.656 224.863C855.656 227.148 856.73 228.457 858.381 228.457ZM865.939 230.186C865.314 230.186 864.885 229.766 864.885 229.072V220.605C864.885 219.961 865.275 219.541 865.891 219.541C866.496 219.541 866.916 219.961 866.916 220.615V221.426H866.965C867.521 220.254 868.596 219.551 870.178 219.551C872.443 219.551 873.742 220.996 873.742 223.35V229.072C873.742 229.766 873.303 230.186 872.678 230.186C872.062 230.186 871.623 229.766 871.623 229.072V223.76C871.623 222.217 870.9 221.367 869.436 221.367C867.951 221.367 866.994 222.422 866.994 224.014V229.072C866.994 229.766 866.555 230.186 865.939 230.186ZM876.398 227.539V221.396H875.656C875.109 221.396 874.777 221.084 874.777 220.566C874.777 220.039 875.109 219.727 875.656 219.727H876.398V218.203C876.398 217.529 876.818 217.08 877.463 217.08C878.098 217.08 878.518 217.529 878.518 218.203V219.727H879.719C880.266 219.727 880.598 220.049 880.598 220.566C880.598 221.084 880.266 221.396 879.719 221.396H878.518V227.07C878.518 227.891 878.801 228.262 879.562 228.32L879.729 228.33C880.334 228.389 880.637 228.633 880.637 229.131C880.637 229.766 880.148 230.088 879.113 230.088H879.006C877.277 230.088 876.398 229.238 876.398 227.539ZM883.098 225.234C882.512 225.234 882.082 224.873 882.082 224.277C882.082 223.691 882.512 223.33 883.098 223.33H887.775C888.361 223.33 888.801 223.691 888.801 224.277C888.801 224.873 888.361 225.234 887.775 225.234H883.098ZM895.275 230.195C892.18 230.195 890.363 228.232 890.363 224.912C890.363 221.65 892.219 219.541 895.129 219.541C897.863 219.541 899.748 221.514 899.748 224.316C899.748 225 899.357 225.391 898.703 225.391H892.492V225.439C892.492 227.314 893.547 228.486 895.227 228.486C896.379 228.486 897.102 228.086 897.883 227.021C898.107 226.758 898.322 226.65 898.625 226.65C899.133 226.65 899.504 226.982 899.504 227.51C899.504 227.676 899.445 227.871 899.357 228.076C898.684 229.424 897.189 230.195 895.275 230.195ZM892.502 223.916H897.639C897.59 222.305 896.584 221.24 895.119 221.24C893.664 221.24 892.609 222.314 892.502 223.916ZM902.443 230.186C901.818 230.186 901.389 229.766 901.389 229.072V220.605C901.389 219.961 901.779 219.541 902.395 219.541C903 219.541 903.42 219.961 903.42 220.615V221.426H903.469C904.025 220.254 905.1 219.551 906.682 219.551C908.947 219.551 910.246 220.996 910.246 223.35V229.072C910.246 229.766 909.807 230.186 909.182 230.186C908.566 230.186 908.127 229.766 908.127 229.072V223.76C908.127 222.217 907.404 221.367 905.939 221.367C904.455 221.367 903.498 222.422 903.498 224.014V229.072C903.498 229.766 903.059 230.186 902.443 230.186ZM916.145 230.176C913.547 230.176 911.828 228.105 911.828 224.863C911.828 221.621 913.547 219.561 916.125 219.561C917.6 219.561 918.771 220.303 919.348 221.436H919.387V216.836C919.387 216.143 919.826 215.723 920.451 215.723C921.066 215.723 921.506 216.143 921.506 216.836V229.131C921.506 229.795 921.076 230.186 920.461 230.186C919.865 230.186 919.387 229.795 919.387 229.131V228.174H919.357C918.83 229.375 917.746 230.176 916.145 230.176ZM916.701 228.389C918.322 228.389 919.406 227.012 919.406 224.863C919.406 222.734 918.322 221.338 916.701 221.338C915.031 221.338 913.986 222.705 913.986 224.863C913.986 227.031 915.031 228.389 916.701 228.389ZM929.084 230C928.4 230 927.99 229.57 927.99 228.867V217.041C927.99 216.338 928.4 215.908 929.084 215.908H932.961C937.15 215.908 939.631 218.486 939.631 222.93C939.631 227.383 937.16 230 932.961 230H929.084ZM930.178 228.105H932.756C935.744 228.105 937.395 226.279 937.395 222.949C937.395 219.629 935.734 217.793 932.756 217.793H930.178V228.105ZM945.92 230.195C942.824 230.195 941.008 228.232 941.008 224.912C941.008 221.65 942.863 219.541 945.773 219.541C948.508 219.541 950.393 221.514 950.393 224.316C950.393 225 950.002 225.391 949.348 225.391H943.137V225.439C943.137 227.314 944.191 228.486 945.871 228.486C947.023 228.486 947.746 228.086 948.527 227.021C948.752 226.758 948.967 226.65 949.27 226.65C949.777 226.65 950.148 226.982 950.148 227.51C950.148 227.676 950.09 227.871 950.002 228.076C949.328 229.424 947.834 230.195 945.92 230.195ZM943.146 223.916H948.283C948.234 222.305 947.229 221.24 945.764 221.24C944.309 221.24 943.254 222.314 943.146 223.916ZM955.93 230.186C955.178 230.186 954.768 229.873 954.475 229.111L951.428 221.094C951.359 220.908 951.311 220.703 951.311 220.508C951.311 219.922 951.76 219.541 952.375 219.541C952.863 219.541 953.195 219.805 953.371 220.371L955.92 227.939H955.959L958.508 220.352C958.684 219.805 959.016 219.541 959.494 219.541C960.1 219.541 960.529 219.941 960.529 220.498C960.529 220.684 960.49 220.889 960.422 221.064L957.375 229.111C957.102 229.854 956.652 230.186 955.93 230.186ZM966.115 230.195C963.02 230.195 961.203 228.232 961.203 224.912C961.203 221.65 963.059 219.541 965.969 219.541C968.703 219.541 970.588 221.514 970.588 224.316C970.588 225 970.197 225.391 969.543 225.391H963.332V225.439C963.332 227.314 964.387 228.486 966.066 228.486C967.219 228.486 967.941 228.086 968.723 227.021C968.947 226.758 969.162 226.65 969.465 226.65C969.973 226.65 970.344 226.982 970.344 227.51C970.344 227.676 970.285 227.871 970.197 228.076C969.523 229.424 968.029 230.195 966.115 230.195ZM963.342 223.916H968.479C968.43 222.305 967.424 221.24 965.959 221.24C964.504 221.24 963.449 222.314 963.342 223.916ZM973.361 230.186C972.746 230.186 972.307 229.766 972.307 229.072V216.836C972.307 216.143 972.746 215.723 973.361 215.723C973.977 215.723 974.416 216.143 974.416 216.836V229.072C974.416 229.766 973.977 230.186 973.361 230.186ZM980.998 230.195C978.059 230.195 976.125 228.174 976.125 224.863C976.125 221.562 978.068 219.541 980.998 219.541C983.928 219.541 985.871 221.562 985.871 224.863C985.871 228.174 983.938 230.195 980.998 230.195ZM980.998 228.457C982.658 228.457 983.723 227.148 983.723 224.863C983.723 222.588 982.648 221.279 980.998 221.279C979.348 221.279 978.273 222.588 978.273 224.863C978.273 227.148 979.348 228.457 980.998 228.457ZM988.557 233.643C987.932 233.643 987.502 233.213 987.502 232.52V220.625C987.502 219.951 987.922 219.541 988.518 219.541C989.113 219.541 989.543 219.951 989.543 220.625V221.494H989.582C990.188 220.312 991.369 219.561 992.854 219.561C995.461 219.561 997.18 221.611 997.18 224.863C997.18 228.115 995.471 230.176 992.893 230.176C991.418 230.176 990.246 229.453 989.66 228.311H989.611V232.52C989.611 233.213 989.172 233.643 988.557 233.643ZM992.297 228.389C993.967 228.389 995.012 227.021 995.012 224.863C995.012 222.715 993.967 221.338 992.297 221.338C990.686 221.338 989.602 222.744 989.602 224.863C989.602 227.002 990.676 228.389 992.297 228.389ZM1003.26 230.195C1000.17 230.195 998.352 228.232 998.352 224.912C998.352 221.65 1000.21 219.541 1003.12 219.541C1005.85 219.541 1007.74 221.514 1007.74 224.316C1007.74 225 1007.35 225.391 1006.69 225.391H1000.48V225.439C1000.48 227.314 1001.54 228.486 1003.21 228.486C1004.37 228.486 1005.09 228.086 1005.87 227.021C1006.1 226.758 1006.31 226.65 1006.61 226.65C1007.12 226.65 1007.49 226.982 1007.49 227.51C1007.49 227.676 1007.43 227.871 1007.35 228.076C1006.67 229.424 1005.18 230.195 1003.26 230.195ZM1000.49 223.916H1005.63C1005.58 222.305 1004.57 221.24 1003.11 221.24C1001.65 221.24 1000.6 222.314 1000.49 223.916ZM1010.43 230.186C1009.8 230.186 1009.38 229.756 1009.38 229.072V220.605C1009.38 219.961 1009.79 219.541 1010.38 219.541C1010.97 219.541 1011.38 219.961 1011.38 220.605V221.484H1011.43C1011.71 220.332 1012.66 219.561 1013.68 219.561C1014.05 219.561 1014.34 219.648 1014.51 219.814C1014.71 219.971 1014.8 220.225 1014.8 220.557C1014.8 220.889 1014.69 221.133 1014.48 221.299C1014.27 221.484 1013.96 221.572 1013.52 221.572C1012.07 221.582 1011.49 222.549 1011.49 223.828V229.072C1011.49 229.756 1011.06 230.186 1010.43 230.186Z" fill="#262626"/>
<rect x="1045" y="206" width="175" height="34" rx="17" fill="#C89AFF"/>
<path d="M1072.26 230.234C1068.72 230.234 1066.55 228.086 1066.55 225.049V216.885C1066.55 216.182 1066.96 215.752 1067.65 215.752C1068.32 215.752 1068.74 216.182 1068.74 216.885V224.863C1068.74 226.875 1070.01 228.291 1072.26 228.291C1074.5 228.291 1075.78 226.875 1075.78 224.863V216.885C1075.78 216.182 1076.19 215.752 1076.88 215.752C1077.55 215.752 1077.96 216.182 1077.96 216.885V225.049C1077.96 228.086 1075.79 230.234 1072.26 230.234ZM1081.22 230.156C1080.63 230.156 1080.18 229.736 1080.18 229.209C1080.18 228.955 1080.25 228.73 1080.44 228.467L1084.37 222.939V222.871L1080.55 217.549C1080.33 217.266 1080.26 217.041 1080.26 216.777C1080.26 216.191 1080.75 215.752 1081.39 215.752C1081.81 215.752 1082.06 215.918 1082.37 216.377L1085.82 221.357H1085.9L1089.42 216.318C1089.71 215.908 1089.92 215.752 1090.33 215.752C1090.92 215.752 1091.41 216.172 1091.41 216.689C1091.41 216.943 1091.33 217.168 1091.14 217.432L1087.11 222.949V223.008L1091.02 228.418C1091.19 228.652 1091.28 228.896 1091.28 229.16C1091.28 229.727 1090.8 230.156 1090.2 230.156C1089.79 230.156 1089.53 230 1089.25 229.6L1085.73 224.629H1085.66L1082.15 229.59C1081.85 230.02 1081.63 230.156 1081.22 230.156ZM1093.42 233.369C1092.87 233.369 1092.52 233.037 1092.52 232.549C1092.52 232.412 1092.55 232.266 1092.58 232.168L1097.13 216.514C1097.29 215.977 1097.58 215.723 1098.08 215.723C1098.6 215.723 1098.96 216.064 1098.96 216.562C1098.96 216.68 1098.96 216.768 1098.92 216.904L1094.33 232.637C1094.19 233.125 1093.9 233.369 1093.42 233.369ZM1106.26 230.234C1102.72 230.234 1100.56 228.086 1100.56 225.049V216.885C1100.56 216.182 1100.97 215.752 1101.65 215.752C1102.32 215.752 1102.74 216.182 1102.74 216.885V224.863C1102.74 226.875 1104.01 228.291 1106.26 228.291C1108.51 228.291 1109.79 226.875 1109.79 224.863V216.885C1109.79 216.182 1110.2 215.752 1110.88 215.752C1111.55 215.752 1111.96 216.182 1111.96 216.885V225.049C1111.96 228.086 1109.79 230.234 1106.26 230.234ZM1115.65 230.156C1114.97 230.156 1114.56 229.727 1114.56 229.023V216.885C1114.56 216.182 1114.97 215.752 1115.65 215.752C1116.33 215.752 1116.75 216.182 1116.75 216.885V229.023C1116.75 229.727 1116.33 230.156 1115.65 230.156ZM1124.5 230C1123.82 230 1123.41 229.57 1123.41 228.867V217.041C1123.41 216.338 1123.82 215.908 1124.5 215.908H1128.38C1132.57 215.908 1135.05 218.486 1135.05 222.93C1135.05 227.383 1132.58 230 1128.38 230H1124.5ZM1125.6 228.105H1128.17C1131.16 228.105 1132.81 226.279 1132.81 222.949C1132.81 219.629 1131.15 217.793 1128.17 217.793H1125.6V228.105ZM1141.34 230.195C1138.24 230.195 1136.43 228.232 1136.43 224.912C1136.43 221.65 1138.28 219.541 1141.19 219.541C1143.93 219.541 1145.81 221.514 1145.81 224.316C1145.81 225 1145.42 225.391 1144.77 225.391H1138.55V225.439C1138.55 227.314 1139.61 228.486 1141.29 228.486C1142.44 228.486 1143.16 228.086 1143.95 227.021C1144.17 226.758 1144.38 226.65 1144.69 226.65C1145.2 226.65 1145.57 226.982 1145.57 227.51C1145.57 227.676 1145.51 227.871 1145.42 228.076C1144.75 229.424 1143.25 230.195 1141.34 230.195ZM1138.56 223.916H1143.7C1143.65 222.305 1142.65 221.24 1141.18 221.24C1139.73 221.24 1138.67 222.314 1138.56 223.916ZM1151.24 230.195C1149.22 230.195 1147.73 229.365 1147.25 228.105C1147.18 227.949 1147.16 227.803 1147.16 227.666C1147.16 227.139 1147.54 226.826 1148.07 226.826C1148.42 226.826 1148.72 226.992 1148.98 227.383C1149.51 228.213 1150.13 228.584 1151.35 228.584C1152.55 228.584 1153.36 228.066 1153.36 227.217C1153.36 226.543 1152.96 226.182 1151.86 225.918L1150.23 225.537C1148.24 225.068 1147.27 224.092 1147.27 222.627C1147.27 220.771 1148.88 219.541 1151.32 219.541C1153.17 219.541 1154.7 220.488 1154.99 221.699C1155.01 221.816 1155.03 221.914 1155.03 222.012C1155.03 222.48 1154.74 222.793 1154.21 222.793C1153.87 222.793 1153.56 222.676 1153.36 222.344C1152.9 221.562 1152.28 221.152 1151.24 221.152C1150.11 221.152 1149.33 221.709 1149.33 222.51C1149.33 223.154 1149.82 223.604 1150.91 223.857L1152.5 224.229C1154.66 224.727 1155.49 225.498 1155.49 227.021C1155.49 228.926 1153.78 230.195 1151.24 230.195ZM1158.24 218.174C1157.57 218.174 1157.02 217.627 1157.02 216.963C1157.02 216.289 1157.57 215.762 1158.24 215.762C1158.93 215.762 1159.47 216.289 1159.47 216.963C1159.47 217.627 1158.93 218.174 1158.24 218.174ZM1158.24 230.186C1157.61 230.186 1157.19 229.746 1157.19 229.072V220.664C1157.19 219.98 1157.61 219.541 1158.24 219.541C1158.88 219.541 1159.3 219.98 1159.3 220.664V229.072C1159.3 229.746 1158.88 230.186 1158.24 230.186ZM1165.76 233.867C1163.9 233.848 1162.42 233.125 1161.72 232.012C1161.58 231.777 1161.52 231.562 1161.52 231.318C1161.52 230.83 1161.88 230.479 1162.42 230.479C1162.74 230.479 1162.95 230.586 1163.23 230.869C1164.07 231.748 1164.79 232.129 1165.8 232.148C1167.52 232.168 1168.56 231.191 1168.56 229.756V228.125H1168.52C1167.94 229.238 1166.73 229.971 1165.26 229.971C1162.68 229.971 1161 227.949 1161 224.775C1161 221.562 1162.66 219.561 1165.31 219.561C1166.77 219.561 1167.9 220.293 1168.53 221.455H1168.56V220.625C1168.56 219.941 1169.02 219.541 1169.63 219.541C1170.23 219.541 1170.68 219.941 1170.68 220.625V229.717C1170.68 232.256 1168.82 233.896 1165.76 233.867ZM1165.83 228.252C1167.48 228.252 1168.57 226.904 1168.57 224.795C1168.57 222.686 1167.48 221.299 1165.83 221.299C1164.21 221.299 1163.15 222.646 1163.15 224.785C1163.15 226.934 1164.21 228.252 1165.83 228.252ZM1173.82 230.186C1173.19 230.186 1172.76 229.766 1172.76 229.072V220.605C1172.76 219.961 1173.15 219.541 1173.77 219.541C1174.38 219.541 1174.79 219.961 1174.79 220.615V221.426H1174.84C1175.4 220.254 1176.47 219.551 1178.06 219.551C1180.32 219.551 1181.62 220.996 1181.62 223.35V229.072C1181.62 229.766 1181.18 230.186 1180.56 230.186C1179.94 230.186 1179.5 229.766 1179.5 229.072V223.76C1179.5 222.217 1178.78 221.367 1177.31 221.367C1175.83 221.367 1174.87 222.422 1174.87 224.014V229.072C1174.87 229.766 1174.43 230.186 1173.82 230.186ZM1188.12 230.195C1185.02 230.195 1183.2 228.232 1183.2 224.912C1183.2 221.65 1185.06 219.541 1187.97 219.541C1190.7 219.541 1192.59 221.514 1192.59 224.316C1192.59 225 1192.2 225.391 1191.54 225.391H1185.33V225.439C1185.33 227.314 1186.39 228.486 1188.07 228.486C1189.22 228.486 1189.94 228.086 1190.72 227.021C1190.95 226.758 1191.16 226.65 1191.46 226.65C1191.97 226.65 1192.34 226.982 1192.34 227.51C1192.34 227.676 1192.29 227.871 1192.2 228.076C1191.52 229.424 1190.03 230.195 1188.12 230.195ZM1185.34 223.916H1190.48C1190.43 222.305 1189.42 221.24 1187.96 221.24C1186.5 221.24 1185.45 222.314 1185.34 223.916ZM1195.28 230.186C1194.65 230.186 1194.23 229.756 1194.23 229.072V220.605C1194.23 219.961 1194.64 219.541 1195.23 219.541C1195.82 219.541 1196.23 219.961 1196.23 220.605V221.484H1196.28C1196.56 220.332 1197.51 219.561 1198.54 219.561C1198.91 219.561 1199.19 219.648 1199.37 219.814C1199.56 219.971 1199.65 220.225 1199.65 220.557C1199.65 220.889 1199.54 221.133 1199.34 221.299C1199.12 221.484 1198.81 221.572 1198.37 221.572C1196.92 221.582 1196.34 222.549 1196.34 223.828V229.072C1196.34 229.756 1195.91 230.186 1195.28 230.186Z" fill="#262626"/>
</svg>
