<svg width="1280" height="571" viewBox="0 0 1280 571" fill="none" xmlns="http://www.w3.org/2000/svg">
<rect width="1280" height="571" rx="40" fill="#201D23"/>
<path d="M515.242 94.375C513.602 94.375 512.617 93.3438 512.617 91.6562V62.5234C512.617 60.8359 513.602 59.8047 515.242 59.8047C516.859 59.8047 517.867 60.8359 517.867 62.5234V91.6562C517.867 93.3438 516.859 94.375 515.242 94.375ZM533.828 103.281C529.352 103.234 525.812 101.5 524.125 98.8281C523.797 98.2656 523.656 97.75 523.656 97.1641C523.656 95.9922 524.523 95.1484 525.812 95.1484C526.586 95.1484 527.078 95.4062 527.758 96.0859C529.773 98.1953 531.508 99.1094 533.922 99.1562C538.047 99.2031 540.555 96.8594 540.555 93.4141V89.5H540.438C539.055 92.1719 536.148 93.9297 532.633 93.9297C526.422 93.9297 522.391 89.0781 522.391 81.4609C522.391 73.75 526.375 68.9453 532.75 68.9453C536.242 68.9453 538.961 70.7031 540.461 73.4922H540.555V71.5C540.555 69.8594 541.656 68.8984 543.109 68.8984C544.562 68.8984 545.641 69.8594 545.641 71.5V93.3203C545.641 99.4141 541.164 103.352 533.828 103.281ZM533.992 89.8047C537.953 89.8047 540.578 86.5703 540.578 81.5078C540.578 76.4453 537.953 73.1172 533.992 73.1172C530.102 73.1172 527.57 76.3516 527.57 81.4844C527.57 86.6406 530.102 89.8047 533.992 89.8047ZM561.227 94.4688C554.172 94.4688 549.531 89.6172 549.531 81.6719C549.531 73.75 554.195 68.8984 561.227 68.8984C568.258 68.8984 572.922 73.75 572.922 81.6719C572.922 89.6172 568.281 94.4688 561.227 94.4688ZM561.227 90.2969C565.211 90.2969 567.766 87.1562 567.766 81.6719C567.766 76.2109 565.188 73.0703 561.227 73.0703C557.266 73.0703 554.688 76.2109 554.688 81.6719C554.688 87.1562 557.266 90.2969 561.227 90.2969ZM579.367 94.4453C577.844 94.4453 576.836 93.4141 576.836 91.7734V71.4531C576.836 69.9062 577.82 68.8984 579.25 68.8984C580.656 68.8984 581.641 69.9062 581.641 71.4531V73.5625H581.758C582.438 70.7969 584.711 68.9453 587.172 68.9453C588.062 68.9453 588.742 69.1562 589.164 69.5547C589.633 69.9297 589.844 70.5391 589.844 71.3359C589.844 72.1328 589.586 72.7188 589.094 73.1172C588.578 73.5625 587.828 73.7734 586.773 73.7734C583.305 73.7969 581.898 76.1172 581.898 79.1875V91.7734C581.898 93.4141 580.867 94.4453 579.367 94.4453ZM617.266 94.5625C607.703 94.5625 601.727 87.8594 601.727 77.0781C601.727 66.3672 607.773 59.6172 617.219 59.6172C623.43 59.6172 628.398 62.6406 630.508 67.6328C630.836 68.3125 631 69.0156 631 69.6484C631 71.0547 630.062 71.9688 628.656 71.9688C627.414 71.9688 626.594 71.3594 626.008 70C624.438 66.2266 621.109 64.2109 617.219 64.2109C611.078 64.2109 607.094 69.25 607.094 77.0781C607.094 84.9766 611.031 89.9688 617.242 89.9688C621.367 89.9688 624.531 88.2109 626.102 84.5547C626.664 83.3125 627.344 82.7969 628.492 82.7969C629.922 82.7969 630.906 83.7812 630.906 85.1641C630.906 85.8906 630.719 86.5703 630.344 87.3438C628.164 91.9141 623.547 94.5625 617.266 94.5625ZM639.227 94.2578C637.516 94.2578 636.156 92.8984 636.156 91.1875C636.156 89.4766 637.516 88.1172 639.227 88.1172C640.938 88.1172 642.297 89.4766 642.297 91.1875C642.297 92.8984 640.938 94.2578 639.227 94.2578ZM658.258 94.375C656.758 94.375 655.867 93.4375 655.867 91.8672V63.1328C655.867 61.0938 657.156 59.8047 659.242 59.8047C661.023 59.8047 662.078 60.6016 662.875 62.5703L672.883 86.875H673.07L683.055 62.5703C683.852 60.625 684.93 59.8047 686.758 59.8047C688.797 59.8047 690.086 61.0703 690.086 63.1328V91.8672C690.086 93.4375 689.172 94.375 687.695 94.375C686.195 94.375 685.281 93.4375 685.281 91.8672V69.1094H685.117L675.695 91.8203C675.133 93.1797 674.289 93.7891 672.977 93.7891C671.664 93.7891 670.797 93.1797 670.258 91.8672L660.812 69.1094H660.648V91.8672C660.648 93.4375 659.758 94.375 658.258 94.375ZM704.242 94.4453C698.875 94.4453 695.594 90.9531 695.594 85.3047V71.5938C695.594 69.9062 696.625 68.8984 698.125 68.8984C699.602 68.8984 700.656 69.9062 700.656 71.5938V84.3203C700.656 88.0703 702.438 90.0859 705.93 90.0859C709.586 90.0859 711.789 87.5547 711.789 83.7109V71.5938C711.789 69.9062 712.844 68.8984 714.32 68.8984C715.82 68.8984 716.852 69.9062 716.852 71.5938V91.8672C716.852 93.4375 715.891 94.4453 714.438 94.4453C712.984 94.4453 712 93.4375 712 91.8906V89.8281H711.883C710.523 92.7812 708.016 94.4453 704.242 94.4453ZM724.398 94.4453C722.875 94.4453 721.867 93.4141 721.867 91.7734V71.4531C721.867 69.9062 722.852 68.8984 724.281 68.8984C725.688 68.8984 726.672 69.9062 726.672 71.4531V73.5625H726.789C727.469 70.7969 729.742 68.9453 732.203 68.9453C733.094 68.9453 733.773 69.1562 734.195 69.5547C734.664 69.9297 734.875 70.5391 734.875 71.3359C734.875 72.1328 734.617 72.7188 734.125 73.1172C733.609 73.5625 732.859 73.7734 731.805 73.7734C728.336 73.7969 726.93 76.1172 726.93 79.1875V91.7734C726.93 93.4141 725.898 94.4453 724.398 94.4453ZM744.32 94.4219C739.492 94.4219 736.094 91.4219 736.094 86.9922C736.094 82.6797 739.422 80.0312 745.258 79.7031L752.031 79.3047V77.4062C752.031 74.6641 750.18 73.0234 747.086 73.0234C744.648 73.0234 743.031 73.8906 741.625 76.1406C741.109 76.8906 740.453 77.2188 739.562 77.2188C738.297 77.2188 737.383 76.375 737.383 75.1094C737.383 74.5938 737.523 74.0312 737.828 73.4688C739.117 70.6797 742.844 68.8984 747.273 68.8984C753.25 68.8984 757.07 72.0625 757.07 77.0078V91.8906C757.07 93.4844 756.062 94.4453 754.633 94.4453C753.227 94.4453 752.266 93.5312 752.219 92.0312V89.9453H752.102C750.672 92.6875 747.531 94.4219 744.32 94.4219ZM745.703 90.4141C749.242 90.4141 752.031 87.9766 752.031 84.7656V82.8203L745.938 83.1953C742.914 83.4062 741.203 84.7422 741.203 86.8516C741.203 89.0078 743.008 90.4141 745.703 90.4141ZM764.688 65.6172C763.07 65.6172 761.758 64.3047 761.758 62.7109C761.758 61.0938 763.07 59.8281 764.688 59.8281C766.328 59.8281 767.641 61.0938 767.641 62.7109C767.641 64.3047 766.328 65.6172 764.688 65.6172ZM764.688 94.4453C763.164 94.4453 762.156 93.3906 762.156 91.7734V71.5938C762.156 69.9531 763.164 68.8984 764.688 68.8984C766.211 68.8984 767.219 69.9531 767.219 71.5938V91.7734C767.219 93.3906 766.211 94.4453 764.688 94.4453Z" fill="white"/>
<rect x="438" y="114" width="219" height="34" rx="17" fill="#9ADDFF"/>
<path d="M460.498 138.156C459.814 138.156 459.404 137.727 459.404 137.023V125.041C459.404 124.338 459.814 123.908 460.498 123.908H467.334C467.949 123.908 468.359 124.279 468.359 124.855C468.359 125.432 467.939 125.803 467.334 125.803H461.592V130.256H466.816C467.402 130.256 467.803 130.617 467.803 131.174C467.803 131.74 467.402 132.102 466.816 132.102H461.592V137.023C461.592 137.727 461.172 138.156 460.498 138.156ZM470.908 138.186C470.273 138.186 469.854 137.756 469.854 137.072V128.605C469.854 127.961 470.264 127.541 470.859 127.541C471.445 127.541 471.855 127.961 471.855 128.605V129.484H471.904C472.188 128.332 473.135 127.561 474.16 127.561C474.531 127.561 474.814 127.648 474.99 127.814C475.186 127.971 475.273 128.225 475.273 128.557C475.273 128.889 475.166 129.133 474.961 129.299C474.746 129.484 474.434 129.572 473.994 129.572C472.549 129.582 471.963 130.549 471.963 131.828V137.072C471.963 137.756 471.533 138.186 470.908 138.186ZM480.381 138.195C477.441 138.195 475.508 136.174 475.508 132.863C475.508 129.562 477.451 127.541 480.381 127.541C483.311 127.541 485.254 129.562 485.254 132.863C485.254 136.174 483.32 138.195 480.381 138.195ZM480.381 136.457C482.041 136.457 483.105 135.148 483.105 132.863C483.105 130.588 482.031 129.279 480.381 129.279C478.73 129.279 477.656 130.588 477.656 132.863C477.656 135.148 478.73 136.457 480.381 136.457ZM487.939 138.186C487.314 138.186 486.885 137.766 486.885 137.072V128.605C486.885 127.961 487.275 127.541 487.891 127.541C488.496 127.541 488.916 127.961 488.916 128.615V129.426H488.965C489.521 128.254 490.596 127.551 492.178 127.551C494.443 127.551 495.742 128.996 495.742 131.35V137.072C495.742 137.766 495.303 138.186 494.678 138.186C494.062 138.186 493.623 137.766 493.623 137.072V131.76C493.623 130.217 492.9 129.367 491.436 129.367C489.951 129.367 488.994 130.422 488.994 132.014V137.072C488.994 137.766 488.555 138.186 487.939 138.186ZM498.398 135.539V129.396H497.656C497.109 129.396 496.777 129.084 496.777 128.566C496.777 128.039 497.109 127.727 497.656 127.727H498.398V126.203C498.398 125.529 498.818 125.08 499.463 125.08C500.098 125.08 500.518 125.529 500.518 126.203V127.727H501.719C502.266 127.727 502.598 128.049 502.598 128.566C502.598 129.084 502.266 129.396 501.719 129.396H500.518V135.07C500.518 135.891 500.801 136.262 501.562 136.32L501.729 136.33C502.334 136.389 502.637 136.633 502.637 137.131C502.637 137.766 502.148 138.088 501.113 138.088H501.006C499.277 138.088 498.398 137.238 498.398 135.539ZM505.098 133.234C504.512 133.234 504.082 132.873 504.082 132.277C504.082 131.691 504.512 131.33 505.098 131.33H509.775C510.361 131.33 510.801 131.691 510.801 132.277C510.801 132.873 510.361 133.234 509.775 133.234H505.098ZM517.275 138.195C514.18 138.195 512.363 136.232 512.363 132.912C512.363 129.65 514.219 127.541 517.129 127.541C519.863 127.541 521.748 129.514 521.748 132.316C521.748 133 521.357 133.391 520.703 133.391H514.492V133.439C514.492 135.314 515.547 136.486 517.227 136.486C518.379 136.486 519.102 136.086 519.883 135.021C520.107 134.758 520.322 134.65 520.625 134.65C521.133 134.65 521.504 134.982 521.504 135.51C521.504 135.676 521.445 135.871 521.357 136.076C520.684 137.424 519.189 138.195 517.275 138.195ZM514.502 131.916H519.639C519.59 130.305 518.584 129.24 517.119 129.24C515.664 129.24 514.609 130.314 514.502 131.916ZM524.443 138.186C523.818 138.186 523.389 137.766 523.389 137.072V128.605C523.389 127.961 523.779 127.541 524.395 127.541C525 127.541 525.42 127.961 525.42 128.615V129.426H525.469C526.025 128.254 527.1 127.551 528.682 127.551C530.947 127.551 532.246 128.996 532.246 131.35V137.072C532.246 137.766 531.807 138.186 531.182 138.186C530.566 138.186 530.127 137.766 530.127 137.072V131.76C530.127 130.217 529.404 129.367 527.939 129.367C526.455 129.367 525.498 130.422 525.498 132.014V137.072C525.498 137.766 525.059 138.186 524.443 138.186ZM538.145 138.176C535.547 138.176 533.828 136.105 533.828 132.863C533.828 129.621 535.547 127.561 538.125 127.561C539.6 127.561 540.771 128.303 541.348 129.436H541.387V124.836C541.387 124.143 541.826 123.723 542.451 123.723C543.066 123.723 543.506 124.143 543.506 124.836V137.131C543.506 137.795 543.076 138.186 542.461 138.186C541.865 138.186 541.387 137.795 541.387 137.131V136.174H541.357C540.83 137.375 539.746 138.176 538.145 138.176ZM538.701 136.389C540.322 136.389 541.406 135.012 541.406 132.863C541.406 130.734 540.322 129.338 538.701 129.338C537.031 129.338 535.986 130.705 535.986 132.863C535.986 135.031 537.031 136.389 538.701 136.389ZM551.084 138C550.4 138 549.99 137.57 549.99 136.867V125.041C549.99 124.338 550.4 123.908 551.084 123.908H554.961C559.15 123.908 561.631 126.486 561.631 130.93C561.631 135.383 559.16 138 554.961 138H551.084ZM552.178 136.105H554.756C557.744 136.105 559.395 134.279 559.395 130.949C559.395 127.629 557.734 125.793 554.756 125.793H552.178V136.105ZM567.92 138.195C564.824 138.195 563.008 136.232 563.008 132.912C563.008 129.65 564.863 127.541 567.773 127.541C570.508 127.541 572.393 129.514 572.393 132.316C572.393 133 572.002 133.391 571.348 133.391H565.137V133.439C565.137 135.314 566.191 136.486 567.871 136.486C569.023 136.486 569.746 136.086 570.527 135.021C570.752 134.758 570.967 134.65 571.27 134.65C571.777 134.65 572.148 134.982 572.148 135.51C572.148 135.676 572.09 135.871 572.002 136.076C571.328 137.424 569.834 138.195 567.92 138.195ZM565.146 131.916H570.283C570.234 130.305 569.229 129.24 567.764 129.24C566.309 129.24 565.254 130.314 565.146 131.916ZM577.93 138.186C577.178 138.186 576.768 137.873 576.475 137.111L573.428 129.094C573.359 128.908 573.311 128.703 573.311 128.508C573.311 127.922 573.76 127.541 574.375 127.541C574.863 127.541 575.195 127.805 575.371 128.371L577.92 135.939H577.959L580.508 128.352C580.684 127.805 581.016 127.541 581.494 127.541C582.1 127.541 582.529 127.941 582.529 128.498C582.529 128.684 582.49 128.889 582.422 129.064L579.375 137.111C579.102 137.854 578.652 138.186 577.93 138.186ZM588.115 138.195C585.02 138.195 583.203 136.232 583.203 132.912C583.203 129.65 585.059 127.541 587.969 127.541C590.703 127.541 592.588 129.514 592.588 132.316C592.588 133 592.197 133.391 591.543 133.391H585.332V133.439C585.332 135.314 586.387 136.486 588.066 136.486C589.219 136.486 589.941 136.086 590.723 135.021C590.947 134.758 591.162 134.65 591.465 134.65C591.973 134.65 592.344 134.982 592.344 135.51C592.344 135.676 592.285 135.871 592.197 136.076C591.523 137.424 590.029 138.195 588.115 138.195ZM585.342 131.916H590.479C590.43 130.305 589.424 129.24 587.959 129.24C586.504 129.24 585.449 130.314 585.342 131.916ZM595.361 138.186C594.746 138.186 594.307 137.766 594.307 137.072V124.836C594.307 124.143 594.746 123.723 595.361 123.723C595.977 123.723 596.416 124.143 596.416 124.836V137.072C596.416 137.766 595.977 138.186 595.361 138.186ZM602.998 138.195C600.059 138.195 598.125 136.174 598.125 132.863C598.125 129.562 600.068 127.541 602.998 127.541C605.928 127.541 607.871 129.562 607.871 132.863C607.871 136.174 605.938 138.195 602.998 138.195ZM602.998 136.457C604.658 136.457 605.723 135.148 605.723 132.863C605.723 130.588 604.648 129.279 602.998 129.279C601.348 129.279 600.273 130.588 600.273 132.863C600.273 135.148 601.348 136.457 602.998 136.457ZM610.557 141.643C609.932 141.643 609.502 141.213 609.502 140.52V128.625C609.502 127.951 609.922 127.541 610.518 127.541C611.113 127.541 611.543 127.951 611.543 128.625V129.494H611.582C612.188 128.312 613.369 127.561 614.854 127.561C617.461 127.561 619.18 129.611 619.18 132.863C619.18 136.115 617.471 138.176 614.893 138.176C613.418 138.176 612.246 137.453 611.66 136.311H611.611V140.52C611.611 141.213 611.172 141.643 610.557 141.643ZM614.297 136.389C615.967 136.389 617.012 135.021 617.012 132.863C617.012 130.715 615.967 129.338 614.297 129.338C612.686 129.338 611.602 130.744 611.602 132.863C611.602 135.002 612.676 136.389 614.297 136.389ZM625.264 138.195C622.168 138.195 620.352 136.232 620.352 132.912C620.352 129.65 622.207 127.541 625.117 127.541C627.852 127.541 629.736 129.514 629.736 132.316C629.736 133 629.346 133.391 628.691 133.391H622.48V133.439C622.48 135.314 623.535 136.486 625.215 136.486C626.367 136.486 627.09 136.086 627.871 135.021C628.096 134.758 628.311 134.65 628.613 134.65C629.121 134.65 629.492 134.982 629.492 135.51C629.492 135.676 629.434 135.871 629.346 136.076C628.672 137.424 627.178 138.195 625.264 138.195ZM622.49 131.916H627.627C627.578 130.305 626.572 129.24 625.107 129.24C623.652 129.24 622.598 130.314 622.49 131.916ZM632.432 138.186C631.797 138.186 631.377 137.756 631.377 137.072V128.605C631.377 127.961 631.787 127.541 632.383 127.541C632.969 127.541 633.379 127.961 633.379 128.605V129.484H633.428C633.711 128.332 634.658 127.561 635.684 127.561C636.055 127.561 636.338 127.648 636.514 127.814C636.709 127.971 636.797 128.225 636.797 128.557C636.797 128.889 636.689 129.133 636.484 129.299C636.27 129.484 635.957 129.572 635.518 129.572C634.072 129.582 633.486 130.549 633.486 131.828V137.072C633.486 137.756 633.057 138.186 632.432 138.186Z" fill="#201D23"/>
<rect x="667" y="114" width="175" height="34" rx="17" fill="#C89AFF"/>
<path d="M694.256 138.234C690.721 138.234 688.553 136.086 688.553 133.049V124.885C688.553 124.182 688.963 123.752 689.646 123.752C690.32 123.752 690.74 124.182 690.74 124.885V132.863C690.74 134.875 692.01 136.291 694.256 136.291C696.502 136.291 697.781 134.875 697.781 132.863V124.885C697.781 124.182 698.191 123.752 698.875 123.752C699.549 123.752 699.959 124.182 699.959 124.885V133.049C699.959 136.086 697.791 138.234 694.256 138.234ZM703.221 138.156C702.635 138.156 702.176 137.736 702.176 137.209C702.176 136.955 702.254 136.73 702.439 136.467L706.365 130.939V130.871L702.547 125.549C702.332 125.266 702.264 125.041 702.264 124.777C702.264 124.191 702.752 123.752 703.387 123.752C703.807 123.752 704.061 123.918 704.373 124.377L707.82 129.357H707.898L711.424 124.318C711.707 123.908 711.922 123.752 712.332 123.752C712.918 123.752 713.406 124.172 713.406 124.689C713.406 124.943 713.328 125.168 713.143 125.432L709.109 130.949V131.008L713.016 136.418C713.191 136.652 713.279 136.896 713.279 137.16C713.279 137.727 712.801 138.156 712.195 138.156C711.785 138.156 711.531 138 711.248 137.6L707.732 132.629H707.664L704.148 137.59C703.846 138.02 703.631 138.156 703.221 138.156ZM715.418 141.369C714.871 141.369 714.52 141.037 714.52 140.549C714.52 140.412 714.549 140.266 714.578 140.168L719.129 124.514C719.285 123.977 719.578 123.723 720.076 123.723C720.604 123.723 720.965 124.064 720.965 124.562C720.965 124.68 720.955 124.768 720.916 124.904L716.326 140.637C716.189 141.125 715.896 141.369 715.418 141.369ZM728.26 138.234C724.725 138.234 722.557 136.086 722.557 133.049V124.885C722.557 124.182 722.967 123.752 723.65 123.752C724.324 123.752 724.744 124.182 724.744 124.885V132.863C724.744 134.875 726.014 136.291 728.26 136.291C730.506 136.291 731.785 134.875 731.785 132.863V124.885C731.785 124.182 732.195 123.752 732.879 123.752C733.553 123.752 733.963 124.182 733.963 124.885V133.049C733.963 136.086 731.795 138.234 728.26 138.234ZM737.654 138.156C736.971 138.156 736.561 137.727 736.561 137.023V124.885C736.561 124.182 736.971 123.752 737.654 123.752C738.328 123.752 738.748 124.182 738.748 124.885V137.023C738.748 137.727 738.328 138.156 737.654 138.156ZM746.502 138C745.818 138 745.408 137.57 745.408 136.867V125.041C745.408 124.338 745.818 123.908 746.502 123.908H750.379C754.568 123.908 757.049 126.486 757.049 130.93C757.049 135.383 754.578 138 750.379 138H746.502ZM747.596 136.105H750.174C753.162 136.105 754.812 134.279 754.812 130.949C754.812 127.629 753.152 125.793 750.174 125.793H747.596V136.105ZM763.338 138.195C760.242 138.195 758.426 136.232 758.426 132.912C758.426 129.65 760.281 127.541 763.191 127.541C765.926 127.541 767.811 129.514 767.811 132.316C767.811 133 767.42 133.391 766.766 133.391H760.555V133.439C760.555 135.314 761.609 136.486 763.289 136.486C764.441 136.486 765.164 136.086 765.945 135.021C766.17 134.758 766.385 134.65 766.688 134.65C767.195 134.65 767.566 134.982 767.566 135.51C767.566 135.676 767.508 135.871 767.42 136.076C766.746 137.424 765.252 138.195 763.338 138.195ZM760.564 131.916H765.701C765.652 130.305 764.646 129.24 763.182 129.24C761.727 129.24 760.672 130.314 760.564 131.916ZM773.24 138.195C771.219 138.195 769.734 137.365 769.246 136.105C769.178 135.949 769.158 135.803 769.158 135.666C769.158 135.139 769.539 134.826 770.066 134.826C770.418 134.826 770.721 134.992 770.984 135.383C771.512 136.213 772.127 136.584 773.348 136.584C774.549 136.584 775.359 136.066 775.359 135.217C775.359 134.543 774.959 134.182 773.855 133.918L772.234 133.537C770.242 133.068 769.266 132.092 769.266 130.627C769.266 128.771 770.877 127.541 773.318 127.541C775.174 127.541 776.697 128.488 776.99 129.699C777.01 129.816 777.029 129.914 777.029 130.012C777.029 130.48 776.736 130.793 776.209 130.793C775.867 130.793 775.564 130.676 775.359 130.344C774.9 129.562 774.275 129.152 773.24 129.152C772.107 129.152 771.326 129.709 771.326 130.51C771.326 131.154 771.824 131.604 772.908 131.857L774.5 132.229C776.658 132.727 777.488 133.498 777.488 135.021C777.488 136.926 775.779 138.195 773.24 138.195ZM780.242 126.174C779.568 126.174 779.021 125.627 779.021 124.963C779.021 124.289 779.568 123.762 780.242 123.762C780.926 123.762 781.473 124.289 781.473 124.963C781.473 125.627 780.926 126.174 780.242 126.174ZM780.242 138.186C779.607 138.186 779.188 137.746 779.188 137.072V128.664C779.188 127.98 779.607 127.541 780.242 127.541C780.877 127.541 781.297 127.98 781.297 128.664V137.072C781.297 137.746 780.877 138.186 780.242 138.186ZM787.762 141.867C785.896 141.848 784.422 141.125 783.719 140.012C783.582 139.777 783.523 139.562 783.523 139.318C783.523 138.83 783.885 138.479 784.422 138.479C784.744 138.479 784.949 138.586 785.232 138.869C786.072 139.748 786.795 140.129 787.801 140.148C789.52 140.168 790.564 139.191 790.564 137.756V136.125H790.516C789.939 137.238 788.729 137.971 787.264 137.971C784.676 137.971 782.996 135.949 782.996 132.775C782.996 129.562 784.656 127.561 787.312 127.561C788.768 127.561 789.9 128.293 790.525 129.455H790.564V128.625C790.564 127.941 791.023 127.541 791.629 127.541C792.234 127.541 792.684 127.941 792.684 128.625V137.717C792.684 140.256 790.818 141.896 787.762 141.867ZM787.83 136.252C789.48 136.252 790.574 134.904 790.574 132.795C790.574 130.686 789.48 129.299 787.83 129.299C786.209 129.299 785.154 130.646 785.154 132.785C785.154 134.934 786.209 136.252 787.83 136.252ZM795.818 138.186C795.193 138.186 794.764 137.766 794.764 137.072V128.605C794.764 127.961 795.154 127.541 795.77 127.541C796.375 127.541 796.795 127.961 796.795 128.615V129.426H796.844C797.4 128.254 798.475 127.551 800.057 127.551C802.322 127.551 803.621 128.996 803.621 131.35V137.072C803.621 137.766 803.182 138.186 802.557 138.186C801.941 138.186 801.502 137.766 801.502 137.072V131.76C801.502 130.217 800.779 129.367 799.314 129.367C797.83 129.367 796.873 130.422 796.873 132.014V137.072C796.873 137.766 796.434 138.186 795.818 138.186ZM810.115 138.195C807.02 138.195 805.203 136.232 805.203 132.912C805.203 129.65 807.059 127.541 809.969 127.541C812.703 127.541 814.588 129.514 814.588 132.316C814.588 133 814.197 133.391 813.543 133.391H807.332V133.439C807.332 135.314 808.387 136.486 810.066 136.486C811.219 136.486 811.941 136.086 812.723 135.021C812.947 134.758 813.162 134.65 813.465 134.65C813.973 134.65 814.344 134.982 814.344 135.51C814.344 135.676 814.285 135.871 814.197 136.076C813.523 137.424 812.029 138.195 810.115 138.195ZM807.342 131.916H812.479C812.43 130.305 811.424 129.24 809.959 129.24C808.504 129.24 807.449 130.314 807.342 131.916ZM817.283 138.186C816.648 138.186 816.229 137.756 816.229 137.072V128.605C816.229 127.961 816.639 127.541 817.234 127.541C817.82 127.541 818.23 127.961 818.23 128.605V129.484H818.279C818.562 128.332 819.51 127.561 820.535 127.561C820.906 127.561 821.189 127.648 821.365 127.814C821.561 127.971 821.648 128.225 821.648 128.557C821.648 128.889 821.541 129.133 821.336 129.299C821.121 129.484 820.809 129.572 820.369 129.572C818.924 129.582 818.338 130.549 818.338 131.828V137.072C818.338 137.756 817.908 138.186 817.283 138.186Z" fill="#201D23"/>
<rect x="91" y="178" width="534" height="333" rx="20" fill="#9ADDFF" fill-opacity="0.1"/>
<path d="M285.344 236C284.184 236 283.5 235.292 283.5 234.071V220.302C283.5 219.093 284.184 218.385 285.344 218.385H290.227C295.512 218.385 298.625 221.535 298.625 227.125C298.625 232.716 295.512 236 290.227 236H285.344ZM287.187 232.948H289.787C293.083 232.948 294.865 230.946 294.865 227.138C294.865 223.451 293.034 221.425 289.787 221.425H287.187V232.948ZM306.718 236.281C302.629 236.281 300.224 233.754 300.224 229.518C300.224 225.307 302.678 222.633 306.547 222.633C310.258 222.633 312.749 225.172 312.749 228.725C312.749 229.713 312.187 230.275 311.198 230.275H303.728V230.434C303.728 232.375 304.899 233.644 306.706 233.644C308.012 233.644 308.867 233.205 309.831 232.069C310.209 231.679 310.527 231.544 310.991 231.544C311.76 231.544 312.382 232.033 312.382 232.851C312.382 233.131 312.297 233.424 312.138 233.717C311.271 235.329 309.245 236.281 306.718 236.281ZM303.764 228.09H309.318C309.245 226.381 308.146 225.27 306.584 225.27C305.021 225.27 303.886 226.417 303.764 228.09ZM319.89 236.256C318.522 236.256 317.79 235.707 317.314 234.438L313.908 225.307C313.798 224.989 313.713 224.611 313.713 224.245C313.713 223.28 314.482 222.646 315.495 222.646C316.362 222.646 316.936 223.109 317.204 224.074L319.853 232.851H319.926L322.575 224.037C322.819 223.097 323.417 222.646 324.248 222.646C325.236 222.646 325.981 223.329 325.981 224.232C325.981 224.562 325.896 224.928 325.786 225.233L322.38 234.438C321.928 235.695 321.184 236.256 319.89 236.256ZM333.256 236.281C329.167 236.281 326.762 233.754 326.762 229.518C326.762 225.307 329.216 222.633 333.085 222.633C336.796 222.633 339.287 225.172 339.287 228.725C339.287 229.713 338.725 230.275 337.736 230.275H330.266V230.434C330.266 232.375 331.438 233.644 333.244 233.644C334.55 233.644 335.405 233.205 336.369 232.069C336.748 231.679 337.065 231.544 337.529 231.544C338.298 231.544 338.92 232.033 338.92 232.851C338.92 233.131 338.835 233.424 338.676 233.717C337.81 235.329 335.783 236.281 333.256 236.281ZM330.302 228.09H335.856C335.783 226.381 334.685 225.27 333.122 225.27C331.56 225.27 330.424 226.417 330.302 228.09ZM342.998 236.256C341.96 236.256 341.215 235.622 341.215 234.401V219.984C341.215 218.764 341.96 218.117 342.998 218.117C344.047 218.117 344.78 218.764 344.78 219.984V234.401C344.78 235.622 344.047 236.256 342.998 236.256ZM353.19 236.281C349.235 236.281 346.708 233.742 346.708 229.445C346.708 225.209 349.272 222.633 353.19 222.633C357.109 222.633 359.672 225.197 359.672 229.445C359.672 233.754 357.146 236.281 353.19 236.281ZM353.19 233.559C354.936 233.559 356.047 232.082 356.047 229.457C356.047 226.857 354.924 225.355 353.19 225.355C351.457 225.355 350.322 226.857 350.322 229.457C350.322 232.082 351.433 233.559 353.19 233.559ZM363.298 240.663C362.26 240.663 361.516 240.028 361.516 238.808V224.477C361.516 223.28 362.248 222.646 363.273 222.646C364.299 222.646 365.031 223.28 365.031 224.489V225.197H365.104C365.812 223.659 367.265 222.707 369.157 222.707C372.478 222.707 374.516 225.233 374.516 229.457C374.516 233.668 372.49 236.208 369.218 236.208C367.314 236.208 365.849 235.28 365.153 233.803H365.08V238.808C365.08 240.028 364.348 240.663 363.298 240.663ZM367.961 233.339C369.743 233.339 370.866 231.837 370.866 229.457C370.866 227.089 369.743 225.563 367.961 225.563C366.215 225.563 365.068 227.113 365.068 229.457C365.068 231.825 366.215 233.339 367.961 233.339ZM378.142 236.256C377.08 236.256 376.359 235.609 376.359 234.401V224.464C376.359 223.268 377.067 222.646 378.081 222.646C379.094 222.646 379.802 223.268 379.802 224.464V225.282H379.875C380.424 223.708 381.828 222.67 383.61 222.67C385.502 222.67 386.821 223.646 387.26 225.355H387.333C387.919 223.708 389.482 222.67 391.398 222.67C393.962 222.67 395.683 224.428 395.683 227.064V234.401C395.683 235.609 394.951 236.256 393.889 236.256C392.839 236.256 392.119 235.609 392.119 234.401V227.956C392.119 226.442 391.362 225.612 389.982 225.612C388.627 225.612 387.736 226.601 387.736 228.053V234.401C387.736 235.609 387.077 236.256 386.015 236.256C384.965 236.256 384.306 235.609 384.306 234.401V227.846C384.306 226.442 383.513 225.612 382.194 225.612C380.839 225.612 379.924 226.637 379.924 228.102V234.401C379.924 235.609 379.191 236.256 378.142 236.256ZM403.959 236.281C399.87 236.281 397.465 233.754 397.465 229.518C397.465 225.307 399.919 222.633 403.789 222.633C407.5 222.633 409.99 225.172 409.99 228.725C409.99 229.713 409.428 230.275 408.439 230.275H400.969V230.434C400.969 232.375 402.141 233.644 403.947 233.644C405.253 233.644 406.108 233.205 407.072 232.069C407.451 231.679 407.768 231.544 408.232 231.544C409.001 231.544 409.624 232.033 409.624 232.851C409.624 233.131 409.538 233.424 409.379 233.717C408.513 235.329 406.486 236.281 403.959 236.281ZM401.005 228.09H406.56C406.486 226.381 405.388 225.27 403.825 225.27C402.263 225.27 401.127 226.417 401.005 228.09ZM413.615 236.256C412.578 236.256 411.833 235.622 411.833 234.401V224.44C411.833 223.329 412.48 222.646 413.554 222.646C414.628 222.646 415.336 223.329 415.336 224.452V225.185H415.41C416.105 223.561 417.424 222.67 419.438 222.67C422.343 222.67 423.979 224.501 423.979 227.565V234.401C423.979 235.622 423.234 236.256 422.197 236.256C421.147 236.256 420.415 235.622 420.415 234.401V228.31C420.415 226.601 419.609 225.624 418.01 225.624C416.411 225.624 415.397 226.796 415.397 228.493V234.401C415.397 235.622 414.665 236.256 413.615 236.256ZM427.189 232.655V225.6H426.506C425.664 225.6 425.126 225.087 425.126 224.257C425.126 223.427 425.664 222.914 426.506 222.914H427.189V221.461C427.189 220.314 427.861 219.606 428.972 219.606C430.083 219.606 430.754 220.314 430.754 221.461V222.914H432.011C432.854 222.914 433.378 223.439 433.378 224.257C433.378 225.075 432.854 225.6 432.011 225.6H430.754V231.862C430.754 232.79 431.071 233.18 431.84 233.241L432.072 233.266C432.951 233.363 433.427 233.729 433.427 234.56C433.427 235.609 432.402 236.146 430.9 236.146H430.778C428.398 236.146 427.189 234.962 427.189 232.655Z" fill="#9ADDFF"/>
<rect x="250.5" y="256" width="100" height="100" rx="12.5" fill="#F95801" fill-opacity="0.2"/>
<path d="M275.5 269L279.667 314.833L300.5 319L321.333 314.833L325.5 269H275.5ZM316.583 283.583H290.667L291.271 289.833H315.979L314.308 309.281L300.479 312.75L286.656 309.321L285.771 300.25H292.062L292.458 304.417L300.5 306.021L308.5 304.417L309.104 296.083H285.583L283.833 277.333H317.167L316.583 283.583Z" fill="#E65100"/>
<path d="M276.164 343.156C275.48 343.156 275.07 342.727 275.07 342.023V329.885C275.07 329.182 275.48 328.752 276.164 328.752C276.838 328.752 277.258 329.182 277.258 329.885V334.865H284.494V329.885C284.494 329.182 284.904 328.752 285.588 328.752C286.262 328.752 286.682 329.182 286.682 329.885V342.023C286.682 342.727 286.262 343.156 285.588 343.156C284.904 343.156 284.494 342.727 284.494 342.023V336.76H277.258V342.023C277.258 342.727 276.838 343.156 276.164 343.156ZM293.859 343.156C293.176 343.156 292.766 342.727 292.766 342.023V330.803H289.309C288.703 330.803 288.293 330.432 288.293 329.855C288.293 329.279 288.703 328.908 289.309 328.908H298.4C299.006 328.908 299.416 329.279 299.416 329.855C299.416 330.432 299.006 330.803 298.4 330.803H294.953V342.023C294.953 342.727 294.533 343.156 293.859 343.156ZM302.043 343.156C301.418 343.156 301.047 342.766 301.047 342.111V330.139C301.047 329.289 301.584 328.752 302.453 328.752C303.195 328.752 303.635 329.084 303.967 329.904L308.137 340.031H308.215L312.375 329.904C312.707 329.094 313.156 328.752 313.918 328.752C314.768 328.752 315.305 329.279 315.305 330.139V342.111C315.305 342.766 314.924 343.156 314.309 343.156C313.684 343.156 313.303 342.766 313.303 342.111V332.629H313.234L309.309 342.092C309.074 342.658 308.723 342.912 308.176 342.912C307.629 342.912 307.268 342.658 307.043 342.111L303.107 332.629H303.039V342.111C303.039 342.766 302.668 343.156 302.043 343.156ZM318.996 343C318.312 343 317.902 342.57 317.902 341.867V329.885C317.902 329.182 318.312 328.752 318.996 328.752C319.67 328.752 320.09 329.182 320.09 329.885V341.105H325.793C326.398 341.105 326.809 341.477 326.809 342.053C326.809 342.629 326.398 343 325.793 343H318.996Z" fill="#E65100"/>
<rect x="365.5" y="256" width="100" height="100" rx="12.5" fill="#B976FF" fill-opacity="0.2"/>
<path d="M390.5 269H432.5C436.918 269 440.5 272.581 440.5 277V311C440.5 315.419 436.919 319 432.5 319H398.5C394.082 319 390.5 315.419 390.5 311V269Z" fill="#AB7ED9"/>
<path d="M408.405 315.001C405.194 314.998 403.212 313.188 403.25 309.86V301.441C403.25 299.754 403.744 298.471 404.732 297.593C406.507 295.882 410.623 295.779 412.361 297.619C413.432 298.563 413.837 300.492 413.741 302.293H410.055C410.084 301.586 410.045 300.514 409.629 300.111C409.089 299.38 407.662 299.465 407.284 300.227C407.052 300.64 406.936 301.25 406.936 302.061V309.37C406.936 310.902 407.468 311.677 408.534 311.694C409.032 311.693 409.41 311.512 409.668 311.151C410.027 310.721 410.084 309.773 410.055 309.084H413.741C413.993 312.588 411.923 315.044 408.405 315.001ZM420.107 315.001C416.548 315.05 414.957 312.516 415.054 309.085H418.535C418.437 310.582 418.952 311.944 420.184 311.85C420.734 311.85 421.12 311.677 421.344 311.332C421.768 310.702 421.849 308.885 421.24 308.182C420.816 307.504 419.289 306.906 418.483 306.503C417.331 305.952 416.502 305.298 415.996 304.539C414.852 302.858 414.958 299.167 416.562 297.67C418.121 295.823 422.193 295.739 423.754 297.632C424.716 298.607 425.136 300.526 425.055 302.293H421.704C421.733 301.567 421.664 300.395 421.382 299.969C421.184 299.607 420.81 299.426 420.261 299.426C419.281 299.426 418.791 300.012 418.791 301.182C418.802 302.425 419.287 302.936 420.416 303.454C421.878 304.022 423.737 304.993 424.411 306.166C426.421 309.744 425.041 315.21 420.107 315.001ZM431.345 315.001C427.786 315.05 426.195 312.516 426.293 309.085H429.773C429.675 310.582 430.189 311.944 431.423 311.85C431.972 311.85 432.358 311.677 432.582 311.332C433.006 310.702 433.086 308.885 432.479 308.182C432.054 307.504 430.527 306.906 429.721 306.503C428.569 305.952 427.74 305.298 427.234 304.539C426.089 302.858 426.196 299.167 427.8 297.67C429.36 295.823 433.43 295.739 434.992 297.632C435.954 298.607 436.374 300.526 436.293 302.293H432.942C432.97 301.567 432.903 300.395 432.62 299.969C432.422 299.607 432.048 299.426 431.499 299.426C430.519 299.426 430.029 300.012 430.029 301.182C430.04 302.425 430.525 302.936 431.654 303.454C433.116 304.022 434.975 304.993 435.649 306.166C437.659 309.744 436.28 315.21 431.345 315.001Z" fill="#443959"/>
<path d="M403.664 343.234C399.68 343.234 397.189 340.441 397.189 335.949C397.189 331.486 399.709 328.674 403.645 328.674C406.232 328.674 408.303 329.934 409.182 332.014C409.318 332.297 409.387 332.59 409.387 332.854C409.387 333.439 408.996 333.82 408.41 333.82C407.893 333.82 407.551 333.566 407.307 333C406.652 331.428 405.266 330.588 403.645 330.588C401.086 330.588 399.426 332.688 399.426 335.949C399.426 339.24 401.066 341.32 403.654 341.32C405.373 341.32 406.691 340.588 407.346 339.064C407.58 338.547 407.863 338.332 408.342 338.332C408.938 338.332 409.348 338.742 409.348 339.318C409.348 339.621 409.27 339.904 409.113 340.227C408.205 342.131 406.281 343.234 403.664 343.234ZM416.408 343.234C413.674 343.234 411.799 342.053 411.252 340.412C411.184 340.197 411.135 339.963 411.135 339.729C411.135 339.094 411.525 338.684 412.121 338.684C412.619 338.684 412.941 338.908 413.156 339.436C413.596 340.754 414.875 341.369 416.506 341.369C418.293 341.369 419.572 340.451 419.572 339.191C419.572 338.098 418.83 337.414 416.945 337.004L415.402 336.682C412.59 336.086 411.311 334.777 411.311 332.746C411.311 330.334 413.43 328.674 416.428 328.674C418.859 328.674 420.773 329.816 421.32 331.701C421.369 331.838 421.398 332.004 421.398 332.209C421.398 332.775 420.998 333.146 420.432 333.146C419.904 333.146 419.582 332.902 419.357 332.395C418.879 331.096 417.805 330.539 416.398 330.539C414.748 330.539 413.527 331.34 413.527 332.629C413.527 333.654 414.26 334.338 416.086 334.729L417.619 335.051C420.578 335.676 421.789 336.857 421.789 338.908C421.789 341.564 419.699 343.234 416.408 343.234ZM428.557 343.234C425.822 343.234 423.947 342.053 423.4 340.412C423.332 340.197 423.283 339.963 423.283 339.729C423.283 339.094 423.674 338.684 424.27 338.684C424.768 338.684 425.09 338.908 425.305 339.436C425.744 340.754 427.023 341.369 428.654 341.369C430.441 341.369 431.721 340.451 431.721 339.191C431.721 338.098 430.979 337.414 429.094 337.004L427.551 336.682C424.738 336.086 423.459 334.777 423.459 332.746C423.459 330.334 425.578 328.674 428.576 328.674C431.008 328.674 432.922 329.816 433.469 331.701C433.518 331.838 433.547 332.004 433.547 332.209C433.547 332.775 433.146 333.146 432.58 333.146C432.053 333.146 431.73 332.902 431.506 332.395C431.027 331.096 429.953 330.539 428.547 330.539C426.896 330.539 425.676 331.34 425.676 332.629C425.676 333.654 426.408 334.338 428.234 334.729L429.768 335.051C432.727 335.676 433.938 336.857 433.938 338.908C433.938 341.564 431.848 343.234 428.557 343.234Z" fill="#AB7ED9"/>
<rect x="250.5" y="371" width="100" height="100" rx="12.5" fill="#FFCA28" fill-opacity="0.2"/>
<path d="M275.5 385.5V435.5H325.5V385.5H275.5ZM302.711 424.495C302.711 429.361 299.854 431.582 295.691 431.582C291.93 431.582 289.754 429.641 288.638 427.286L292.466 424.975C293.204 426.28 293.873 427.386 295.491 427.386C297.03 427.386 298.013 426.782 298.013 424.429V408.457H302.711V424.495ZM313.825 431.582C309.461 431.582 306.637 429.507 305.264 426.782L309.093 424.573C310.098 426.214 311.414 427.43 313.725 427.43C315.666 427.43 316.918 426.459 316.918 425.109C316.918 423.502 315.645 422.932 313.491 421.984L312.32 421.482C308.927 420.043 306.684 418.223 306.684 414.395C306.684 410.868 309.373 408.189 313.559 408.189C316.55 408.189 318.693 409.227 320.234 411.95L316.573 414.295C315.77 412.855 314.898 412.286 313.548 412.286C312.177 412.286 311.305 413.157 311.305 414.295C311.305 415.702 312.177 416.27 314.196 417.152L315.368 417.654C319.364 419.361 321.607 421.114 321.607 425.041C321.607 429.261 318.28 431.58 313.827 431.58L313.825 431.582Z" fill="#FFCA28"/>
<path d="M267.43 456.688C265.891 456.688 264.672 455.93 264.211 454.703C264.109 454.422 264.047 454.195 264.047 453.883C264.047 453.352 264.367 453.023 264.867 453.023C265.312 453.023 265.578 453.25 265.719 453.766C265.961 454.641 266.562 455.125 267.414 455.125C268.562 455.125 269.188 454.43 269.188 453.148V446.008C269.188 445.445 269.516 445.102 270.062 445.102C270.602 445.102 270.938 445.445 270.938 446.008V453.156C270.938 455.391 269.625 456.688 267.43 456.688ZM275.242 456.641C273.633 456.641 272.5 455.641 272.5 454.164C272.5 452.727 273.609 451.844 275.555 451.734L277.812 451.602V450.969C277.812 450.055 277.195 449.508 276.164 449.508C275.352 449.508 274.812 449.797 274.344 450.547C274.172 450.797 273.953 450.906 273.656 450.906C273.234 450.906 272.93 450.625 272.93 450.203C272.93 450.031 272.977 449.844 273.078 449.656C273.508 448.727 274.75 448.133 276.227 448.133C278.219 448.133 279.492 449.188 279.492 450.836V455.797C279.492 456.328 279.156 456.648 278.68 456.648C278.211 456.648 277.891 456.344 277.875 455.844V455.148H277.836C277.359 456.062 276.312 456.641 275.242 456.641ZM275.703 455.305C276.883 455.305 277.812 454.492 277.812 453.422V452.773L275.781 452.898C274.773 452.969 274.203 453.414 274.203 454.117C274.203 454.836 274.805 455.305 275.703 455.305ZM284.281 456.648C283.68 456.648 283.352 456.398 283.117 455.789L280.68 449.375C280.625 449.227 280.586 449.062 280.586 448.906C280.586 448.438 280.945 448.133 281.438 448.133C281.828 448.133 282.094 448.344 282.234 448.797L284.273 454.852H284.305L286.344 448.781C286.484 448.344 286.75 448.133 287.133 448.133C287.617 448.133 287.961 448.453 287.961 448.898C287.961 449.047 287.93 449.211 287.875 449.352L285.438 455.789C285.219 456.383 284.859 456.648 284.281 456.648ZM291.336 456.641C289.727 456.641 288.594 455.641 288.594 454.164C288.594 452.727 289.703 451.844 291.648 451.734L293.906 451.602V450.969C293.906 450.055 293.289 449.508 292.258 449.508C291.445 449.508 290.906 449.797 290.438 450.547C290.266 450.797 290.047 450.906 289.75 450.906C289.328 450.906 289.023 450.625 289.023 450.203C289.023 450.031 289.07 449.844 289.172 449.656C289.602 448.727 290.844 448.133 292.32 448.133C294.312 448.133 295.586 449.188 295.586 450.836V455.797C295.586 456.328 295.25 456.648 294.773 456.648C294.305 456.648 293.984 456.344 293.969 455.844V455.148H293.93C293.453 456.062 292.406 456.641 291.336 456.641ZM291.797 455.305C292.977 455.305 293.906 454.492 293.906 453.422V452.773L291.875 452.898C290.867 452.969 290.297 453.414 290.297 454.117C290.297 454.836 290.898 455.305 291.797 455.305ZM301.273 456.688C299.086 456.688 297.586 455.742 297.148 454.43C297.094 454.258 297.055 454.07 297.055 453.883C297.055 453.375 297.367 453.047 297.844 453.047C298.242 453.047 298.5 453.227 298.672 453.648C299.023 454.703 300.047 455.195 301.352 455.195C302.781 455.195 303.805 454.461 303.805 453.453C303.805 452.578 303.211 452.031 301.703 451.703L300.469 451.445C298.219 450.969 297.195 449.922 297.195 448.297C297.195 446.367 298.891 445.039 301.289 445.039C303.234 445.039 304.766 445.953 305.203 447.461C305.242 447.57 305.266 447.703 305.266 447.867C305.266 448.32 304.945 448.617 304.492 448.617C304.07 448.617 303.812 448.422 303.633 448.016C303.25 446.977 302.391 446.531 301.266 446.531C299.945 446.531 298.969 447.172 298.969 448.203C298.969 449.023 299.555 449.57 301.016 449.883L302.242 450.141C304.609 450.641 305.578 451.586 305.578 453.227C305.578 455.352 303.906 456.688 301.273 456.688ZM310.461 456.656C308.109 456.656 306.578 455.023 306.578 452.406C306.578 449.805 308.102 448.133 310.445 448.133C312.031 448.133 313.391 448.977 313.75 450.125C313.797 450.258 313.828 450.398 313.828 450.516C313.828 450.945 313.523 451.211 313.109 451.211C312.75 451.211 312.547 451.07 312.344 450.695C311.922 449.914 311.344 449.539 310.477 449.539C309.156 449.539 308.297 450.641 308.297 452.391C308.297 454.18 309.172 455.242 310.477 455.242C311.391 455.242 311.945 454.836 312.344 454.125C312.578 453.719 312.758 453.578 313.125 453.578C313.539 453.578 313.844 453.859 313.844 454.281C313.844 454.414 313.812 454.555 313.75 454.719C313.32 455.852 311.984 456.656 310.461 456.656ZM316.055 456.648C315.547 456.648 315.211 456.305 315.211 455.758V448.984C315.211 448.469 315.539 448.133 316.016 448.133C316.484 448.133 316.812 448.469 316.812 448.984V449.688H316.852C317.078 448.766 317.836 448.148 318.656 448.148C318.953 448.148 319.18 448.219 319.32 448.352C319.477 448.477 319.547 448.68 319.547 448.945C319.547 449.211 319.461 449.406 319.297 449.539C319.125 449.688 318.875 449.758 318.523 449.758C317.367 449.766 316.898 450.539 316.898 451.562V455.758C316.898 456.305 316.555 456.648 316.055 456.648ZM321.359 447.039C320.82 447.039 320.383 446.602 320.383 446.07C320.383 445.531 320.82 445.109 321.359 445.109C321.906 445.109 322.344 445.531 322.344 446.07C322.344 446.602 321.906 447.039 321.359 447.039ZM321.359 456.648C320.852 456.648 320.516 456.297 320.516 455.758V449.031C320.516 448.484 320.852 448.133 321.359 448.133C321.867 448.133 322.203 448.484 322.203 449.031V455.758C322.203 456.297 321.867 456.648 321.359 456.648ZM324.773 459.414C324.273 459.414 323.93 459.07 323.93 458.516V449C323.93 448.461 324.266 448.133 324.742 448.133C325.219 448.133 325.562 448.461 325.562 449V449.695H325.594C326.078 448.75 327.023 448.148 328.211 448.148C330.297 448.148 331.672 449.789 331.672 452.391C331.672 454.992 330.305 456.641 328.242 456.641C327.062 456.641 326.125 456.062 325.656 455.148H325.617V458.516C325.617 459.07 325.266 459.414 324.773 459.414ZM327.766 455.211C329.102 455.211 329.938 454.117 329.938 452.391C329.938 450.672 329.102 449.57 327.766 449.57C326.477 449.57 325.609 450.695 325.609 452.391C325.609 454.102 326.469 455.211 327.766 455.211ZM333.469 454.531V449.617H332.875C332.438 449.617 332.172 449.367 332.172 448.953C332.172 448.531 332.438 448.281 332.875 448.281H333.469V447.062C333.469 446.523 333.805 446.164 334.32 446.164C334.828 446.164 335.164 446.523 335.164 447.062V448.281H336.125C336.562 448.281 336.828 448.539 336.828 448.953C336.828 449.367 336.562 449.617 336.125 449.617H335.164V454.156C335.164 454.812 335.391 455.109 336 455.156L336.133 455.164C336.617 455.211 336.859 455.406 336.859 455.805C336.859 456.312 336.469 456.57 335.641 456.57H335.555C334.172 456.57 333.469 455.891 333.469 454.531Z" fill="#FFCA28"/>
<rect x="365.5" y="371" width="100" height="100" rx="12.5" fill="#61DAFB" fill-opacity="0.2"/>
<path d="M415.5 413.553C418.014 413.553 420.053 411.514 420.053 409C420.053 406.486 418.014 404.447 415.5 404.447C412.986 404.447 410.947 406.486 410.947 409C410.947 411.514 412.986 413.553 415.5 413.553Z" fill="#61DAFB"/>
<path d="M432.792 401.492C431.914 401.173 430.995 400.853 430.037 400.573C430.276 399.615 430.476 398.657 430.636 397.738C431.474 392.466 430.556 388.752 428 387.315C427.241 386.875 426.403 386.676 425.444 386.676C422.649 386.676 419.094 388.752 415.5 392.227C411.906 388.752 408.351 386.676 405.556 386.676C404.597 386.676 403.759 386.875 403 387.315C400.444 388.792 399.526 392.506 400.364 397.738C400.524 398.657 400.724 399.615 400.963 400.573C400.005 400.853 399.086 401.133 398.208 401.492C393.216 403.409 390.5 406.045 390.5 409C390.5 411.955 393.256 414.591 398.208 416.508C399.086 416.827 400.005 417.147 400.963 417.427C400.724 418.385 400.524 419.343 400.364 420.262C399.526 425.534 400.444 429.248 403 430.685C403.759 431.125 404.597 431.324 405.556 431.324C408.391 431.324 411.946 429.248 415.5 425.773C419.094 429.248 422.649 431.324 425.444 431.324C426.403 431.324 427.241 431.125 428 430.685C430.556 429.208 431.474 425.494 430.636 420.262C430.476 419.343 430.276 418.385 430.037 417.427C430.995 417.147 431.914 416.867 432.792 416.508C437.784 414.591 440.5 411.955 440.5 409C440.5 406.045 437.784 403.409 432.792 401.492ZM426.882 389.312C428.519 390.27 429.078 393.225 428.399 397.419C428.28 398.257 428.08 399.136 427.84 400.054C425.764 399.575 423.567 399.256 421.251 399.056C419.893 397.139 418.495 395.422 417.097 393.864C420.053 390.949 423.048 388.952 425.484 388.952C426.003 388.952 426.482 389.072 426.882 389.312ZM422.409 412.994C421.69 414.272 420.851 415.55 419.973 416.827C418.495 416.947 417.018 416.987 415.5 416.987C413.942 416.987 412.465 416.947 411.027 416.827C410.149 415.55 409.35 414.272 408.631 412.994C407.872 411.676 407.153 410.318 406.514 409C407.153 407.682 407.872 406.324 408.631 405.006C409.35 403.728 410.188 402.45 411.067 401.173C412.545 401.053 414.022 401.013 415.54 401.013C417.097 401.013 418.575 401.053 420.013 401.173C420.891 402.45 421.69 403.728 422.409 405.006C423.168 406.324 423.887 407.682 424.526 409C423.847 410.318 423.168 411.636 422.409 412.994ZM425.724 411.676C426.323 413.073 426.802 414.431 427.241 415.789C425.883 416.109 424.446 416.348 422.928 416.548C423.407 415.789 423.927 414.99 424.366 414.152C424.845 413.313 425.284 412.474 425.724 411.676ZM415.5 422.498C414.542 421.46 413.623 420.342 412.744 419.184C413.663 419.224 414.581 419.264 415.5 419.264C416.419 419.264 417.337 419.224 418.256 419.184C417.377 420.342 416.458 421.46 415.5 422.498ZM408.072 416.508C406.554 416.308 405.117 416.069 403.759 415.749C404.198 414.431 404.677 413.034 405.276 411.636C405.716 412.435 406.155 413.273 406.634 414.072C407.113 414.95 407.593 415.709 408.072 416.508ZM405.276 406.324C404.677 404.927 404.198 403.569 403.759 402.211C405.117 401.891 406.554 401.652 408.072 401.452C407.593 402.211 407.073 403.01 406.634 403.848C406.155 404.687 405.716 405.526 405.276 406.324ZM415.5 395.502C416.458 396.54 417.377 397.658 418.256 398.816C417.337 398.776 416.419 398.736 415.5 398.736C414.581 398.736 413.663 398.776 412.744 398.816C413.623 397.658 414.542 396.54 415.5 395.502ZM424.366 403.888L422.928 401.492C424.446 401.692 425.883 401.931 427.241 402.251C426.802 403.569 426.323 404.966 425.724 406.364C425.284 405.526 424.845 404.687 424.366 403.888ZM402.601 397.419C401.922 393.225 402.481 390.27 404.118 389.312C404.518 389.072 404.997 388.952 405.516 388.952C407.912 388.952 410.907 390.909 413.903 393.864C412.505 395.382 411.107 397.139 409.749 399.056C407.433 399.256 405.236 399.615 403.16 400.054C402.92 399.136 402.76 398.257 402.601 397.419ZM392.736 409C392.736 407.123 395.013 405.126 399.006 403.649C399.805 403.329 400.684 403.05 401.562 402.81C402.201 404.807 403 406.923 403.958 409.04C403 411.157 402.161 413.233 401.562 415.23C396.051 413.633 392.736 411.236 392.736 409ZM404.118 428.688C402.481 427.73 401.922 424.775 402.601 420.581C402.72 419.743 402.92 418.864 403.16 417.946C405.236 418.425 407.433 418.744 409.749 418.944C411.107 420.861 412.505 422.578 413.903 424.136C410.947 427.051 407.952 429.048 405.516 429.048C404.997 429.048 404.518 428.928 404.118 428.688ZM428.399 420.581C429.078 424.775 428.519 427.73 426.882 428.688C426.482 428.928 426.003 429.048 425.484 429.048C423.088 429.048 420.093 427.091 417.097 424.136C418.495 422.618 419.893 420.861 421.251 418.944C423.567 418.744 425.764 418.385 427.84 417.946C428.08 418.864 428.24 419.743 428.399 420.581ZM431.994 414.351C431.195 414.671 430.316 414.95 429.438 415.19C428.799 413.193 428 411.077 427.042 408.96C428 406.843 428.839 404.767 429.438 402.77C434.949 404.367 438.264 406.764 438.264 409C438.264 410.877 435.947 412.874 431.994 414.351Z" fill="#61DAFB"/>
<path d="M392.922 455.51C392.248 455.51 391.828 455.08 391.828 454.377V442.365C391.828 441.662 392.238 441.232 392.922 441.232H397.287C400.188 441.232 401.994 442.912 401.994 445.539C401.994 447.424 400.998 448.947 399.309 449.543L401.691 453.752C401.867 454.055 401.926 454.26 401.926 454.504C401.926 455.08 401.447 455.51 400.812 455.51C400.305 455.51 400.041 455.324 399.719 454.748L397.072 449.904H394.016V454.377C394.016 455.08 393.586 455.51 392.922 455.51ZM394.016 448.137H397.082C398.771 448.137 399.738 447.209 399.738 445.598C399.738 444.025 398.713 443.068 397.023 443.068H394.016V448.137ZM408.273 455.52C405.178 455.52 403.361 453.557 403.361 450.236C403.361 446.975 405.217 444.865 408.127 444.865C410.861 444.865 412.746 446.838 412.746 449.641C412.746 450.324 412.355 450.715 411.701 450.715H405.49V450.764C405.49 452.639 406.545 453.811 408.225 453.811C409.377 453.811 410.1 453.41 410.881 452.346C411.105 452.082 411.32 451.975 411.623 451.975C412.131 451.975 412.502 452.307 412.502 452.834C412.502 453 412.443 453.195 412.355 453.4C411.682 454.748 410.188 455.52 408.273 455.52ZM405.5 449.24H410.637C410.588 447.629 409.582 446.565 408.117 446.565C406.662 446.565 405.607 447.639 405.5 449.24ZM417.395 455.5C415.383 455.5 413.967 454.25 413.967 452.404C413.967 450.607 415.354 449.504 417.785 449.367L420.607 449.201V448.41C420.607 447.268 419.836 446.584 418.547 446.584C417.531 446.584 416.857 446.945 416.271 447.883C416.057 448.195 415.783 448.332 415.412 448.332C414.885 448.332 414.504 447.981 414.504 447.453C414.504 447.238 414.562 447.004 414.689 446.77C415.227 445.607 416.779 444.865 418.625 444.865C421.115 444.865 422.707 446.184 422.707 448.244V454.445C422.707 455.109 422.287 455.51 421.691 455.51C421.105 455.51 420.705 455.129 420.686 454.504V453.635H420.637C420.041 454.777 418.732 455.5 417.395 455.5ZM417.971 453.83C419.445 453.83 420.607 452.815 420.607 451.477V450.666L418.068 450.822C416.809 450.91 416.096 451.467 416.096 452.346C416.096 453.244 416.848 453.83 417.971 453.83ZM429.152 455.52C426.213 455.52 424.299 453.479 424.299 450.207C424.299 446.955 426.203 444.865 429.133 444.865C431.115 444.865 432.814 445.92 433.264 447.356C433.322 447.522 433.361 447.697 433.361 447.844C433.361 448.381 432.98 448.713 432.463 448.713C432.014 448.713 431.76 448.537 431.506 448.068C430.979 447.092 430.256 446.623 429.172 446.623C427.521 446.623 426.447 448 426.447 450.188C426.447 452.424 427.541 453.752 429.172 453.752C430.314 453.752 431.008 453.244 431.506 452.356C431.799 451.848 432.023 451.672 432.482 451.672C433 451.672 433.381 452.023 433.381 452.551C433.381 452.717 433.342 452.893 433.264 453.098C432.727 454.514 431.057 455.52 429.152 455.52ZM435.705 452.863V446.721H434.963C434.416 446.721 434.084 446.408 434.084 445.891C434.084 445.363 434.416 445.051 434.963 445.051H435.705V443.527C435.705 442.854 436.125 442.404 436.77 442.404C437.404 442.404 437.824 442.854 437.824 443.527V445.051H439.025C439.572 445.051 439.904 445.373 439.904 445.891C439.904 446.408 439.572 446.721 439.025 446.721H437.824V452.395C437.824 453.215 438.107 453.586 438.869 453.645L439.035 453.654C439.641 453.713 439.943 453.957 439.943 454.455C439.943 455.09 439.455 455.412 438.42 455.412H438.312C436.584 455.412 435.705 454.563 435.705 452.863Z" fill="#61DAFB"/>
<rect x="655" y="178" width="534" height="333" rx="20" fill="#C89AFF" fill-opacity="0.1"/>
<path d="M885.538 236C884.378 236 883.694 235.292 883.694 234.071V220.302C883.694 219.093 884.378 218.385 885.538 218.385H890.42C895.706 218.385 898.819 221.535 898.819 227.125C898.819 232.716 895.706 236 890.42 236H885.538ZM887.381 232.948H889.981C893.277 232.948 895.059 230.946 895.059 227.138C895.059 223.451 893.228 221.425 889.981 221.425H887.381V232.948ZM906.912 236.281C902.823 236.281 900.418 233.754 900.418 229.518C900.418 225.307 902.872 222.633 906.741 222.633C910.452 222.633 912.942 225.172 912.942 228.725C912.942 229.713 912.381 230.275 911.392 230.275H903.921V230.434C903.921 232.375 905.093 233.644 906.9 233.644C908.206 233.644 909.061 233.205 910.025 232.069C910.403 231.679 910.721 231.544 911.185 231.544C911.954 231.544 912.576 232.033 912.576 232.851C912.576 233.131 912.491 233.424 912.332 233.717C911.465 235.329 909.439 236.281 906.912 236.281ZM903.958 228.09H909.512C909.439 226.381 908.34 225.27 906.778 225.27C905.215 225.27 904.08 226.417 903.958 228.09ZM920.12 236.281C917.117 236.281 915.115 235.207 914.493 233.668C914.407 233.437 914.358 233.205 914.358 233.009C914.358 232.191 914.969 231.642 915.799 231.642C916.373 231.642 916.861 231.898 917.349 232.448C918.045 233.363 918.851 233.778 920.206 233.778C921.5 233.778 922.342 233.241 922.342 232.375C922.342 231.667 921.89 231.288 920.608 231.007L918.411 230.543C915.848 229.994 914.554 228.688 914.554 226.747C914.554 224.245 916.714 222.633 920.108 222.633C922.818 222.633 924.808 223.866 925.235 225.343C925.284 225.526 925.32 225.697 925.32 225.868C925.32 226.588 924.869 227.089 923.953 227.089C923.489 227.089 922.977 226.918 922.659 226.54C922.037 225.746 921.329 225.136 920.047 225.136C918.838 225.136 917.996 225.709 917.996 226.552C917.996 227.235 918.509 227.687 919.815 227.968L921.976 228.432C924.759 229.018 925.906 230.043 925.906 231.996C925.906 234.596 923.575 236.281 920.12 236.281ZM929.52 221.291C928.445 221.291 927.615 220.473 927.615 219.447C927.615 218.41 928.445 217.604 929.52 217.604C930.594 217.604 931.424 218.41 931.424 219.447C931.424 220.473 930.594 221.291 929.52 221.291ZM929.52 236.256C928.409 236.256 927.737 235.561 927.737 234.401V224.513C927.737 223.354 928.409 222.646 929.52 222.646C930.618 222.646 931.302 223.354 931.302 224.513V234.401C931.302 235.561 930.618 236.256 929.52 236.256ZM939.529 240.919C936.856 240.907 934.866 239.894 934.024 238.515C933.829 238.185 933.755 237.855 933.755 237.526C933.755 236.781 934.317 236.22 935.208 236.22C935.672 236.22 936.038 236.366 936.441 236.732C937.405 237.648 938.333 238.148 939.517 238.161C941.47 238.173 942.618 237.099 942.618 235.463V233.375H942.544C941.934 234.779 940.408 235.719 938.516 235.719C935.257 235.719 933.206 233.229 933.206 229.237C933.206 225.136 935.208 222.707 938.577 222.707C940.457 222.707 941.885 223.695 942.569 225.172H942.642V224.452C942.642 223.244 943.411 222.646 944.437 222.646C945.462 222.646 946.207 223.244 946.207 224.452V235.487C946.207 238.893 943.741 240.944 939.529 240.919ZM939.725 233.07C941.507 233.07 942.654 231.654 942.654 229.286C942.654 226.93 941.507 225.417 939.725 225.417C937.967 225.417 936.856 226.906 936.856 229.274C936.856 231.667 937.955 233.07 939.725 233.07ZM950.308 236.256C949.271 236.256 948.526 235.622 948.526 234.401V224.44C948.526 223.329 949.173 222.646 950.247 222.646C951.321 222.646 952.029 223.329 952.029 224.452V225.185H952.103C952.798 223.561 954.117 222.67 956.131 222.67C959.036 222.67 960.672 224.501 960.672 227.565V234.401C960.672 235.622 959.927 236.256 958.89 236.256C957.84 236.256 957.107 235.622 957.107 234.401V228.31C957.107 226.601 956.302 225.624 954.703 225.624C953.104 225.624 952.09 226.796 952.09 228.493V234.401C952.09 235.622 951.358 236.256 950.308 236.256Z" fill="#C89AFF"/>
<rect x="814.5" y="256" width="100" height="100" rx="12.5" fill="white" fill-opacity="0.2"/>
<path d="M849.5 272H879.5V286.667H864.5L849.5 272ZM849.5 286.667H864.5L879.5 301.333H864.5V316L849.5 301.333V286.667Z" fill="white"/>
<path d="M834.832 340.186C833.904 340.186 833.357 339.619 833.357 338.652V327.441C833.357 326.475 833.904 325.908 834.832 325.908H841.424C842.234 325.908 842.762 326.367 842.762 327.129C842.762 327.891 842.225 328.35 841.424 328.35H836.307V332.119H840.945C841.707 332.119 842.205 332.559 842.205 333.281C842.205 334.014 841.717 334.453 840.945 334.453H836.307V338.652C836.307 339.619 835.76 340.186 834.832 340.186ZM845.516 340.205C844.656 340.205 844.09 339.668 844.09 338.721V330.752C844.09 329.844 844.646 329.316 845.467 329.316C846.268 329.316 846.814 329.844 846.814 330.752V331.436H846.873C847.146 330.137 848.006 329.365 849.051 329.365C849.432 329.365 849.734 329.453 849.939 329.629C850.213 329.844 850.35 330.195 850.35 330.684C850.35 331.133 850.213 331.475 849.939 331.709C849.666 331.943 849.256 332.07 848.699 332.08C847.4 332.1 846.941 332.832 846.941 334.072V338.721C846.941 339.668 846.385 340.205 845.516 340.205ZM854.217 340.166C852.225 340.166 850.711 338.877 850.711 336.992C850.711 335.088 852.176 333.984 854.793 333.828L857.43 333.672V332.979C857.43 332.002 856.746 331.436 855.672 331.436C854.803 331.436 854.275 331.719 853.641 332.539C853.328 332.891 852.967 333.066 852.508 333.066C851.814 333.066 851.316 332.617 851.316 331.973C851.316 331.748 851.365 331.543 851.463 331.328C851.951 330.078 853.631 329.307 855.799 329.307C858.484 329.307 860.232 330.693 860.232 332.803V338.77C860.232 339.717 859.656 340.205 858.846 340.205C858.074 340.205 857.537 339.775 857.479 338.936V338.398H857.42C856.834 339.512 855.525 340.166 854.217 340.166ZM855.154 338.105C856.404 338.105 857.43 337.295 857.43 336.162V335.4L855.223 335.537C854.158 335.615 853.553 336.094 853.553 336.836C853.553 337.617 854.197 338.105 855.154 338.105ZM863.504 340.205C862.654 340.205 862.078 339.688 862.078 338.721V330.771C862.078 329.814 862.645 329.316 863.455 329.316C864.266 329.316 864.832 329.814 864.832 330.771V331.426H864.891C865.33 330.166 866.453 329.336 867.879 329.336C869.393 329.336 870.447 330.117 870.799 331.484H870.857C871.326 330.166 872.576 329.336 874.109 329.336C876.16 329.336 877.537 330.742 877.537 332.852V338.721C877.537 339.688 876.951 340.205 876.102 340.205C875.262 340.205 874.686 339.688 874.686 338.721V333.564C874.686 332.354 874.08 331.689 872.977 331.689C871.893 331.689 871.18 332.48 871.18 333.643V338.721C871.18 339.688 870.652 340.205 869.803 340.205C868.963 340.205 868.436 339.688 868.436 338.721V333.477C868.436 332.354 867.801 331.689 866.746 331.689C865.662 331.689 864.93 332.51 864.93 333.682V338.721C864.93 339.688 864.344 340.205 863.504 340.205ZM884.158 340.225C880.887 340.225 878.963 338.203 878.963 334.814C878.963 331.445 880.926 329.307 884.021 329.307C886.99 329.307 888.982 331.338 888.982 334.18C888.982 334.971 888.533 335.42 887.742 335.42H881.766V335.547C881.766 337.1 882.703 338.115 884.148 338.115C885.193 338.115 885.877 337.764 886.648 336.855C886.951 336.543 887.205 336.436 887.576 336.436C888.191 336.436 888.689 336.826 888.689 337.48C888.689 337.705 888.621 337.939 888.494 338.174C887.801 339.463 886.18 340.225 884.158 340.225ZM881.795 333.672H886.238C886.18 332.305 885.301 331.416 884.051 331.416C882.801 331.416 881.893 332.334 881.795 333.672ZM891.883 340.205C891.023 340.205 890.457 339.668 890.457 338.721V330.752C890.457 329.844 891.014 329.316 891.834 329.316C892.635 329.316 893.182 329.844 893.182 330.752V331.436H893.24C893.514 330.137 894.373 329.365 895.418 329.365C895.799 329.365 896.102 329.453 896.307 329.629C896.58 329.844 896.717 330.195 896.717 330.684C896.717 331.133 896.58 331.475 896.307 331.709C896.033 331.943 895.623 332.07 895.066 332.08C893.768 332.1 893.309 332.832 893.309 334.072V338.721C893.309 339.668 892.752 340.205 891.883 340.205Z" fill="white"/>
<rect x="929.5" y="256" width="100" height="100" rx="12.5" fill="#FF7262" fill-opacity="0.2"/>
<path opacity="0.6" d="M979.502 271.501H972C970.011 271.501 968.103 272.292 966.697 273.698C965.29 275.105 964.5 277.013 964.5 279.002C964.5 280.991 965.29 282.899 966.697 284.305C968.103 285.712 970.011 286.502 972 286.502H979.502V271.501Z" fill="#FF7262"/>
<path opacity="0.4" d="M979.502 286.502H972C970.011 286.502 968.104 287.292 966.698 288.699C965.291 290.105 964.501 292.012 964.501 294.001C964.501 295.99 965.291 297.898 966.698 299.304C968.104 300.71 970.011 301.5 972 301.5H979.502V286.502Z" fill="#FF7262"/>
<path d="M994.5 294.001C994.5 295.99 993.71 297.898 992.303 299.305C990.897 300.711 988.989 301.501 987 301.501C985.011 301.501 983.103 300.711 981.696 299.305C980.29 297.898 979.5 295.99 979.5 294.001C979.5 292.012 980.29 290.104 981.696 288.698C983.103 287.291 985.011 286.501 987 286.501C988.989 286.501 990.897 287.291 992.303 288.698C993.71 290.104 994.5 292.012 994.5 294.001Z" fill="#FF7262"/>
<path opacity="0.2" d="M972 301.503H979.502V309.002C979.501 310.485 979.061 311.934 978.237 313.167C977.413 314.4 976.241 315.361 974.871 315.928C973.501 316.495 971.993 316.644 970.539 316.354C969.084 316.065 967.748 315.351 966.7 314.302C965.651 313.254 964.937 311.917 964.648 310.463C964.358 309.009 964.506 307.501 965.074 306.131C965.641 304.76 966.602 303.589 967.835 302.765C969.068 301.941 970.517 301.503 972 301.503Z" fill="#FF7262"/>
<path opacity="0.8" d="M979.5 271.501H986.999C988.988 271.501 990.896 272.292 992.302 273.698C993.709 275.105 994.499 277.013 994.499 279.002C994.499 280.991 993.709 282.899 992.302 284.305C990.896 285.712 988.988 286.502 986.999 286.502H979.5V271.501Z" fill="#FF7262"/>
<path d="M954.207 340.684C953.279 340.684 952.732 340.118 952.732 339.151V327.94C952.732 326.973 953.279 326.407 954.207 326.407H960.799C961.609 326.407 962.137 326.866 962.137 327.627C962.137 328.389 961.6 328.848 960.799 328.848H955.682V332.618H960.32C961.082 332.618 961.58 333.057 961.58 333.78C961.58 334.512 961.092 334.952 960.32 334.952H955.682V339.151C955.682 340.118 955.135 340.684 954.207 340.684ZM964.939 328.731C964.08 328.731 963.416 328.077 963.416 327.256C963.416 326.426 964.08 325.782 964.939 325.782C965.799 325.782 966.463 326.426 966.463 327.256C966.463 328.077 965.799 328.731 964.939 328.731ZM964.939 340.704C964.051 340.704 963.514 340.147 963.514 339.219V331.309C963.514 330.381 964.051 329.815 964.939 329.815C965.818 329.815 966.365 330.381 966.365 331.309V339.219C966.365 340.147 965.818 340.704 964.939 340.704ZM972.947 344.434C970.809 344.424 969.217 343.614 968.543 342.51C968.387 342.247 968.328 341.983 968.328 341.719C968.328 341.124 968.777 340.674 969.49 340.674C969.861 340.674 970.154 340.792 970.477 341.084C971.248 341.817 971.99 342.217 972.938 342.227C974.5 342.237 975.418 341.377 975.418 340.069V338.399H975.359C974.871 339.522 973.65 340.274 972.137 340.274C969.529 340.274 967.889 338.282 967.889 335.088C967.889 331.807 969.49 329.864 972.186 329.864C973.689 329.864 974.832 330.655 975.379 331.836H975.438V331.26C975.438 330.293 976.053 329.815 976.873 329.815C977.693 329.815 978.289 330.293 978.289 331.26V340.088C978.289 342.813 976.316 344.454 972.947 344.434ZM973.104 338.155C974.529 338.155 975.447 337.022 975.447 335.127C975.447 333.243 974.529 332.032 973.104 332.032C971.697 332.032 970.809 333.223 970.809 335.118C970.809 337.032 971.688 338.155 973.104 338.155ZM981.57 340.704C980.721 340.704 980.145 340.186 980.145 339.219V331.27C980.145 330.313 980.711 329.815 981.521 329.815C982.332 329.815 982.898 330.313 982.898 331.27V331.924H982.957C983.396 330.665 984.52 329.834 985.945 329.834C987.459 329.834 988.514 330.616 988.865 331.983H988.924C989.393 330.665 990.643 329.834 992.176 329.834C994.227 329.834 995.604 331.241 995.604 333.35V339.219C995.604 340.186 995.018 340.704 994.168 340.704C993.328 340.704 992.752 340.186 992.752 339.219V334.063C992.752 332.852 992.146 332.188 991.043 332.188C989.959 332.188 989.246 332.979 989.246 334.141V339.219C989.246 340.186 988.719 340.704 987.869 340.704C987.029 340.704 986.502 340.186 986.502 339.219V333.975C986.502 332.852 985.867 332.188 984.812 332.188C983.729 332.188 982.996 333.008 982.996 334.18V339.219C982.996 340.186 982.41 340.704 981.57 340.704ZM1000.51 340.665C998.514 340.665 997 339.375 997 337.491C997 335.586 998.465 334.483 1001.08 334.327L1003.72 334.17V333.477C1003.72 332.5 1003.04 331.934 1001.96 331.934C1001.09 331.934 1000.56 332.217 999.93 333.038C999.617 333.389 999.256 333.565 998.797 333.565C998.104 333.565 997.605 333.116 997.605 332.471C997.605 332.247 997.654 332.042 997.752 331.827C998.24 330.577 999.92 329.805 1002.09 329.805C1004.77 329.805 1006.52 331.192 1006.52 333.301V339.268C1006.52 340.215 1005.95 340.704 1005.13 340.704C1004.36 340.704 1003.83 340.274 1003.77 339.434V338.897H1003.71C1003.12 340.01 1001.81 340.665 1000.51 340.665ZM1001.44 338.604C1002.69 338.604 1003.72 337.793 1003.72 336.661V335.899L1001.51 336.036C1000.45 336.114 999.842 336.592 999.842 337.334C999.842 338.116 1000.49 338.604 1001.44 338.604Z" fill="#FF7262"/>
</svg>
