<svg width="1170" height="396" viewBox="0 0 1170 396" fill="none" xmlns="http://www.w3.org/2000/svg">
<path d="M460.242 64.375C458.602 64.375 457.617 63.3438 457.617 61.6562V32.5234C457.617 30.8359 458.602 29.8047 460.242 29.8047C461.859 29.8047 462.867 30.8359 462.867 32.5234V61.6562C462.867 63.3438 461.859 64.375 460.242 64.375ZM478.828 73.2812C474.352 73.2344 470.812 71.5 469.125 68.8281C468.797 68.2656 468.656 67.75 468.656 67.1641C468.656 65.9922 469.523 65.1484 470.812 65.1484C471.586 65.1484 472.078 65.4062 472.758 66.0859C474.773 68.1953 476.508 69.1094 478.922 69.1562C483.047 69.2031 485.555 66.8594 485.555 63.4141V59.5H485.438C484.055 62.1719 481.148 63.9297 477.633 63.9297C471.422 63.9297 467.391 59.0781 467.391 51.4609C467.391 43.75 471.375 38.9453 477.75 38.9453C481.242 38.9453 483.961 40.7031 485.461 43.4922H485.555V41.5C485.555 39.8594 486.656 38.8984 488.109 38.8984C489.562 38.8984 490.641 39.8594 490.641 41.5V63.3203C490.641 69.4141 486.164 73.3516 478.828 73.2812ZM478.992 59.8047C482.953 59.8047 485.578 56.5703 485.578 51.5078C485.578 46.4453 482.953 43.1172 478.992 43.1172C475.102 43.1172 472.57 46.3516 472.57 51.4844C472.57 56.6406 475.102 59.8047 478.992 59.8047ZM506.227 64.4688C499.172 64.4688 494.531 59.6172 494.531 51.6719C494.531 43.75 499.195 38.8984 506.227 38.8984C513.258 38.8984 517.922 43.75 517.922 51.6719C517.922 59.6172 513.281 64.4688 506.227 64.4688ZM506.227 60.2969C510.211 60.2969 512.766 57.1562 512.766 51.6719C512.766 46.2109 510.188 43.0703 506.227 43.0703C502.266 43.0703 499.688 46.2109 499.688 51.6719C499.688 57.1562 502.266 60.2969 506.227 60.2969ZM524.367 64.4453C522.844 64.4453 521.836 63.4141 521.836 61.7734V41.4531C521.836 39.9062 522.82 38.8984 524.25 38.8984C525.656 38.8984 526.641 39.9062 526.641 41.4531V43.5625H526.758C527.438 40.7969 529.711 38.9453 532.172 38.9453C533.062 38.9453 533.742 39.1562 534.164 39.5547C534.633 39.9297 534.844 40.5391 534.844 41.3359C534.844 42.1328 534.586 42.7188 534.094 43.1172C533.578 43.5625 532.828 43.7734 531.773 43.7734C528.305 43.7969 526.898 46.1172 526.898 49.1875V61.7734C526.898 63.4141 525.867 64.4453 524.367 64.4453ZM562.266 64.5625C552.703 64.5625 546.727 57.8594 546.727 47.0781C546.727 36.3672 552.773 29.6172 562.219 29.6172C568.43 29.6172 573.398 32.6406 575.508 37.6328C575.836 38.3125 576 39.0156 576 39.6484C576 41.0547 575.062 41.9688 573.656 41.9688C572.414 41.9688 571.594 41.3594 571.008 40C569.438 36.2266 566.109 34.2109 562.219 34.2109C556.078 34.2109 552.094 39.25 552.094 47.0781C552.094 54.9766 556.031 59.9688 562.242 59.9688C566.367 59.9688 569.531 58.2109 571.102 54.5547C571.664 53.3125 572.344 52.7969 573.492 52.7969C574.922 52.7969 575.906 53.7812 575.906 55.1641C575.906 55.8906 575.719 56.5703 575.344 57.3438C573.164 61.9141 568.547 64.5625 562.266 64.5625ZM584.227 64.2578C582.516 64.2578 581.156 62.8984 581.156 61.1875C581.156 59.4766 582.516 58.1172 584.227 58.1172C585.938 58.1172 587.297 59.4766 587.297 61.1875C587.297 62.8984 585.938 64.2578 584.227 64.2578ZM603.258 64.375C601.758 64.375 600.867 63.4375 600.867 61.8672V33.1328C600.867 31.0938 602.156 29.8047 604.242 29.8047C606.023 29.8047 607.078 30.6016 607.875 32.5703L617.883 56.875H618.07L628.055 32.5703C628.852 30.625 629.93 29.8047 631.758 29.8047C633.797 29.8047 635.086 31.0703 635.086 33.1328V61.8672C635.086 63.4375 634.172 64.375 632.695 64.375C631.195 64.375 630.281 63.4375 630.281 61.8672V39.1094H630.117L620.695 61.8203C620.133 63.1797 619.289 63.7891 617.977 63.7891C616.664 63.7891 615.797 63.1797 615.258 61.8672L605.812 39.1094H605.648V61.8672C605.648 63.4375 604.758 64.375 603.258 64.375ZM649.242 64.4453C643.875 64.4453 640.594 60.9531 640.594 55.3047V41.5938C640.594 39.9062 641.625 38.8984 643.125 38.8984C644.602 38.8984 645.656 39.9062 645.656 41.5938V54.3203C645.656 58.0703 647.438 60.0859 650.93 60.0859C654.586 60.0859 656.789 57.5547 656.789 53.7109V41.5938C656.789 39.9062 657.844 38.8984 659.32 38.8984C660.82 38.8984 661.852 39.9062 661.852 41.5938V61.8672C661.852 63.4375 660.891 64.4453 659.438 64.4453C657.984 64.4453 657 63.4375 657 61.8906V59.8281H656.883C655.523 62.7812 653.016 64.4453 649.242 64.4453ZM669.398 64.4453C667.875 64.4453 666.867 63.4141 666.867 61.7734V41.4531C666.867 39.9062 667.852 38.8984 669.281 38.8984C670.688 38.8984 671.672 39.9062 671.672 41.4531V43.5625H671.789C672.469 40.7969 674.742 38.9453 677.203 38.9453C678.094 38.9453 678.773 39.1562 679.195 39.5547C679.664 39.9297 679.875 40.5391 679.875 41.3359C679.875 42.1328 679.617 42.7188 679.125 43.1172C678.609 43.5625 677.859 43.7734 676.805 43.7734C673.336 43.7969 671.93 46.1172 671.93 49.1875V61.7734C671.93 63.4141 670.898 64.4453 669.398 64.4453ZM689.32 64.4219C684.492 64.4219 681.094 61.4219 681.094 56.9922C681.094 52.6797 684.422 50.0312 690.258 49.7031L697.031 49.3047V47.4062C697.031 44.6641 695.18 43.0234 692.086 43.0234C689.648 43.0234 688.031 43.8906 686.625 46.1406C686.109 46.8906 685.453 47.2188 684.562 47.2188C683.297 47.2188 682.383 46.375 682.383 45.1094C682.383 44.5938 682.523 44.0312 682.828 43.4688C684.117 40.6797 687.844 38.8984 692.273 38.8984C698.25 38.8984 702.07 42.0625 702.07 47.0078V61.8906C702.07 63.4844 701.062 64.4453 699.633 64.4453C698.227 64.4453 697.266 63.5312 697.219 62.0312V59.9453H697.102C695.672 62.6875 692.531 64.4219 689.32 64.4219ZM690.703 60.4141C694.242 60.4141 697.031 57.9766 697.031 54.7656V52.8203L690.938 53.1953C687.914 53.4062 686.203 54.7422 686.203 56.8516C686.203 59.0078 688.008 60.4141 690.703 60.4141ZM709.688 35.6172C708.07 35.6172 706.758 34.3047 706.758 32.7109C706.758 31.0938 708.07 29.8281 709.688 29.8281C711.328 29.8281 712.641 31.0938 712.641 32.7109C712.641 34.3047 711.328 35.6172 709.688 35.6172ZM709.688 64.4453C708.164 64.4453 707.156 63.3906 707.156 61.7734V41.5938C707.156 39.9531 708.164 38.8984 709.688 38.8984C711.211 38.8984 712.219 39.9531 712.219 41.5938V61.7734C712.219 63.3906 711.211 64.4453 709.688 64.4453Z" fill="white"/>
<rect x="383" y="84" width="219" height="34" rx="17" fill="#9ADDFF"/>
<path d="M405.498 108.156C404.814 108.156 404.404 107.727 404.404 107.023V95.041C404.404 94.3379 404.814 93.9082 405.498 93.9082H412.334C412.949 93.9082 413.359 94.2793 413.359 94.8555C413.359 95.4316 412.939 95.8027 412.334 95.8027H406.592V100.256H411.816C412.402 100.256 412.803 100.617 412.803 101.174C412.803 101.74 412.402 102.102 411.816 102.102H406.592V107.023C406.592 107.727 406.172 108.156 405.498 108.156ZM415.908 108.186C415.273 108.186 414.854 107.756 414.854 107.072V98.6055C414.854 97.9609 415.264 97.541 415.859 97.541C416.445 97.541 416.855 97.9609 416.855 98.6055V99.4844H416.904C417.188 98.332 418.135 97.5605 419.16 97.5605C419.531 97.5605 419.814 97.6484 419.99 97.8145C420.186 97.9707 420.273 98.2246 420.273 98.5566C420.273 98.8887 420.166 99.1328 419.961 99.2988C419.746 99.4844 419.434 99.5723 418.994 99.5723C417.549 99.582 416.963 100.549 416.963 101.828V107.072C416.963 107.756 416.533 108.186 415.908 108.186ZM425.381 108.195C422.441 108.195 420.508 106.174 420.508 102.863C420.508 99.5625 422.451 97.541 425.381 97.541C428.311 97.541 430.254 99.5625 430.254 102.863C430.254 106.174 428.32 108.195 425.381 108.195ZM425.381 106.457C427.041 106.457 428.105 105.148 428.105 102.863C428.105 100.588 427.031 99.2793 425.381 99.2793C423.73 99.2793 422.656 100.588 422.656 102.863C422.656 105.148 423.73 106.457 425.381 106.457ZM432.939 108.186C432.314 108.186 431.885 107.766 431.885 107.072V98.6055C431.885 97.9609 432.275 97.541 432.891 97.541C433.496 97.541 433.916 97.9609 433.916 98.6152V99.4258H433.965C434.521 98.2539 435.596 97.5508 437.178 97.5508C439.443 97.5508 440.742 98.9961 440.742 101.35V107.072C440.742 107.766 440.303 108.186 439.678 108.186C439.062 108.186 438.623 107.766 438.623 107.072V101.76C438.623 100.217 437.9 99.3672 436.436 99.3672C434.951 99.3672 433.994 100.422 433.994 102.014V107.072C433.994 107.766 433.555 108.186 432.939 108.186ZM443.398 105.539V99.3965H442.656C442.109 99.3965 441.777 99.084 441.777 98.5664C441.777 98.0391 442.109 97.7266 442.656 97.7266H443.398V96.2031C443.398 95.5293 443.818 95.0801 444.463 95.0801C445.098 95.0801 445.518 95.5293 445.518 96.2031V97.7266H446.719C447.266 97.7266 447.598 98.0488 447.598 98.5664C447.598 99.084 447.266 99.3965 446.719 99.3965H445.518V105.07C445.518 105.891 445.801 106.262 446.562 106.32L446.729 106.33C447.334 106.389 447.637 106.633 447.637 107.131C447.637 107.766 447.148 108.088 446.113 108.088H446.006C444.277 108.088 443.398 107.238 443.398 105.539ZM450.098 103.234C449.512 103.234 449.082 102.873 449.082 102.277C449.082 101.691 449.512 101.33 450.098 101.33H454.775C455.361 101.33 455.801 101.691 455.801 102.277C455.801 102.873 455.361 103.234 454.775 103.234H450.098ZM462.275 108.195C459.18 108.195 457.363 106.232 457.363 102.912C457.363 99.6504 459.219 97.541 462.129 97.541C464.863 97.541 466.748 99.5137 466.748 102.316C466.748 103 466.357 103.391 465.703 103.391H459.492V103.439C459.492 105.314 460.547 106.486 462.227 106.486C463.379 106.486 464.102 106.086 464.883 105.021C465.107 104.758 465.322 104.65 465.625 104.65C466.133 104.65 466.504 104.982 466.504 105.51C466.504 105.676 466.445 105.871 466.357 106.076C465.684 107.424 464.189 108.195 462.275 108.195ZM459.502 101.916H464.639C464.59 100.305 463.584 99.2402 462.119 99.2402C460.664 99.2402 459.609 100.314 459.502 101.916ZM469.443 108.186C468.818 108.186 468.389 107.766 468.389 107.072V98.6055C468.389 97.9609 468.779 97.541 469.395 97.541C470 97.541 470.42 97.9609 470.42 98.6152V99.4258H470.469C471.025 98.2539 472.1 97.5508 473.682 97.5508C475.947 97.5508 477.246 98.9961 477.246 101.35V107.072C477.246 107.766 476.807 108.186 476.182 108.186C475.566 108.186 475.127 107.766 475.127 107.072V101.76C475.127 100.217 474.404 99.3672 472.939 99.3672C471.455 99.3672 470.498 100.422 470.498 102.014V107.072C470.498 107.766 470.059 108.186 469.443 108.186ZM483.145 108.176C480.547 108.176 478.828 106.105 478.828 102.863C478.828 99.6211 480.547 97.5605 483.125 97.5605C484.6 97.5605 485.771 98.3027 486.348 99.4355H486.387V94.8359C486.387 94.1426 486.826 93.7227 487.451 93.7227C488.066 93.7227 488.506 94.1426 488.506 94.8359V107.131C488.506 107.795 488.076 108.186 487.461 108.186C486.865 108.186 486.387 107.795 486.387 107.131V106.174H486.357C485.83 107.375 484.746 108.176 483.145 108.176ZM483.701 106.389C485.322 106.389 486.406 105.012 486.406 102.863C486.406 100.734 485.322 99.3379 483.701 99.3379C482.031 99.3379 480.986 100.705 480.986 102.863C480.986 105.031 482.031 106.389 483.701 106.389ZM496.084 108C495.4 108 494.99 107.57 494.99 106.867V95.041C494.99 94.3379 495.4 93.9082 496.084 93.9082H499.961C504.15 93.9082 506.631 96.4863 506.631 100.93C506.631 105.383 504.16 108 499.961 108H496.084ZM497.178 106.105H499.756C502.744 106.105 504.395 104.279 504.395 100.949C504.395 97.6289 502.734 95.793 499.756 95.793H497.178V106.105ZM512.92 108.195C509.824 108.195 508.008 106.232 508.008 102.912C508.008 99.6504 509.863 97.541 512.773 97.541C515.508 97.541 517.393 99.5137 517.393 102.316C517.393 103 517.002 103.391 516.348 103.391H510.137V103.439C510.137 105.314 511.191 106.486 512.871 106.486C514.023 106.486 514.746 106.086 515.527 105.021C515.752 104.758 515.967 104.65 516.27 104.65C516.777 104.65 517.148 104.982 517.148 105.51C517.148 105.676 517.09 105.871 517.002 106.076C516.328 107.424 514.834 108.195 512.92 108.195ZM510.146 101.916H515.283C515.234 100.305 514.229 99.2402 512.764 99.2402C511.309 99.2402 510.254 100.314 510.146 101.916ZM522.93 108.186C522.178 108.186 521.768 107.873 521.475 107.111L518.428 99.0938C518.359 98.9082 518.311 98.7031 518.311 98.5078C518.311 97.9219 518.76 97.541 519.375 97.541C519.863 97.541 520.195 97.8047 520.371 98.3711L522.92 105.939H522.959L525.508 98.3516C525.684 97.8047 526.016 97.541 526.494 97.541C527.1 97.541 527.529 97.9414 527.529 98.498C527.529 98.6836 527.49 98.8887 527.422 99.0645L524.375 107.111C524.102 107.854 523.652 108.186 522.93 108.186ZM533.115 108.195C530.02 108.195 528.203 106.232 528.203 102.912C528.203 99.6504 530.059 97.541 532.969 97.541C535.703 97.541 537.588 99.5137 537.588 102.316C537.588 103 537.197 103.391 536.543 103.391H530.332V103.439C530.332 105.314 531.387 106.486 533.066 106.486C534.219 106.486 534.941 106.086 535.723 105.021C535.947 104.758 536.162 104.65 536.465 104.65C536.973 104.65 537.344 104.982 537.344 105.51C537.344 105.676 537.285 105.871 537.197 106.076C536.523 107.424 535.029 108.195 533.115 108.195ZM530.342 101.916H535.479C535.43 100.305 534.424 99.2402 532.959 99.2402C531.504 99.2402 530.449 100.314 530.342 101.916ZM540.361 108.186C539.746 108.186 539.307 107.766 539.307 107.072V94.8359C539.307 94.1426 539.746 93.7227 540.361 93.7227C540.977 93.7227 541.416 94.1426 541.416 94.8359V107.072C541.416 107.766 540.977 108.186 540.361 108.186ZM547.998 108.195C545.059 108.195 543.125 106.174 543.125 102.863C543.125 99.5625 545.068 97.541 547.998 97.541C550.928 97.541 552.871 99.5625 552.871 102.863C552.871 106.174 550.938 108.195 547.998 108.195ZM547.998 106.457C549.658 106.457 550.723 105.148 550.723 102.863C550.723 100.588 549.648 99.2793 547.998 99.2793C546.348 99.2793 545.273 100.588 545.273 102.863C545.273 105.148 546.348 106.457 547.998 106.457ZM555.557 111.643C554.932 111.643 554.502 111.213 554.502 110.52V98.625C554.502 97.9512 554.922 97.541 555.518 97.541C556.113 97.541 556.543 97.9512 556.543 98.625V99.4941H556.582C557.188 98.3125 558.369 97.5605 559.854 97.5605C562.461 97.5605 564.18 99.6113 564.18 102.863C564.18 106.115 562.471 108.176 559.893 108.176C558.418 108.176 557.246 107.453 556.66 106.311H556.611V110.52C556.611 111.213 556.172 111.643 555.557 111.643ZM559.297 106.389C560.967 106.389 562.012 105.021 562.012 102.863C562.012 100.715 560.967 99.3379 559.297 99.3379C557.686 99.3379 556.602 100.744 556.602 102.863C556.602 105.002 557.676 106.389 559.297 106.389ZM570.264 108.195C567.168 108.195 565.352 106.232 565.352 102.912C565.352 99.6504 567.207 97.541 570.117 97.541C572.852 97.541 574.736 99.5137 574.736 102.316C574.736 103 574.346 103.391 573.691 103.391H567.48V103.439C567.48 105.314 568.535 106.486 570.215 106.486C571.367 106.486 572.09 106.086 572.871 105.021C573.096 104.758 573.311 104.65 573.613 104.65C574.121 104.65 574.492 104.982 574.492 105.51C574.492 105.676 574.434 105.871 574.346 106.076C573.672 107.424 572.178 108.195 570.264 108.195ZM567.49 101.916H572.627C572.578 100.305 571.572 99.2402 570.107 99.2402C568.652 99.2402 567.598 100.314 567.49 101.916ZM577.432 108.186C576.797 108.186 576.377 107.756 576.377 107.072V98.6055C576.377 97.9609 576.787 97.541 577.383 97.541C577.969 97.541 578.379 97.9609 578.379 98.6055V99.4844H578.428C578.711 98.332 579.658 97.5605 580.684 97.5605C581.055 97.5605 581.338 97.6484 581.514 97.8145C581.709 97.9707 581.797 98.2246 581.797 98.5566C581.797 98.8887 581.689 99.1328 581.484 99.2988C581.27 99.4844 580.957 99.5723 580.518 99.5723C579.072 99.582 578.486 100.549 578.486 101.828V107.072C578.486 107.756 578.057 108.186 577.432 108.186Z" fill="#201D23"/>
<rect x="612" y="84" width="175" height="34" rx="17" fill="#C89AFF"/>
<path d="M639.256 108.234C635.721 108.234 633.553 106.086 633.553 103.049V94.8848C633.553 94.1816 633.963 93.752 634.646 93.752C635.32 93.752 635.74 94.1816 635.74 94.8848V102.863C635.74 104.875 637.01 106.291 639.256 106.291C641.502 106.291 642.781 104.875 642.781 102.863V94.8848C642.781 94.1816 643.191 93.752 643.875 93.752C644.549 93.752 644.959 94.1816 644.959 94.8848V103.049C644.959 106.086 642.791 108.234 639.256 108.234ZM648.221 108.156C647.635 108.156 647.176 107.736 647.176 107.209C647.176 106.955 647.254 106.73 647.439 106.467L651.365 100.939V100.871L647.547 95.5488C647.332 95.2656 647.264 95.041 647.264 94.7773C647.264 94.1914 647.752 93.752 648.387 93.752C648.807 93.752 649.061 93.918 649.373 94.377L652.82 99.3574H652.898L656.424 94.3184C656.707 93.9082 656.922 93.752 657.332 93.752C657.918 93.752 658.406 94.1719 658.406 94.6895C658.406 94.9434 658.328 95.168 658.143 95.4316L654.109 100.949V101.008L658.016 106.418C658.191 106.652 658.279 106.896 658.279 107.16C658.279 107.727 657.801 108.156 657.195 108.156C656.785 108.156 656.531 108 656.248 107.6L652.732 102.629H652.664L649.148 107.59C648.846 108.02 648.631 108.156 648.221 108.156ZM660.418 111.369C659.871 111.369 659.52 111.037 659.52 110.549C659.52 110.412 659.549 110.266 659.578 110.168L664.129 94.5137C664.285 93.9766 664.578 93.7227 665.076 93.7227C665.604 93.7227 665.965 94.0645 665.965 94.5625C665.965 94.6797 665.955 94.7676 665.916 94.9043L661.326 110.637C661.189 111.125 660.896 111.369 660.418 111.369ZM673.26 108.234C669.725 108.234 667.557 106.086 667.557 103.049V94.8848C667.557 94.1816 667.967 93.752 668.65 93.752C669.324 93.752 669.744 94.1816 669.744 94.8848V102.863C669.744 104.875 671.014 106.291 673.26 106.291C675.506 106.291 676.785 104.875 676.785 102.863V94.8848C676.785 94.1816 677.195 93.752 677.879 93.752C678.553 93.752 678.963 94.1816 678.963 94.8848V103.049C678.963 106.086 676.795 108.234 673.26 108.234ZM682.654 108.156C681.971 108.156 681.561 107.727 681.561 107.023V94.8848C681.561 94.1816 681.971 93.752 682.654 93.752C683.328 93.752 683.748 94.1816 683.748 94.8848V107.023C683.748 107.727 683.328 108.156 682.654 108.156ZM691.502 108C690.818 108 690.408 107.57 690.408 106.867V95.041C690.408 94.3379 690.818 93.9082 691.502 93.9082H695.379C699.568 93.9082 702.049 96.4863 702.049 100.93C702.049 105.383 699.578 108 695.379 108H691.502ZM692.596 106.105H695.174C698.162 106.105 699.812 104.279 699.812 100.949C699.812 97.6289 698.152 95.793 695.174 95.793H692.596V106.105ZM708.338 108.195C705.242 108.195 703.426 106.232 703.426 102.912C703.426 99.6504 705.281 97.541 708.191 97.541C710.926 97.541 712.811 99.5137 712.811 102.316C712.811 103 712.42 103.391 711.766 103.391H705.555V103.439C705.555 105.314 706.609 106.486 708.289 106.486C709.441 106.486 710.164 106.086 710.945 105.021C711.17 104.758 711.385 104.65 711.688 104.65C712.195 104.65 712.566 104.982 712.566 105.51C712.566 105.676 712.508 105.871 712.42 106.076C711.746 107.424 710.252 108.195 708.338 108.195ZM705.564 101.916H710.701C710.652 100.305 709.646 99.2402 708.182 99.2402C706.727 99.2402 705.672 100.314 705.564 101.916ZM718.24 108.195C716.219 108.195 714.734 107.365 714.246 106.105C714.178 105.949 714.158 105.803 714.158 105.666C714.158 105.139 714.539 104.826 715.066 104.826C715.418 104.826 715.721 104.992 715.984 105.383C716.512 106.213 717.127 106.584 718.348 106.584C719.549 106.584 720.359 106.066 720.359 105.217C720.359 104.543 719.959 104.182 718.855 103.918L717.234 103.537C715.242 103.068 714.266 102.092 714.266 100.627C714.266 98.7715 715.877 97.541 718.318 97.541C720.174 97.541 721.697 98.4883 721.99 99.6992C722.01 99.8164 722.029 99.9141 722.029 100.012C722.029 100.48 721.736 100.793 721.209 100.793C720.867 100.793 720.564 100.676 720.359 100.344C719.9 99.5625 719.275 99.1523 718.24 99.1523C717.107 99.1523 716.326 99.709 716.326 100.51C716.326 101.154 716.824 101.604 717.908 101.857L719.5 102.229C721.658 102.727 722.488 103.498 722.488 105.021C722.488 106.926 720.779 108.195 718.24 108.195ZM725.242 96.1738C724.568 96.1738 724.021 95.627 724.021 94.9629C724.021 94.2891 724.568 93.7617 725.242 93.7617C725.926 93.7617 726.473 94.2891 726.473 94.9629C726.473 95.627 725.926 96.1738 725.242 96.1738ZM725.242 108.186C724.607 108.186 724.188 107.746 724.188 107.072V98.6641C724.188 97.9805 724.607 97.541 725.242 97.541C725.877 97.541 726.297 97.9805 726.297 98.6641V107.072C726.297 107.746 725.877 108.186 725.242 108.186ZM732.762 111.867C730.896 111.848 729.422 111.125 728.719 110.012C728.582 109.777 728.523 109.562 728.523 109.318C728.523 108.83 728.885 108.479 729.422 108.479C729.744 108.479 729.949 108.586 730.232 108.869C731.072 109.748 731.795 110.129 732.801 110.148C734.52 110.168 735.564 109.191 735.564 107.756V106.125H735.516C734.939 107.238 733.729 107.971 732.264 107.971C729.676 107.971 727.996 105.949 727.996 102.775C727.996 99.5625 729.656 97.5605 732.312 97.5605C733.768 97.5605 734.9 98.293 735.525 99.4551H735.564V98.625C735.564 97.9414 736.023 97.541 736.629 97.541C737.234 97.541 737.684 97.9414 737.684 98.625V107.717C737.684 110.256 735.818 111.896 732.762 111.867ZM732.83 106.252C734.48 106.252 735.574 104.904 735.574 102.795C735.574 100.686 734.48 99.2988 732.83 99.2988C731.209 99.2988 730.154 100.646 730.154 102.785C730.154 104.934 731.209 106.252 732.83 106.252ZM740.818 108.186C740.193 108.186 739.764 107.766 739.764 107.072V98.6055C739.764 97.9609 740.154 97.541 740.77 97.541C741.375 97.541 741.795 97.9609 741.795 98.6152V99.4258H741.844C742.4 98.2539 743.475 97.5508 745.057 97.5508C747.322 97.5508 748.621 98.9961 748.621 101.35V107.072C748.621 107.766 748.182 108.186 747.557 108.186C746.941 108.186 746.502 107.766 746.502 107.072V101.76C746.502 100.217 745.779 99.3672 744.314 99.3672C742.83 99.3672 741.873 100.422 741.873 102.014V107.072C741.873 107.766 741.434 108.186 740.818 108.186ZM755.115 108.195C752.02 108.195 750.203 106.232 750.203 102.912C750.203 99.6504 752.059 97.541 754.969 97.541C757.703 97.541 759.588 99.5137 759.588 102.316C759.588 103 759.197 103.391 758.543 103.391H752.332V103.439C752.332 105.314 753.387 106.486 755.066 106.486C756.219 106.486 756.941 106.086 757.723 105.021C757.947 104.758 758.162 104.65 758.465 104.65C758.973 104.65 759.344 104.982 759.344 105.51C759.344 105.676 759.285 105.871 759.197 106.076C758.523 107.424 757.029 108.195 755.115 108.195ZM752.342 101.916H757.479C757.43 100.305 756.424 99.2402 754.959 99.2402C753.504 99.2402 752.449 100.314 752.342 101.916ZM762.283 108.186C761.648 108.186 761.229 107.756 761.229 107.072V98.6055C761.229 97.9609 761.639 97.541 762.234 97.541C762.82 97.541 763.23 97.9609 763.23 98.6055V99.4844H763.279C763.562 98.332 764.51 97.5605 765.535 97.5605C765.906 97.5605 766.189 97.6484 766.365 97.8145C766.561 97.9707 766.648 98.2246 766.648 98.5566C766.648 98.8887 766.541 99.1328 766.336 99.2988C766.121 99.4844 765.809 99.5723 765.369 99.5723C763.924 99.582 763.338 100.549 763.338 101.828V107.072C763.338 107.756 762.908 108.186 762.283 108.186Z" fill="#201D23"/>
<rect x="30" y="148" width="540" height="218" rx="40" fill="#9ADDFF" fill-opacity="0.2"/>
<path d="M227.344 206C226.184 206 225.5 205.292 225.5 204.071V190.302C225.5 189.093 226.184 188.385 227.344 188.385H232.227C237.512 188.385 240.625 191.535 240.625 197.125C240.625 202.716 237.512 206 232.227 206H227.344ZM229.187 202.948H231.787C235.083 202.948 236.865 200.946 236.865 197.138C236.865 193.451 235.034 191.425 231.787 191.425H229.187V202.948ZM248.718 206.281C244.629 206.281 242.224 203.754 242.224 199.518C242.224 195.307 244.678 192.633 248.547 192.633C252.258 192.633 254.749 195.172 254.749 198.725C254.749 199.713 254.187 200.275 253.198 200.275H245.728V200.434C245.728 202.375 246.899 203.644 248.706 203.644C250.012 203.644 250.867 203.205 251.831 202.069C252.209 201.679 252.527 201.544 252.991 201.544C253.76 201.544 254.382 202.033 254.382 202.851C254.382 203.131 254.297 203.424 254.138 203.717C253.271 205.329 251.245 206.281 248.718 206.281ZM245.764 198.09H251.318C251.245 196.381 250.146 195.27 248.584 195.27C247.021 195.27 245.886 196.417 245.764 198.09ZM261.89 206.256C260.522 206.256 259.79 205.707 259.314 204.438L255.908 195.307C255.798 194.989 255.713 194.611 255.713 194.245C255.713 193.28 256.482 192.646 257.495 192.646C258.362 192.646 258.936 193.109 259.204 194.074L261.853 202.851H261.926L264.575 194.037C264.819 193.097 265.417 192.646 266.248 192.646C267.236 192.646 267.981 193.329 267.981 194.232C267.981 194.562 267.896 194.928 267.786 195.233L264.38 204.438C263.928 205.695 263.184 206.256 261.89 206.256ZM275.256 206.281C271.167 206.281 268.762 203.754 268.762 199.518C268.762 195.307 271.216 192.633 275.085 192.633C278.796 192.633 281.287 195.172 281.287 198.725C281.287 199.713 280.725 200.275 279.736 200.275H272.266V200.434C272.266 202.375 273.438 203.644 275.244 203.644C276.55 203.644 277.405 203.205 278.369 202.069C278.748 201.679 279.065 201.544 279.529 201.544C280.298 201.544 280.92 202.033 280.92 202.851C280.92 203.131 280.835 203.424 280.676 203.717C279.81 205.329 277.783 206.281 275.256 206.281ZM272.302 198.09H277.856C277.783 196.381 276.685 195.27 275.122 195.27C273.56 195.27 272.424 196.417 272.302 198.09ZM284.998 206.256C283.96 206.256 283.215 205.622 283.215 204.401V189.984C283.215 188.764 283.96 188.117 284.998 188.117C286.047 188.117 286.78 188.764 286.78 189.984V204.401C286.78 205.622 286.047 206.256 284.998 206.256ZM295.19 206.281C291.235 206.281 288.708 203.742 288.708 199.445C288.708 195.209 291.272 192.633 295.19 192.633C299.109 192.633 301.672 195.197 301.672 199.445C301.672 203.754 299.146 206.281 295.19 206.281ZM295.19 203.559C296.936 203.559 298.047 202.082 298.047 199.457C298.047 196.857 296.924 195.355 295.19 195.355C293.457 195.355 292.322 196.857 292.322 199.457C292.322 202.082 293.433 203.559 295.19 203.559ZM305.298 210.663C304.26 210.663 303.516 210.028 303.516 208.808V194.477C303.516 193.28 304.248 192.646 305.273 192.646C306.299 192.646 307.031 193.28 307.031 194.489V195.197H307.104C307.812 193.659 309.265 192.707 311.157 192.707C314.478 192.707 316.516 195.233 316.516 199.457C316.516 203.668 314.49 206.208 311.218 206.208C309.314 206.208 307.849 205.28 307.153 203.803H307.08V208.808C307.08 210.028 306.348 210.663 305.298 210.663ZM309.961 203.339C311.743 203.339 312.866 201.837 312.866 199.457C312.866 197.089 311.743 195.563 309.961 195.563C308.215 195.563 307.068 197.113 307.068 199.457C307.068 201.825 308.215 203.339 309.961 203.339ZM320.142 206.256C319.08 206.256 318.359 205.609 318.359 204.401V194.464C318.359 193.268 319.067 192.646 320.081 192.646C321.094 192.646 321.802 193.268 321.802 194.464V195.282H321.875C322.424 193.708 323.828 192.67 325.61 192.67C327.502 192.67 328.821 193.646 329.26 195.355H329.333C329.919 193.708 331.482 192.67 333.398 192.67C335.962 192.67 337.683 194.428 337.683 197.064V204.401C337.683 205.609 336.951 206.256 335.889 206.256C334.839 206.256 334.119 205.609 334.119 204.401V197.956C334.119 196.442 333.362 195.612 331.982 195.612C330.627 195.612 329.736 196.601 329.736 198.053V204.401C329.736 205.609 329.077 206.256 328.015 206.256C326.965 206.256 326.306 205.609 326.306 204.401V197.846C326.306 196.442 325.513 195.612 324.194 195.612C322.839 195.612 321.924 196.637 321.924 198.102V204.401C321.924 205.609 321.191 206.256 320.142 206.256ZM345.959 206.281C341.87 206.281 339.465 203.754 339.465 199.518C339.465 195.307 341.919 192.633 345.789 192.633C349.5 192.633 351.99 195.172 351.99 198.725C351.99 199.713 351.428 200.275 350.439 200.275H342.969V200.434C342.969 202.375 344.141 203.644 345.947 203.644C347.253 203.644 348.108 203.205 349.072 202.069C349.451 201.679 349.768 201.544 350.232 201.544C351.001 201.544 351.624 202.033 351.624 202.851C351.624 203.131 351.538 203.424 351.379 203.717C350.513 205.329 348.486 206.281 345.959 206.281ZM343.005 198.09H348.56C348.486 196.381 347.388 195.27 345.825 195.27C344.263 195.27 343.127 196.417 343.005 198.09ZM355.615 206.256C354.578 206.256 353.833 205.622 353.833 204.401V194.44C353.833 193.329 354.48 192.646 355.554 192.646C356.628 192.646 357.336 193.329 357.336 194.452V195.185H357.41C358.105 193.561 359.424 192.67 361.438 192.67C364.343 192.67 365.979 194.501 365.979 197.565V204.401C365.979 205.622 365.234 206.256 364.197 206.256C363.147 206.256 362.415 205.622 362.415 204.401V198.31C362.415 196.601 361.609 195.624 360.01 195.624C358.411 195.624 357.397 196.796 357.397 198.493V204.401C357.397 205.622 356.665 206.256 355.615 206.256ZM369.189 202.655V195.6H368.506C367.664 195.6 367.126 195.087 367.126 194.257C367.126 193.427 367.664 192.914 368.506 192.914H369.189V191.461C369.189 190.314 369.861 189.606 370.972 189.606C372.083 189.606 372.754 190.314 372.754 191.461V192.914H374.011C374.854 192.914 375.378 193.439 375.378 194.257C375.378 195.075 374.854 195.6 374.011 195.6H372.754V201.862C372.754 202.79 373.071 203.18 373.84 203.241L374.072 203.266C374.951 203.363 375.427 203.729 375.427 204.56C375.427 205.609 374.402 206.146 372.9 206.146H372.778C370.398 206.146 369.189 204.962 369.189 202.655Z" fill="#9ADDFF"/>
<rect x="70" y="226" width="100" height="100" rx="20" fill="#F95801" fill-opacity="0.2"/>
<path d="M95 240.5L99.1667 286.333L120 290.5L140.833 286.333L145 240.5H95ZM136.083 255.083H110.167L110.771 261.333H135.479L133.808 280.781L119.979 284.25L106.156 280.821L105.271 271.75H111.562L111.958 275.917L120 277.521L128 275.917L128.604 267.583H105.083L103.333 248.833H136.667L136.083 255.083Z" fill="#E65100"/>
<path d="M101.455 311.639C100.759 311.639 100.349 311.214 100.349 310.489V301.942C100.349 301.209 100.759 300.785 101.455 300.785C102.151 300.785 102.561 301.209 102.561 301.942V305.223H107.322V301.942C107.322 301.209 107.732 300.785 108.428 300.785C109.124 300.785 109.534 301.209 109.534 301.942V310.489C109.534 311.214 109.124 311.639 108.428 311.639C107.732 311.639 107.322 311.214 107.322 310.489V307.047H102.561V310.489C102.561 311.214 102.151 311.639 101.455 311.639ZM114.924 311.639C114.229 311.639 113.818 311.214 113.818 310.489V302.762H111.636C111.035 302.762 110.632 302.418 110.632 301.847C110.632 301.275 111.028 300.931 111.636 300.931H118.22C118.821 300.931 119.216 301.275 119.216 301.847C119.216 302.418 118.813 302.762 118.22 302.762H116.03V310.489C116.03 311.214 115.62 311.639 114.924 311.639ZM121.304 311.639C120.681 311.639 120.315 311.258 120.315 310.606V302.213C120.315 301.319 120.842 300.785 121.743 300.785C122.512 300.785 122.937 301.107 123.259 301.927L125.881 308.424H125.94L128.555 301.927C128.877 301.114 129.309 300.785 130.085 300.785C130.979 300.785 131.506 301.312 131.506 302.213V310.606C131.506 311.258 131.14 311.639 130.518 311.639C129.895 311.639 129.536 311.258 129.536 310.606V304.366H129.478L126.863 310.76C126.672 311.229 126.379 311.434 125.918 311.434C125.449 311.434 125.142 311.222 124.958 310.768L122.344 304.366H122.285V310.606C122.285 311.258 121.926 311.639 121.304 311.639ZM134.37 311.5C133.674 311.5 133.264 311.075 133.264 310.343V301.942C133.264 301.209 133.674 300.785 134.37 300.785C135.066 300.785 135.476 301.209 135.476 301.942V309.669H139.226C139.827 309.669 140.229 310.013 140.229 310.584C140.229 311.156 139.834 311.5 139.226 311.5H134.37Z" fill="#E65100"/>
<rect x="190" y="226" width="100" height="100" rx="20" fill="#B976FF" fill-opacity="0.2"/>
<path d="M215 240.5H257C261.418 240.5 265 244.081 265 248.5V282.5C265 286.919 261.419 290.5 257 290.5H223C218.582 290.5 215 286.919 215 282.5V240.5Z" fill="#AB7ED9"/>
<path d="M232.905 286.501C229.694 286.498 227.712 284.688 227.75 281.36V272.941C227.75 271.254 228.244 269.971 229.232 269.093C231.007 267.382 235.123 267.279 236.861 269.119C237.932 270.063 238.337 271.992 238.241 273.793H234.555C234.584 273.086 234.545 272.014 234.129 271.611C233.589 270.88 232.162 270.965 231.784 271.727C231.552 272.14 231.436 272.75 231.436 273.561V280.87C231.436 282.402 231.968 283.177 233.034 283.194C233.532 283.193 233.91 283.012 234.168 282.651C234.527 282.221 234.584 281.273 234.555 280.584H238.241C238.493 284.088 236.423 286.544 232.905 286.501ZM244.607 286.501C241.048 286.55 239.457 284.016 239.554 280.585H243.035C242.937 282.082 243.452 283.444 244.684 283.35C245.234 283.35 245.62 283.177 245.844 282.832C246.268 282.202 246.349 280.385 245.74 279.682C245.316 279.004 243.789 278.406 242.983 278.003C241.831 277.452 241.002 276.798 240.496 276.039C239.352 274.358 239.458 270.667 241.062 269.17C242.621 267.323 246.693 267.239 248.254 269.132C249.216 270.107 249.636 272.026 249.555 273.793H246.204C246.233 273.067 246.164 271.895 245.882 271.469C245.684 271.107 245.31 270.926 244.761 270.926C243.781 270.926 243.291 271.512 243.291 272.682C243.302 273.925 243.787 274.436 244.916 274.954C246.378 275.522 248.237 276.493 248.911 277.666C250.921 281.244 249.541 286.71 244.607 286.501ZM255.845 286.501C252.286 286.55 250.695 284.016 250.793 280.585H254.273C254.175 282.082 254.689 283.444 255.923 283.35C256.472 283.35 256.858 283.177 257.082 282.832C257.506 282.202 257.586 280.385 256.979 279.682C256.554 279.004 255.027 278.406 254.221 278.003C253.069 277.452 252.24 276.798 251.734 276.039C250.589 274.358 250.696 270.667 252.3 269.17C253.86 267.323 257.93 267.239 259.492 269.132C260.454 270.107 260.874 272.026 260.793 273.793H257.442C257.47 273.067 257.403 271.895 257.12 271.469C256.922 271.107 256.548 270.926 255.999 270.926C255.019 270.926 254.529 271.512 254.529 272.682C254.54 273.925 255.025 274.436 256.154 274.954C257.616 275.522 259.475 276.493 260.149 277.666C262.159 281.244 260.78 286.71 255.845 286.501Z" fill="#464364"/>
<path d="M230.764 311.676C227.629 311.676 225.725 309.625 225.725 306.212C225.725 302.806 227.666 300.748 230.706 300.748C232.683 300.748 234.214 301.627 234.939 303.15C235.085 303.429 235.159 303.714 235.159 303.978C235.159 304.557 234.771 304.93 234.185 304.93C233.687 304.93 233.372 304.71 233.13 304.198C232.646 303.121 231.782 302.579 230.728 302.579C229.058 302.579 227.981 303.978 227.981 306.205C227.981 308.46 229.043 309.852 230.735 309.852C231.848 309.852 232.683 309.347 233.159 308.285C233.386 307.787 233.665 307.589 234.133 307.589C234.756 307.589 235.166 307.984 235.166 308.57C235.166 308.819 235.107 309.054 234.998 309.31C234.338 310.775 232.764 311.676 230.764 311.676ZM240.615 311.676C238.433 311.676 237.034 310.804 236.609 309.647C236.536 309.457 236.492 309.251 236.492 309.054C236.492 308.468 236.895 308.08 237.466 308.08C237.92 308.08 238.22 308.255 238.484 308.724C238.828 309.53 239.656 309.896 240.667 309.896C241.853 309.896 242.659 309.325 242.659 308.548C242.659 307.853 242.161 307.457 240.835 307.186L239.714 306.966C237.605 306.549 236.572 305.538 236.572 303.963C236.572 302.03 238.257 300.748 240.608 300.748C242.542 300.748 243.999 301.561 244.468 302.938C244.519 303.084 244.548 303.238 244.548 303.429C244.548 303.956 244.167 304.315 243.604 304.315C243.105 304.315 242.798 304.117 242.549 303.663C242.197 302.865 241.516 302.535 240.608 302.535C239.517 302.535 238.792 303.048 238.792 303.824C238.792 304.476 239.297 304.879 240.549 305.128L241.663 305.355C243.904 305.802 244.871 306.703 244.871 308.307C244.871 310.372 243.252 311.676 240.615 311.676ZM250.093 311.676C247.91 311.676 246.511 310.804 246.086 309.647C246.013 309.457 245.969 309.251 245.969 309.054C245.969 308.468 246.372 308.08 246.943 308.08C247.397 308.08 247.698 308.255 247.961 308.724C248.306 309.53 249.133 309.896 250.144 309.896C251.331 309.896 252.136 309.325 252.136 308.548C252.136 307.853 251.638 307.457 250.312 307.186L249.192 306.966C247.083 306.549 246.05 305.538 246.05 303.963C246.05 302.03 247.734 300.748 250.085 300.748C252.019 300.748 253.477 301.561 253.945 302.938C253.997 303.084 254.026 303.238 254.026 303.429C254.026 303.956 253.645 304.315 253.081 304.315C252.583 304.315 252.275 304.117 252.026 303.663C251.675 302.865 250.994 302.535 250.085 302.535C248.994 302.535 248.269 303.048 248.269 303.824C248.269 304.476 248.774 304.879 250.027 305.128L251.14 305.355C253.381 305.802 254.348 306.703 254.348 308.307C254.348 310.372 252.729 311.676 250.093 311.676Z" fill="#AB7ED9"/>
<rect x="310" y="226" width="100" height="100" rx="20" fill="#FFCA28" fill-opacity="0.2"/>
<path d="M345 240.5C339.477 240.5 335 244.977 335 250.5V280.5C335 286.023 339.477 290.5 345 290.5H375C380.523 290.5 385 286.023 385 280.5V250.5C385 244.977 380.523 240.5 375 240.5H345ZM362.211 279.495C362.211 284.361 359.354 286.582 355.191 286.582C352.428 286.582 350.52 285.534 349.259 284.044C348.492 283.137 348.911 281.819 349.928 281.205C351.044 280.531 352.347 281.076 353.381 281.869C353.801 282.191 354.313 282.386 354.991 282.386C356.53 282.386 357.513 281.782 357.513 279.429V265.806C357.513 264.509 358.564 263.457 359.862 263.457C361.159 263.457 362.211 264.509 362.211 265.806V279.495ZM373.326 286.581C373.325 286.582 373.325 286.582 373.324 286.582C369.989 286.582 367.554 285.37 365.978 283.582C365.17 282.665 365.592 281.305 366.65 280.694C367.731 280.07 369.059 280.491 370.008 281.302C370.824 281.998 371.848 282.43 373.225 282.43C375.166 282.43 376.418 281.459 376.418 280.109C376.418 278.502 375.145 277.932 372.991 276.984L371.82 276.482C368.427 275.043 366.184 273.223 366.184 269.395C366.184 265.868 368.873 263.189 373.059 263.189C375.343 263.189 377.132 263.794 378.537 265.293C379.323 266.131 378.976 267.435 378.009 268.055C376.959 268.727 375.646 268.204 374.546 267.62C374.112 267.389 373.624 267.286 373.048 267.286C371.677 267.286 370.805 268.157 370.805 269.295C370.805 270.702 371.677 271.27 373.696 272.152L374.868 272.654C378.864 274.361 381.107 276.114 381.107 280.041C381.107 284.26 377.781 286.58 373.328 286.58C373.327 286.58 373.326 286.581 373.326 286.581Z" fill="#FFCA28"/>
<path d="M327.07 311.676C325.481 311.676 324.258 310.951 323.76 309.735C323.635 309.427 323.577 309.164 323.577 308.841C323.577 308.204 323.979 307.801 324.602 307.801C325.159 307.801 325.481 308.065 325.657 308.666C325.854 309.376 326.345 309.771 327.048 309.771C327.971 309.771 328.469 309.2 328.469 308.138V301.942C328.469 301.209 328.879 300.785 329.575 300.785C330.271 300.785 330.681 301.209 330.681 301.942V308.153C330.681 310.401 329.333 311.676 327.07 311.676ZM334.666 311.625C333.171 311.625 332.036 310.658 332.036 309.244C332.036 307.816 333.135 306.988 335.098 306.871L337.075 306.754V306.234C337.075 305.501 336.562 305.077 335.757 305.077C335.105 305.077 334.709 305.289 334.233 305.904C333.999 306.168 333.728 306.3 333.384 306.3C332.864 306.3 332.49 305.963 332.49 305.479C332.49 305.311 332.527 305.157 332.6 304.996C332.966 304.059 334.226 303.48 335.852 303.48C337.866 303.48 339.177 304.52 339.177 306.102V310.577C339.177 311.288 338.745 311.654 338.137 311.654C337.559 311.654 337.156 311.332 337.112 310.702V310.299H337.068C336.628 311.134 335.647 311.625 334.666 311.625ZM335.369 310.079C336.306 310.079 337.075 309.471 337.075 308.622V308.05L335.42 308.153C334.622 308.211 334.167 308.57 334.167 309.127C334.167 309.713 334.651 310.079 335.369 310.079ZM343.813 311.654C342.993 311.654 342.554 311.324 342.268 310.562L340.225 305.084C340.159 304.894 340.107 304.667 340.107 304.447C340.107 303.868 340.569 303.487 341.177 303.487C341.697 303.487 342.041 303.766 342.202 304.344L343.792 309.61H343.835L345.425 304.322C345.571 303.758 345.93 303.487 346.428 303.487C347.021 303.487 347.468 303.897 347.468 304.439C347.468 304.637 347.417 304.857 347.351 305.04L345.308 310.562C345.037 311.317 344.59 311.654 343.813 311.654ZM350.574 311.625C349.08 311.625 347.944 310.658 347.944 309.244C347.944 307.816 349.043 306.988 351.006 306.871L352.983 306.754V306.234C352.983 305.501 352.471 305.077 351.665 305.077C351.013 305.077 350.618 305.289 350.142 305.904C349.907 306.168 349.636 306.3 349.292 306.3C348.772 306.3 348.398 305.963 348.398 305.479C348.398 305.311 348.435 305.157 348.508 304.996C348.875 304.059 350.134 303.48 351.76 303.48C353.774 303.48 355.085 304.52 355.085 306.102V310.577C355.085 311.288 354.653 311.654 354.045 311.654C353.467 311.654 353.064 311.332 353.02 310.702V310.299H352.976C352.537 311.134 351.555 311.625 350.574 311.625ZM351.277 310.079C352.214 310.079 352.983 309.471 352.983 308.622V308.05L351.328 308.153C350.53 308.211 350.076 308.57 350.076 309.127C350.076 309.713 350.559 310.079 351.277 310.079ZM360.52 311.676C358.337 311.676 356.938 310.804 356.514 309.647C356.44 309.457 356.396 309.251 356.396 309.054C356.396 308.468 356.799 308.08 357.371 308.08C357.825 308.08 358.125 308.255 358.389 308.724C358.733 309.53 359.561 309.896 360.571 309.896C361.758 309.896 362.563 309.325 362.563 308.548C362.563 307.853 362.065 307.457 360.74 307.186L359.619 306.966C357.51 306.549 356.477 305.538 356.477 303.963C356.477 302.03 358.162 300.748 360.513 300.748C362.446 300.748 363.904 301.561 364.373 302.938C364.424 303.084 364.453 303.238 364.453 303.429C364.453 303.956 364.072 304.315 363.508 304.315C363.01 304.315 362.703 304.117 362.454 303.663C362.102 302.865 361.421 302.535 360.513 302.535C359.421 302.535 358.696 303.048 358.696 303.824C358.696 304.476 359.202 304.879 360.454 305.128L361.567 305.355C363.809 305.802 364.775 306.703 364.775 308.307C364.775 310.372 363.157 311.676 360.52 311.676ZM369.529 311.668C367.163 311.668 365.662 310.116 365.662 307.574C365.662 305.062 367.156 303.48 369.514 303.48C371.089 303.48 372.4 304.242 372.825 305.355C372.898 305.538 372.942 305.729 372.942 305.882C372.942 306.41 372.532 306.717 372.026 306.717C371.602 306.717 371.345 306.549 371.125 306.161C370.737 305.472 370.261 305.157 369.58 305.157C368.496 305.157 367.83 306.051 367.83 307.567C367.83 309.112 368.496 309.991 369.565 309.991C370.312 309.991 370.774 309.625 371.104 309.068C371.389 308.622 371.624 308.438 372.078 308.438C372.576 308.438 372.979 308.768 372.979 309.295C372.979 309.464 372.935 309.64 372.839 309.852C372.371 310.921 371.03 311.668 369.529 311.668ZM375.19 311.654C374.546 311.654 374.121 311.251 374.121 310.541V304.564C374.121 303.883 374.539 303.487 375.154 303.487C375.754 303.487 376.165 303.883 376.165 304.564V305.077H376.208C376.414 304.103 377.058 303.524 377.842 303.524C378.127 303.524 378.354 303.59 378.508 303.722C378.713 303.883 378.816 304.146 378.816 304.513C378.816 304.85 378.713 305.106 378.508 305.282C378.303 305.458 377.996 305.553 377.578 305.56C376.604 305.575 376.26 306.124 376.26 307.054V310.541C376.26 311.251 375.842 311.654 375.19 311.654ZM380.691 302.674C380.046 302.674 379.548 302.184 379.548 301.568C379.548 300.946 380.046 300.462 380.691 300.462C381.335 300.462 381.833 300.946 381.833 301.568C381.833 302.184 381.335 302.674 380.691 302.674ZM380.691 311.654C380.024 311.654 379.622 311.236 379.622 310.541V304.608C379.622 303.912 380.024 303.487 380.691 303.487C381.35 303.487 381.76 303.912 381.76 304.608V310.541C381.76 311.236 381.35 311.654 380.691 311.654ZM384.258 314.298C383.635 314.298 383.188 313.917 383.188 313.185V304.586C383.188 303.868 383.628 303.487 384.243 303.487C384.858 303.487 385.298 303.868 385.298 304.593V305.018H385.342C385.767 304.095 386.638 303.524 387.773 303.524C389.766 303.524 390.989 305.04 390.989 307.574C390.989 310.101 389.773 311.625 387.81 311.625C386.667 311.625 385.789 311.068 385.371 310.182H385.327V313.185C385.327 313.917 384.888 314.298 384.258 314.298ZM387.056 309.903C388.125 309.903 388.799 309.002 388.799 307.574C388.799 306.153 388.125 305.238 387.056 305.238C386.008 305.238 385.32 306.168 385.32 307.574C385.32 308.995 386.008 309.903 387.056 309.903ZM392.666 309.493V305.26H392.256C391.75 305.26 391.428 304.952 391.428 304.454C391.428 303.956 391.75 303.648 392.256 303.648H392.666V302.777C392.666 302.088 393.069 301.664 393.735 301.664C394.402 301.664 394.805 302.088 394.805 302.777V303.648H395.559C396.064 303.648 396.379 303.963 396.379 304.454C396.379 304.945 396.064 305.26 395.559 305.26H394.805V309.017C394.805 309.574 394.995 309.808 395.457 309.845L395.596 309.859C396.123 309.918 396.409 310.138 396.409 310.636C396.409 311.266 395.793 311.588 394.893 311.588H394.819C393.391 311.588 392.666 310.877 392.666 309.493Z" fill="#FFCA28"/>
<rect x="430" y="226" width="100" height="100" rx="20" fill="#61DAFB" fill-opacity="0.2"/>
<path d="M480 270.598C482.816 270.598 485.099 268.316 485.099 265.5C485.099 262.684 482.816 260.402 480 260.402C477.184 260.402 474.902 262.684 474.902 265.5C474.902 268.316 477.184 270.598 480 270.598Z" fill="#61DAFB"/>
<path d="M499.365 257.092C498.381 256.734 497.352 256.377 496.279 256.064C496.547 254.99 496.771 253.917 496.95 252.888C497.889 246.985 496.86 242.826 493.998 241.216C493.149 240.724 492.209 240.5 491.136 240.5C488.005 240.5 484.025 242.826 480 246.716C475.975 242.826 471.995 240.5 468.864 240.5C467.791 240.5 466.852 240.724 466.002 241.216C463.14 242.87 462.111 247.03 463.05 252.888C463.229 253.917 463.453 254.99 463.721 256.064C462.648 256.377 461.619 256.69 460.635 257.092C455.045 259.239 452.004 262.191 452.004 265.5C452.004 268.809 455.089 271.761 460.635 273.908C461.619 274.266 462.648 274.623 463.721 274.936C463.453 276.01 463.229 277.083 463.05 278.112C462.111 284.015 463.14 288.174 466.002 289.784C466.852 290.276 467.791 290.5 468.864 290.5C472.039 290.5 476.02 288.174 480 284.284C484.025 288.174 488.005 290.5 491.136 290.5C492.209 290.5 493.149 290.276 493.998 289.784C496.86 288.13 497.889 283.97 496.95 278.112C496.771 277.083 496.547 276.01 496.279 274.936C497.352 274.623 498.381 274.31 499.365 273.908C504.955 271.761 507.996 268.809 507.996 265.5C507.996 262.191 504.955 259.239 499.365 257.092ZM492.746 243.452C494.58 244.525 495.206 247.835 494.445 252.53C494.311 253.47 494.088 254.453 493.819 255.482C491.494 254.945 489.034 254.588 486.44 254.364C484.92 252.217 483.354 250.294 481.789 248.55C485.098 245.285 488.453 243.049 491.181 243.049C491.762 243.049 492.299 243.183 492.746 243.452ZM487.737 269.972C486.932 271.403 485.993 272.835 485.009 274.266C483.354 274.4 481.699 274.445 480 274.445C478.256 274.445 476.601 274.4 474.991 274.266C474.007 272.835 473.113 271.403 472.308 269.972C471.458 268.496 470.653 266.976 469.937 265.5C470.653 264.024 471.458 262.504 472.308 261.028C473.113 259.597 474.052 258.165 475.036 256.734C476.691 256.6 478.345 256.555 480.045 256.555C481.789 256.555 483.444 256.6 485.054 256.734C486.038 258.165 486.932 259.597 487.737 261.028C488.587 262.504 489.392 264.024 490.107 265.5C489.347 266.976 488.587 268.452 487.737 269.972ZM491.449 268.496C492.12 270.062 492.657 271.582 493.149 273.103C491.628 273.461 490.018 273.729 488.318 273.953C488.855 273.103 489.437 272.208 489.928 271.269C490.465 270.33 490.957 269.391 491.449 268.496ZM480 280.616C478.927 279.453 477.898 278.201 476.914 276.904C477.943 276.949 478.971 276.994 480 276.994C481.029 276.994 482.057 276.949 483.086 276.904C482.102 278.201 481.073 279.453 480 280.616ZM471.682 273.908C469.982 273.684 468.372 273.416 466.852 273.058C467.343 271.582 467.88 270.017 468.551 268.452C469.043 269.346 469.535 270.285 470.072 271.18C470.608 272.164 471.145 273.013 471.682 273.908ZM468.551 262.504C467.88 260.938 467.343 259.418 466.852 257.897C468.372 257.539 469.982 257.271 471.682 257.047C471.145 257.897 470.564 258.792 470.072 259.731C469.535 260.67 469.043 261.609 468.551 262.504ZM480 250.384C481.073 251.547 482.102 252.799 483.086 254.096C482.057 254.051 481.029 254.006 480 254.006C478.971 254.006 477.943 254.051 476.914 254.096C477.898 252.799 478.927 251.547 480 250.384ZM489.928 259.775L488.318 257.092C490.018 257.316 491.628 257.584 493.149 257.942C492.657 259.418 492.12 260.983 491.449 262.548C490.957 261.609 490.465 260.67 489.928 259.775ZM465.555 252.53C464.794 247.835 465.42 244.525 467.254 243.452C467.701 243.183 468.238 243.049 468.819 243.049C471.503 243.049 474.857 245.241 478.211 248.55C476.646 250.25 475.081 252.217 473.56 254.364C470.966 254.588 468.506 254.99 466.181 255.482C465.912 254.453 465.733 253.47 465.555 252.53ZM454.508 265.5C454.508 263.398 457.057 261.162 461.53 259.507C462.424 259.149 463.408 258.836 464.392 258.568C465.107 260.804 466.002 263.174 467.075 265.545C466.002 267.915 465.063 270.241 464.392 272.477C458.22 270.688 454.508 268.004 454.508 265.5ZM467.254 287.548C465.42 286.475 464.794 283.165 465.555 278.47C465.689 277.53 465.912 276.547 466.181 275.518C468.506 276.055 470.966 276.412 473.56 276.636C475.081 278.783 476.646 280.706 478.211 282.45C474.902 285.715 471.547 287.951 468.819 287.951C468.238 287.951 467.701 287.817 467.254 287.548ZM494.445 278.47C495.206 283.165 494.58 286.475 492.746 287.548C492.299 287.817 491.762 287.951 491.181 287.951C488.497 287.951 485.143 285.759 481.789 282.45C483.354 280.75 484.92 278.783 486.44 276.636C489.034 276.412 491.494 276.01 493.819 275.518C494.088 276.547 494.267 277.53 494.445 278.47ZM498.471 271.493C497.576 271.851 496.592 272.164 495.608 272.432C494.893 270.196 493.998 267.826 492.925 265.455C493.998 263.085 494.937 260.759 495.608 258.523C501.78 260.312 505.492 262.996 505.492 265.5C505.492 267.602 502.898 269.838 498.471 271.493Z" fill="#61DAFB"/>
<path d="M462.188 311.654C461.499 311.654 461.082 311.229 461.082 310.504V302.081C461.082 301.356 461.492 300.931 462.188 300.931H465.41C467.842 300.931 469.233 302.213 469.233 304.3C469.233 305.619 468.582 306.747 467.417 307.245L468.94 309.881C469.124 310.196 469.175 310.387 469.175 310.643C469.175 311.229 468.706 311.654 468.062 311.654C467.534 311.654 467.292 311.463 466.934 310.819L465.176 307.633H463.293V310.504C463.293 311.229 462.883 311.654 462.188 311.654ZM463.293 306.029H465.198C466.311 306.029 466.963 305.392 466.963 304.344C466.963 303.319 466.274 302.66 465.176 302.66H463.293V306.029ZM474.045 311.668C471.592 311.668 470.149 310.152 470.149 307.611C470.149 305.084 471.621 303.48 473.943 303.48C476.169 303.48 477.664 305.003 477.664 307.135C477.664 307.728 477.327 308.065 476.733 308.065H472.251V308.16C472.251 309.325 472.954 310.086 474.038 310.086C474.822 310.086 475.334 309.823 475.913 309.142C476.14 308.907 476.331 308.827 476.609 308.827C477.07 308.827 477.444 309.12 477.444 309.61C477.444 309.779 477.393 309.955 477.297 310.13C476.777 311.097 475.562 311.668 474.045 311.668ZM472.273 306.754H475.605C475.562 305.729 474.902 305.062 473.965 305.062C473.027 305.062 472.346 305.75 472.273 306.754ZM481.091 311.625C479.597 311.625 478.462 310.658 478.462 309.244C478.462 307.816 479.561 306.988 481.523 306.871L483.501 306.754V306.234C483.501 305.501 482.988 305.077 482.183 305.077C481.531 305.077 481.135 305.289 480.659 305.904C480.425 306.168 480.154 306.3 479.81 306.3C479.29 306.3 478.916 305.963 478.916 305.479C478.916 305.311 478.953 305.157 479.026 304.996C479.392 304.059 480.652 303.48 482.278 303.48C484.292 303.48 485.603 304.52 485.603 306.102V310.577C485.603 311.288 485.171 311.654 484.563 311.654C483.984 311.654 483.582 311.332 483.538 310.702V310.299H483.494C483.054 311.134 482.073 311.625 481.091 311.625ZM481.794 310.079C482.732 310.079 483.501 309.471 483.501 308.622V308.05L481.846 308.153C481.047 308.211 480.593 308.57 480.593 309.127C480.593 309.713 481.077 310.079 481.794 310.079ZM490.569 311.668C488.203 311.668 486.702 310.116 486.702 307.574C486.702 305.062 488.196 303.48 490.554 303.48C492.129 303.48 493.44 304.242 493.865 305.355C493.938 305.538 493.982 305.729 493.982 305.882C493.982 306.41 493.572 306.717 493.066 306.717C492.642 306.717 492.385 306.549 492.166 306.161C491.777 305.472 491.301 305.157 490.62 305.157C489.536 305.157 488.87 306.051 488.87 307.567C488.87 309.112 489.536 309.991 490.605 309.991C491.353 309.991 491.814 309.625 492.144 309.068C492.429 308.622 492.664 308.438 493.118 308.438C493.616 308.438 494.019 308.768 494.019 309.295C494.019 309.464 493.975 309.64 493.879 309.852C493.411 310.921 492.07 311.668 490.569 311.668ZM495.732 309.493V305.26H495.322C494.817 305.26 494.495 304.952 494.495 304.454C494.495 303.956 494.817 303.648 495.322 303.648H495.732V302.777C495.732 302.088 496.135 301.664 496.802 301.664C497.468 301.664 497.871 302.088 497.871 302.777V303.648H498.625C499.131 303.648 499.446 303.963 499.446 304.454C499.446 304.945 499.131 305.26 498.625 305.26H497.871V309.017C497.871 309.574 498.062 309.808 498.523 309.845L498.662 309.859C499.189 309.918 499.475 310.138 499.475 310.636C499.475 311.266 498.86 311.588 497.959 311.588H497.886C496.458 311.588 495.732 310.877 495.732 309.493Z" fill="#61DAFB"/>
<rect x="600" y="148" width="540" height="218" rx="40" fill="#C89AFF" fill-opacity="0.2"/>
<path d="M833.538 206C832.378 206 831.694 205.292 831.694 204.071V190.302C831.694 189.093 832.378 188.385 833.538 188.385H838.42C843.706 188.385 846.819 191.535 846.819 197.125C846.819 202.716 843.706 206 838.42 206H833.538ZM835.381 202.948H837.981C841.277 202.948 843.059 200.946 843.059 197.138C843.059 193.451 841.228 191.425 837.981 191.425H835.381V202.948ZM854.912 206.281C850.823 206.281 848.418 203.754 848.418 199.518C848.418 195.307 850.872 192.633 854.741 192.633C858.452 192.633 860.942 195.172 860.942 198.725C860.942 199.713 860.381 200.275 859.392 200.275H851.921V200.434C851.921 202.375 853.093 203.644 854.9 203.644C856.206 203.644 857.061 203.205 858.025 202.069C858.403 201.679 858.721 201.544 859.185 201.544C859.954 201.544 860.576 202.033 860.576 202.851C860.576 203.131 860.491 203.424 860.332 203.717C859.465 205.329 857.439 206.281 854.912 206.281ZM851.958 198.09H857.512C857.439 196.381 856.34 195.27 854.778 195.27C853.215 195.27 852.08 196.417 851.958 198.09ZM868.12 206.281C865.117 206.281 863.115 205.207 862.493 203.668C862.407 203.437 862.358 203.205 862.358 203.009C862.358 202.191 862.969 201.642 863.799 201.642C864.373 201.642 864.861 201.898 865.349 202.448C866.045 203.363 866.851 203.778 868.206 203.778C869.5 203.778 870.342 203.241 870.342 202.375C870.342 201.667 869.89 201.288 868.608 201.007L866.411 200.543C863.848 199.994 862.554 198.688 862.554 196.747C862.554 194.245 864.714 192.633 868.108 192.633C870.818 192.633 872.808 193.866 873.235 195.343C873.284 195.526 873.32 195.697 873.32 195.868C873.32 196.588 872.869 197.089 871.953 197.089C871.489 197.089 870.977 196.918 870.659 196.54C870.037 195.746 869.329 195.136 868.047 195.136C866.838 195.136 865.996 195.709 865.996 196.552C865.996 197.235 866.509 197.687 867.815 197.968L869.976 198.432C872.759 199.018 873.906 200.043 873.906 201.996C873.906 204.596 871.575 206.281 868.12 206.281ZM877.52 191.291C876.445 191.291 875.615 190.473 875.615 189.447C875.615 188.41 876.445 187.604 877.52 187.604C878.594 187.604 879.424 188.41 879.424 189.447C879.424 190.473 878.594 191.291 877.52 191.291ZM877.52 206.256C876.409 206.256 875.737 205.561 875.737 204.401V194.513C875.737 193.354 876.409 192.646 877.52 192.646C878.618 192.646 879.302 193.354 879.302 194.513V204.401C879.302 205.561 878.618 206.256 877.52 206.256ZM887.529 210.919C884.856 210.907 882.866 209.894 882.024 208.515C881.829 208.185 881.755 207.855 881.755 207.526C881.755 206.781 882.317 206.22 883.208 206.22C883.672 206.22 884.038 206.366 884.441 206.732C885.405 207.648 886.333 208.148 887.517 208.161C889.47 208.173 890.618 207.099 890.618 205.463V203.375H890.544C889.934 204.779 888.408 205.719 886.516 205.719C883.257 205.719 881.206 203.229 881.206 199.237C881.206 195.136 883.208 192.707 886.577 192.707C888.457 192.707 889.885 193.695 890.569 195.172H890.642V194.452C890.642 193.244 891.411 192.646 892.437 192.646C893.462 192.646 894.207 193.244 894.207 194.452V205.487C894.207 208.893 891.741 210.944 887.529 210.919ZM887.725 203.07C889.507 203.07 890.654 201.654 890.654 199.286C890.654 196.93 889.507 195.417 887.725 195.417C885.967 195.417 884.856 196.906 884.856 199.274C884.856 201.667 885.955 203.07 887.725 203.07ZM898.308 206.256C897.271 206.256 896.526 205.622 896.526 204.401V194.44C896.526 193.329 897.173 192.646 898.247 192.646C899.321 192.646 900.029 193.329 900.029 194.452V195.185H900.103C900.798 193.561 902.117 192.67 904.131 192.67C907.036 192.67 908.672 194.501 908.672 197.565V204.401C908.672 205.622 907.927 206.256 906.89 206.256C905.84 206.256 905.107 205.622 905.107 204.401V198.31C905.107 196.601 904.302 195.624 902.703 195.624C901.104 195.624 900.09 196.796 900.09 198.493V204.401C900.09 205.622 899.358 206.256 898.308 206.256Z" fill="#C89AFF"/>
<rect x="760" y="226" width="100" height="100" rx="20" fill="white" fill-opacity="0.2"/>
<path d="M793 240.5H827V257.167H810L793 240.5ZM793 257.167H810L827 273.833H810V290.5L793 273.833V257.167Z" fill="white"/>
<path d="M787.749 311.639C787.053 311.639 786.643 311.214 786.643 310.489V302.081C786.643 301.356 787.053 300.931 787.749 300.931H792.693C793.301 300.931 793.696 301.275 793.696 301.847C793.696 302.418 793.293 302.762 792.693 302.762H788.855V305.589H792.334C792.905 305.589 793.279 305.919 793.279 306.461C793.279 307.01 792.913 307.34 792.334 307.34H788.855V310.489C788.855 311.214 788.445 311.639 787.749 311.639ZM795.762 311.654C795.117 311.654 794.692 311.251 794.692 310.541V304.564C794.692 303.883 795.11 303.487 795.725 303.487C796.326 303.487 796.736 303.883 796.736 304.564V305.077H796.78C796.985 304.103 797.629 303.524 798.413 303.524C798.699 303.524 798.926 303.59 799.08 303.722C799.285 303.883 799.387 304.146 799.387 304.513C799.387 304.85 799.285 305.106 799.08 305.282C798.875 305.458 798.567 305.553 798.149 305.56C797.175 305.575 796.831 306.124 796.831 307.054V310.541C796.831 311.251 796.414 311.654 795.762 311.654ZM802.288 311.625C800.793 311.625 799.658 310.658 799.658 309.244C799.658 307.816 800.757 306.988 802.72 306.871L804.697 306.754V306.234C804.697 305.501 804.185 305.077 803.379 305.077C802.727 305.077 802.332 305.289 801.855 305.904C801.621 306.168 801.35 306.3 801.006 306.3C800.486 306.3 800.112 305.963 800.112 305.479C800.112 305.311 800.149 305.157 800.222 304.996C800.588 304.059 801.848 303.48 803.474 303.48C805.488 303.48 806.799 304.52 806.799 306.102V310.577C806.799 311.288 806.367 311.654 805.759 311.654C805.181 311.654 804.778 311.332 804.734 310.702V310.299H804.69C804.25 311.134 803.269 311.625 802.288 311.625ZM802.991 310.079C803.928 310.079 804.697 309.471 804.697 308.622V308.05L803.042 308.153C802.244 308.211 801.79 308.57 801.79 309.127C801.79 309.713 802.273 310.079 802.991 310.079ZM809.253 311.654C808.616 311.654 808.184 311.266 808.184 310.541V304.579C808.184 303.861 808.608 303.487 809.216 303.487C809.824 303.487 810.249 303.861 810.249 304.579V305.069H810.293C810.623 304.125 811.465 303.502 812.534 303.502C813.669 303.502 814.46 304.088 814.724 305.113H814.768C815.12 304.125 816.057 303.502 817.207 303.502C818.745 303.502 819.778 304.557 819.778 306.139V310.541C819.778 311.266 819.338 311.654 818.701 311.654C818.071 311.654 817.639 311.266 817.639 310.541V306.673C817.639 305.765 817.185 305.267 816.357 305.267C815.544 305.267 815.01 305.86 815.01 306.732V310.541C815.01 311.266 814.614 311.654 813.977 311.654C813.347 311.654 812.952 311.266 812.952 310.541V306.607C812.952 305.765 812.476 305.267 811.685 305.267C810.872 305.267 810.322 305.882 810.322 306.761V310.541C810.322 311.266 809.883 311.654 809.253 311.654ZM824.744 311.668C822.29 311.668 820.847 310.152 820.847 307.611C820.847 305.084 822.319 303.48 824.641 303.48C826.868 303.48 828.362 305.003 828.362 307.135C828.362 307.728 828.025 308.065 827.432 308.065H822.949V308.16C822.949 309.325 823.652 310.086 824.736 310.086C825.52 310.086 826.033 309.823 826.611 309.142C826.838 308.907 827.029 308.827 827.307 308.827C827.769 308.827 828.142 309.12 828.142 309.61C828.142 309.779 828.091 309.955 827.996 310.13C827.476 311.097 826.26 311.668 824.744 311.668ZM822.971 306.754H826.304C826.26 305.729 825.601 305.062 824.663 305.062C823.726 305.062 823.044 305.75 822.971 306.754ZM830.537 311.654C829.893 311.654 829.468 311.251 829.468 310.541V304.564C829.468 303.883 829.885 303.487 830.5 303.487C831.101 303.487 831.511 303.883 831.511 304.564V305.077H831.555C831.76 304.103 832.405 303.524 833.188 303.524C833.474 303.524 833.701 303.59 833.855 303.722C834.06 303.883 834.163 304.146 834.163 304.513C834.163 304.85 834.06 305.106 833.855 305.282C833.65 305.458 833.342 305.553 832.925 305.56C831.951 305.575 831.606 306.124 831.606 307.054V310.541C831.606 311.251 831.189 311.654 830.537 311.654Z" fill="white"/>
<rect x="880" y="226" width="100" height="100" rx="20" fill="#62FFE5" fill-opacity="0.2"/>
<path opacity="0.6" d="M930.002 240.5H921.666C919.456 240.5 917.336 241.378 915.773 242.941C914.21 244.504 913.332 246.624 913.332 248.834C913.332 251.045 914.21 253.164 915.773 254.727C917.336 256.29 919.456 257.168 921.666 257.168H930.002V240.5Z" fill="#62FFE5"/>
<path opacity="0.4" d="M930.002 257.168H921.667C919.457 257.168 917.337 258.046 915.774 259.609C914.212 261.172 913.334 263.291 913.334 265.501C913.334 267.711 914.212 269.831 915.774 271.394C917.337 272.956 919.457 273.834 921.667 273.834H930.002V257.168Z" fill="#62FFE5"/>
<path d="M946.668 265.501C946.668 267.712 945.79 269.831 944.227 271.394C942.664 272.957 940.544 273.835 938.334 273.835C936.123 273.835 934.003 272.957 932.441 271.394C930.878 269.831 930 267.712 930 265.501C930 263.291 930.878 261.171 932.441 259.608C934.003 258.045 936.123 257.167 938.334 257.167C940.544 257.167 942.664 258.045 944.227 259.608C945.79 261.171 946.668 263.291 946.668 265.501Z" fill="#62FFE5"/>
<path opacity="0.2" d="M921.666 273.837H930.002V282.17C930.001 283.817 929.512 285.428 928.596 286.798C927.681 288.168 926.379 289.236 924.857 289.866C923.334 290.497 921.659 290.661 920.043 290.34C918.426 290.018 916.942 289.225 915.777 288.059C914.611 286.894 913.818 285.41 913.496 283.793C913.175 282.177 913.339 280.502 913.97 278.979C914.6 277.457 915.668 276.155 917.038 275.24C918.408 274.324 920.018 273.837 921.666 273.837Z" fill="#62FFE5"/>
<path opacity="0.8" d="M930 240.5H938.332C940.543 240.5 942.663 241.378 944.226 242.941C945.789 244.504 946.667 246.624 946.667 248.834C946.667 251.045 945.789 253.164 944.226 254.727C942.663 256.29 940.543 257.168 938.332 257.168H930V240.5Z" fill="#62FFE5"/>
<path d="M911.03 311.639C910.334 311.639 909.924 311.214 909.924 310.489V302.081C909.924 301.356 910.334 300.931 911.03 300.931H915.974C916.582 300.931 916.978 301.275 916.978 301.847C916.978 302.418 916.575 302.762 915.974 302.762H912.136V305.589H915.615C916.187 305.589 916.56 305.919 916.56 306.461C916.56 307.01 916.194 307.34 915.615 307.34H912.136V310.489C912.136 311.214 911.726 311.639 911.03 311.639ZM919.08 302.674C918.435 302.674 917.937 302.184 917.937 301.568C917.937 300.946 918.435 300.462 919.08 300.462C919.724 300.462 920.222 300.946 920.222 301.568C920.222 302.184 919.724 302.674 919.08 302.674ZM919.08 311.654C918.413 311.654 918.01 311.236 918.01 310.541V304.608C918.01 303.912 918.413 303.487 919.08 303.487C919.739 303.487 920.149 303.912 920.149 304.608V310.541C920.149 311.236 919.739 311.654 919.08 311.654ZM925.085 314.452C923.481 314.444 922.288 313.836 921.782 313.009C921.665 312.811 921.621 312.613 921.621 312.416C921.621 311.969 921.958 311.632 922.493 311.632C922.771 311.632 922.991 311.72 923.232 311.939C923.811 312.489 924.368 312.789 925.078 312.796C926.25 312.804 926.938 312.159 926.938 311.178V309.925H926.895C926.528 310.768 925.613 311.332 924.478 311.332C922.522 311.332 921.292 309.837 921.292 307.442C921.292 304.981 922.493 303.524 924.514 303.524C925.642 303.524 926.499 304.117 926.909 305.003H926.953V304.571C926.953 303.846 927.415 303.487 928.03 303.487C928.645 303.487 929.092 303.846 929.092 304.571V311.192C929.092 313.236 927.612 314.466 925.085 314.452ZM925.203 309.742C926.272 309.742 926.96 308.893 926.96 307.472C926.96 306.058 926.272 305.15 925.203 305.15C924.148 305.15 923.481 306.043 923.481 307.464C923.481 308.9 924.141 309.742 925.203 309.742ZM931.553 311.654C930.916 311.654 930.483 311.266 930.483 310.541V304.579C930.483 303.861 930.908 303.487 931.516 303.487C932.124 303.487 932.549 303.861 932.549 304.579V305.069H932.593C932.922 304.125 933.765 303.502 934.834 303.502C935.969 303.502 936.76 304.088 937.024 305.113H937.068C937.419 304.125 938.357 303.502 939.507 303.502C941.045 303.502 942.078 304.557 942.078 306.139V310.541C942.078 311.266 941.638 311.654 941.001 311.654C940.371 311.654 939.939 311.266 939.939 310.541V306.673C939.939 305.765 939.485 305.267 938.657 305.267C937.844 305.267 937.31 305.86 937.31 306.732V310.541C937.31 311.266 936.914 311.654 936.277 311.654C935.647 311.654 935.251 311.266 935.251 310.541V306.607C935.251 305.765 934.775 305.267 933.984 305.267C933.171 305.267 932.622 305.882 932.622 306.761V310.541C932.622 311.266 932.183 311.654 931.553 311.654ZM945.754 311.625C944.26 311.625 943.125 310.658 943.125 309.244C943.125 307.816 944.224 306.988 946.187 306.871L948.164 306.754V306.234C948.164 305.501 947.651 305.077 946.846 305.077C946.194 305.077 945.798 305.289 945.322 305.904C945.088 306.168 944.817 306.3 944.473 306.3C943.953 306.3 943.579 305.963 943.579 305.479C943.579 305.311 943.616 305.157 943.689 304.996C944.055 304.059 945.315 303.48 946.941 303.48C948.955 303.48 950.266 304.52 950.266 306.102V310.577C950.266 311.288 949.834 311.654 949.226 311.654C948.647 311.654 948.245 311.332 948.201 310.702V310.299H948.157C947.717 311.134 946.736 311.625 945.754 311.625ZM946.458 310.079C947.395 310.079 948.164 309.471 948.164 308.622V308.05L946.509 308.153C945.71 308.211 945.256 308.57 945.256 309.127C945.256 309.713 945.74 310.079 946.458 310.079Z" fill="#62FFE5"/>
</svg>
