<svg width="301" height="50" viewBox="0 0 301 50" fill="none" xmlns="http://www.w3.org/2000/svg">
<rect width="50" height="50" rx="15" fill="white" fill-opacity="0.2"/>
<path d="M36.25 32.5H34C35.65 32.5 37 31.15 37 29.5C37 27.85 35.65 26.5 34 26.5V20.5C34 19 34 17.5 32.38 16.21C32.455 15.895 32.5 15.58 32.5 15.25C32.5 12.355 29.5 10 25.75 10C22.36 10 19.57 11.965 19.105 14.5H16L12.565 11.185L11.5 12.25L14.5 15.25L11.5 18.25L12.565 19.315L16 16H19.105C19.57 18.535 22.36 20.5 25.75 20.5C26.5 20.5 27.25 20.38 27.895 20.2C27.955 20.305 28 20.41 28 20.5V26.5H19C17.35 26.5 16 27.85 16 29.5C16 31.15 17.35 32.5 19 32.5H16.75C15.7554 32.5 14.8016 32.8951 14.0983 33.5983C13.3951 34.3016 13 35.2554 13 36.25C13 36.505 13 36.76 13.075 37H13C11.35 37 10 38.35 10 40H36.25C37.2446 40 38.1984 39.6049 38.9017 38.9017C39.6049 38.1984 40 37.2446 40 36.25C40 35.2554 39.6049 34.3016 38.9017 33.5983C38.1984 32.8951 37.2446 32.5 36.25 32.5ZM25 14.5C24.175 14.5 23.5 13.825 23.5 13C23.5 12.175 24.175 11.5 25 11.5C25.825 11.5 26.5 12.175 26.5 13C26.5 13.825 25.825 14.5 25 14.5Z" fill="white"/>
<path d="M69.1484 33.7812C64.3672 33.7812 61.3789 30.4297 61.3789 25.0391C61.3789 19.6836 64.4023 16.3086 69.125 16.3086C72.2305 16.3086 74.7148 17.8203 75.7695 20.3164C75.9336 20.6562 76.0156 21.0078 76.0156 21.3242C76.0156 22.0273 75.5469 22.4844 74.8438 22.4844C74.2227 22.4844 73.8125 22.1797 73.5195 21.5C72.7344 19.6133 71.0703 18.6055 69.125 18.6055C66.0547 18.6055 64.0625 21.125 64.0625 25.0391C64.0625 28.9883 66.0312 31.4844 69.1367 31.4844C71.1992 31.4844 72.7812 30.6055 73.5664 28.7773C73.8477 28.1562 74.1875 27.8984 74.7617 27.8984C75.4766 27.8984 75.9688 28.3906 75.9688 29.082C75.9688 29.4453 75.875 29.7852 75.6875 30.1719C74.5977 32.457 72.2891 33.7812 69.1484 33.7812ZM83.668 33.7344C80.1406 33.7344 77.8203 31.3086 77.8203 27.3359C77.8203 23.375 80.1523 20.9492 83.668 20.9492C87.1836 20.9492 89.5156 23.375 89.5156 27.3359C89.5156 31.3086 87.1953 33.7344 83.668 33.7344ZM83.668 31.6484C85.6602 31.6484 86.9375 30.0781 86.9375 27.3359C86.9375 24.6055 85.6484 23.0352 83.668 23.0352C81.6875 23.0352 80.3984 24.6055 80.3984 27.3359C80.3984 30.0781 81.6875 31.6484 83.668 31.6484ZM92.7383 33.7227C91.9883 33.7227 91.4727 33.2188 91.4727 32.3867V22.2266C91.4727 21.4531 91.9414 20.9492 92.6797 20.9492C93.4062 20.9492 93.9102 21.4531 93.9102 22.2383V23.2109H93.9688C94.6367 21.8047 95.9258 20.9609 97.8242 20.9609C100.543 20.9609 102.102 22.6953 102.102 25.5195V32.3867C102.102 33.2188 101.574 33.7227 100.824 33.7227C100.086 33.7227 99.5586 33.2188 99.5586 32.3867V26.0117C99.5586 24.1602 98.6914 23.1406 96.9336 23.1406C95.1523 23.1406 94.0039 24.4062 94.0039 26.3164V32.3867C94.0039 33.2188 93.4766 33.7227 92.7383 33.7227ZM105.289 30.5469V23.1758H104.398C103.742 23.1758 103.344 22.8008 103.344 22.1797C103.344 21.5469 103.742 21.1719 104.398 21.1719H105.289V19.3438C105.289 18.5352 105.793 17.9961 106.566 17.9961C107.328 17.9961 107.832 18.5352 107.832 19.3438V21.1719H109.273C109.93 21.1719 110.328 21.5586 110.328 22.1797C110.328 22.8008 109.93 23.1758 109.273 23.1758H107.832V29.9844C107.832 30.9688 108.172 31.4141 109.086 31.4844L109.285 31.4961C110.012 31.5664 110.375 31.8594 110.375 32.457C110.375 33.2188 109.789 33.6055 108.547 33.6055H108.418C106.344 33.6055 105.289 32.5859 105.289 30.5469ZM113.527 33.7227C112.766 33.7227 112.262 33.207 112.262 32.3867V22.2266C112.262 21.4531 112.754 20.9492 113.469 20.9492C114.172 20.9492 114.664 21.4531 114.664 22.2266V23.2812H114.723C115.062 21.8984 116.199 20.9727 117.43 20.9727C117.875 20.9727 118.215 21.0781 118.426 21.2773C118.66 21.4648 118.766 21.7695 118.766 22.168C118.766 22.5664 118.637 22.8594 118.391 23.0586C118.133 23.2812 117.758 23.3867 117.23 23.3867C115.496 23.3984 114.793 24.5586 114.793 26.0938V32.3867C114.793 33.207 114.277 33.7227 113.527 33.7227ZM121.484 19.3086C120.676 19.3086 120.02 18.6523 120.02 17.8555C120.02 17.0469 120.676 16.4141 121.484 16.4141C122.305 16.4141 122.961 17.0469 122.961 17.8555C122.961 18.6523 122.305 19.3086 121.484 19.3086ZM121.484 33.7227C120.723 33.7227 120.219 33.1953 120.219 32.3867V22.2969C120.219 21.4766 120.723 20.9492 121.484 20.9492C122.246 20.9492 122.75 21.4766 122.75 22.2969V32.3867C122.75 33.1953 122.246 33.7227 121.484 33.7227ZM126.641 33.7227C125.914 33.7227 125.434 33.2539 125.434 32.457V17.7031C125.434 16.8711 125.961 16.3672 126.699 16.3672C127.438 16.3672 127.965 16.8711 127.965 17.7031V23.2695H128.023C128.762 21.8398 130.18 20.9727 131.926 20.9727C135.031 20.9727 137.059 23.4336 137.059 27.3359C137.059 31.25 135.043 33.7109 131.902 33.7109C130.109 33.7109 128.703 32.832 127.941 31.4023H127.895V32.457C127.895 33.2539 127.379 33.7227 126.641 33.7227ZM131.223 31.5664C133.227 31.5664 134.457 29.9492 134.457 27.3359C134.457 24.7461 133.215 23.1055 131.223 23.1055C129.312 23.1055 127.953 24.793 127.953 27.3359C127.953 29.9023 129.312 31.5664 131.223 31.5664ZM143.293 33.7227C140.609 33.7227 138.969 31.9766 138.969 29.1523V22.2969C138.969 21.4531 139.484 20.9492 140.234 20.9492C140.973 20.9492 141.5 21.4531 141.5 22.2969V28.6602C141.5 30.5352 142.391 31.543 144.137 31.543C145.965 31.543 147.066 30.2773 147.066 28.3555V22.2969C147.066 21.4531 147.594 20.9492 148.332 20.9492C149.082 20.9492 149.598 21.4531 149.598 22.2969V32.4336C149.598 33.2188 149.117 33.7227 148.391 33.7227C147.664 33.7227 147.172 33.2188 147.172 32.4453V31.4141H147.113C146.434 32.8906 145.18 33.7227 143.293 33.7227ZM153.453 19.3086C152.645 19.3086 151.988 18.6523 151.988 17.8555C151.988 17.0469 152.645 16.4141 153.453 16.4141C154.273 16.4141 154.93 17.0469 154.93 17.8555C154.93 18.6523 154.273 19.3086 153.453 19.3086ZM153.453 33.7227C152.691 33.7227 152.188 33.1953 152.188 32.3867V22.2969C152.188 21.4766 152.691 20.9492 153.453 20.9492C154.215 20.9492 154.719 21.4766 154.719 22.2969V32.3867C154.719 33.1953 154.215 33.7227 153.453 33.7227ZM162.488 38.9492C162.066 38.9492 161.727 38.9258 161.457 38.8555C160.93 38.75 160.684 38.5156 160.684 38.1523C160.684 37.8008 160.941 37.5898 161.352 37.5898C161.598 37.5898 161.844 37.6484 162.195 37.6484C163.086 37.6484 163.566 37.3789 163.566 36.8633C163.566 36.3945 163.121 36.1602 162.219 36.1602H161.926C161.457 36.1602 161.141 35.9023 161.141 35.5156C161.141 35.3398 161.188 35.1641 161.293 34.9297L161.809 33.6875C158.727 33.3594 156.758 30.9922 156.758 27.3594C156.758 23.457 159.043 20.9492 162.559 20.9492C164.938 20.9492 166.977 22.2148 167.516 23.9375C167.586 24.1367 167.633 24.3477 167.633 24.5234C167.633 25.168 167.176 25.5664 166.555 25.5664C166.016 25.5664 165.711 25.3555 165.406 24.793C164.773 23.6211 163.906 23.0586 162.605 23.0586C160.625 23.0586 159.336 24.7109 159.336 27.3359C159.336 30.0195 160.648 31.6133 162.605 31.6133C163.977 31.6133 164.809 31.0039 165.406 29.9375C165.758 29.3281 166.027 29.1172 166.578 29.1172C167.199 29.1172 167.656 29.5391 167.656 30.1719C167.656 30.3711 167.609 30.582 167.516 30.8281C166.953 32.3047 165.348 33.418 163.426 33.6758L162.875 34.9414C164.316 34.9531 165.266 35.6328 165.266 36.8281C165.266 38.1992 164.082 38.9492 162.488 38.9492ZM171.969 19.5312C171.5 19.5312 171.207 19.2266 171.207 18.7227C171.207 17.1641 172.215 16.1797 173.551 16.1797C175.191 16.1797 175.73 17.8906 176.609 17.8906C177.02 17.8906 177.266 17.5742 177.383 16.8242C177.477 16.2734 177.699 16.0156 178.156 16.0156C178.613 16.0156 178.918 16.332 178.918 16.8242C178.918 18.3359 177.898 19.3789 176.633 19.3789C175.051 19.3789 174.465 17.668 173.574 17.668C173.094 17.668 172.848 17.9727 172.742 18.7812C172.672 19.2734 172.426 19.5312 171.969 19.5312ZM175.004 33.7344C171.477 33.7344 169.156 31.3086 169.156 27.3359C169.156 23.375 171.488 20.9492 175.004 20.9492C178.52 20.9492 180.852 23.375 180.852 27.3359C180.852 31.3086 178.531 33.7344 175.004 33.7344ZM175.004 31.6484C176.996 31.6484 178.273 30.0781 178.273 27.3359C178.273 24.6055 176.984 23.0352 175.004 23.0352C173.023 23.0352 171.734 24.6055 171.734 27.3359C171.734 30.0781 173.023 31.6484 175.004 31.6484ZM188.152 33.7344C184.438 33.7344 182.258 31.3789 182.258 27.3945C182.258 23.4805 184.484 20.9492 187.977 20.9492C191.258 20.9492 193.52 23.3164 193.52 26.6797C193.52 27.5 193.051 27.9688 192.266 27.9688H184.812V28.0273C184.812 30.2773 186.078 31.6836 188.094 31.6836C189.477 31.6836 190.344 31.2031 191.281 29.9258C191.551 29.6094 191.809 29.4805 192.172 29.4805C192.781 29.4805 193.227 29.8789 193.227 30.5117C193.227 30.7109 193.156 30.9453 193.051 31.1914C192.242 32.8086 190.449 33.7344 188.152 33.7344ZM184.824 26.1992H190.988C190.93 24.2656 189.723 22.9883 187.965 22.9883C186.219 22.9883 184.953 24.2773 184.824 26.1992ZM200.035 33.7344C197.609 33.7344 195.828 32.7383 195.242 31.2266C195.16 31.0391 195.137 30.8633 195.137 30.6992C195.137 30.0664 195.594 29.6914 196.227 29.6914C196.648 29.6914 197.012 29.8906 197.328 30.3594C197.961 31.3555 198.699 31.8008 200.164 31.8008C201.605 31.8008 202.578 31.1797 202.578 30.1602C202.578 29.3516 202.098 28.918 200.773 28.6016L198.828 28.1445C196.438 27.582 195.266 26.4102 195.266 24.6523C195.266 22.4258 197.199 20.9492 200.129 20.9492C202.355 20.9492 204.184 22.0859 204.535 23.5391C204.559 23.6797 204.582 23.7969 204.582 23.9141C204.582 24.4766 204.23 24.8516 203.598 24.8516C203.188 24.8516 202.824 24.7109 202.578 24.3125C202.027 23.375 201.277 22.8828 200.035 22.8828C198.676 22.8828 197.738 23.5508 197.738 24.5117C197.738 25.2852 198.336 25.8242 199.637 26.1289L201.547 26.5742C204.137 27.1719 205.133 28.0977 205.133 29.9258C205.133 32.2109 203.082 33.7344 200.035 33.7344ZM213.23 33.7227C212.469 33.7227 211.965 33.207 211.965 32.3867V22.2266C211.965 21.4531 212.457 20.9492 213.172 20.9492C213.875 20.9492 214.367 21.4531 214.367 22.2266V23.2812H214.426C214.766 21.8984 215.902 20.9727 217.133 20.9727C217.578 20.9727 217.918 21.0781 218.129 21.2773C218.363 21.4648 218.469 21.7695 218.469 22.168C218.469 22.5664 218.34 22.8594 218.094 23.0586C217.836 23.2812 217.461 23.3867 216.934 23.3867C215.199 23.3984 214.496 24.5586 214.496 26.0938V32.3867C214.496 33.207 213.98 33.7227 213.23 33.7227ZM224.645 33.7344C220.93 33.7344 218.75 31.3789 218.75 27.3945C218.75 23.4805 220.977 20.9492 224.469 20.9492C227.75 20.9492 230.012 23.3164 230.012 26.6797C230.012 27.5 229.543 27.9688 228.758 27.9688H221.305V28.0273C221.305 30.2773 222.57 31.6836 224.586 31.6836C225.969 31.6836 226.836 31.2031 227.773 29.9258C228.043 29.6094 228.301 29.4805 228.664 29.4805C229.273 29.4805 229.719 29.8789 229.719 30.5117C229.719 30.7109 229.648 30.9453 229.543 31.1914C228.734 32.8086 226.941 33.7344 224.645 33.7344ZM221.316 26.1992H227.48C227.422 24.2656 226.215 22.9883 224.457 22.9883C222.711 22.9883 221.445 24.2773 221.316 26.1992ZM237.254 33.7344C233.727 33.7344 231.43 31.2852 231.43 27.3594C231.43 23.457 233.715 20.9492 237.23 20.9492C239.609 20.9492 241.648 22.2148 242.188 23.9375C242.258 24.1367 242.305 24.3477 242.305 24.5234C242.305 25.168 241.848 25.5664 241.227 25.5664C240.688 25.5664 240.383 25.3555 240.078 24.793C239.445 23.6211 238.578 23.0586 237.277 23.0586C235.297 23.0586 234.008 24.7109 234.008 27.3359C234.008 30.0195 235.32 31.6133 237.277 31.6133C238.648 31.6133 239.48 31.0039 240.078 29.9375C240.43 29.3281 240.699 29.1172 241.25 29.1172C241.871 29.1172 242.328 29.5391 242.328 30.1719C242.328 30.3711 242.281 30.582 242.188 30.8281C241.543 32.5273 239.539 33.7344 237.254 33.7344ZM249.723 33.7344C246.008 33.7344 243.828 31.3789 243.828 27.3945C243.828 23.4805 246.055 20.9492 249.547 20.9492C252.828 20.9492 255.09 23.3164 255.09 26.6797C255.09 27.5 254.621 27.9688 253.836 27.9688H246.383V28.0273C246.383 30.2773 247.648 31.6836 249.664 31.6836C251.047 31.6836 251.914 31.2031 252.852 29.9258C253.121 29.6094 253.379 29.4805 253.742 29.4805C254.352 29.4805 254.797 29.8789 254.797 30.5117C254.797 30.7109 254.727 30.9453 254.621 31.1914C253.812 32.8086 252.02 33.7344 249.723 33.7344ZM246.395 26.1992H252.559C252.5 24.2656 251.293 22.9883 249.535 22.9883C247.789 22.9883 246.523 24.2773 246.395 26.1992ZM258.324 33.7227C257.574 33.7227 257.059 33.2188 257.059 32.3867V22.2266C257.059 21.4531 257.527 20.9492 258.266 20.9492C258.992 20.9492 259.496 21.4531 259.496 22.2383V23.2109H259.555C260.223 21.8047 261.512 20.9609 263.41 20.9609C266.129 20.9609 267.688 22.6953 267.688 25.5195V32.3867C267.688 33.2188 267.16 33.7227 266.41 33.7227C265.672 33.7227 265.145 33.2188 265.145 32.3867V26.0117C265.145 24.1602 264.277 23.1406 262.52 23.1406C260.738 23.1406 259.59 24.4062 259.59 26.3164V32.3867C259.59 33.2188 259.062 33.7227 258.324 33.7227ZM270.875 30.5469V23.1758H269.984C269.328 23.1758 268.93 22.8008 268.93 22.1797C268.93 21.5469 269.328 21.1719 269.984 21.1719H270.875V19.3438C270.875 18.5352 271.379 17.9961 272.152 17.9961C272.914 17.9961 273.418 18.5352 273.418 19.3438V21.1719H274.859C275.516 21.1719 275.914 21.5586 275.914 22.1797C275.914 22.8008 275.516 23.1758 274.859 23.1758H273.418V29.9844C273.418 30.9688 273.758 31.4141 274.672 31.4844L274.871 31.4961C275.598 31.5664 275.961 31.8594 275.961 32.457C275.961 33.2188 275.375 33.6055 274.133 33.6055H274.004C271.93 33.6055 270.875 32.5859 270.875 30.5469ZM282.887 33.7344C279.172 33.7344 276.992 31.3789 276.992 27.3945C276.992 23.4805 279.219 20.9492 282.711 20.9492C285.992 20.9492 288.254 23.3164 288.254 26.6797C288.254 27.5 287.785 27.9688 287 27.9688H279.547V28.0273C279.547 30.2773 280.812 31.6836 282.828 31.6836C284.211 31.6836 285.078 31.2031 286.016 29.9258C286.285 29.6094 286.543 29.4805 286.906 29.4805C287.516 29.4805 287.961 29.8789 287.961 30.5117C287.961 30.7109 287.891 30.9453 287.785 31.1914C286.977 32.8086 285.184 33.7344 282.887 33.7344ZM279.559 26.1992H285.723C285.664 24.2656 284.457 22.9883 282.699 22.9883C280.953 22.9883 279.688 24.2773 279.559 26.1992ZM294.77 33.7344C292.344 33.7344 290.562 32.7383 289.977 31.2266C289.895 31.0391 289.871 30.8633 289.871 30.6992C289.871 30.0664 290.328 29.6914 290.961 29.6914C291.383 29.6914 291.746 29.8906 292.062 30.3594C292.695 31.3555 293.434 31.8008 294.898 31.8008C296.34 31.8008 297.312 31.1797 297.312 30.1602C297.312 29.3516 296.832 28.918 295.508 28.6016L293.562 28.1445C291.172 27.582 290 26.4102 290 24.6523C290 22.4258 291.934 20.9492 294.863 20.9492C297.09 20.9492 298.918 22.0859 299.27 23.5391C299.293 23.6797 299.316 23.7969 299.316 23.9141C299.316 24.4766 298.965 24.8516 298.332 24.8516C297.922 24.8516 297.559 24.7109 297.312 24.3125C296.762 23.375 296.012 22.8828 294.77 22.8828C293.41 22.8828 292.473 23.5508 292.473 24.5117C292.473 25.2852 293.07 25.8242 294.371 26.1289L296.281 26.5742C298.871 27.1719 299.867 28.0977 299.867 29.9258C299.867 32.2109 297.816 33.7344 294.77 33.7344Z" fill="white"/>
</svg>
