<svg width="128" height="128" viewBox="0 0 128 128" fill="none" xmlns="http://www.w3.org/2000/svg">
<rect width="128" height="128" rx="64" fill="#262626"/>
<rect x="20" y="20" width="88" height="88" rx="44" fill="#663399"/>
<path d="M59.5 73C58.65 73 57.938 72.712 57.364 72.136C56.79 71.56 56.502 70.848 56.5 70V67H61V68.5H67V65.5H59.5C58.65 65.5 57.938 65.212 57.364 64.636C56.79 64.06 56.502 63.348 56.5 62.5V58C56.5 57.15 56.788 56.438 57.364 55.864C57.94 55.29 58.652 55.002 59.5 55H68.5C69.35 55 70.063 55.288 70.639 55.864C71.215 56.44 71.502 57.152 71.5 58V61H67V59.5H61V62.5H68.5C69.35 62.5 70.063 62.788 70.639 63.364C71.215 63.94 71.502 64.652 71.5 65.5V70C71.5 70.85 71.212 71.563 70.636 72.139C70.06 72.715 69.348 73.002 68.5 73H59.5ZM79 73C78.15 73 77.438 72.712 76.864 72.136C76.29 71.56 76.002 70.848 76 70V67H80.5V68.5H86.5V65.5H79C78.15 65.5 77.438 65.212 76.864 64.636C76.29 64.06 76.002 63.348 76 62.5V58C76 57.15 76.288 56.438 76.864 55.864C77.44 55.29 78.152 55.002 79 55H88C88.85 55 89.563 55.288 90.139 55.864C90.715 56.44 91.002 57.152 91 58V61H86.5V59.5H80.5V62.5H88C88.85 62.5 89.563 62.788 90.139 63.364C90.715 63.94 91.002 64.652 91 65.5V70C91 70.85 90.712 71.563 90.136 72.139C89.56 72.715 88.848 73.002 88 73H79ZM40 73C39.15 73 38.438 72.712 37.864 72.136C37.29 71.56 37.002 70.848 37 70V58C37 57.15 37.288 56.438 37.864 55.864C38.44 55.29 39.152 55.002 40 55H49C49.85 55 50.563 55.288 51.139 55.864C51.715 56.44 52.002 57.152 52 58V61H47.5V59.5H41.5V68.5H47.5V67H52V70C52 70.85 51.712 71.563 51.136 72.139C50.56 72.715 49.848 73.002 49 73H40Z" fill="#262626"/>
</svg>
