<svg width="128" height="128" viewBox="0 0 128 128" fill="none" xmlns="http://www.w3.org/2000/svg">
<rect width="128" height="128" rx="64" fill="#262626"/>
<rect x="20" y="20" width="88" height="88" rx="44" fill="#FF7262"/>
<path opacity="0.6" d="M63.3063 43.1667H56.3604C54.5186 43.1667 52.7521 43.8983 51.4497 45.2007C50.1473 46.5031 49.4156 48.2696 49.4156 50.1115C49.4156 51.9533 50.1473 53.7198 51.4497 55.0222C52.7521 56.3246 54.5186 57.0562 56.3604 57.0562H63.3063V43.1667Z" fill="black"/>
<path opacity="0.4" d="M63.3063 57.0562H56.3605C54.5189 57.0562 52.7527 57.7878 51.4505 59.09C50.1483 60.3922 49.4167 62.1584 49.4167 64C49.4167 65.8416 50.1483 67.6078 51.4505 68.91C52.7527 70.2122 54.5189 70.9437 56.3605 70.9437H63.3063V57.0562Z" fill="black"/>
<path d="M77.1938 64C77.1938 65.8419 76.4621 67.6083 75.1597 68.9107C73.8573 70.2131 72.0909 70.9448 70.249 70.9448C68.4071 70.9448 66.6407 70.2131 65.3383 68.9107C64.0359 67.6083 63.3042 65.8419 63.3042 64C63.3042 62.1581 64.0359 60.3917 65.3383 59.0893C66.6407 57.7869 68.4071 57.0552 70.249 57.0552C72.0909 57.0552 73.8573 57.7869 75.1597 59.0893C76.4621 60.3917 77.1938 62.1581 77.1938 64Z" fill="black"/>
<path opacity="0.2" d="M56.3604 70.9458H63.3062V77.8896C63.3058 79.2628 62.8983 80.605 62.1351 81.7465C61.372 82.8881 60.2875 83.7778 59.0188 84.3031C57.75 84.8284 56.354 84.9657 55.0073 84.6977C53.6605 84.4297 52.4235 83.7685 51.4525 82.7975C50.4815 81.8265 49.8202 80.5894 49.5522 79.2427C49.2842 77.8959 49.4216 76.4999 49.9469 75.2312C50.4722 73.9625 51.3618 72.878 52.5034 72.1149C53.645 71.3517 54.9872 70.9463 56.3604 70.9458Z" fill="black"/>
<path opacity="0.8" d="M63.3042 43.1667H70.2479C72.0898 43.1667 73.8563 43.8983 75.1587 45.2007C76.4611 46.5031 77.1927 48.2696 77.1927 50.1115C77.1927 51.9533 76.4611 53.7198 75.1587 55.0222C73.8563 56.3246 72.0898 57.0562 70.2479 57.0562H63.3042V43.1667Z" fill="black"/>
</svg>
