<svg width="128" height="128" viewBox="0 0 128 128" fill="none" xmlns="http://www.w3.org/2000/svg">
<rect width="128" height="128" rx="64" fill="#262626"/>
<path d="M51.3333 102C58.3442 102 64 96.3442 64 89.3333V76.6667H51.3333C44.3225 76.6667 38.6667 82.3225 38.6667 89.3333C38.6667 96.3442 44.3225 102 51.3333 102Z" fill="#0ACF83"/>
<path d="M38.6667 64C38.6667 56.9891 44.3225 51.3333 51.3333 51.3333H64V76.6667H51.3333C44.3225 76.6667 38.6667 71.0109 38.6667 64Z" fill="#A259FF"/>
<path d="M38.6667 38.6667C38.6667 31.6558 44.3225 26 51.3333 26H64V51.3333H51.3333C44.3225 51.3333 38.6667 45.6775 38.6667 38.6667Z" fill="#F24E1E"/>
<path d="M64 26H76.6667C83.6775 26 89.3333 31.6558 89.3333 38.6667C89.3333 45.6775 83.6775 51.3333 76.6667 51.3333H64V26Z" fill="#FF7262"/>
<path d="M89.3333 64C89.3333 71.0109 83.6775 76.6667 76.6667 76.6667C69.6558 76.6667 64 71.0109 64 64C64 56.9891 69.6558 51.3333 76.6667 51.3333C83.6775 51.3333 89.3333 56.9891 89.3333 64Z" fill="#1ABCFE"/>
</svg>
