<svg width="128" height="128" viewBox="0 0 128 128" fill="none" xmlns="http://www.w3.org/2000/svg">
<rect width="128" height="128" rx="64" fill="#262626"/>
<rect x="20" y="20" width="88" height="88" rx="44" fill="#FF7262"/>
<path d="M56.6667 86C60.7256 86 64 82.7256 64 78.6667V71.3333H56.6667C52.6078 71.3333 49.3334 74.6078 49.3334 78.6667C49.3334 82.7256 52.6078 86 56.6667 86Z" fill="#262626"/>
<path d="M49.3334 64C49.3334 59.9411 52.6078 56.6667 56.6667 56.6667H64V71.3333H56.6667C52.6078 71.3333 49.3334 68.0589 49.3334 64Z" fill="#262626"/>
<path d="M49.3334 49.3333C49.3334 45.2744 52.6078 42 56.6667 42H64V56.6667H56.6667C52.6078 56.6667 49.3334 53.3922 49.3334 49.3333Z" fill="#262626"/>
<path d="M64 42H71.3334C75.3923 42 78.6667 45.2744 78.6667 49.3333C78.6667 53.3922 75.3923 56.6667 71.3334 56.6667H64V42Z" fill="#262626"/>
<path d="M78.6667 64C78.6667 68.0589 75.3923 71.3333 71.3334 71.3333C67.2745 71.3333 64 68.0589 64 64C64 59.9411 67.2745 56.6667 71.3334 56.6667C75.3923 56.6667 78.6667 59.9411 78.6667 64Z" fill="#262626"/>
</svg>
