<svg width="650" height="110" viewBox="0 0 650 110" fill="none" xmlns="http://www.w3.org/2000/svg">
<g clip-path="url(#clip0_18_2)">
<path d="M77.5 34.5625C67.4688 34.5625 61.1875 27.8594 61.1875 17.1016C61.1875 6.32031 67.4688 -0.40625 77.5 -0.40625C87.5078 -0.40625 93.8125 6.32031 93.8125 17.1016C93.8125 27.8594 87.5078 34.5625 77.5 34.5625ZM77.5 28.6562C83.0312 28.6562 86.5703 24.1797 86.5703 17.1016C86.5703 10 83.0312 5.5 77.5 5.5C71.9688 5.5 68.4062 10 68.4062 17.1016C68.4062 24.1797 71.9453 28.6562 77.5 28.6562ZM101.336 5.75781C99.2734 5.75781 97.6797 4.1875 97.6797 2.21875C97.6797 0.226562 99.2734 -1.32031 101.336 -1.32031C103.398 -1.32031 104.992 0.226562 104.992 2.21875C104.992 4.1875 103.398 5.75781 101.336 5.75781ZM101.336 34.4922C99.2031 34.4922 97.9141 33.1562 97.9141 30.9297V11.9453C97.9141 9.71875 99.2031 8.35938 101.336 8.35938C103.445 8.35938 104.758 9.71875 104.758 11.9453V30.9297C104.758 33.1562 103.445 34.4922 101.336 34.4922ZM113.875 27.7422C115.656 27.7422 116.805 28.7734 116.805 30.4609C116.805 30.9062 116.758 31.3516 116.641 31.8438L114.742 39.7422C114.391 41.3125 113.57 42.0391 111.953 42.0391C110.312 42.0391 109.398 40.9609 109.469 39.5078C109.469 39.3203 109.492 39.2031 109.516 39.1328L110.711 30.5781C110.945 28.6094 112.094 27.7422 113.875 27.7422ZM140.945 34.5391C133.094 34.5391 128.477 29.6875 128.477 21.5547C128.477 13.4688 133.188 8.33594 140.617 8.33594C147.742 8.33594 152.523 13.2109 152.523 20.0312C152.523 21.9297 151.445 23.0078 149.547 23.0078H135.203V23.3125C135.203 27.0391 137.453 29.4766 140.922 29.4766C143.43 29.4766 145.07 28.6328 146.922 26.4531C147.648 25.7031 148.258 25.4453 149.148 25.4453C150.625 25.4453 151.82 26.3828 151.82 27.9531C151.82 28.4922 151.656 29.0547 151.352 29.6172C149.688 32.7109 145.797 34.5391 140.945 34.5391ZM135.273 18.8125H145.938C145.797 15.5312 143.688 13.3984 140.688 13.3984C137.688 13.3984 135.508 15.6016 135.273 18.8125ZM164.992 34.4688C159.555 34.4688 155.945 30.9297 155.945 25.0703V11.9453C155.945 9.60156 157.375 8.35938 159.367 8.35938C161.383 8.35938 162.789 9.60156 162.789 11.9453V23.6406C162.789 26.9922 164.453 28.7734 167.477 28.7734C170.523 28.7734 172.422 26.5938 172.422 23.2656V11.9453C172.422 9.60156 173.852 8.35938 175.844 8.35938C177.859 8.35938 179.266 9.60156 179.266 11.9453V31.0234C179.266 33.2969 177.93 34.4922 175.961 34.4922C173.992 34.4922 172.656 33.2969 172.656 31.0234V29.4766H172.516C171.273 32.6406 168.789 34.4688 164.992 34.4688ZM203.477 34.5391C197.711 34.5391 193.867 32.4766 192.672 29.5234C192.508 29.0781 192.414 28.6328 192.414 28.2578C192.414 26.6875 193.586 25.6328 195.18 25.6328C196.281 25.6328 197.219 26.125 198.156 27.1797C199.492 28.9375 201.039 29.7344 203.641 29.7344C206.125 29.7344 207.742 28.7031 207.742 27.0391C207.742 25.6797 206.875 24.9531 204.414 24.4141L200.195 23.5234C195.273 22.4688 192.789 19.9609 192.789 16.2344C192.789 11.4297 196.938 8.33594 203.453 8.33594C208.656 8.33594 212.477 10.7031 213.297 13.5391C213.391 13.8906 213.461 14.2188 213.461 14.5469C213.461 15.9297 212.594 16.8906 210.836 16.8906C209.945 16.8906 208.961 16.5625 208.352 15.8359C207.156 14.3125 205.797 13.1406 203.336 13.1406C201.016 13.1406 199.398 14.2422 199.398 15.8594C199.398 17.1719 200.383 18.0391 202.891 18.5781L207.039 19.4688C212.383 20.5938 214.586 22.5625 214.586 26.3125C214.586 31.3047 210.109 34.5391 203.477 34.5391ZM229.516 34.5391C221.922 34.5391 217.07 29.6641 217.07 21.4141C217.07 13.2812 221.992 8.33594 229.516 8.33594C237.039 8.33594 241.961 13.2578 241.961 21.4141C241.961 29.6875 237.109 34.5391 229.516 34.5391ZM229.516 29.3125C232.867 29.3125 235 26.4766 235 21.4375C235 16.4453 232.844 13.5625 229.516 13.5625C226.188 13.5625 224.008 16.4453 224.008 21.4375C224.008 26.4766 226.141 29.3125 229.516 29.3125ZM254.43 34.4688C248.992 34.4688 245.383 30.9297 245.383 25.0703V11.9453C245.383 9.60156 246.812 8.35938 248.805 8.35938C250.82 8.35938 252.227 9.60156 252.227 11.9453V23.6406C252.227 26.9922 253.891 28.7734 256.914 28.7734C259.961 28.7734 261.859 26.5938 261.859 23.2656V11.9453C261.859 9.60156 263.289 8.35938 265.281 8.35938C267.297 8.35938 268.703 9.60156 268.703 11.9453V31.0234C268.703 33.2969 267.367 34.4922 265.398 34.4922C263.43 34.4922 262.094 33.2969 262.094 31.0234V29.4766H261.953C260.711 32.6406 258.227 34.4688 254.43 34.4688ZM294.203 34.5391C286.609 34.5391 281.758 29.6641 281.758 21.4141C281.758 13.2812 286.68 8.33594 294.203 8.33594C301.727 8.33594 306.648 13.2578 306.648 21.4141C306.648 29.6875 301.797 34.5391 294.203 34.5391ZM294.203 29.3125C297.555 29.3125 299.688 26.4766 299.688 21.4375C299.688 16.4453 297.531 13.5625 294.203 13.5625C290.875 13.5625 288.695 16.4453 288.695 21.4375C288.695 26.4766 290.828 29.3125 294.203 29.3125ZM323.828 34.4453C321.602 34.4453 320.289 33.0859 320.289 30.7656V3.41406C320.289 1.07031 321.602 -0.289062 323.828 -0.289062C326.055 -0.289062 327.367 1.07031 327.367 3.41406V30.7656C327.367 33.0859 326.055 34.4453 323.828 34.4453ZM343.633 43.4453C338.5 43.4219 334.68 41.4766 333.062 38.8281C332.688 38.1953 332.547 37.5625 332.547 36.9297C332.547 35.5 333.625 34.4219 335.336 34.4219C336.227 34.4219 336.93 34.7031 337.703 35.4062C339.555 37.1641 341.336 38.125 343.609 38.1484C347.359 38.1719 349.562 36.1094 349.562 32.9688V28.9609H349.422C348.25 31.6562 345.32 33.4609 341.688 33.4609C335.43 33.4609 331.492 28.6797 331.492 21.0156C331.492 13.1406 335.336 8.47656 341.805 8.47656C345.414 8.47656 348.156 10.375 349.469 13.2109H349.609V11.8281C349.609 9.50781 351.086 8.35938 353.055 8.35938C355.023 8.35938 356.453 9.50781 356.453 11.8281V33.0156C356.453 39.5547 351.719 43.4922 343.633 43.4453ZM344.008 28.375C347.43 28.375 349.633 25.6562 349.633 21.1094C349.633 16.5859 347.43 13.6797 344.008 13.6797C340.633 13.6797 338.5 16.5391 338.5 21.0859C338.5 25.6797 340.609 28.375 344.008 28.375ZM372.438 34.5391C364.844 34.5391 359.992 29.6641 359.992 21.4141C359.992 13.2812 364.914 8.33594 372.438 8.33594C379.961 8.33594 384.883 13.2578 384.883 21.4141C384.883 29.6875 380.031 34.5391 372.438 34.5391ZM372.438 29.3125C375.789 29.3125 377.922 26.4766 377.922 21.4375C377.922 16.4453 375.766 13.5625 372.438 13.5625C369.109 13.5625 366.93 16.4453 366.93 21.4375C366.93 26.4766 369.062 29.3125 372.438 29.3125ZM391.844 34.4922C389.781 34.4922 388.422 33.2031 388.422 30.9297V11.8047C388.422 9.625 389.758 8.35938 391.727 8.35938C393.648 8.35938 394.961 9.625 394.961 11.8047V13.4453H395.102C395.758 10.3281 397.82 8.47656 400.328 8.47656C401.242 8.47656 401.969 8.6875 402.461 9.10938C403.117 9.625 403.445 10.4688 403.445 11.6406C403.445 12.7188 403.117 13.5391 402.461 14.1016C401.805 14.6641 400.82 14.9688 399.484 14.9922C396.367 15.0391 395.266 16.7969 395.266 19.7734V30.9297C395.266 33.2031 393.93 34.4922 391.844 34.4922ZM431.078 34.5625C421.047 34.5625 414.953 28 414.953 17.0781C414.953 6.17969 421.164 -0.40625 430.891 -0.40625C437.219 -0.40625 442.117 2.40625 444.438 7.28125C444.906 8.17188 445.141 9.08594 445.141 9.92969C445.141 11.7812 443.898 12.9766 442.023 12.9766C440.43 12.9766 439.422 12.2734 438.648 10.6328C437.102 7.1875 434.336 5.45312 430.961 5.45312C425.617 5.45312 422.172 9.92969 422.172 17.0547C422.172 24.2734 425.57 28.7266 430.984 28.7266C434.547 28.7266 437.219 27.1094 438.742 23.7109C439.469 22.1172 440.359 21.4844 441.859 21.4844C443.852 21.4844 445.164 22.75 445.164 24.625C445.164 25.4219 444.977 26.1719 444.625 26.9922C442.516 31.6797 437.477 34.5625 431.078 34.5625ZM453.391 34.2812C451.281 34.2812 449.617 32.5938 449.617 30.5078C449.617 28.3984 451.281 26.7344 453.391 26.7344C455.477 26.7344 457.164 28.3984 457.164 30.5078C457.164 32.5938 455.477 34.2812 453.391 34.2812ZM472.75 34.4453C470.758 34.4453 469.586 33.2266 469.586 31.1406V4.28125C469.586 1.42188 471.273 -0.289062 474.156 -0.289062C476.617 -0.289062 477.977 0.742188 479.008 3.36719L487.398 24.1562H487.586L495.953 3.36719C496.984 0.765625 498.367 -0.289062 500.852 -0.289062C503.711 -0.289062 505.398 1.39844 505.398 4.28125V31.1406C505.398 33.2266 504.227 34.4453 502.234 34.4453C500.242 34.4453 499.094 33.2266 499.094 31.1406V11.1719H498.906L490.539 31.6328C489.93 33.1328 488.992 33.7891 487.516 33.7891C486.016 33.7891 485.031 33.1094 484.445 31.6562L476.078 11.1719H475.891V31.1406C475.891 33.2266 474.742 34.4453 472.75 34.4453ZM519.367 34.4688C513.93 34.4688 510.32 30.9297 510.32 25.0703V11.9453C510.32 9.60156 511.75 8.35938 513.742 8.35938C515.758 8.35938 517.164 9.60156 517.164 11.9453V23.6406C517.164 26.9922 518.828 28.7734 521.852 28.7734C524.898 28.7734 526.797 26.5938 526.797 23.2656V11.9453C526.797 9.60156 528.227 8.35938 530.219 8.35938C532.234 8.35938 533.641 9.60156 533.641 11.9453V31.0234C533.641 33.2969 532.305 34.4922 530.336 34.4922C528.367 34.4922 527.031 33.2969 527.031 31.0234V29.4766H526.891C525.648 32.6406 523.164 34.4688 519.367 34.4688ZM541.516 34.4922C539.453 34.4922 538.094 33.2031 538.094 30.9297V11.8047C538.094 9.625 539.43 8.35938 541.398 8.35938C543.32 8.35938 544.633 9.625 544.633 11.8047V13.4453H544.773C545.43 10.3281 547.492 8.47656 550 8.47656C550.914 8.47656 551.641 8.6875 552.133 9.10938C552.789 9.625 553.117 10.4688 553.117 11.6406C553.117 12.7188 552.789 13.5391 552.133 14.1016C551.477 14.6641 550.492 14.9688 549.156 14.9922C546.039 15.0391 544.938 16.7969 544.938 19.7734V30.9297C544.938 33.2031 543.602 34.4922 541.516 34.4922ZM562.398 34.3984C557.617 34.3984 553.984 31.3047 553.984 26.7812C553.984 22.2109 557.5 19.5625 563.781 19.1875L570.109 18.8125V17.1484C570.109 14.8047 568.469 13.4453 565.891 13.4453C563.805 13.4453 562.539 14.125 561.016 16.0938C560.266 16.9375 559.398 17.3594 558.297 17.3594C556.633 17.3594 555.438 16.2812 555.438 14.7344C555.438 14.1953 555.555 13.7031 555.789 13.1875C556.961 10.1875 560.992 8.33594 566.195 8.33594C572.641 8.33594 576.836 11.6641 576.836 16.7266V31.0469C576.836 33.3203 575.453 34.4922 573.508 34.4922C571.656 34.4922 570.367 33.4609 570.227 31.4453V30.1562H570.086C568.68 32.8281 565.539 34.3984 562.398 34.3984ZM564.648 29.4531C567.648 29.4531 570.109 27.5078 570.109 24.7891V22.9609L564.812 23.2891C562.258 23.4766 560.805 24.625 560.805 26.4062C560.805 28.2812 562.352 29.4531 564.648 29.4531ZM584.805 5.75781C582.742 5.75781 581.148 4.1875 581.148 2.21875C581.148 0.226562 582.742 -1.32031 584.805 -1.32031C586.867 -1.32031 588.461 0.226562 588.461 2.21875C588.461 4.1875 586.867 5.75781 584.805 5.75781ZM584.805 34.4922C582.672 34.4922 581.383 33.1562 581.383 30.9297V11.9453C581.383 9.71875 582.672 8.35938 584.805 8.35938C586.914 8.35938 588.227 9.71875 588.227 11.9453V30.9297C588.227 33.1562 586.914 34.4922 584.805 34.4922Z" fill="white"/>
<path d="M83.0898 81C82.4453 81 82.0352 80.5781 82.0352 79.9102V65.1797C82.0352 64.5117 82.4453 64.0898 83.0898 64.0898H91.6797C92.2773 64.0898 92.6875 64.4766 92.6875 65.0391C92.6875 65.6016 92.2773 65.9883 91.6797 65.9883H84.1445V71.4141H91.2578C91.8438 71.4141 92.2539 71.7891 92.2539 72.3516C92.2539 72.9023 91.8438 73.2891 91.2578 73.2891H84.1445V79.1016H91.6797C92.2773 79.1016 92.6875 79.4883 92.6875 80.0508C92.6875 80.6133 92.2773 81 91.6797 81H83.0898ZM99.2148 81.2109C97.0469 81.2109 95.3477 80.2383 94.7617 78.7148C94.6914 78.5391 94.668 78.3867 94.668 78.2344C94.668 77.6953 95.0664 77.3906 95.5938 77.3906C95.957 77.3906 96.25 77.5781 96.4844 78C97.0938 79.0664 97.8203 79.5469 99.3789 79.5469C100.938 79.5469 101.992 78.8672 101.992 77.7305C101.992 76.8516 101.488 76.3828 100.117 76.043L98.2539 75.5742C95.8984 74.9883 94.7617 73.875 94.7617 72.1641C94.7617 70.043 96.625 68.6016 99.3789 68.6016C101.383 68.6016 103.164 69.7266 103.48 71.1914C103.504 71.3086 103.516 71.4023 103.516 71.4961C103.516 71.9766 103.211 72.293 102.719 72.293C102.32 72.293 102.039 72.1641 101.816 71.7422C101.289 70.7227 100.504 70.2773 99.2617 70.2773C97.7969 70.2773 96.7773 71.0156 96.7773 72.0586C96.7773 72.9023 97.4336 73.4883 98.7695 73.8164L100.586 74.2617C103.129 74.8828 104.066 75.7734 104.066 77.5664C104.066 79.7461 102.109 81.2109 99.2148 81.2109ZM106.82 78.1875V70.4883H105.801C105.215 70.4883 104.887 70.1836 104.887 69.6445C104.887 69.1172 105.215 68.8125 105.801 68.8125H106.82V66.7266C106.82 66.082 107.242 65.6367 107.84 65.6367C108.438 65.6367 108.859 66.082 108.859 66.7266V68.8125H110.43C111.016 68.8125 111.344 69.1172 111.344 69.6445C111.344 70.1836 111.016 70.4883 110.43 70.4883H108.859V77.7422C108.859 78.7734 109.223 79.2656 110.242 79.3359L110.418 79.3477C111.086 79.3945 111.391 79.6641 111.391 80.1445C111.391 80.7656 111.039 81.0938 109.902 81.0938H109.773C107.805 81.0938 106.82 80.1328 106.82 78.1875ZM117.566 81.2109C114.906 81.2109 113.348 79.4883 113.348 76.7227V69.6914C113.348 69.0469 113.77 68.6016 114.367 68.6016C114.965 68.6016 115.387 69.0469 115.387 69.6914V76.3594C115.387 78.3398 116.312 79.4062 118.199 79.4062C120.18 79.4062 121.375 78.0469 121.375 75.9727V69.6914C121.375 69.0469 121.797 68.6016 122.395 68.6016C122.992 68.6016 123.414 69.0469 123.414 69.6914V80.1797C123.414 80.7656 123.039 81.2109 122.453 81.2109C121.867 81.2109 121.48 80.7656 121.48 80.1797V79.0195H121.434C120.707 80.4258 119.441 81.2109 117.566 81.2109ZM130.68 81.2109C127.574 81.2109 125.465 78.7266 125.465 74.9062C125.465 71.0859 127.562 68.6016 130.633 68.6016C132.379 68.6016 133.785 69.457 134.512 70.793H134.559V64.9688C134.559 64.3242 134.98 63.8789 135.578 63.8789C136.176 63.8789 136.598 64.3242 136.598 64.9688V80.2148C136.598 80.8008 136.188 81.2109 135.602 81.2109C135.027 81.2109 134.559 80.8125 134.559 80.2148V78.8203H134.523C133.855 80.2734 132.59 81.2109 130.68 81.2109ZM131.066 79.418C133.164 79.418 134.57 77.6367 134.57 74.9062C134.57 72.1875 133.164 70.3945 131.066 70.3945C128.91 70.3945 127.551 72.1523 127.551 74.9062C127.551 77.6719 128.91 79.418 131.066 79.418ZM142.902 81.2109C140.477 81.2109 138.848 79.7461 138.848 77.5547C138.848 75.4688 140.453 74.1562 143.266 73.9922L146.77 73.793V72.7734C146.77 71.2852 145.785 70.3945 144.098 70.3945C142.773 70.3945 141.871 70.875 141.191 72.082C141.004 72.4219 140.734 72.5742 140.348 72.5742C139.82 72.5742 139.445 72.2109 139.445 71.6602C139.445 71.4023 139.527 71.1094 139.691 70.8164C140.383 69.4805 142.164 68.6016 144.145 68.6016C147.004 68.6016 148.809 70.1484 148.809 72.5742V80.1797C148.809 80.7891 148.41 81.2109 147.848 81.2109C147.273 81.2109 146.875 80.7891 146.875 80.1797V78.9023H146.828C146.102 80.2969 144.543 81.2109 142.902 81.2109ZM143.359 79.4766C145.281 79.4766 146.77 78.1289 146.77 76.3711V75.375L143.5 75.5742C141.859 75.6797 140.922 76.4062 140.922 77.5547C140.922 78.7148 141.895 79.4766 143.359 79.4766ZM152.418 81.2109C151.82 81.2109 151.398 80.7656 151.398 80.1211V69.6328C151.398 69.0234 151.797 68.6016 152.359 68.6016C152.922 68.6016 153.32 69.0234 153.32 69.6328V70.7578H153.367C154.047 69.4453 155.348 68.6016 157.234 68.6016C159.906 68.6016 161.453 70.3242 161.453 73.0898V80.1211C161.453 80.7656 161.031 81.2109 160.434 81.2109C159.836 81.2109 159.414 80.7656 159.414 80.1211V73.4531C159.414 71.4844 158.488 70.4062 156.613 70.4062C154.691 70.4062 153.438 71.7656 153.438 73.8281V80.1211C153.438 80.7656 153.016 81.2109 152.418 81.2109ZM164.711 78.1875V70.4883H163.691C163.105 70.4883 162.777 70.1836 162.777 69.6445C162.777 69.1172 163.105 68.8125 163.691 68.8125H164.711V66.7266C164.711 66.082 165.133 65.6367 165.73 65.6367C166.328 65.6367 166.75 66.082 166.75 66.7266V68.8125H168.32C168.906 68.8125 169.234 69.1172 169.234 69.6445C169.234 70.1836 168.906 70.4883 168.32 70.4883H166.75V77.7422C166.75 78.7734 167.113 79.2656 168.133 79.3359L168.309 79.3477C168.977 79.3945 169.281 79.6641 169.281 80.1445C169.281 80.7656 168.93 81.0938 167.793 81.0938H167.664C165.695 81.0938 164.711 80.1328 164.711 78.1875ZM176.055 81.2109C172.457 81.2109 170.348 78.8906 170.348 74.9531C170.348 71.1094 172.516 68.6016 175.879 68.6016C178.996 68.6016 181.188 70.9336 181.188 74.2734C181.188 75.0117 180.766 75.457 180.062 75.457H172.445C172.445 77.918 173.793 79.4414 175.973 79.4414C177.426 79.4414 178.316 78.9258 179.266 77.543C179.477 77.25 179.711 77.1328 180.027 77.1328C180.566 77.1328 180.93 77.4844 180.93 78.0234C180.93 78.1875 180.871 78.3984 180.777 78.6211C179.992 80.2734 178.281 81.2109 176.055 81.2109ZM172.457 73.8633H179.078C179.031 71.7539 177.73 70.3711 175.844 70.3711C173.945 70.3711 172.586 71.7656 172.457 73.8633ZM192.789 81.2109C189.684 81.2109 187.574 78.7266 187.574 74.9062C187.574 71.0859 189.672 68.6016 192.742 68.6016C194.488 68.6016 195.895 69.457 196.621 70.793H196.668V64.9688C196.668 64.3242 197.09 63.8789 197.688 63.8789C198.285 63.8789 198.707 64.3242 198.707 64.9688V80.2148C198.707 80.8008 198.297 81.2109 197.711 81.2109C197.137 81.2109 196.668 80.8125 196.668 80.2148V78.8203H196.633C195.965 80.2734 194.699 81.2109 192.789 81.2109ZM193.176 79.418C195.273 79.418 196.68 77.6367 196.68 74.9062C196.68 72.1875 195.273 70.3945 193.176 70.3945C191.02 70.3945 189.66 72.1523 189.66 74.9062C189.66 77.6719 191.02 79.418 193.176 79.418ZM206.57 81.2109C202.973 81.2109 200.863 78.8906 200.863 74.9531C200.863 71.1094 203.031 68.6016 206.395 68.6016C209.512 68.6016 211.703 70.9336 211.703 74.2734C211.703 75.0117 211.281 75.457 210.578 75.457H202.961C202.961 77.918 204.309 79.4414 206.488 79.4414C207.941 79.4414 208.832 78.9258 209.781 77.543C209.992 77.25 210.227 77.1328 210.543 77.1328C211.082 77.1328 211.445 77.4844 211.445 78.0234C211.445 78.1875 211.387 78.3984 211.293 78.6211C210.508 80.2734 208.797 81.2109 206.57 81.2109ZM202.973 73.8633H209.594C209.547 71.7539 208.246 70.3711 206.359 70.3711C204.461 70.3711 203.102 71.7656 202.973 73.8633ZM224.336 81.1641C223.691 81.1641 223.281 80.7422 223.281 80.0742V65.9883H218.781C218.184 65.9883 217.773 65.6016 217.773 65.0391C217.773 64.4766 218.184 64.0898 218.781 64.0898H229.891C230.488 64.0898 230.898 64.4766 230.898 65.0391C230.898 65.6016 230.488 65.9883 229.891 65.9883H225.391V80.0742C225.391 80.7422 224.98 81.1641 224.336 81.1641ZM234.578 81.2109C230.98 81.2109 228.871 78.8906 228.871 74.9531C228.871 71.1094 231.039 68.6016 234.402 68.6016C237.52 68.6016 239.711 70.9336 239.711 74.2734C239.711 75.0117 239.289 75.457 238.586 75.457H230.969C230.969 77.918 232.316 79.4414 234.496 79.4414C235.949 79.4414 236.84 78.9258 237.789 77.543C238 77.25 238.234 77.1328 238.551 77.1328C239.09 77.1328 239.453 77.4844 239.453 78.0234C239.453 78.1875 239.395 78.3984 239.301 78.6211C238.516 80.2734 236.805 81.2109 234.578 81.2109ZM230.98 73.8633H237.602C237.555 71.7539 236.254 70.3711 234.367 70.3711C232.469 70.3711 231.109 71.7656 230.98 73.8633ZM246.801 81.2109C243.426 81.2109 241.176 78.7852 241.176 74.9297C241.176 71.0977 243.402 68.6016 246.777 68.6016C249.074 68.6016 251.078 69.9023 251.547 71.5898C251.594 71.7422 251.617 71.8945 251.617 72.0234C251.617 72.5625 251.277 72.9141 250.75 72.9141C250.305 72.9141 250.059 72.7266 249.777 72.1992C249.133 70.9922 248.207 70.3945 246.801 70.3945C244.68 70.3945 243.25 72.1758 243.25 74.9062C243.25 77.707 244.703 79.418 246.801 79.418C248.266 79.418 249.156 78.7852 249.789 77.6133C250.082 77.0625 250.305 76.8984 250.75 76.8984C251.277 76.8984 251.629 77.2617 251.629 77.7891C251.629 77.9414 251.594 78.1172 251.535 78.3047C250.949 79.9922 249.016 81.2109 246.801 81.2109ZM254.816 81.2109C254.219 81.2109 253.797 80.7656 253.797 80.1211V69.6328C253.797 69.0234 254.195 68.6016 254.758 68.6016C255.32 68.6016 255.719 69.0234 255.719 69.6328V70.7578H255.766C256.445 69.4453 257.746 68.6016 259.633 68.6016C262.305 68.6016 263.852 70.3242 263.852 73.0898V80.1211C263.852 80.7656 263.43 81.2109 262.832 81.2109C262.234 81.2109 261.812 80.7656 261.812 80.1211V73.4531C261.812 71.4844 260.887 70.4062 259.012 70.4062C257.09 70.4062 255.836 71.7656 255.836 73.8281V80.1211C255.836 80.7656 255.414 81.2109 254.816 81.2109ZM271.504 81.2109C268.129 81.2109 265.855 78.7852 265.855 74.9062C265.855 71.0156 268.129 68.6016 271.504 68.6016C274.867 68.6016 277.141 71.0156 277.141 74.9062C277.141 78.7852 274.867 81.2109 271.504 81.2109ZM271.504 79.418C273.66 79.418 275.066 77.7773 275.066 74.9062C275.066 72.0352 273.66 70.3945 271.504 70.3945C269.348 70.3945 267.93 72.0352 267.93 74.9062C267.93 77.7773 269.348 79.418 271.504 79.418ZM280.328 81.2109C279.73 81.2109 279.309 80.7656 279.309 80.1211V64.9688C279.309 64.3242 279.73 63.8789 280.328 63.8789C280.926 63.8789 281.348 64.3242 281.348 64.9688V80.1211C281.348 80.7656 280.926 81.2109 280.328 81.2109ZM289.152 81.2109C285.777 81.2109 283.504 78.7852 283.504 74.9062C283.504 71.0156 285.777 68.6016 289.152 68.6016C292.516 68.6016 294.789 71.0156 294.789 74.9062C294.789 78.7852 292.516 81.2109 289.152 81.2109ZM289.152 79.418C291.309 79.418 292.715 77.7773 292.715 74.9062C292.715 72.0352 291.309 70.3945 289.152 70.3945C286.996 70.3945 285.578 72.0352 285.578 74.9062C285.578 77.7773 286.996 79.418 289.152 79.418ZM301.773 85.5938C299.734 85.5703 298.035 84.7617 297.18 83.4141C297.016 83.1562 296.945 82.9219 296.945 82.6523C296.945 82.1367 297.32 81.7734 297.859 81.7734C298.199 81.7734 298.398 81.8906 298.715 82.2422C299.758 83.3906 300.613 83.8359 301.855 83.8594C304.035 83.8945 305.359 82.6406 305.359 80.8242V78.9023H305.312C304.562 80.2266 303.109 81.0938 301.398 81.0938C298.293 81.0938 296.254 78.6445 296.254 74.8594C296.254 71.0391 298.293 68.6016 301.445 68.6016C303.168 68.6016 304.516 69.4453 305.324 70.8164H305.359V69.6562C305.359 69.0234 305.793 68.6016 306.379 68.6016C306.965 68.6016 307.398 69.0234 307.398 69.6562V80.7539C307.398 83.6602 305.242 85.6289 301.773 85.5938ZM301.809 79.3008C303.93 79.3008 305.359 77.543 305.359 74.8594C305.359 72.1758 303.93 70.3945 301.809 70.3945C299.711 70.3945 298.34 72.1289 298.34 74.8594C298.34 77.5898 299.711 79.3008 301.809 79.3008ZM311.172 66.7617C310.48 66.7617 309.906 66.1875 309.906 65.4961C309.906 64.793 310.48 64.2305 311.172 64.2305C311.875 64.2305 312.449 64.793 312.449 65.4961C312.449 66.1875 311.875 66.7617 311.172 66.7617ZM311.172 81.2109C310.574 81.2109 310.152 80.7656 310.152 80.1211V69.6914C310.152 69.0469 310.574 68.6016 311.172 68.6016C311.77 68.6016 312.191 69.0469 312.191 69.6914V80.1211C312.191 80.7656 311.77 81.2109 311.172 81.2109ZM318.496 81.2109C316.07 81.2109 314.441 79.7461 314.441 77.5547C314.441 75.4688 316.047 74.1562 318.859 73.9922L322.363 73.793V72.7734C322.363 71.2852 321.379 70.3945 319.691 70.3945C318.367 70.3945 317.465 70.875 316.785 72.082C316.598 72.4219 316.328 72.5742 315.941 72.5742C315.414 72.5742 315.039 72.2109 315.039 71.6602C315.039 71.4023 315.121 71.1094 315.285 70.8164C315.977 69.4805 317.758 68.6016 319.738 68.6016C322.598 68.6016 324.402 70.1484 324.402 72.5742V80.1797C324.402 80.7891 324.004 81.2109 323.441 81.2109C322.867 81.2109 322.469 80.7891 322.469 80.1797V78.9023H322.422C321.695 80.2969 320.137 81.2109 318.496 81.2109ZM318.953 79.4766C320.875 79.4766 322.363 78.1289 322.363 76.3711V75.375L319.094 75.5742C317.453 75.6797 316.516 76.4062 316.516 77.5547C316.516 78.7148 317.488 79.4766 318.953 79.4766ZM336.941 81.2109C333.566 81.2109 331.316 78.7852 331.316 74.9297C331.316 71.0977 333.543 68.6016 336.918 68.6016C339.215 68.6016 341.219 69.9023 341.688 71.5898C341.734 71.7422 341.758 71.8945 341.758 72.0234C341.758 72.5625 341.418 72.9141 340.891 72.9141C340.445 72.9141 340.199 72.7266 339.918 72.1992C339.273 70.9922 338.348 70.3945 336.941 70.3945C334.82 70.3945 333.391 72.1758 333.391 74.9062C333.391 77.707 334.844 79.418 336.941 79.418C338.406 79.418 339.297 78.7852 339.93 77.6133C340.223 77.0625 340.445 76.8984 340.891 76.8984C341.418 76.8984 341.77 77.2617 341.77 77.7891C341.77 77.9414 341.734 78.1172 341.676 78.3047C341.09 79.9922 339.156 81.2109 336.941 81.2109ZM348.988 81.2109C345.613 81.2109 343.34 78.7852 343.34 74.9062C343.34 71.0156 345.613 68.6016 348.988 68.6016C352.352 68.6016 354.625 71.0156 354.625 74.9062C354.625 78.7852 352.352 81.2109 348.988 81.2109ZM348.988 79.418C351.145 79.418 352.551 77.7773 352.551 74.9062C352.551 72.0352 351.145 70.3945 348.988 70.3945C346.832 70.3945 345.414 72.0352 345.414 74.9062C345.414 77.7773 346.832 79.418 348.988 79.418ZM357.707 81.2109C357.086 81.2109 356.688 80.7422 356.688 80.1211V69.6328C356.688 69.0234 357.086 68.6016 357.648 68.6016C358.211 68.6016 358.609 69.0234 358.609 69.6328V70.7578H358.656C359.23 69.4688 360.473 68.6016 362.113 68.6016C363.777 68.6016 365.008 69.4453 365.535 70.9219H365.582C366.262 69.4688 367.691 68.6016 369.402 68.6016C371.816 68.6016 373.375 70.1719 373.375 72.5859V80.1211C373.375 80.7422 372.977 81.2109 372.355 81.2109C371.734 81.2109 371.336 80.7422 371.336 80.1211V73.0547C371.336 71.3906 370.41 70.4062 368.805 70.4062C367.188 70.4062 366.051 71.6016 366.051 73.2539V80.1211C366.051 80.7422 365.652 81.2109 365.031 81.2109C364.41 81.2109 364.012 80.7422 364.012 80.1211V72.832C364.012 71.3672 363.027 70.4062 361.516 70.4062C359.898 70.4062 358.727 71.6719 358.727 73.3594V80.1211C358.727 80.7422 358.328 81.2109 357.707 81.2109ZM382.574 81.2109C381.953 81.2109 381.555 80.7891 381.555 80.1328V70.4883H380.547C380.02 70.4883 379.68 70.1836 379.68 69.6562C379.68 69.1523 380.02 68.8125 380.547 68.8125H381.555V67.4531C381.555 65.1211 382.668 63.9961 384.66 63.9961C385.738 63.9961 386.312 64.3477 386.312 64.9453C386.312 65.3203 386.137 65.5547 385.762 65.6602C385.586 65.707 385.387 65.7305 385.129 65.7305C384.051 65.7305 383.582 66.2695 383.582 67.5234V68.8125H385.387C385.914 68.8125 386.254 69.1523 386.254 69.6562C386.254 70.1836 385.914 70.4883 385.387 70.4883H383.594V80.1328C383.594 80.7891 383.195 81.2109 382.574 81.2109ZM392.652 81.2109C389.277 81.2109 387.004 78.7852 387.004 74.9062C387.004 71.0156 389.277 68.6016 392.652 68.6016C396.016 68.6016 398.289 71.0156 398.289 74.9062C398.289 78.7852 396.016 81.2109 392.652 81.2109ZM392.652 79.418C394.809 79.418 396.215 77.7773 396.215 74.9062C396.215 72.0352 394.809 70.3945 392.652 70.3945C390.496 70.3945 389.078 72.0352 389.078 74.9062C389.078 77.7773 390.496 79.418 392.652 79.418ZM405.379 81.2109C402.004 81.2109 399.754 78.7852 399.754 74.9297C399.754 71.0977 401.98 68.6016 405.355 68.6016C407.652 68.6016 409.656 69.9023 410.125 71.5898C410.172 71.7422 410.195 71.8945 410.195 72.0234C410.195 72.5625 409.855 72.9141 409.328 72.9141C408.883 72.9141 408.637 72.7266 408.355 72.1992C407.711 70.9922 406.785 70.3945 405.379 70.3945C403.258 70.3945 401.828 72.1758 401.828 74.9062C401.828 77.707 403.281 79.418 405.379 79.418C406.844 79.418 407.734 78.7852 408.367 77.6133C408.66 77.0625 408.883 76.8984 409.328 76.8984C409.855 76.8984 410.207 77.2617 410.207 77.7891C410.207 77.9414 410.172 78.1172 410.113 78.3047C409.527 79.9922 407.594 81.2109 405.379 81.2109ZM417.426 81.2109C414.051 81.2109 411.777 78.7852 411.777 74.9062C411.777 71.0156 414.051 68.6016 417.426 68.6016C420.789 68.6016 423.062 71.0156 423.062 74.9062C423.062 78.7852 420.789 81.2109 417.426 81.2109ZM417.426 79.418C419.582 79.418 420.988 77.7773 420.988 74.9062C420.988 72.0352 419.582 70.3945 417.426 70.3945C415.27 70.3945 413.852 72.0352 413.852 74.9062C413.852 77.7773 415.27 79.418 417.426 79.418ZM431.066 81.2109C430.469 81.2109 430.047 80.7656 430.047 80.1211V69.6328C430.047 69.0234 430.445 68.6016 431.008 68.6016C431.57 68.6016 431.969 69.0234 431.969 69.6328V70.7578H432.016C432.695 69.4453 433.996 68.6016 435.883 68.6016C438.555 68.6016 440.102 70.3242 440.102 73.0898V80.1211C440.102 80.7656 439.68 81.2109 439.082 81.2109C438.484 81.2109 438.062 80.7656 438.062 80.1211V73.4531C438.062 71.4844 437.137 70.4062 435.262 70.4062C433.34 70.4062 432.086 71.7656 432.086 73.8281V80.1211C432.086 80.7656 431.664 81.2109 431.066 81.2109ZM446.254 81.2109C443.828 81.2109 442.199 79.7461 442.199 77.5547C442.199 75.4688 443.805 74.1562 446.617 73.9922L450.121 73.793V72.7734C450.121 71.2852 449.137 70.3945 447.449 70.3945C446.125 70.3945 445.223 70.875 444.543 72.082C444.355 72.4219 444.086 72.5742 443.699 72.5742C443.172 72.5742 442.797 72.2109 442.797 71.6602C442.797 71.4023 442.879 71.1094 443.043 70.8164C443.734 69.4805 445.516 68.6016 447.496 68.6016C450.355 68.6016 452.16 70.1484 452.16 72.5742V80.1797C452.16 80.7891 451.762 81.2109 451.199 81.2109C450.625 81.2109 450.227 80.7891 450.227 80.1797V78.9023H450.18C449.453 80.2969 447.895 81.2109 446.254 81.2109ZM446.711 79.4766C448.633 79.4766 450.121 78.1289 450.121 76.3711V75.375L446.852 75.5742C445.211 75.6797 444.273 76.4062 444.273 77.5547C444.273 78.7148 445.246 79.4766 446.711 79.4766ZM463.832 81.2109C461.172 81.2109 459.613 79.4883 459.613 76.7227V69.6914C459.613 69.0469 460.035 68.6016 460.633 68.6016C461.23 68.6016 461.652 69.0469 461.652 69.6914V76.3594C461.652 78.3398 462.578 79.4062 464.465 79.4062C466.445 79.4062 467.641 78.0469 467.641 75.9727V69.6914C467.641 69.0469 468.062 68.6016 468.66 68.6016C469.258 68.6016 469.68 69.0469 469.68 69.6914V80.1797C469.68 80.7656 469.305 81.2109 468.719 81.2109C468.133 81.2109 467.746 80.7656 467.746 80.1797V79.0195H467.699C466.973 80.4258 465.707 81.2109 463.832 81.2109ZM473.348 81.2109C472.75 81.2109 472.328 80.7656 472.328 80.1211V69.6328C472.328 69.0234 472.727 68.6016 473.289 68.6016C473.852 68.6016 474.25 69.0234 474.25 69.6328V70.7578H474.297C474.977 69.4453 476.277 68.6016 478.164 68.6016C480.836 68.6016 482.383 70.3242 482.383 73.0898V80.1211C482.383 80.7656 481.961 81.2109 481.363 81.2109C480.766 81.2109 480.344 80.7656 480.344 80.1211V73.4531C480.344 71.4844 479.418 70.4062 477.543 70.4062C475.621 70.4062 474.367 71.7656 474.367 73.8281V80.1211C474.367 80.7656 473.945 81.2109 473.348 81.2109ZM486.109 66.7617C485.418 66.7617 484.844 66.1875 484.844 65.4961C484.844 64.793 485.418 64.2305 486.109 64.2305C486.812 64.2305 487.387 64.793 487.387 65.4961C487.387 66.1875 486.812 66.7617 486.109 66.7617ZM486.109 81.2109C485.512 81.2109 485.09 80.7656 485.09 80.1211V69.6914C485.09 69.0469 485.512 68.6016 486.109 68.6016C486.707 68.6016 487.129 69.0469 487.129 69.6914V80.1211C487.129 80.7656 486.707 81.2109 486.109 81.2109ZM491.535 67.1367C491.113 67.1367 490.855 66.8555 490.855 66.3867C490.855 64.8047 491.816 63.8555 493.105 63.8555C494.723 63.8555 495.25 65.6367 496.129 65.6367C496.562 65.6367 496.809 65.2734 496.926 64.4648C496.996 63.9141 497.195 63.6797 497.617 63.6797C498.027 63.6797 498.297 63.9727 498.297 64.418C498.297 65.9414 497.324 66.9609 496.117 66.9609C494.57 66.9609 493.984 65.1797 493.094 65.1797C492.555 65.1797 492.32 65.5312 492.227 66.4219C492.18 66.9023 491.957 67.1367 491.535 67.1367ZM493.434 81.2109C491.008 81.2109 489.379 79.7461 489.379 77.5547C489.379 75.4688 490.984 74.1562 493.797 73.9922L497.301 73.793V72.7734C497.301 71.2852 496.316 70.3945 494.629 70.3945C493.305 70.3945 492.402 70.875 491.723 72.082C491.535 72.4219 491.266 72.5742 490.879 72.5742C490.352 72.5742 489.977 72.2109 489.977 71.6602C489.977 71.4023 490.059 71.1094 490.223 70.8164C490.914 69.4805 492.695 68.6016 494.676 68.6016C497.535 68.6016 499.34 70.1484 499.34 72.5742V80.1797C499.34 80.7891 498.941 81.2109 498.379 81.2109C497.805 81.2109 497.406 80.7891 497.406 80.1797V78.9023H497.359C496.633 80.2969 495.074 81.2109 493.434 81.2109ZM493.891 79.4766C495.812 79.4766 497.301 78.1289 497.301 76.3711V75.375L494.031 75.5742C492.391 75.6797 491.453 76.4062 491.453 77.5547C491.453 78.7148 492.426 79.4766 493.891 79.4766ZM506.98 81.2109C503.605 81.2109 501.332 78.7852 501.332 74.9062C501.332 71.0156 503.605 68.6016 506.98 68.6016C510.344 68.6016 512.617 71.0156 512.617 74.9062C512.617 78.7852 510.344 81.2109 506.98 81.2109ZM506.98 79.418C509.137 79.418 510.543 77.7773 510.543 74.9062C510.543 72.0352 509.137 70.3945 506.98 70.3945C504.824 70.3945 503.406 72.0352 503.406 74.9062C503.406 77.7773 504.824 79.418 506.98 79.418ZM524.711 81.2109C521.113 81.2109 519.004 78.8906 519.004 74.9531C519.004 71.1094 521.172 68.6016 524.535 68.6016C527.652 68.6016 529.844 70.9336 529.844 74.2734C529.844 75.0117 529.422 75.457 528.719 75.457H521.102C521.102 77.918 522.449 79.4414 524.629 79.4414C526.082 79.4414 526.973 78.9258 527.922 77.543C528.133 77.25 528.367 77.1328 528.684 77.1328C529.223 77.1328 529.586 77.4844 529.586 78.0234C529.586 78.1875 529.527 78.3984 529.434 78.6211C528.648 80.2734 526.938 81.2109 524.711 81.2109ZM521.113 73.8633H527.734C527.688 71.7539 526.387 70.3711 524.5 70.3711C522.602 70.3711 521.242 71.7656 521.113 73.8633ZM532.926 81.2109C532.328 81.2109 531.906 80.7656 531.906 80.1211V69.6328C531.906 69.0234 532.305 68.6016 532.867 68.6016C533.43 68.6016 533.828 69.0234 533.828 69.6328V70.7578H533.875C534.555 69.4453 535.855 68.6016 537.742 68.6016C540.414 68.6016 541.961 70.3242 541.961 73.0898V80.1211C541.961 80.7656 541.539 81.2109 540.941 81.2109C540.344 81.2109 539.922 80.7656 539.922 80.1211V73.4531C539.922 71.4844 538.996 70.4062 537.121 70.4062C535.199 70.4062 533.945 71.7656 533.945 73.8281V80.1211C533.945 80.7656 533.523 81.2109 532.926 81.2109ZM545.219 78.1875V70.4883H544.199C543.613 70.4883 543.285 70.1836 543.285 69.6445C543.285 69.1172 543.613 68.8125 544.199 68.8125H545.219V66.7266C545.219 66.082 545.641 65.6367 546.238 65.6367C546.836 65.6367 547.258 66.082 547.258 66.7266V68.8125H548.828C549.414 68.8125 549.742 69.1172 549.742 69.6445C549.742 70.1836 549.414 70.4883 548.828 70.4883H547.258V77.7422C547.258 78.7734 547.621 79.2656 548.641 79.3359L548.816 79.3477C549.484 79.3945 549.789 79.6641 549.789 80.1445C549.789 80.7656 549.438 81.0938 548.301 81.0938H548.172C546.203 81.0938 545.219 80.1328 545.219 78.1875ZM552.824 81.2109C552.227 81.2109 551.805 80.7656 551.805 80.1211V69.6328C551.805 69.0234 552.203 68.6016 552.766 68.6016C553.328 68.6016 553.727 69.0234 553.727 69.6328V70.8047H553.773C554.125 69.5391 555.32 68.6016 556.539 68.6016C556.984 68.6016 557.301 68.707 557.5 68.8945C557.676 69.0586 557.758 69.293 557.758 69.5742C557.758 69.8906 557.652 70.125 557.441 70.2891C557.23 70.4648 556.914 70.5469 556.469 70.5469C554.629 70.5469 553.844 71.8711 553.844 73.4297V80.1211C553.844 80.7656 553.422 81.2109 552.824 81.2109ZM563.734 81.2109C560.137 81.2109 558.027 78.8906 558.027 74.9531C558.027 71.1094 560.195 68.6016 563.559 68.6016C566.676 68.6016 568.867 70.9336 568.867 74.2734C568.867 75.0117 568.445 75.457 567.742 75.457H560.125C560.125 77.918 561.473 79.4414 563.652 79.4414C565.105 79.4414 565.996 78.9258 566.945 77.543C567.156 77.25 567.391 77.1328 567.707 77.1328C568.246 77.1328 568.609 77.4844 568.609 78.0234C568.609 78.1875 568.551 78.3984 568.457 78.6211C567.672 80.2734 565.961 81.2109 563.734 81.2109ZM560.137 73.8633H566.758C566.711 71.7539 565.41 70.3711 563.523 70.3711C561.625 70.3711 560.266 71.7656 560.137 73.8633ZM200.594 110.211C197.488 110.211 195.379 107.727 195.379 103.906C195.379 100.086 197.477 97.6016 200.547 97.6016C202.293 97.6016 203.699 98.457 204.426 99.793H204.473V93.9688C204.473 93.3242 204.895 92.8789 205.492 92.8789C206.09 92.8789 206.512 93.3242 206.512 93.9688V109.215C206.512 109.801 206.102 110.211 205.516 110.211C204.941 110.211 204.473 109.812 204.473 109.215V107.82H204.438C203.77 109.273 202.504 110.211 200.594 110.211ZM200.98 108.418C203.078 108.418 204.484 106.637 204.484 103.906C204.484 101.188 203.078 99.3945 200.98 99.3945C198.824 99.3945 197.465 101.152 197.465 103.906C197.465 106.672 198.824 108.418 200.98 108.418ZM214.375 110.211C210.777 110.211 208.668 107.891 208.668 103.953C208.668 100.109 210.836 97.6016 214.199 97.6016C217.316 97.6016 219.508 99.9336 219.508 103.273C219.508 104.012 219.086 104.457 218.383 104.457H210.766C210.766 106.918 212.113 108.441 214.293 108.441C215.746 108.441 216.637 107.926 217.586 106.543C217.797 106.25 218.031 106.133 218.348 106.133C218.887 106.133 219.25 106.484 219.25 107.023C219.25 107.188 219.191 107.398 219.098 107.621C218.312 109.273 216.602 110.211 214.375 110.211ZM210.777 102.863H217.398C217.352 100.754 216.051 99.3711 214.164 99.3711C212.266 99.3711 210.906 100.766 210.777 102.863ZM225.801 110.211C223.633 110.211 221.934 109.238 221.348 107.715C221.277 107.539 221.254 107.387 221.254 107.234C221.254 106.695 221.652 106.391 222.18 106.391C222.543 106.391 222.836 106.578 223.07 107C223.68 108.066 224.406 108.547 225.965 108.547C227.523 108.547 228.578 107.867 228.578 106.73C228.578 105.852 228.074 105.383 226.703 105.043L224.84 104.574C222.484 103.988 221.348 102.875 221.348 101.164C221.348 99.043 223.211 97.6016 225.965 97.6016C227.969 97.6016 229.75 98.7266 230.066 100.191C230.09 100.309 230.102 100.402 230.102 100.496C230.102 100.977 229.797 101.293 229.305 101.293C228.906 101.293 228.625 101.164 228.402 100.742C227.875 99.7227 227.09 99.2773 225.848 99.2773C224.383 99.2773 223.363 100.016 223.363 101.059C223.363 101.902 224.02 102.488 225.355 102.816L227.172 103.262C229.715 103.883 230.652 104.773 230.652 106.566C230.652 108.746 228.695 110.211 225.801 110.211ZM237.859 110.211C234.262 110.211 232.152 107.891 232.152 103.953C232.152 100.109 234.32 97.6016 237.684 97.6016C240.801 97.6016 242.992 99.9336 242.992 103.273C242.992 104.012 242.57 104.457 241.867 104.457H234.25C234.25 106.918 235.598 108.441 237.777 108.441C239.23 108.441 240.121 107.926 241.07 106.543C241.281 106.25 241.516 106.133 241.832 106.133C242.371 106.133 242.734 106.484 242.734 107.023C242.734 107.188 242.676 107.398 242.582 107.621C241.797 109.273 240.086 110.211 237.859 110.211ZM234.262 102.863H240.883C240.836 100.754 239.535 99.3711 237.648 99.3711C235.75 99.3711 234.391 100.766 234.262 102.863ZM246.074 110.211C245.477 110.211 245.055 109.766 245.055 109.121V98.6328C245.055 98.0234 245.453 97.6016 246.016 97.6016C246.578 97.6016 246.977 98.0234 246.977 98.6328V99.7578H247.023C247.703 98.4453 249.004 97.6016 250.891 97.6016C253.562 97.6016 255.109 99.3242 255.109 102.09V109.121C255.109 109.766 254.688 110.211 254.09 110.211C253.492 110.211 253.07 109.766 253.07 109.121V102.453C253.07 100.484 252.145 99.4062 250.27 99.4062C248.348 99.4062 247.094 100.766 247.094 102.828V109.121C247.094 109.766 246.672 110.211 246.074 110.211ZM262.176 110.211C261.508 110.211 261.133 109.918 260.84 109.18L256.961 99.0664C256.891 98.8906 256.855 98.7148 256.855 98.5391C256.855 97.9766 257.266 97.6016 257.875 97.6016C258.332 97.6016 258.637 97.8477 258.824 98.375L262.164 107.832H262.211L265.562 98.375C265.75 97.8477 266.055 97.6016 266.5 97.6016C267.109 97.6016 267.508 97.9766 267.508 98.5391C267.508 98.7148 267.473 98.8906 267.402 99.0664L263.535 109.18C263.266 109.883 262.832 110.211 262.176 110.211ZM274.012 110.211C270.637 110.211 268.363 107.785 268.363 103.906C268.363 100.016 270.637 97.6016 274.012 97.6016C277.375 97.6016 279.648 100.016 279.648 103.906C279.648 107.785 277.375 110.211 274.012 110.211ZM274.012 108.418C276.168 108.418 277.574 106.777 277.574 103.906C277.574 101.035 276.168 99.3945 274.012 99.3945C271.855 99.3945 270.438 101.035 270.438 103.906C270.438 106.777 271.855 108.418 274.012 108.418ZM282.836 110.211C282.238 110.211 281.816 109.766 281.816 109.121V93.9688C281.816 93.3242 282.238 92.8789 282.836 92.8789C283.434 92.8789 283.855 93.3242 283.855 93.9688V109.121C283.855 109.766 283.434 110.211 282.836 110.211ZM291.074 110.211C290.406 110.211 290.031 109.918 289.738 109.18L285.859 99.0664C285.789 98.8906 285.754 98.7148 285.754 98.5391C285.754 97.9766 286.164 97.6016 286.773 97.6016C287.23 97.6016 287.535 97.8477 287.723 98.375L291.062 107.832H291.109L294.461 98.375C294.648 97.8477 294.953 97.6016 295.398 97.6016C296.008 97.6016 296.406 97.9766 296.406 98.5391C296.406 98.7148 296.371 98.8906 296.301 99.0664L292.434 109.18C292.164 109.883 291.73 110.211 291.074 110.211ZM299.336 95.7617C298.645 95.7617 298.07 95.1875 298.07 94.4961C298.07 93.793 298.645 93.2305 299.336 93.2305C300.039 93.2305 300.613 93.793 300.613 94.4961C300.613 95.1875 300.039 95.7617 299.336 95.7617ZM299.336 110.211C298.738 110.211 298.316 109.766 298.316 109.121V98.6914C298.316 98.0469 298.738 97.6016 299.336 97.6016C299.934 97.6016 300.355 98.0469 300.355 98.6914V109.121C300.355 109.766 299.934 110.211 299.336 110.211ZM304.129 110.211C303.508 110.211 303.109 109.742 303.109 109.121V98.6328C303.109 98.0234 303.508 97.6016 304.07 97.6016C304.633 97.6016 305.031 98.0234 305.031 98.6328V99.7578H305.078C305.652 98.4688 306.895 97.6016 308.535 97.6016C310.199 97.6016 311.43 98.4453 311.957 99.9219H312.004C312.684 98.4688 314.113 97.6016 315.824 97.6016C318.238 97.6016 319.797 99.1719 319.797 101.586V109.121C319.797 109.742 319.398 110.211 318.777 110.211C318.156 110.211 317.758 109.742 317.758 109.121V102.055C317.758 100.391 316.832 99.4062 315.227 99.4062C313.609 99.4062 312.473 100.602 312.473 102.254V109.121C312.473 109.742 312.074 110.211 311.453 110.211C310.832 110.211 310.434 109.742 310.434 109.121V101.832C310.434 100.367 309.449 99.4062 307.938 99.4062C306.32 99.4062 305.148 100.672 305.148 102.359V109.121C305.148 109.742 304.75 110.211 304.129 110.211ZM327.508 110.211C323.91 110.211 321.801 107.891 321.801 103.953C321.801 100.109 323.969 97.6016 327.332 97.6016C330.449 97.6016 332.641 99.9336 332.641 103.273C332.641 104.012 332.219 104.457 331.516 104.457H323.898C323.898 106.918 325.246 108.441 327.426 108.441C328.879 108.441 329.77 107.926 330.719 106.543C330.93 106.25 331.164 106.133 331.48 106.133C332.02 106.133 332.383 106.484 332.383 107.023C332.383 107.188 332.324 107.398 332.23 107.621C331.445 109.273 329.734 110.211 327.508 110.211ZM323.91 102.863H330.531C330.484 100.754 329.184 99.3711 327.297 99.3711C325.398 99.3711 324.039 100.766 323.91 102.863ZM335.723 110.211C335.125 110.211 334.703 109.766 334.703 109.121V98.6328C334.703 98.0234 335.102 97.6016 335.664 97.6016C336.227 97.6016 336.625 98.0234 336.625 98.6328V99.7578H336.672C337.352 98.4453 338.652 97.6016 340.539 97.6016C343.211 97.6016 344.758 99.3242 344.758 102.09V109.121C344.758 109.766 344.336 110.211 343.738 110.211C343.141 110.211 342.719 109.766 342.719 109.121V102.453C342.719 100.484 341.793 99.4062 339.918 99.4062C337.996 99.4062 336.742 100.766 336.742 102.828V109.121C336.742 109.766 336.32 110.211 335.723 110.211ZM348.016 107.188V99.4883H346.996C346.41 99.4883 346.082 99.1836 346.082 98.6445C346.082 98.1172 346.41 97.8125 346.996 97.8125H348.016V95.7266C348.016 95.082 348.438 94.6367 349.035 94.6367C349.633 94.6367 350.055 95.082 350.055 95.7266V97.8125H351.625C352.211 97.8125 352.539 98.1172 352.539 98.6445C352.539 99.1836 352.211 99.4883 351.625 99.4883H350.055V106.742C350.055 107.773 350.418 108.266 351.438 108.336L351.613 108.348C352.281 108.395 352.586 108.664 352.586 109.145C352.586 109.766 352.234 110.094 351.098 110.094H350.969C349 110.094 348.016 109.133 348.016 107.188ZM359.301 110.211C355.926 110.211 353.652 107.785 353.652 103.906C353.652 100.016 355.926 97.6016 359.301 97.6016C362.664 97.6016 364.938 100.016 364.938 103.906C364.938 107.785 362.664 110.211 359.301 110.211ZM359.301 108.418C361.457 108.418 362.863 106.777 362.863 103.906C362.863 101.035 361.457 99.3945 359.301 99.3945C357.145 99.3945 355.727 101.035 355.727 103.906C355.727 106.777 357.145 108.418 359.301 108.418ZM377.031 110.211C373.434 110.211 371.324 107.891 371.324 103.953C371.324 100.109 373.492 97.6016 376.855 97.6016C379.973 97.6016 382.164 99.9336 382.164 103.273C382.164 104.012 381.742 104.457 381.039 104.457H373.422C373.422 106.918 374.77 108.441 376.949 108.441C378.402 108.441 379.293 107.926 380.242 106.543C380.453 106.25 380.688 106.133 381.004 106.133C381.543 106.133 381.906 106.484 381.906 107.023C381.906 107.188 381.848 107.398 381.754 107.621C380.969 109.273 379.258 110.211 377.031 110.211ZM373.434 102.863H380.055C380.008 100.754 378.707 99.3711 376.82 99.3711C374.922 99.3711 373.562 100.766 373.434 102.863ZM393.766 110.211C390.66 110.211 388.551 107.727 388.551 103.906C388.551 100.086 390.648 97.6016 393.719 97.6016C395.465 97.6016 396.871 98.457 397.598 99.793H397.645V93.9688C397.645 93.3242 398.066 92.8789 398.664 92.8789C399.262 92.8789 399.684 93.3242 399.684 93.9688V109.215C399.684 109.801 399.273 110.211 398.688 110.211C398.113 110.211 397.645 109.812 397.645 109.215V107.82H397.609C396.941 109.273 395.676 110.211 393.766 110.211ZM394.152 108.418C396.25 108.418 397.656 106.637 397.656 103.906C397.656 101.188 396.25 99.3945 394.152 99.3945C391.996 99.3945 390.637 101.152 390.637 103.906C390.637 106.672 391.996 108.418 394.152 108.418ZM407.547 110.211C403.949 110.211 401.84 107.891 401.84 103.953C401.84 100.109 404.008 97.6016 407.371 97.6016C410.488 97.6016 412.68 99.9336 412.68 103.273C412.68 104.012 412.258 104.457 411.555 104.457H403.938C403.938 106.918 405.285 108.441 407.465 108.441C408.918 108.441 409.809 107.926 410.758 106.543C410.969 106.25 411.203 106.133 411.52 106.133C412.059 106.133 412.422 106.484 412.422 107.023C412.422 107.188 412.363 107.398 412.27 107.621C411.484 109.273 409.773 110.211 407.547 110.211ZM403.949 102.863H410.57C410.523 100.754 409.223 99.3711 407.336 99.3711C405.438 99.3711 404.078 100.766 403.949 102.863ZM418.973 110.211C416.805 110.211 415.105 109.238 414.52 107.715C414.449 107.539 414.426 107.387 414.426 107.234C414.426 106.695 414.824 106.391 415.352 106.391C415.715 106.391 416.008 106.578 416.242 107C416.852 108.066 417.578 108.547 419.137 108.547C420.695 108.547 421.75 107.867 421.75 106.73C421.75 105.852 421.246 105.383 419.875 105.043L418.012 104.574C415.656 103.988 414.52 102.875 414.52 101.164C414.52 99.043 416.383 97.6016 419.137 97.6016C421.141 97.6016 422.922 98.7266 423.238 100.191C423.262 100.309 423.273 100.402 423.273 100.496C423.273 100.977 422.969 101.293 422.477 101.293C422.078 101.293 421.797 101.164 421.574 100.742C421.047 99.7227 420.262 99.2773 419.02 99.2773C417.555 99.2773 416.535 100.016 416.535 101.059C416.535 101.902 417.191 102.488 418.527 102.816L420.344 103.262C422.887 103.883 423.824 104.773 423.824 106.566C423.824 108.746 421.867 110.211 418.973 110.211ZM427.047 95.7617C426.355 95.7617 425.781 95.1875 425.781 94.4961C425.781 93.793 426.355 93.2305 427.047 93.2305C427.75 93.2305 428.324 93.793 428.324 94.4961C428.324 95.1875 427.75 95.7617 427.047 95.7617ZM427.047 110.211C426.449 110.211 426.027 109.766 426.027 109.121V98.6914C426.027 98.0469 426.449 97.6016 427.047 97.6016C427.645 97.6016 428.066 98.0469 428.066 98.6914V109.121C428.066 109.766 427.645 110.211 427.047 110.211ZM435.742 114.594C433.703 114.57 432.004 113.762 431.148 112.414C430.984 112.156 430.914 111.922 430.914 111.652C430.914 111.137 431.289 110.773 431.828 110.773C432.168 110.773 432.367 110.891 432.684 111.242C433.727 112.391 434.582 112.836 435.824 112.859C438.004 112.895 439.328 111.641 439.328 109.824V107.902H439.281C438.531 109.227 437.078 110.094 435.367 110.094C432.262 110.094 430.223 107.645 430.223 103.859C430.223 100.039 432.262 97.6016 435.414 97.6016C437.137 97.6016 438.484 98.4453 439.293 99.8164H439.328V98.6562C439.328 98.0234 439.762 97.6016 440.348 97.6016C440.934 97.6016 441.367 98.0234 441.367 98.6562V109.754C441.367 112.66 439.211 114.629 435.742 114.594ZM435.777 108.301C437.898 108.301 439.328 106.543 439.328 103.859C439.328 101.176 437.898 99.3945 435.777 99.3945C433.68 99.3945 432.309 101.129 432.309 103.859C432.309 106.59 433.68 108.301 435.777 108.301ZM445.035 110.211C444.438 110.211 444.016 109.766 444.016 109.121V98.6328C444.016 98.0234 444.414 97.6016 444.977 97.6016C445.539 97.6016 445.938 98.0234 445.938 98.6328V99.7578H445.984C446.664 98.4453 447.965 97.6016 449.852 97.6016C452.523 97.6016 454.07 99.3242 454.07 102.09V109.121C454.07 109.766 453.648 110.211 453.051 110.211C452.453 110.211 452.031 109.766 452.031 109.121V102.453C452.031 100.484 451.105 99.4062 449.23 99.4062C447.309 99.4062 446.055 100.766 446.055 102.828V109.121C446.055 109.766 445.633 110.211 445.035 110.211Z" fill="white"/>
</g>
<defs>
<clipPath id="clip0_18_2">
<rect width="650" height="110" fill="white"/>
</clipPath>
</defs>
</svg>
