<svg width="128" height="128" viewBox="0 0 128 128" fill="none" xmlns="http://www.w3.org/2000/svg">
<rect width="128" height="128" rx="64" fill="#262626"/>
<rect x="20" y="20" width="88" height="88" rx="44" fill="#E65100"/>
<path d="M37 70.75V57.25H40.375V61.75H44.875V57.25H48.25V70.75H44.875V65.125H40.375V70.75H37ZM54.4375 70.75V60.625H50.5V57.25H61.75V60.625H57.8125V70.75H54.4375ZM64 70.75V59.5C64 58.8625 64.216 58.3285 64.648 57.898C65.08 57.4675 65.614 57.2515 66.25 57.25H76.375C77.0125 57.25 77.5472 57.466 77.9792 57.898C78.4112 58.33 78.6265 58.864 78.625 59.5V70.75H75.25V60.625H73V68.5H69.625V60.625H67.375V70.75H64ZM82 70.75V57.25H85.375V67.375H91V70.75H82Z" fill="#262626"/>
</svg>
