<svg width="150" height="150" viewBox="0 0 150 150" fill="none" xmlns="http://www.w3.org/2000/svg">
<rect width="150" height="150" rx="75" fill="#1D2633"/>
<rect x="25" y="25" width="100" height="100" rx="50" fill="white"/>
<path d="M75 50C71.717 50 68.4661 50.6627 65.4329 51.9503C62.3998 53.2378 59.6438 55.125 57.3223 57.5041C52.6339 62.3089 50 68.8256 50 75.6207C50 86.945 57.175 96.5528 67.1 99.9603C68.35 100.165 68.75 99.371 68.75 98.6793V94.3494C61.825 95.8866 60.35 90.9162 60.35 90.9162C59.2 87.9442 57.575 87.15 57.575 87.15C55.3 85.5615 57.75 85.6127 57.75 85.6127C60.25 85.7921 61.575 88.2517 61.575 88.2517C63.75 92.146 67.425 90.9931 68.85 90.3782C69.075 88.7128 69.725 87.5855 70.425 86.945C64.875 86.3045 59.05 84.1011 59.05 74.3396C59.05 71.4957 60 69.2155 61.625 67.3964C61.375 66.7559 60.5 64.0914 61.875 60.6326C61.875 60.6326 63.975 59.9408 68.75 63.2459C70.725 62.6822 72.875 62.4004 75 62.4004C77.125 62.4004 79.275 62.6822 81.25 63.2459C86.025 59.9408 88.125 60.6326 88.125 60.6326C89.5 64.0914 88.625 66.7559 88.375 67.3964C90 69.2155 90.95 71.4957 90.95 74.3396C90.95 84.1267 85.1 86.2789 79.525 86.9194C80.425 87.7136 81.25 89.2765 81.25 91.6592V98.6793C81.25 99.371 81.65 100.191 82.925 99.9603C92.85 96.5271 100 86.945 100 75.6207C100 72.2561 99.3534 68.9245 98.097 65.8161C96.8406 62.7076 94.9991 59.8832 92.6777 57.5041C90.3562 55.125 87.6002 53.2378 84.5671 51.9503C81.5339 50.6627 78.283 50 75 50Z" fill="#1D2633"/>
</svg>
