<svg width="150" height="150" viewBox="0 0 150 150" fill="none" xmlns="http://www.w3.org/2000/svg">
<path fill-rule="evenodd" clip-rule="evenodd" d="M13.3809 64.285C13.3809 50.7875 18.7432 37.8428 28.2882 28.2987C37.8331 18.7545 50.7789 13.3927 64.2775 13.3927C77.7762 13.3927 90.7219 18.7545 100.267 28.2987C109.812 37.8428 115.174 50.7875 115.174 64.285C115.174 77.7824 109.812 90.7271 100.267 100.271C90.7219 109.815 77.7762 115.177 64.2775 115.177C50.7789 115.177 37.8331 109.815 28.2882 100.271C18.7432 90.7271 13.3809 77.7824 13.3809 64.285ZM64.2775 5.51704e-07C54.2762 0.00202011 44.4133 2.33717 35.473 6.81977C26.5327 11.3024 18.7615 17.8088 12.7775 25.8217C6.79346 33.8346 2.76155 43.133 1.00237 52.9775C-0.75682 62.8221 -0.194771 72.9412 2.64382 82.5304C5.48242 92.1196 10.5193 100.914 17.3539 108.215C24.1885 115.516 32.6324 121.122 42.0141 124.588C51.3959 128.053 61.4568 129.281 71.3968 128.176C81.3369 127.071 90.8819 123.662 99.273 118.22L127.132 146.077C129.644 148.589 133.052 150 136.604 150C140.157 150 143.564 148.589 146.077 146.077C148.589 143.565 150 140.158 150 136.606C150 133.053 148.589 129.646 146.077 127.134L118.217 99.2774C124.515 89.5729 128.077 78.3489 128.528 66.7891C128.978 55.2293 126.301 43.7621 120.778 33.5968C115.255 23.4315 107.091 14.9449 97.1468 9.03183C87.2027 3.11878 75.8471 -0.00151484 64.2775 5.51704e-07Z" fill="white"/>
<path d="M64.4529 27.832C59.6437 27.832 54.8817 28.8028 50.4386 30.6889C45.9955 32.5749 41.9584 35.3394 38.5579 38.8244C31.6901 45.8627 27.8318 55.4087 27.8318 65.3623C27.8318 81.9507 38.342 96.0246 52.8806 101.016C54.7117 101.316 55.2976 100.153 55.2976 99.1396V92.797C45.1536 95.0488 42.9929 87.7679 42.9929 87.7679C41.3083 83.4144 38.928 82.2509 38.928 82.2509C35.5955 79.9241 39.1843 79.9991 39.1843 79.9991C42.8464 80.2618 44.7874 83.8647 44.7874 83.8647C47.9734 89.5693 53.3567 87.8805 55.4441 86.9798C55.7737 84.5403 56.7258 82.889 57.7512 81.9507C49.6213 81.0124 41.0886 77.7848 41.0886 63.4858C41.0886 59.3199 42.4802 55.9797 44.8606 53.3151C44.4944 52.3768 43.2126 48.4737 45.2268 43.4071C45.2268 43.4071 48.303 42.3938 55.2976 47.2352C58.1907 46.4095 61.3401 45.9967 64.4529 45.9967C67.5657 45.9967 70.7151 46.4095 73.6082 47.2352C80.6028 42.3938 83.679 43.4071 83.679 43.4071C85.6931 48.4737 84.4114 52.3768 84.0452 53.3151C86.4255 55.9797 87.8171 59.3199 87.8171 63.4858C87.8171 77.8224 79.2478 80.9749 71.0813 81.9132C72.3997 83.0766 73.6082 85.366 73.6082 88.8563V99.1396C73.6082 100.153 74.1941 101.354 76.0618 101.016C90.6003 95.987 101.074 81.9507 101.074 65.3623C101.074 60.4338 100.127 55.5535 98.2864 51.0001C96.446 46.4467 93.7485 42.3094 90.3479 38.8244C86.9473 35.3394 82.9102 32.5749 78.4672 30.6889C74.0241 28.8028 69.262 27.832 64.4529 27.832Z" fill="white"/>
</svg>
