<svg width="150" height="150" viewBox="0 0 150 150" fill="none" xmlns="http://www.w3.org/2000/svg">
<rect width="150" height="150" rx="75" fill="#1E3932"/>
<rect x="25" y="25" width="100" height="100" rx="50" fill="white"/>
<path d="M57.5 50H95C96.3261 50 97.5979 50.5853 98.5355 51.6272C99.4732 52.6691 100 54.0821 100 55.5556V63.8889C100 65.3623 99.4732 66.7754 98.5355 67.8173C97.5979 68.8591 96.3261 69.4444 95 69.4444H90V77.7778C90 80.7246 88.9464 83.5508 87.0711 85.6345C85.1957 87.7183 82.6522 88.8889 80 88.8889H65C62.3478 88.8889 59.8043 87.7183 57.9289 85.6345C56.0536 83.5508 55 80.7246 55 77.7778V52.7778C55 52.0411 55.2634 51.3345 55.7322 50.8136C56.2011 50.2927 56.837 50 57.5 50ZM90 55.5556V63.8889H95V55.5556H90ZM50 94.4444H95V100H50V94.4444Z" fill="#1E3932"/>
</svg>
