<svg width="128" height="128" viewBox="0 0 128 128" fill="none" xmlns="http://www.w3.org/2000/svg">
<rect width="128" height="128" rx="64" fill="#262626"/>
<path d="M26 26V102H102V26H26ZM67.3603 85.2719C67.3603 92.6683 63.0174 96.0449 56.6904 96.0449C50.9741 96.0449 47.6654 93.0944 45.969 89.5143L51.7884 86.002C52.9094 87.9861 53.9273 89.6663 56.3864 89.6663C58.7261 89.6663 60.219 88.7489 60.219 85.1714V60.8949H67.3603V85.2719ZM84.254 96.0449C77.6203 96.0449 73.329 92.8909 71.2417 88.7489L77.0611 85.3913C78.5893 87.8857 80.5897 89.7341 84.102 89.7341C87.0524 89.7341 88.9551 88.2576 88.9551 86.2056C88.9551 83.7627 87.0199 82.8969 83.7464 81.4556L81.9659 80.6929C76.8087 78.5051 73.3996 75.7393 73.3996 69.9199C73.3996 64.5591 77.4873 60.4877 83.8496 60.4877C88.396 60.4877 91.6531 62.0647 93.9956 66.204L88.4313 69.7679C87.2099 67.5801 85.8853 66.7143 83.8333 66.7143C81.7487 66.7143 80.4241 68.0389 80.4241 69.7679C80.4241 71.9067 81.7487 72.7699 84.8186 74.1107L86.5991 74.8734C92.6737 77.4683 96.0829 80.1337 96.0829 86.1024C96.0829 92.5163 91.0234 96.0449 84.254 96.0449Z" fill="#FFE136"/>
</svg>
