<svg width="128" height="128" viewBox="0 0 128 128" fill="none" xmlns="http://www.w3.org/2000/svg">
<rect width="128" height="128" rx="64" fill="#262626"/>
<rect x="20" y="20" width="88" height="88" rx="44" fill="#FFCA28"/>
<path d="M50.6667 74C49.2778 74 48.0978 73.5144 47.1267 72.5433C46.1556 71.5722 45.6689 70.3911 45.6667 69V65.6667H50.6667V69H55.6667V54H60.6667V69C60.6667 70.3889 60.1811 71.57 59.21 72.5433C58.2389 73.5167 57.0578 74.0022 55.6667 74H50.6667ZM69 74C68.0556 74 67.2644 73.68 66.6267 73.04C65.9889 72.4 65.6689 71.6089 65.6667 70.6667V67.3333H70.6667V69H77.3333V65.6667H69C68.0556 65.6667 67.2644 65.3467 66.6267 64.7067C65.9889 64.0667 65.6689 63.2756 65.6667 62.3333V57.3333C65.6667 56.3889 65.9867 55.5978 66.6267 54.96C67.2667 54.3222 68.0578 54.0022 69 54H79C79.9444 54 80.7367 54.32 81.3767 54.96C82.0167 55.6 82.3355 56.3911 82.3333 57.3333V60.6667H77.3333V59H70.6667V62.3333H79C79.9444 62.3333 80.7367 62.6533 81.3767 63.2933C82.0167 63.9333 82.3355 64.7244 82.3333 65.6667V70.6667C82.3333 71.6111 82.0133 72.4033 81.3733 73.0433C80.7333 73.6833 79.9422 74.0022 79 74H69Z" fill="#262626"/>
</svg>
