<svg width="128" height="128" viewBox="0 0 128 128" fill="none" xmlns="http://www.w3.org/2000/svg">
<rect width="128" height="128" rx="64" fill="#262626"/>
<rect x="20" y="20" width="88" height="88" rx="44" fill="#0076B2"/>
<path d="M53.555 50.7795C53.5545 51.7813 53.156 52.742 52.4473 53.45C51.7385 54.1581 50.7774 54.5556 49.7756 54.5551C48.7737 54.5546 47.813 54.1562 47.105 53.4474C46.3969 52.7386 45.9994 51.7775 45.9999 50.7757C46.0004 49.7738 46.3989 48.8132 47.1076 48.1051C47.8164 47.397 48.7775 46.9995 49.7793 47C50.7812 47.0005 51.7419 47.399 52.4499 48.1078C53.158 48.8165 53.5555 49.7776 53.555 50.7795ZM53.6683 57.3524H46.1132V81H53.6683V57.3524ZM65.6055 57.3524H58.0881V81H65.5299V68.5907C65.5299 61.6777 74.5394 61.0356 74.5394 68.5907V81H82.0001V66.0219C82.0001 54.3681 68.6653 54.8026 65.5299 60.5256L65.6055 57.3524Z" fill="#262626"/>
</svg>
