<svg width="128" height="50" viewBox="0 0 128 50" fill="none" xmlns="http://www.w3.org/2000/svg">
<rect width="128" height="50" rx="10" fill="#003753"/>
<path d="M13 16.1954H16.9895V30.2421H24.371V33.8046H13V16.1954ZM26.1316 21.875H29.9596V33.7968H26.1316V21.875ZM28.0456 15.9454C28.4849 15.9454 28.9142 16.0714 29.2795 16.3075C29.6447 16.5436 29.9294 16.8791 30.0975 17.2717C30.2655 17.6642 30.3095 18.0962 30.2238 18.513C30.1381 18.9297 29.9266 19.3125 29.616 19.613C29.3054 19.9134 28.9097 20.1181 28.4789 20.201C28.0481 20.2839 27.6015 20.2413 27.1957 20.0787C26.7899 19.9161 26.443 19.6407 26.199 19.2874C25.955 18.9341 25.8247 18.5187 25.8247 18.0938C25.8247 17.524 26.0587 16.9776 26.4752 16.5747C26.8917 16.1718 27.4566 15.9454 28.0456 15.9454ZM45.9824 16.1954H49.8105V26.7187L54.1553 21.8594H58.8475L53.8242 27.3828L58.7425 33.8046H53.9292L49.8589 27.9062H49.8105V33.8046H45.9824V16.1954ZM32.0836 21.875H35.734V23.5078H35.7824C36.1506 22.8996 36.6821 22.3992 37.3205 22.0594C37.9589 21.7197 38.6804 21.5534 39.4086 21.5782C43.2931 21.5782 44.0038 24.0469 44.0038 27.2578V33.8046H40.2081V28C40.2081 26.6172 40.2081 24.875 38.2133 24.875C36.2185 24.875 35.9116 26.3828 35.9116 27.9375V33.8358H32.0836V21.875Z" fill="white"/>
<path d="M66.9154 26.4453C66.9232 26.1447 66.8677 25.8457 66.7524 25.5665C66.637 25.2873 66.4642 25.0337 66.2444 24.821C66.0246 24.6084 65.7624 24.4412 65.4738 24.3296C65.1851 24.2181 64.8761 24.1644 64.5653 24.1719C63.896 24.1309 63.237 24.3465 62.7307 24.7719C62.2244 25.1974 61.9116 25.7985 61.8599 26.4453H66.9154ZM70.1458 31.7343C69.5069 32.475 68.7062 33.0693 67.8013 33.4746C66.8963 33.8799 65.9098 34.086 64.9126 34.078C61.0846 34.078 58.0157 31.6093 58.0157 27.7734C58.0157 23.9375 61.0846 21.4766 64.9126 21.4766C68.4903 21.4766 70.7354 23.9453 70.7354 27.7734V28.9375H61.8518C61.9573 29.5997 62.3078 30.2023 62.8381 30.6334C63.3684 31.0645 64.0424 31.2947 64.7349 31.2812C65.2804 31.2804 65.8168 31.146 66.2941 30.8906C66.7715 30.6351 67.1741 30.2669 67.4646 29.8203L70.1458 31.7343ZM78.7226 24.75C78.0975 24.7313 77.4808 24.8936 76.9516 25.216C76.4224 25.5384 76.0047 26.0062 75.752 26.5596C75.4993 27.113 75.4231 27.7268 75.5331 28.3224C75.6432 28.9179 75.9345 29.4681 76.3697 29.9026C76.805 30.337 77.3643 30.6359 77.9762 30.761C78.5881 30.886 79.2247 30.8316 79.8044 30.6046C80.3841 30.3776 80.8806 29.9884 81.2303 29.4868C81.58 28.9852 81.7669 28.394 81.7672 27.789C81.8015 27.3876 81.7462 26.9837 81.6051 26.6047C81.464 26.2257 81.2404 25.8804 80.9495 25.5923C80.6585 25.3041 80.3069 25.0798 79.9185 24.9345C79.5301 24.7892 79.114 24.7263 78.6983 24.75M85.3207 33.7968H81.7672V32.2343C81.3233 32.807 80.7496 33.2738 80.0903 33.5988C79.4309 33.9239 78.7034 34.0985 77.9634 34.1093C74.2808 34.1093 71.858 31.539 71.858 27.9062C71.858 24.5703 74.0062 21.5079 77.5112 21.5079C78.2481 21.4452 78.9898 21.5544 79.6742 21.8263C80.3585 22.0981 80.9654 22.5247 81.4442 23.0703H81.4926V16.1954H85.3207V33.7968Z" fill="white"/>
<path d="M113.086 12.5002H91.0627C90.5629 12.496 90.0817 12.6835 89.7245 13.0218C89.3673 13.36 89.1632 13.8213 89.1568 14.3048V35.6952C89.1632 36.1787 89.3673 36.64 89.7245 36.9782C90.0817 37.3165 90.5629 37.504 91.0627 37.4998H113.086C113.334 37.5029 113.581 37.4587 113.811 37.3697C114.042 37.2807 114.252 37.1486 114.429 36.981C114.607 36.8134 114.749 36.6136 114.847 36.393C114.945 36.1724 114.997 35.9353 115 35.6952V14.3048C114.997 14.0647 114.945 13.8276 114.847 13.607C114.749 13.3864 114.607 13.1866 114.429 13.019C114.252 12.8514 114.042 12.7193 113.811 12.6303C113.581 12.5413 113.334 12.4971 113.086 12.5002Z" fill="#0076B2"/>
<path d="M92.9848 21.875H96.8209V33.8046H92.9848V21.875ZM94.8988 15.9454C95.3381 15.9454 95.7674 16.0714 96.1327 16.3075C96.4979 16.5436 96.7826 16.8791 96.9507 17.2717C97.1188 17.6642 97.1627 18.0962 97.077 18.513C96.9913 18.9297 96.7798 19.3125 96.4692 19.613C96.1586 19.9134 95.7629 20.1181 95.3321 20.201C94.9013 20.2839 94.4547 20.2413 94.0489 20.0787C93.6431 19.9161 93.2962 19.6407 93.0522 19.2874C92.8082 18.9341 92.6779 18.5187 92.6779 18.0938C92.6779 17.524 92.9119 16.9776 93.3284 16.5747C93.7449 16.1718 94.3098 15.9454 94.8988 15.9454ZM99.2195 21.875H102.894V23.5078H102.943C103.311 22.8996 103.842 22.3992 104.481 22.0594C105.119 21.7197 105.84 21.5534 106.569 21.5782C110.453 21.5782 111.164 24.0469 111.164 27.2578V33.8046H107.336V28C107.336 26.6172 107.336 24.875 105.341 24.875C103.346 24.875 103.039 26.3828 103.039 27.9375V33.8358H99.2114L99.2195 21.875Z" fill="white"/>
</svg>
