<svg width="250" height="108" viewBox="0 0 250 108" fill="none" xmlns="http://www.w3.org/2000/svg">
<rect width="250" height="108" rx="12.5" fill="#0076B2" fill-opacity="0.2"/>
<path d="M47.0498 49.9999C46.2148 49.9999 45.7227 49.4901 45.7227 48.6112V38.6971C45.7227 37.827 46.2148 37.3173 47.0498 37.3173H51.2422C53.624 37.3173 55.1182 38.5389 55.1182 40.4813C55.1182 41.87 54.0811 43.0302 52.7363 43.2323V43.3026C54.459 43.4344 55.7246 44.6913 55.7246 46.37C55.7246 48.6024 54.0459 49.9999 51.3389 49.9999H47.0498ZM48.377 42.5907H50.2842C51.6992 42.5907 52.5078 41.9667 52.5078 40.8944C52.5078 39.8749 51.7959 39.2948 50.5566 39.2948H48.377V42.5907ZM48.377 48.0223H50.6621C52.1914 48.0223 53.0176 47.3719 53.0176 46.1591C53.0176 44.9725 52.165 44.3397 50.6006 44.3397H48.377V48.0223ZM61.3408 50.202C58.4932 50.202 56.6738 48.3739 56.6738 45.2802C56.6738 42.2303 58.5195 40.3759 61.3408 40.3759C64.1621 40.3759 66.0078 42.2216 66.0078 45.2802C66.0078 48.3827 64.1885 50.202 61.3408 50.202ZM61.3408 48.2421C62.5977 48.2421 63.3975 47.1786 63.3975 45.2889C63.3975 43.4169 62.5889 42.3358 61.3408 42.3358C60.0928 42.3358 59.2754 43.4169 59.2754 45.2889C59.2754 47.1786 60.0752 48.2421 61.3408 48.2421ZM68.0205 47.5917V42.5116H67.5283C66.9219 42.5116 66.5352 42.1425 66.5352 41.5448C66.5352 40.9471 66.9219 40.578 67.5283 40.578H68.0205V39.5321C68.0205 38.7059 68.5039 38.1962 69.3037 38.1962C70.1035 38.1962 70.5869 38.7059 70.5869 39.5321V40.578H71.4922C72.0986 40.578 72.4766 40.9559 72.4766 41.5448C72.4766 42.1337 72.0986 42.5116 71.4922 42.5116H70.5869V47.0204C70.5869 47.6884 70.8154 47.9696 71.3691 48.0135L71.5361 48.0311C72.1689 48.1014 72.5117 48.3651 72.5117 48.9628C72.5117 49.7186 71.7734 50.1053 70.6924 50.1053H70.6045C68.8906 50.1053 68.0205 49.2528 68.0205 47.5917ZM75.4824 39.3915C75.0781 39.3915 74.8057 39.1102 74.8057 38.6884C74.8057 37.5546 75.6318 36.7635 76.6953 36.7635C77.9434 36.7635 78.374 37.9501 79.0244 37.9501C79.3057 37.9501 79.4814 37.7743 79.5781 37.2997C79.6748 36.8866 79.8682 36.6669 80.2725 36.6669C80.6768 36.6669 80.958 36.9481 80.958 37.3612C80.958 38.4774 80.123 39.2948 79.0859 39.2948C77.8643 39.2948 77.416 38.0995 76.7568 38.0995C76.458 38.0995 76.2734 38.2753 76.1768 38.7762C76.0889 39.163 75.8867 39.3915 75.4824 39.3915ZM76.4668 50.1493C74.6738 50.1493 73.3115 48.9891 73.3115 47.2928C73.3115 45.579 74.6299 44.5858 76.9854 44.4452L79.3584 44.3046V43.6805C79.3584 42.8016 78.7432 42.2919 77.7764 42.2919C76.9941 42.2919 76.5195 42.5468 75.9482 43.285C75.667 43.6014 75.3418 43.7596 74.9287 43.7596C74.3047 43.7596 73.8564 43.3553 73.8564 42.7753C73.8564 42.5731 73.9004 42.3885 73.9883 42.1952C74.4277 41.0702 75.9395 40.3759 77.8906 40.3759C80.3076 40.3759 81.8809 41.6239 81.8809 43.5223V48.8925C81.8809 49.745 81.3623 50.1844 80.6328 50.1844C79.9385 50.1844 79.4551 49.7977 79.4023 49.0419V48.5585H79.3496C78.8223 49.5604 77.6445 50.1493 76.4668 50.1493ZM77.3105 48.2948C78.4355 48.2948 79.3584 47.5653 79.3584 46.5458V45.8602L77.3721 45.9833C76.4141 46.0536 75.8691 46.4843 75.8691 47.1522C75.8691 47.8553 76.4492 48.2948 77.3105 48.2948ZM87.8662 50.202C85.0186 50.202 83.1992 48.3739 83.1992 45.2802C83.1992 42.2303 85.0449 40.3759 87.8662 40.3759C90.6875 40.3759 92.5332 42.2216 92.5332 45.2802C92.5332 48.3827 90.7139 50.202 87.8662 50.202ZM87.8662 48.2421C89.123 48.2421 89.9229 47.1786 89.9229 45.2889C89.9229 43.4169 89.1143 42.3358 87.8662 42.3358C86.6182 42.3358 85.8008 43.4169 85.8008 45.2889C85.8008 47.1786 86.6006 48.2421 87.8662 48.2421ZM98.7119 53.3573C97.9648 53.3573 97.4287 52.9003 97.4287 52.0214V41.703C97.4287 40.8417 97.9561 40.3846 98.6943 40.3846C99.4326 40.3846 99.96 40.8417 99.96 41.7118V42.2216H100.013C100.522 41.1141 101.568 40.4286 102.931 40.4286C105.321 40.4286 106.789 42.2479 106.789 45.2889C106.789 48.3212 105.33 50.1493 102.975 50.1493C101.604 50.1493 100.549 49.4813 100.048 48.4178H99.9951V52.0214C99.9951 52.9003 99.4678 53.3573 98.7119 53.3573ZM102.069 48.0839C103.353 48.0839 104.161 47.0028 104.161 45.2889C104.161 43.5839 103.353 42.4852 102.069 42.4852C100.812 42.4852 99.9863 43.6014 99.9863 45.2889C99.9863 46.994 100.812 48.0839 102.069 48.0839ZM110.902 50.1493C109.109 50.1493 107.747 48.9891 107.747 47.2928C107.747 45.579 109.065 44.5858 111.421 44.4452L113.794 44.3046V43.6805C113.794 42.8016 113.179 42.2919 112.212 42.2919C111.43 42.2919 110.955 42.5468 110.384 43.285C110.103 43.6014 109.777 43.7596 109.364 43.7596C108.74 43.7596 108.292 43.3553 108.292 42.7753C108.292 42.5731 108.336 42.3885 108.424 42.1952C108.863 41.0702 110.375 40.3759 112.326 40.3759C114.743 40.3759 116.316 41.6239 116.316 43.5223V48.8925C116.316 49.745 115.798 50.1844 115.068 50.1844C114.374 50.1844 113.891 49.7977 113.838 49.0419V48.5585H113.785C113.258 49.5604 112.08 50.1493 110.902 50.1493ZM111.746 48.2948C112.871 48.2948 113.794 47.5653 113.794 46.5458V45.8602L111.808 45.9833C110.85 46.0536 110.305 46.4843 110.305 47.1522C110.305 47.8553 110.885 48.2948 111.746 48.2948ZM119.261 50.1844C118.487 50.1844 117.978 49.701 117.978 48.8485V41.6766C117.978 40.8593 118.479 40.3846 119.217 40.3846C119.938 40.3846 120.43 40.8593 120.43 41.6766V42.2919H120.482C120.729 41.1229 121.502 40.4286 122.442 40.4286C122.785 40.4286 123.058 40.5077 123.242 40.6659C123.488 40.8593 123.611 41.1757 123.611 41.6151C123.611 42.0194 123.488 42.327 123.242 42.538C122.996 42.7489 122.627 42.8632 122.126 42.8719C120.957 42.8895 120.544 43.5487 120.544 44.6649V48.8485C120.544 49.701 120.043 50.1844 119.261 50.1844ZM127.092 50.1493C125.299 50.1493 123.937 48.9891 123.937 47.2928C123.937 45.579 125.255 44.5858 127.61 44.4452L129.983 44.3046V43.6805C129.983 42.8016 129.368 42.2919 128.401 42.2919C127.619 42.2919 127.145 42.5468 126.573 43.285C126.292 43.6014 125.967 43.7596 125.554 43.7596C124.93 43.7596 124.481 43.3553 124.481 42.7753C124.481 42.5731 124.525 42.3885 124.613 42.1952C125.053 41.0702 126.564 40.3759 128.516 40.3759C130.933 40.3759 132.506 41.6239 132.506 43.5223V48.8925C132.506 49.745 131.987 50.1844 131.258 50.1844C130.563 50.1844 130.08 49.7977 130.027 49.0419V48.5585H129.975C129.447 49.5604 128.27 50.1493 127.092 50.1493ZM127.936 48.2948C129.061 48.2948 129.983 47.5653 129.983 46.5458V45.8602L127.997 45.9833C127.039 46.0536 126.494 46.4843 126.494 47.1522C126.494 47.8553 127.074 48.2948 127.936 48.2948ZM33.6113 71.1493C31.8184 71.1493 30.4561 69.9891 30.4561 68.2928C30.4561 66.579 31.7744 65.5858 34.1299 65.4452L36.5029 65.3046V64.6805C36.5029 63.8016 35.8877 63.2919 34.9209 63.2919C34.1387 63.2919 33.6641 63.5468 33.0928 64.285C32.8115 64.6014 32.4863 64.7596 32.0732 64.7596C31.4492 64.7596 31.001 64.3553 31.001 63.7753C31.001 63.5731 31.0449 63.3885 31.1328 63.1952C31.5723 62.0702 33.084 61.3759 35.0352 61.3759C37.4521 61.3759 39.0254 62.6239 39.0254 64.5223V69.8925C39.0254 70.745 38.5068 71.1844 37.7773 71.1844C37.083 71.1844 36.5996 70.7977 36.5469 70.0419V69.5585H36.4941C35.9668 70.5604 34.7891 71.1493 33.6113 71.1493ZM34.4551 69.2948C35.5801 69.2948 36.5029 68.5653 36.5029 67.5458V66.8602L34.5166 66.9833C33.5586 67.0536 33.0137 67.4843 33.0137 68.1522C33.0137 68.8553 33.5938 69.2948 34.4551 69.2948ZM44.9844 71.202C42.1455 71.202 40.3438 69.3387 40.3438 66.2889C40.3438 63.2743 42.1367 61.3759 44.9668 61.3759C46.8564 61.3759 48.4297 62.2899 48.9395 63.6259C49.0273 63.8456 49.0801 64.0741 49.0801 64.2587C49.0801 64.8915 48.5879 65.2606 47.9814 65.2606C47.4717 65.2606 47.1641 65.0585 46.9004 64.5927C46.4346 63.7665 45.8633 63.3885 45.0459 63.3885C43.7451 63.3885 42.9453 64.4608 42.9453 66.2802C42.9453 68.1346 43.7451 69.1893 45.0283 69.1893C45.9248 69.1893 46.4785 68.7499 46.874 68.0819C47.2168 67.5458 47.498 67.326 48.043 67.326C48.6406 67.326 49.124 67.7216 49.124 68.3544C49.124 68.5565 49.0713 68.7675 48.957 69.0223C48.3945 70.3055 46.7861 71.202 44.9844 71.202ZM54.8281 71.202C51.8838 71.202 50.1523 69.3827 50.1523 66.3329C50.1523 63.3007 51.9189 61.3759 54.7051 61.3759C57.377 61.3759 59.1699 63.204 59.1699 65.7616C59.1699 66.4735 58.7656 66.8778 58.0537 66.8778H52.6748V66.9921C52.6748 68.3895 53.5186 69.3036 54.8193 69.3036C55.7598 69.3036 56.375 68.9872 57.0693 68.1698C57.3418 67.8885 57.5703 67.7919 57.9043 67.7919C58.458 67.7919 58.9062 68.1434 58.9062 68.7323C58.9062 68.9344 58.8447 69.1454 58.7305 69.3563C58.1064 70.5165 56.6475 71.202 54.8281 71.202ZM52.7012 65.3046H56.7002C56.6475 64.0741 55.8564 63.2743 54.7314 63.2743C53.6064 63.2743 52.7891 64.1005 52.7012 65.3046ZM64.3379 71.202C62.1758 71.202 60.7344 70.4286 60.2861 69.3212C60.2246 69.1542 60.1895 68.9872 60.1895 68.8466C60.1895 68.2577 60.6289 67.8622 61.2266 67.8622C61.6396 67.8622 61.9912 68.0468 62.3428 68.4423C62.8438 69.1014 63.4238 69.4003 64.3994 69.4003C65.3311 69.4003 65.9375 69.0135 65.9375 68.3895C65.9375 67.8798 65.6123 67.6073 64.6895 67.4052L63.1074 67.0712C61.2617 66.6757 60.3301 65.7352 60.3301 64.3378C60.3301 62.536 61.8857 61.3759 64.3291 61.3759C66.2803 61.3759 67.7129 62.2635 68.0205 63.327C68.0557 63.4589 68.082 63.5819 68.082 63.705C68.082 64.2235 67.7568 64.5839 67.0977 64.5839C66.7637 64.5839 66.3945 64.4608 66.166 64.1884C65.7178 63.6171 65.208 63.1776 64.2852 63.1776C63.415 63.1776 62.8086 63.5907 62.8086 64.1971C62.8086 64.6893 63.1777 65.0145 64.1182 65.2167L65.6738 65.5507C67.6777 65.9725 68.5039 66.7108 68.5039 68.1171C68.5039 69.9891 66.8252 71.202 64.3379 71.202ZM73.6191 71.202C71.457 71.202 70.0156 70.4286 69.5674 69.3212C69.5059 69.1542 69.4707 68.9872 69.4707 68.8466C69.4707 68.2577 69.9102 67.8622 70.5078 67.8622C70.9209 67.8622 71.2725 68.0468 71.624 68.4423C72.125 69.1014 72.7051 69.4003 73.6807 69.4003C74.6123 69.4003 75.2188 69.0135 75.2188 68.3895C75.2188 67.8798 74.8936 67.6073 73.9707 67.4052L72.3887 67.0712C70.543 66.6757 69.6113 65.7352 69.6113 64.3378C69.6113 62.536 71.167 61.3759 73.6104 61.3759C75.5615 61.3759 76.9941 62.2635 77.3018 63.327C77.3369 63.4589 77.3633 63.5819 77.3633 63.705C77.3633 64.2235 77.0381 64.5839 76.3789 64.5839C76.0449 64.5839 75.6758 64.4608 75.4473 64.1884C74.999 63.6171 74.4893 63.1776 73.5664 63.1776C72.6963 63.1776 72.0898 63.5907 72.0898 64.1971C72.0898 64.6893 72.459 65.0145 73.3994 65.2167L74.9551 65.5507C76.959 65.9725 77.7852 66.7108 77.7852 68.1171C77.7852 69.9891 76.1064 71.202 73.6191 71.202ZM81.8457 71.1493C80.0527 71.1493 78.6904 69.9891 78.6904 68.2928C78.6904 66.579 80.0088 65.5858 82.3643 65.4452L84.7373 65.3046V64.6805C84.7373 63.8016 84.1221 63.2919 83.1553 63.2919C82.373 63.2919 81.8984 63.5468 81.3271 64.285C81.0459 64.6014 80.7207 64.7596 80.3076 64.7596C79.6836 64.7596 79.2354 64.3553 79.2354 63.7753C79.2354 63.5731 79.2793 63.3885 79.3672 63.1952C79.8066 62.0702 81.3184 61.3759 83.2695 61.3759C85.6865 61.3759 87.2598 62.6239 87.2598 64.5223V69.8925C87.2598 70.745 86.7412 71.1844 86.0117 71.1844C85.3174 71.1844 84.834 70.7977 84.7812 70.0419V69.5585H84.7285C84.2012 70.5604 83.0234 71.1493 81.8457 71.1493ZM82.6895 69.2948C83.8145 69.2948 84.7373 68.5653 84.7373 67.5458V66.8602L82.751 66.9833C81.793 67.0536 81.248 67.4843 81.248 68.1522C81.248 68.8553 81.8281 69.2948 82.6895 69.2948ZM90.2041 71.1844C89.4307 71.1844 88.9209 70.701 88.9209 69.8485V62.6766C88.9209 61.8593 89.4219 61.3846 90.1602 61.3846C90.8809 61.3846 91.373 61.8593 91.373 62.6766V63.2919H91.4258C91.6719 62.1229 92.4453 61.4286 93.3857 61.4286C93.7285 61.4286 94.001 61.5077 94.1855 61.6659C94.4316 61.8593 94.5547 62.1757 94.5547 62.6151C94.5547 63.0194 94.4316 63.327 94.1855 63.538C93.9395 63.7489 93.5703 63.8632 93.0693 63.8719C91.9004 63.8895 91.4873 64.5487 91.4873 65.6649V69.8485C91.4873 70.701 90.9863 71.1844 90.2041 71.1844ZM103.37 71.202C100.522 71.202 98.7031 69.3739 98.7031 66.2802C98.7031 63.2303 100.549 61.3759 103.37 61.3759C106.191 61.3759 108.037 63.2216 108.037 66.2802C108.037 69.3827 106.218 71.202 103.37 71.202ZM103.37 69.2421C104.627 69.2421 105.427 68.1786 105.427 66.2889C105.427 64.4169 104.618 63.3358 103.37 63.3358C102.122 63.3358 101.305 64.4169 101.305 66.2889C101.305 68.1786 102.104 69.2421 103.37 69.2421ZM114.216 71.1844C113.451 71.1844 112.933 70.7186 112.933 69.8485V62.6942C112.933 61.8329 113.442 61.3846 114.172 61.3846C114.901 61.3846 115.411 61.8329 115.411 62.6942V63.2831H115.464C115.859 62.1493 116.87 61.4022 118.153 61.4022C119.516 61.4022 120.465 62.1053 120.781 63.3358H120.834C121.256 62.1493 122.381 61.4022 123.761 61.4022C125.606 61.4022 126.846 62.6678 126.846 64.5663V69.8485C126.846 70.7186 126.318 71.1844 125.554 71.1844C124.798 71.1844 124.279 70.7186 124.279 69.8485V65.2079C124.279 64.118 123.734 63.5204 122.741 63.5204C121.766 63.5204 121.124 64.2323 121.124 65.2782V69.8485C121.124 70.7186 120.649 71.1844 119.885 71.1844C119.129 71.1844 118.654 70.7186 118.654 69.8485V65.1288C118.654 64.118 118.083 63.5204 117.134 63.5204C116.158 63.5204 115.499 64.2587 115.499 65.3134V69.8485C115.499 70.7186 114.972 71.1844 114.216 71.1844ZM132.805 71.202C129.86 71.202 128.129 69.3827 128.129 66.3329C128.129 63.3007 129.896 61.3759 132.682 61.3759C135.354 61.3759 137.146 63.204 137.146 65.7616C137.146 66.4735 136.742 66.8778 136.03 66.8778H130.651V66.9921C130.651 68.3895 131.495 69.3036 132.796 69.3036C133.736 69.3036 134.352 68.9872 135.046 68.1698C135.318 67.8885 135.547 67.7919 135.881 67.7919C136.435 67.7919 136.883 68.1434 136.883 68.7323C136.883 68.9344 136.821 69.1454 136.707 69.3563C136.083 70.5165 134.624 71.202 132.805 71.202ZM130.678 65.3046H134.677C134.624 64.0741 133.833 63.2743 132.708 63.2743C131.583 63.2743 130.766 64.1005 130.678 65.3046ZM141.822 71.1757C139.783 71.1757 138.43 69.8485 138.43 67.6512V62.7294C138.43 61.8505 138.966 61.3846 139.713 61.3846C140.469 61.3846 140.996 61.8505 140.996 62.7294V67.1151C140.996 68.3719 141.62 69.0399 142.754 69.0399C143.896 69.0399 144.608 68.2225 144.608 66.9745V62.7294C144.608 61.8505 145.145 61.3846 145.892 61.3846C146.647 61.3846 147.175 61.8505 147.175 62.7294V69.8837C147.175 70.7362 146.674 71.1844 145.936 71.1844C145.197 71.1844 144.696 70.7362 144.696 69.8837V69.3036H144.644C144.178 70.4901 143.246 71.1757 141.822 71.1757Z" fill="#0076B2"/>
<path d="M181.176 25.0022C181.175 26.3282 180.648 27.5996 179.71 28.5368C178.772 29.474 177.5 30.0001 176.174 29.9994C174.848 29.9987 173.576 29.4714 172.639 28.5333C171.702 27.5952 171.176 26.3232 171.176 24.9972C171.177 23.6712 171.704 22.3998 172.643 21.4626C173.581 20.5255 174.853 19.9993 176.179 20C177.505 20.0007 178.776 20.5281 179.713 21.4661C180.65 22.4042 181.176 23.6762 181.176 25.0022ZM181.326 33.7017H171.326V64.9998H181.326V33.7017ZM197.125 33.7017H187.175V64.9998H197.025V48.5758C197.025 39.4264 208.949 38.5764 208.949 48.5758V64.9998H218.824V45.176C218.824 29.7519 201.175 30.3269 197.025 37.9014L197.125 33.7017Z" fill="#0076B2"/>
<path d="M162.814 87.9999C161.979 87.9999 161.487 87.4901 161.487 86.6112V76.5302C161.487 75.6512 161.979 75.1415 162.814 75.1415C163.649 75.1415 164.142 75.6512 164.142 76.5302V85.8026H168.642C169.362 85.8026 169.846 86.2157 169.846 86.9012C169.846 87.5868 169.371 87.9999 168.642 87.9999H162.814ZM172.368 77.4091C171.595 77.4091 170.997 76.8202 170.997 76.0819C170.997 75.3348 171.595 74.7548 172.368 74.7548C173.142 74.7548 173.739 75.3348 173.739 76.0819C173.739 76.8202 173.142 77.4091 172.368 77.4091ZM172.368 88.1844C171.568 88.1844 171.085 87.6835 171.085 86.8485V79.7294C171.085 78.8944 171.568 78.3846 172.368 78.3846C173.159 78.3846 173.651 78.8944 173.651 79.7294V86.8485C173.651 87.6835 173.159 88.1844 172.368 88.1844ZM176.648 88.1844C175.901 88.1844 175.365 87.7274 175.365 86.8485V79.6766C175.365 78.8768 175.831 78.3846 176.604 78.3846C177.378 78.3846 177.888 78.8768 177.888 79.6854V80.2128H177.94C178.441 79.0438 179.391 78.4022 180.841 78.4022C182.933 78.4022 184.11 79.7206 184.11 81.9266V86.8485C184.11 87.7274 183.574 88.1844 182.827 88.1844C182.071 88.1844 181.544 87.7274 181.544 86.8485V82.4628C181.544 81.2323 180.964 80.5292 179.812 80.5292C178.661 80.5292 177.932 81.3729 177.932 82.5946V86.8485C177.932 87.7274 177.404 88.1844 176.648 88.1844ZM187.081 88.1844C186.334 88.1844 185.798 87.7274 185.798 86.8485V76.4686C185.798 75.5897 186.334 75.1239 187.081 75.1239C187.837 75.1239 188.364 75.5897 188.364 76.4686V82.3134H188.399L191.81 78.8944C192.152 78.5341 192.442 78.3846 192.829 78.3846C193.488 78.3846 193.972 78.868 193.972 79.5009C193.972 79.8876 193.857 80.1249 193.488 80.4677L191.089 82.7352L193.717 86.0839C193.998 86.4618 194.077 86.6903 194.077 87.0243C194.077 87.7098 193.576 88.1844 192.855 88.1844C192.311 88.1844 192.003 87.9911 191.599 87.3846L189.182 84.1854L188.364 84.9413V86.8485C188.364 87.7274 187.837 88.1844 187.081 88.1844ZM199.315 88.202C196.371 88.202 194.64 86.3827 194.64 83.3329C194.64 80.3007 196.406 78.3759 199.192 78.3759C201.864 78.3759 203.657 80.204 203.657 82.7616C203.657 83.4735 203.253 83.8778 202.541 83.8778H197.162V83.9921C197.162 85.3895 198.006 86.3036 199.307 86.3036C200.247 86.3036 200.862 85.9872 201.557 85.1698C201.829 84.8885 202.058 84.7919 202.392 84.7919C202.945 84.7919 203.394 85.1434 203.394 85.7323C203.394 85.9344 203.332 86.1454 203.218 86.3563C202.594 87.5165 201.135 88.202 199.315 88.202ZM197.188 82.3046H201.188C201.135 81.0741 200.344 80.2743 199.219 80.2743C198.094 80.2743 197.276 81.1005 197.188 82.3046ZM208.482 88.1493C206.127 88.1493 204.642 86.286 204.642 83.2714C204.642 80.2831 206.136 78.4286 208.5 78.4286C209.862 78.4286 210.917 79.1493 211.374 80.1952H211.427V76.4686C211.427 75.5897 211.963 75.1239 212.71 75.1239C213.466 75.1239 213.993 75.5897 213.993 76.4686V86.8837C213.993 87.7362 213.466 88.1844 212.719 88.1844C211.98 88.1844 211.427 87.745 211.427 86.8837V86.3387H211.383C210.97 87.3934 209.933 88.1493 208.482 88.1493ZM209.353 86.0839C210.627 86.0839 211.444 85.0116 211.444 83.2889C211.444 81.5751 210.627 80.4852 209.353 80.4852C208.061 80.4852 207.27 81.5663 207.27 83.2889C207.27 85.0204 208.061 86.0839 209.353 86.0839ZM217.034 77.4091C216.261 77.4091 215.663 76.8202 215.663 76.0819C215.663 75.3348 216.261 74.7548 217.034 74.7548C217.808 74.7548 218.405 75.3348 218.405 76.0819C218.405 76.8202 217.808 77.4091 217.034 77.4091ZM217.034 88.1844C216.234 88.1844 215.751 87.6835 215.751 86.8485V79.7294C215.751 78.8944 216.234 78.3846 217.034 78.3846C217.825 78.3846 218.317 78.8944 218.317 79.7294V86.8485C218.317 87.6835 217.825 88.1844 217.034 88.1844ZM221.314 88.1844C220.567 88.1844 220.031 87.7274 220.031 86.8485V79.6766C220.031 78.8768 220.497 78.3846 221.271 78.3846C222.044 78.3846 222.554 78.8768 222.554 79.6854V80.2128H222.606C223.107 79.0438 224.057 78.4022 225.507 78.4022C227.599 78.4022 228.776 79.7206 228.776 81.9266V86.8485C228.776 87.7274 228.24 88.1844 227.493 88.1844C226.737 88.1844 226.21 87.7274 226.21 86.8485V82.4628C226.21 81.2323 225.63 80.5292 224.479 80.5292C223.327 80.5292 222.598 81.3729 222.598 82.5946V86.8485C222.598 87.7274 222.07 88.1844 221.314 88.1844Z" fill="#0076B2"/>
</svg>
