<svg width="100" height="100" viewBox="0 0 100 100" fill="none" xmlns="http://www.w3.org/2000/svg">
<rect width="100" height="100" rx="12.5" fill="#0076B2" fill-opacity="0.2"/>
<path d="M36.1757 21.0022C36.175 22.3282 35.6476 23.5996 34.7095 24.5368C33.7714 25.474 32.4995 26.0001 31.1735 25.9994C29.8475 25.9987 28.576 25.4714 27.6389 24.5333C26.7017 23.5952 26.1756 22.3232 26.1763 20.9972C26.1769 19.6712 26.7043 18.3998 27.6424 17.4626C28.5805 16.5255 29.8525 15.9993 31.1785 16C32.5045 16.0007 33.7759 16.5281 34.7131 17.4661C35.6502 18.4042 36.1763 19.6762 36.1757 21.0022ZM36.3257 29.7017H26.3263V60.9998H36.3257V29.7017ZM52.1247 29.7017H42.1753V60.9998H52.0247V44.5758C52.0247 35.4264 63.949 34.5764 63.949 44.5758V60.9998H73.8234V41.176C73.8234 25.7519 56.1745 26.3269 52.0247 33.9014L52.1247 29.7017Z" fill="#0076B2"/>
<path d="M17.8145 83.9999C16.9795 83.9999 16.4873 83.4901 16.4873 82.6112V72.5302C16.4873 71.6512 16.9795 71.1415 17.8145 71.1415C18.6494 71.1415 19.1416 71.6512 19.1416 72.5302V81.8026H23.6416C24.3623 81.8026 24.8457 82.2157 24.8457 82.9012C24.8457 83.5868 24.3711 83.9999 23.6416 83.9999H17.8145ZM27.3682 73.4091C26.5947 73.4091 25.9971 72.8202 25.9971 72.0819C25.9971 71.3348 26.5947 70.7548 27.3682 70.7548C28.1416 70.7548 28.7393 71.3348 28.7393 72.0819C28.7393 72.8202 28.1416 73.4091 27.3682 73.4091ZM27.3682 84.1844C26.5684 84.1844 26.085 83.6835 26.085 82.8485V75.7294C26.085 74.8944 26.5684 74.3846 27.3682 74.3846C28.1592 74.3846 28.6514 74.8944 28.6514 75.7294V82.8485C28.6514 83.6835 28.1592 84.1844 27.3682 84.1844ZM31.6484 84.1844C30.9014 84.1844 30.3652 83.7274 30.3652 82.8485V75.6766C30.3652 74.8768 30.8311 74.3846 31.6045 74.3846C32.3779 74.3846 32.8877 74.8768 32.8877 75.6854V76.2128H32.9404C33.4414 75.0438 34.3906 74.4022 35.8408 74.4022C37.9326 74.4022 39.1104 75.7206 39.1104 77.9266V82.8485C39.1104 83.7274 38.5742 84.1844 37.8271 84.1844C37.0713 84.1844 36.5439 83.7274 36.5439 82.8485V78.4628C36.5439 77.2323 35.9639 76.5292 34.8125 76.5292C33.6611 76.5292 32.9316 77.3729 32.9316 78.5946V82.8485C32.9316 83.7274 32.4043 84.1844 31.6484 84.1844ZM42.0811 84.1844C41.334 84.1844 40.7979 83.7274 40.7979 82.8485V72.4686C40.7979 71.5897 41.334 71.1239 42.0811 71.1239C42.8369 71.1239 43.3643 71.5897 43.3643 72.4686V78.3134H43.3994L46.8096 74.8944C47.1523 74.5341 47.4424 74.3846 47.8291 74.3846C48.4883 74.3846 48.9717 74.868 48.9717 75.5009C48.9717 75.8876 48.8574 76.1249 48.4883 76.4677L46.0889 78.7352L48.7168 82.0839C48.998 82.4618 49.0771 82.6903 49.0771 83.0243C49.0771 83.7098 48.5762 84.1844 47.8555 84.1844C47.3105 84.1844 47.0029 83.9911 46.5986 83.3846L44.1816 80.1854L43.3643 80.9413V82.8485C43.3643 83.7274 42.8369 84.1844 42.0811 84.1844ZM54.3154 84.202C51.3711 84.202 49.6396 82.3827 49.6396 79.3329C49.6396 76.3007 51.4062 74.3759 54.1924 74.3759C56.8643 74.3759 58.6572 76.204 58.6572 78.7616C58.6572 79.4735 58.2529 79.8778 57.541 79.8778H52.1621V79.9921C52.1621 81.3895 53.0059 82.3036 54.3066 82.3036C55.2471 82.3036 55.8623 81.9872 56.5566 81.1698C56.8291 80.8885 57.0576 80.7919 57.3916 80.7919C57.9453 80.7919 58.3936 81.1434 58.3936 81.7323C58.3936 81.9344 58.332 82.1454 58.2178 82.3563C57.5938 83.5165 56.1348 84.202 54.3154 84.202ZM52.1885 78.3046H56.1875C56.1348 77.0741 55.3438 76.2743 54.2188 76.2743C53.0938 76.2743 52.2764 77.1005 52.1885 78.3046ZM63.4824 84.1493C61.127 84.1493 59.6416 82.286 59.6416 79.2714C59.6416 76.2831 61.1357 74.4286 63.5 74.4286C64.8623 74.4286 65.917 75.1493 66.374 76.1952H66.4268V72.4686C66.4268 71.5897 66.9629 71.1239 67.71 71.1239C68.4658 71.1239 68.9932 71.5897 68.9932 72.4686V82.8837C68.9932 83.7362 68.4658 84.1844 67.7188 84.1844C66.9805 84.1844 66.4268 83.745 66.4268 82.8837V82.3387H66.3828C65.9697 83.3934 64.9326 84.1493 63.4824 84.1493ZM64.3525 82.0839C65.627 82.0839 66.4443 81.0116 66.4443 79.2889C66.4443 77.5751 65.627 76.4852 64.3525 76.4852C63.0605 76.4852 62.2695 77.5663 62.2695 79.2889C62.2695 81.0204 63.0605 82.0839 64.3525 82.0839ZM72.0342 73.4091C71.2607 73.4091 70.6631 72.8202 70.6631 72.0819C70.6631 71.3348 71.2607 70.7548 72.0342 70.7548C72.8076 70.7548 73.4053 71.3348 73.4053 72.0819C73.4053 72.8202 72.8076 73.4091 72.0342 73.4091ZM72.0342 84.1844C71.2344 84.1844 70.751 83.6835 70.751 82.8485V75.7294C70.751 74.8944 71.2344 74.3846 72.0342 74.3846C72.8252 74.3846 73.3174 74.8944 73.3174 75.7294V82.8485C73.3174 83.6835 72.8252 84.1844 72.0342 84.1844ZM76.3145 84.1844C75.5674 84.1844 75.0312 83.7274 75.0312 82.8485V75.6766C75.0312 74.8768 75.4971 74.3846 76.2705 74.3846C77.0439 74.3846 77.5537 74.8768 77.5537 75.6854V76.2128H77.6064C78.1074 75.0438 79.0566 74.4022 80.5068 74.4022C82.5986 74.4022 83.7764 75.7206 83.7764 77.9266V82.8485C83.7764 83.7274 83.2402 84.1844 82.4932 84.1844C81.7373 84.1844 81.21 83.7274 81.21 82.8485V78.4628C81.21 77.2323 80.6299 76.5292 79.4785 76.5292C78.3271 76.5292 77.5977 77.3729 77.5977 78.5946V82.8485C77.5977 83.7274 77.0703 84.1844 76.3145 84.1844Z" fill="#0076B2"/>
</svg>
