<svg width="276" height="98" viewBox="0 0 276 98" fill="none" xmlns="http://www.w3.org/2000/svg">
<rect width="276" height="98" rx="20" fill="#0076B2" fill-opacity="0.2"/>
<path d="M32.5312 44C31.9941 44 31.6523 43.6484 31.6523 43.0918V30.8164C31.6523 30.2598 31.9941 29.9082 32.5312 29.9082H36.9941C39.4062 29.9082 41.0371 31.3145 41.0371 33.4238C41.0371 34.8887 39.9629 36.2559 38.6055 36.5V36.5781C40.5195 36.8223 41.75 38.1699 41.75 40.0449C41.75 42.5254 39.9727 44 36.9746 44H32.5312ZM33.4102 35.9824H36.0469C38.127 35.9824 39.2598 35.1523 39.2598 33.6289C39.2598 32.2324 38.3027 31.4609 36.5938 31.4609H33.4102V35.9824ZM33.4102 42.4473H36.7109C38.8301 42.4473 39.9434 41.5879 39.9434 39.957C39.9434 38.3262 38.791 37.4961 36.5449 37.4961H33.4102V42.4473ZM47.6875 44.1758C44.875 44.1758 42.9805 42.1543 42.9805 38.9219C42.9805 35.6797 44.875 33.668 47.6875 33.668C50.4902 33.668 52.3848 35.6797 52.3848 38.9219C52.3848 42.1543 50.4902 44.1758 47.6875 44.1758ZM47.6875 42.6816C49.4844 42.6816 50.6562 41.3145 50.6562 38.9219C50.6562 36.5293 49.4844 35.1621 47.6875 35.1621C45.8906 35.1621 44.709 36.5293 44.709 38.9219C44.709 41.3145 45.8906 42.6816 47.6875 42.6816ZM54.6504 41.6562V35.2402H53.8008C53.3125 35.2402 53.0391 34.9863 53.0391 34.5371C53.0391 34.0977 53.3125 33.8438 53.8008 33.8438H54.6504V32.1055C54.6504 31.5684 55.002 31.1973 55.5 31.1973C55.998 31.1973 56.3496 31.5684 56.3496 32.1055V33.8438H57.6582C58.1465 33.8438 58.4199 34.0977 58.4199 34.5371C58.4199 34.9863 58.1465 35.2402 57.6582 35.2402H56.3496V41.2852C56.3496 42.1445 56.6523 42.5547 57.502 42.6133L57.6484 42.623C58.2051 42.6621 58.459 42.8867 58.459 43.2871C58.459 43.8047 58.166 44.0781 57.2188 44.0781H57.1113C55.4707 44.0781 54.6504 43.2773 54.6504 41.6562ZM61.418 32.4473C61.0664 32.4473 60.8516 32.2129 60.8516 31.8223C60.8516 30.5039 61.6523 29.7129 62.7266 29.7129C64.0742 29.7129 64.5137 31.1973 65.2461 31.1973C65.6074 31.1973 65.8125 30.8945 65.9102 30.2207C65.9688 29.7617 66.1348 29.5664 66.4863 29.5664C66.8281 29.5664 67.0527 29.8105 67.0527 30.1816C67.0527 31.4512 66.2422 32.3008 65.2363 32.3008C63.9473 32.3008 63.459 30.8164 62.7168 30.8164C62.2676 30.8164 62.0723 31.1094 61.9941 31.8516C61.9551 32.252 61.7695 32.4473 61.418 32.4473ZM63 44.1758C60.9785 44.1758 59.6211 42.9551 59.6211 41.1289C59.6211 39.3906 60.959 38.2969 63.3027 38.1602L66.2227 37.9941V37.1445C66.2227 35.9043 65.4023 35.1621 63.9961 35.1621C62.8926 35.1621 62.1406 35.5625 61.5742 36.5684C61.418 36.8516 61.1934 36.9785 60.8711 36.9785C60.4316 36.9785 60.1191 36.6758 60.1191 36.2168C60.1191 36.002 60.1875 35.7578 60.3242 35.5137C60.9004 34.4004 62.3848 33.668 64.0352 33.668C66.418 33.668 67.9219 34.957 67.9219 36.9785V43.3164C67.9219 43.8242 67.5898 44.1758 67.1211 44.1758C66.6426 44.1758 66.3105 43.8242 66.3105 43.3164V42.252H66.2715C65.666 43.4141 64.3672 44.1758 63 44.1758ZM63.3809 42.7305C64.9824 42.7305 66.2227 41.6074 66.2227 40.1426V39.3125L63.498 39.4785C62.1309 39.5664 61.3496 40.1719 61.3496 41.1289C61.3496 42.0957 62.1602 42.7305 63.3809 42.7305ZM74.2891 44.1758C71.4766 44.1758 69.582 42.1543 69.582 38.9219C69.582 35.6797 71.4766 33.668 74.2891 33.668C77.0918 33.668 78.9863 35.6797 78.9863 38.9219C78.9863 42.1543 77.0918 44.1758 74.2891 44.1758ZM74.2891 42.6816C76.0859 42.6816 77.2578 41.3145 77.2578 38.9219C77.2578 36.5293 76.0859 35.1621 74.2891 35.1621C72.4922 35.1621 71.3105 36.5293 71.3105 38.9219C71.3105 41.3145 72.4922 42.6816 74.2891 42.6816ZM85.6562 47.584C85.1582 47.584 84.8066 47.2129 84.8066 46.6758V34.5273C84.8066 34.0195 85.1387 33.668 85.6172 33.668C86.0859 33.668 86.418 34.0195 86.418 34.5273V35.5625H86.457C87.082 34.4199 88.2637 33.668 89.7383 33.668C92.3262 33.668 94.084 35.7383 94.084 38.9219C94.084 42.1055 92.3359 44.1758 89.7773 44.1758C88.3223 44.1758 87.1504 43.4629 86.5449 42.3496H86.5059V46.6758C86.5059 47.2129 86.1543 47.584 85.6562 47.584ZM89.4062 42.6816C91.2129 42.6816 92.3457 41.2266 92.3457 38.9219C92.3457 36.627 91.2129 35.1621 89.4062 35.1621C87.668 35.1621 86.4961 36.666 86.4961 38.9219C86.4961 41.1875 87.668 42.6816 89.4062 42.6816ZM98.7617 44.1758C96.7402 44.1758 95.3828 42.9551 95.3828 41.1289C95.3828 39.3906 96.7207 38.2969 99.0645 38.1602L101.984 37.9941V37.1445C101.984 35.9043 101.164 35.1621 99.7578 35.1621C98.6543 35.1621 97.9023 35.5625 97.3359 36.5684C97.1797 36.8516 96.9551 36.9785 96.6328 36.9785C96.1934 36.9785 95.8809 36.6758 95.8809 36.2168C95.8809 36.002 95.9492 35.7578 96.0859 35.5137C96.6621 34.4004 98.1465 33.668 99.7969 33.668C102.18 33.668 103.684 34.957 103.684 36.9785V43.3164C103.684 43.8242 103.352 44.1758 102.883 44.1758C102.404 44.1758 102.072 43.8242 102.072 43.3164V42.252H102.033C101.428 43.4141 100.129 44.1758 98.7617 44.1758ZM99.1426 42.7305C100.744 42.7305 101.984 41.6074 101.984 40.1426V39.3125L99.2598 39.4785C97.8926 39.5664 97.1113 40.1719 97.1113 41.1289C97.1113 42.0957 97.9219 42.7305 99.1426 42.7305ZM106.691 44.1758C106.193 44.1758 105.842 43.8047 105.842 43.2676V34.5273C105.842 34.0195 106.174 33.668 106.643 33.668C107.111 33.668 107.443 34.0195 107.443 34.5273V35.5039H107.482C107.775 34.4492 108.771 33.668 109.787 33.668C110.158 33.668 110.422 33.7559 110.588 33.9121C110.734 34.0488 110.803 34.2441 110.803 34.4785C110.803 34.7422 110.715 34.9375 110.539 35.0742C110.363 35.2207 110.1 35.2891 109.729 35.2891C108.195 35.2891 107.541 36.3926 107.541 37.6914V43.2676C107.541 43.8047 107.189 44.1758 106.691 44.1758ZM114.777 44.1758C112.756 44.1758 111.398 42.9551 111.398 41.1289C111.398 39.3906 112.736 38.2969 115.08 38.1602L118 37.9941V37.1445C118 35.9043 117.18 35.1621 115.773 35.1621C114.67 35.1621 113.918 35.5625 113.352 36.5684C113.195 36.8516 112.971 36.9785 112.648 36.9785C112.209 36.9785 111.896 36.6758 111.896 36.2168C111.896 36.002 111.965 35.7578 112.102 35.5137C112.678 34.4004 114.162 33.668 115.812 33.668C118.195 33.668 119.699 34.957 119.699 36.9785V43.3164C119.699 43.8242 119.367 44.1758 118.898 44.1758C118.42 44.1758 118.088 43.8242 118.088 43.3164V42.252H118.049C117.443 43.4141 116.145 44.1758 114.777 44.1758ZM115.158 42.7305C116.76 42.7305 118 41.6074 118 40.1426V39.3125L115.275 39.4785C113.908 39.5664 113.127 40.1719 113.127 41.1289C113.127 42.0957 113.938 42.7305 115.158 42.7305ZM128.918 44.1758C126.896 44.1758 125.539 42.9551 125.539 41.1289C125.539 39.3906 126.877 38.2969 129.221 38.1602L132.141 37.9941V37.1445C132.141 35.9043 131.32 35.1621 129.914 35.1621C128.811 35.1621 128.059 35.5625 127.492 36.5684C127.336 36.8516 127.111 36.9785 126.789 36.9785C126.35 36.9785 126.037 36.6758 126.037 36.2168C126.037 36.002 126.105 35.7578 126.242 35.5137C126.818 34.4004 128.303 33.668 129.953 33.668C132.336 33.668 133.84 34.957 133.84 36.9785V43.3164C133.84 43.8242 133.508 44.1758 133.039 44.1758C132.561 44.1758 132.229 43.8242 132.229 43.3164V42.252H132.189C131.584 43.4141 130.285 44.1758 128.918 44.1758ZM129.299 42.7305C130.9 42.7305 132.141 41.6074 132.141 40.1426V39.3125L129.416 39.4785C128.049 39.5664 127.268 40.1719 127.268 41.1289C127.268 42.0957 128.078 42.7305 129.299 42.7305ZM140.188 44.1758C137.375 44.1758 135.5 42.1543 135.5 38.9414C135.5 35.748 137.355 33.668 140.168 33.668C142.082 33.668 143.752 34.752 144.143 36.1582C144.182 36.2852 144.201 36.4121 144.201 36.5195C144.201 36.9688 143.918 37.2617 143.479 37.2617C143.107 37.2617 142.902 37.1055 142.668 36.666C142.131 35.6602 141.359 35.1621 140.188 35.1621C138.42 35.1621 137.229 36.6465 137.229 38.9219C137.229 41.2559 138.439 42.6816 140.188 42.6816C141.408 42.6816 142.15 42.1543 142.678 41.1777C142.922 40.7188 143.107 40.582 143.479 40.582C143.918 40.582 144.211 40.8848 144.211 41.3242C144.211 41.4512 144.182 41.5977 144.133 41.7539C143.645 43.1602 142.033 44.1758 140.188 44.1758ZM150.275 44.1758C147.277 44.1758 145.52 42.2422 145.52 38.9609C145.52 35.7578 147.326 33.668 150.129 33.668C152.727 33.668 154.553 35.6113 154.553 38.3945C154.553 39.0098 154.201 39.3809 153.615 39.3809H147.268C147.268 41.4316 148.391 42.7012 150.207 42.7012C151.418 42.7012 152.16 42.2715 152.951 41.1191C153.127 40.875 153.322 40.7773 153.586 40.7773C154.035 40.7773 154.338 41.0703 154.338 41.5195C154.338 41.6562 154.289 41.832 154.211 42.0176C153.557 43.3945 152.131 44.1758 150.275 44.1758ZM147.277 38.0527H152.795C152.756 36.2949 151.672 35.1426 150.1 35.1426C148.518 35.1426 147.385 36.3047 147.277 38.0527ZM159.797 44.1758C157.99 44.1758 156.574 43.3652 156.086 42.0957C156.027 41.9492 156.008 41.8223 156.008 41.6953C156.008 41.2461 156.34 40.9922 156.779 40.9922C157.082 40.9922 157.326 41.1484 157.521 41.5C158.029 42.3887 158.635 42.7891 159.934 42.7891C161.232 42.7891 162.111 42.2227 162.111 41.2754C162.111 40.543 161.691 40.1523 160.549 39.8691L158.996 39.4785C157.033 38.9902 156.086 38.0625 156.086 36.6367C156.086 34.8691 157.639 33.668 159.934 33.668C161.604 33.668 163.088 34.6055 163.352 35.8262C163.371 35.9238 163.381 36.002 163.381 36.0801C163.381 36.4805 163.127 36.7441 162.717 36.7441C162.385 36.7441 162.15 36.6367 161.965 36.2852C161.525 35.4355 160.871 35.0645 159.836 35.0645C158.615 35.0645 157.766 35.6797 157.766 36.5488C157.766 37.252 158.312 37.7402 159.426 38.0137L160.939 38.3848C163.059 38.9023 163.84 39.6445 163.84 41.1387C163.84 42.9551 162.209 44.1758 159.797 44.1758ZM169.113 44.1758C167.307 44.1758 165.891 43.3652 165.402 42.0957C165.344 41.9492 165.324 41.8223 165.324 41.6953C165.324 41.2461 165.656 40.9922 166.096 40.9922C166.398 40.9922 166.643 41.1484 166.838 41.5C167.346 42.3887 167.951 42.7891 169.25 42.7891C170.549 42.7891 171.428 42.2227 171.428 41.2754C171.428 40.543 171.008 40.1523 169.865 39.8691L168.312 39.4785C166.35 38.9902 165.402 38.0625 165.402 36.6367C165.402 34.8691 166.955 33.668 169.25 33.668C170.92 33.668 172.404 34.6055 172.668 35.8262C172.688 35.9238 172.697 36.002 172.697 36.0801C172.697 36.4805 172.443 36.7441 172.033 36.7441C171.701 36.7441 171.467 36.6367 171.281 36.2852C170.842 35.4355 170.188 35.0645 169.152 35.0645C167.932 35.0645 167.082 35.6797 167.082 36.5488C167.082 37.252 167.629 37.7402 168.742 38.0137L170.256 38.3848C172.375 38.9023 173.156 39.6445 173.156 41.1387C173.156 42.9551 171.525 44.1758 169.113 44.1758ZM177.863 44.1758C175.842 44.1758 174.484 42.9551 174.484 41.1289C174.484 39.3906 175.822 38.2969 178.166 38.1602L181.086 37.9941V37.1445C181.086 35.9043 180.266 35.1621 178.859 35.1621C177.756 35.1621 177.004 35.5625 176.438 36.5684C176.281 36.8516 176.057 36.9785 175.734 36.9785C175.295 36.9785 174.982 36.6758 174.982 36.2168C174.982 36.002 175.051 35.7578 175.188 35.5137C175.764 34.4004 177.248 33.668 178.898 33.668C181.281 33.668 182.785 34.957 182.785 36.9785V43.3164C182.785 43.8242 182.453 44.1758 181.984 44.1758C181.506 44.1758 181.174 43.8242 181.174 43.3164V42.252H181.135C180.529 43.4141 179.23 44.1758 177.863 44.1758ZM178.244 42.7305C179.846 42.7305 181.086 41.6074 181.086 40.1426V39.3125L178.361 39.4785C176.994 39.5664 176.213 40.1719 176.213 41.1289C176.213 42.0957 177.023 42.7305 178.244 42.7305ZM185.793 44.1758C185.295 44.1758 184.943 43.8047 184.943 43.2676V34.5273C184.943 34.0195 185.275 33.668 185.744 33.668C186.213 33.668 186.545 34.0195 186.545 34.5273V35.5039H186.584C186.877 34.4492 187.873 33.668 188.889 33.668C189.26 33.668 189.523 33.7559 189.689 33.9121C189.836 34.0488 189.904 34.2441 189.904 34.4785C189.904 34.7422 189.816 34.9375 189.641 35.0742C189.465 35.2207 189.201 35.2891 188.83 35.2891C187.297 35.2891 186.643 36.3926 186.643 37.6914V43.2676C186.643 43.8047 186.291 44.1758 185.793 44.1758ZM199.426 44.1758C196.613 44.1758 194.719 42.1543 194.719 38.9219C194.719 35.6797 196.613 33.668 199.426 33.668C202.229 33.668 204.123 35.6797 204.123 38.9219C204.123 42.1543 202.229 44.1758 199.426 44.1758ZM199.426 42.6816C201.223 42.6816 202.395 41.3145 202.395 38.9219C202.395 36.5293 201.223 35.1621 199.426 35.1621C197.629 35.1621 196.447 36.5293 196.447 38.9219C196.447 41.3145 197.629 42.6816 199.426 42.6816ZM210.793 44.1758C210.275 44.1758 209.943 43.7852 209.943 43.2676V34.5273C209.943 34.0195 210.275 33.668 210.744 33.668C211.213 33.668 211.545 34.0195 211.545 34.5273V35.4648H211.584C212.062 34.3906 213.098 33.668 214.465 33.668C215.852 33.668 216.877 34.3711 217.316 35.6016H217.355C217.922 34.3906 219.113 33.668 220.539 33.668C222.551 33.668 223.85 34.9766 223.85 36.9883V43.2676C223.85 43.7852 223.518 44.1758 223 44.1758C222.482 44.1758 222.15 43.7852 222.15 43.2676V37.3789C222.15 35.9922 221.379 35.1719 220.041 35.1719C218.693 35.1719 217.746 36.168 217.746 37.5449V43.2676C217.746 43.7852 217.414 44.1758 216.896 44.1758C216.379 44.1758 216.047 43.7852 216.047 43.2676V37.1934C216.047 35.9727 215.227 35.1719 213.967 35.1719C212.619 35.1719 211.643 36.2266 211.643 37.6328V43.2676C211.643 43.7852 211.311 44.1758 210.793 44.1758ZM230.275 44.1758C227.277 44.1758 225.52 42.2422 225.52 38.9609C225.52 35.7578 227.326 33.668 230.129 33.668C232.727 33.668 234.553 35.6113 234.553 38.3945C234.553 39.0098 234.201 39.3809 233.615 39.3809H227.268C227.268 41.4316 228.391 42.7012 230.207 42.7012C231.418 42.7012 232.16 42.2715 232.951 41.1191C233.127 40.875 233.322 40.7773 233.586 40.7773C234.035 40.7773 234.338 41.0703 234.338 41.5195C234.338 41.6562 234.289 41.832 234.211 42.0176C233.557 43.3945 232.131 44.1758 230.275 44.1758ZM227.277 38.0527H232.795C232.756 36.2949 231.672 35.1426 230.1 35.1426C228.518 35.1426 227.385 36.3047 227.277 38.0527ZM239.738 44.1758C237.521 44.1758 236.223 42.7402 236.223 40.4355V34.5762C236.223 34.0391 236.574 33.668 237.072 33.668C237.57 33.668 237.922 34.0391 237.922 34.5762V40.1328C237.922 41.7832 238.693 42.6719 240.266 42.6719C241.916 42.6719 242.912 41.5391 242.912 39.8105V34.5762C242.912 34.0391 243.264 33.668 243.762 33.668C244.26 33.668 244.611 34.0391 244.611 34.5762V43.3164C244.611 43.8047 244.299 44.1758 243.811 44.1758C243.322 44.1758 243 43.8047 243 43.3164V42.3496H242.961C242.355 43.5215 241.301 44.1758 239.738 44.1758ZM102.238 68C101.311 68 100.764 67.4336 100.764 66.457V55.2559C100.764 54.2793 101.311 53.7129 102.238 53.7129C103.166 53.7129 103.713 54.2793 103.713 55.2559V65.5586H108.713C109.514 65.5586 110.051 66.0176 110.051 66.7793C110.051 67.541 109.523 68 108.713 68H102.238ZM112.854 56.2324C111.994 56.2324 111.33 55.5781 111.33 54.7578C111.33 53.9277 111.994 53.2832 112.854 53.2832C113.713 53.2832 114.377 53.9277 114.377 54.7578C114.377 55.5781 113.713 56.2324 112.854 56.2324ZM112.854 68.2051C111.965 68.2051 111.428 67.6484 111.428 66.7207V58.8105C111.428 57.8828 111.965 57.3164 112.854 57.3164C113.732 57.3164 114.279 57.8828 114.279 58.8105V66.7207C114.279 67.6484 113.732 68.2051 112.854 68.2051ZM117.609 68.2051C116.779 68.2051 116.184 67.6973 116.184 66.7207V58.752C116.184 57.8633 116.701 57.3164 117.561 57.3164C118.42 57.3164 118.986 57.8633 118.986 58.7617V59.3477H119.045C119.602 58.0488 120.656 57.3359 122.268 57.3359C124.592 57.3359 125.9 58.8008 125.9 61.252V66.7207C125.9 67.6973 125.305 68.2051 124.475 68.2051C123.635 68.2051 123.049 67.6973 123.049 66.7207V61.8477C123.049 60.4805 122.404 59.6992 121.125 59.6992C119.846 59.6992 119.035 60.6367 119.035 61.9941V66.7207C119.035 67.6973 118.449 68.2051 117.609 68.2051ZM129.201 68.2051C128.371 68.2051 127.775 67.6973 127.775 66.7207V55.1875C127.775 54.2109 128.371 53.6934 129.201 53.6934C130.041 53.6934 130.627 54.2109 130.627 55.1875V61.6816H130.666L134.455 57.8828C134.836 57.4824 135.158 57.3164 135.588 57.3164C136.32 57.3164 136.857 57.8535 136.857 58.5566C136.857 58.9863 136.73 59.25 136.32 59.6309L133.654 62.1504L136.574 65.8711C136.887 66.291 136.975 66.5449 136.975 66.916C136.975 67.6777 136.418 68.2051 135.617 68.2051C135.012 68.2051 134.67 67.9902 134.221 67.3164L131.535 63.7617L130.627 64.6016V66.7207C130.627 67.6973 130.041 68.2051 129.201 68.2051ZM142.795 68.2246C139.523 68.2246 137.6 66.2031 137.6 62.8145C137.6 59.4453 139.562 57.3066 142.658 57.3066C145.627 57.3066 147.619 59.3379 147.619 62.1797C147.619 62.9707 147.17 63.4199 146.379 63.4199H140.402V63.5469C140.402 65.0996 141.34 66.1152 142.785 66.1152C143.83 66.1152 144.514 65.7637 145.285 64.8555C145.588 64.543 145.842 64.4355 146.213 64.4355C146.828 64.4355 147.326 64.8262 147.326 65.4805C147.326 65.7051 147.258 65.9395 147.131 66.1738C146.438 67.4629 144.816 68.2246 142.795 68.2246ZM140.432 61.6719H144.875C144.816 60.3047 143.938 59.416 142.688 59.416C141.438 59.416 140.529 60.334 140.432 61.6719ZM152.98 68.166C150.363 68.166 148.713 66.0957 148.713 62.7461C148.713 59.4258 150.373 57.3652 153 57.3652C154.514 57.3652 155.686 58.166 156.193 59.3281H156.252V55.1875C156.252 54.2109 156.848 53.6934 157.678 53.6934C158.518 53.6934 159.104 54.2109 159.104 55.1875V66.7598C159.104 67.707 158.518 68.2051 157.688 68.2051C156.867 68.2051 156.252 67.7168 156.252 66.7598V66.1543H156.203C155.744 67.3262 154.592 68.166 152.98 68.166ZM153.947 65.8711C155.363 65.8711 156.271 64.6797 156.271 62.7656C156.271 60.8613 155.363 59.6504 153.947 59.6504C152.512 59.6504 151.633 60.8516 151.633 62.7656C151.633 64.6895 152.512 65.8711 153.947 65.8711ZM162.482 56.2324C161.623 56.2324 160.959 55.5781 160.959 54.7578C160.959 53.9277 161.623 53.2832 162.482 53.2832C163.342 53.2832 164.006 53.9277 164.006 54.7578C164.006 55.5781 163.342 56.2324 162.482 56.2324ZM162.482 68.2051C161.594 68.2051 161.057 67.6484 161.057 66.7207V58.8105C161.057 57.8828 161.594 57.3164 162.482 57.3164C163.361 57.3164 163.908 57.8828 163.908 58.8105V66.7207C163.908 67.6484 163.361 68.2051 162.482 68.2051ZM167.238 68.2051C166.408 68.2051 165.812 67.6973 165.812 66.7207V58.752C165.812 57.8633 166.33 57.3164 167.189 57.3164C168.049 57.3164 168.615 57.8633 168.615 58.7617V59.3477H168.674C169.23 58.0488 170.285 57.3359 171.896 57.3359C174.221 57.3359 175.529 58.8008 175.529 61.252V66.7207C175.529 67.6973 174.934 68.2051 174.104 68.2051C173.264 68.2051 172.678 67.6973 172.678 66.7207V61.8477C172.678 60.4805 172.033 59.6992 170.754 59.6992C169.475 59.6992 168.664 60.6367 168.664 61.9941V66.7207C168.664 67.6973 168.078 68.2051 167.238 68.2051Z" fill="#65CBFF"/>
</svg>
