<svg width="245" height="50" viewBox="0 0 245 50" fill="none" xmlns="http://www.w3.org/2000/svg">
<rect width="50" height="50" rx="15" fill="white" fill-opacity="0.2"/>
<path d="M27.6206 9.67664C20.7812 9.67664 15.2405 15.2201 15.2405 22.0564C15.2371 24.3085 15.851 26.5185 17.0154 28.4463L11.0132 34.4485L11.0341 34.4694C10.3934 35.0826 10 35.953 10 36.9368C9.99961 38.8375 11.5138 40.3239 13.4126 40.3235C14.3824 40.3231 15.2498 39.9351 15.8688 39.3037L15.8839 39.3188L22.0768 33.1254C23.7973 33.9887 25.6958 34.4375 27.6206 34.4361C34.4604 34.4361 40 28.8935 40 22.0564C40 15.2201 34.4601 9.67664 27.6206 9.67664ZM27.6957 29.5682C23.4208 29.5682 19.958 26.1042 19.958 21.8308C19.958 17.5583 23.4208 14.0935 27.6957 14.0935C31.9706 14.0935 35.4326 17.5579 35.4326 21.8308C35.433 26.1042 31.9706 29.5682 27.6957 29.5682Z" fill="white"/>
<path d="M62.8984 33.6875C62.1484 33.6875 61.7031 33.2188 61.7031 32.4336V18.0664C61.7031 17.0469 62.3477 16.4023 63.3906 16.4023C64.2812 16.4023 64.8086 16.8008 65.207 17.7852L70.2109 29.9375H70.3047L75.2969 17.7852C75.6953 16.8125 76.2344 16.4023 77.1484 16.4023C78.168 16.4023 78.8125 17.0352 78.8125 18.0664V32.4336C78.8125 33.2188 78.3555 33.6875 77.6172 33.6875C76.8672 33.6875 76.4102 33.2188 76.4102 32.4336V21.0547H76.3281L71.6172 32.4102C71.3359 33.0898 70.9141 33.3945 70.2578 33.3945C69.6016 33.3945 69.168 33.0898 68.8984 32.4336L64.1758 21.0547H64.0938V32.4336C64.0938 33.2188 63.6484 33.6875 62.8984 33.6875ZM82.9727 19.3086C82.1641 19.3086 81.5078 18.6523 81.5078 17.8555C81.5078 17.0469 82.1641 16.4141 82.9727 16.4141C83.793 16.4141 84.4492 17.0469 84.4492 17.8555C84.4492 18.6523 83.793 19.3086 82.9727 19.3086ZM82.9727 33.7227C82.2109 33.7227 81.707 33.1953 81.707 32.3867V22.2969C81.707 21.4766 82.2109 20.9492 82.9727 20.9492C83.7344 20.9492 84.2383 21.4766 84.2383 22.2969V32.3867C84.2383 33.1953 83.7344 33.7227 82.9727 33.7227ZM88.0938 33.7227C87.3438 33.7227 86.8281 33.2188 86.8281 32.3867V22.2266C86.8281 21.4531 87.2969 20.9492 88.0352 20.9492C88.7617 20.9492 89.2656 21.4531 89.2656 22.2383V23.2109H89.3242C89.9922 21.8047 91.2812 20.9609 93.1797 20.9609C95.8984 20.9609 97.457 22.6953 97.457 25.5195V32.3867C97.457 33.2188 96.9297 33.7227 96.1797 33.7227C95.4414 33.7227 94.9141 33.2188 94.9141 32.3867V26.0117C94.9141 24.1602 94.0469 23.1406 92.2891 23.1406C90.5078 23.1406 89.3594 24.4062 89.3594 26.3164V32.3867C89.3594 33.2188 88.832 33.7227 88.0938 33.7227ZM101.266 33.7227C100.527 33.7227 100 33.2188 100 32.3867V17.6797C100 16.8828 100.48 16.3672 101.254 16.3672C102.039 16.3672 102.508 16.8828 102.508 17.6797V23.2344H102.566C103.246 21.793 104.594 20.9609 106.469 20.9609C109.176 20.9609 110.793 22.7656 110.793 25.5547V32.3867C110.793 33.2188 110.266 33.7227 109.516 33.7227C108.777 33.7227 108.25 33.2188 108.25 32.3867V26.0469C108.25 24.2305 107.336 23.1406 105.555 23.1406C103.68 23.1406 102.531 24.4297 102.531 26.375V32.3867C102.531 33.2188 102.004 33.7227 101.266 33.7227ZM116.852 33.7109C114.438 33.7109 112.738 32.2109 112.738 29.9961C112.738 27.8398 114.402 26.5156 117.32 26.3516L120.707 26.1523V25.2031C120.707 23.832 119.781 23.0117 118.234 23.0117C117.016 23.0117 116.207 23.4453 115.504 24.5703C115.246 24.9453 114.918 25.1094 114.473 25.1094C113.84 25.1094 113.383 24.6875 113.383 24.0547C113.383 23.7969 113.453 23.5156 113.605 23.2344C114.25 21.8398 116.113 20.9492 118.328 20.9492C121.316 20.9492 123.227 22.5312 123.227 25.0039V32.4453C123.227 33.2422 122.723 33.7227 122.008 33.7227C121.305 33.7227 120.824 33.2656 120.801 32.5156V31.4727H120.742C120.027 32.8438 118.457 33.7109 116.852 33.7109ZM117.543 31.707C119.312 31.707 120.707 30.4883 120.707 28.8828V27.9102L117.66 28.0977C116.148 28.2031 115.293 28.8711 115.293 29.9258C115.293 31.0039 116.195 31.707 117.543 31.707ZM131.922 33.7227C131.184 33.7227 130.656 33.2188 130.656 32.3867V17.7031C130.656 16.8711 131.184 16.3672 131.922 16.3672C132.66 16.3672 133.188 16.8711 133.188 17.7031V32.3867C133.188 33.2188 132.66 33.7227 131.922 33.7227ZM141.086 33.7344C137.559 33.7344 135.238 31.3086 135.238 27.3359C135.238 23.375 137.57 20.9492 141.086 20.9492C144.602 20.9492 146.934 23.375 146.934 27.3359C146.934 31.3086 144.613 33.7344 141.086 33.7344ZM141.086 31.6484C143.078 31.6484 144.355 30.0781 144.355 27.3359C144.355 24.6055 143.066 23.0352 141.086 23.0352C139.105 23.0352 137.816 24.6055 137.816 27.3359C137.816 30.0781 139.105 31.6484 141.086 31.6484ZM154.164 33.7344C150.637 33.7344 148.34 31.2852 148.34 27.3594C148.34 23.457 150.625 20.9492 154.141 20.9492C156.52 20.9492 158.559 22.2148 159.098 23.9375C159.168 24.1367 159.215 24.3477 159.215 24.5234C159.215 25.168 158.758 25.5664 158.137 25.5664C157.598 25.5664 157.293 25.3555 156.988 24.793C156.355 23.6211 155.488 23.0586 154.188 23.0586C152.207 23.0586 150.918 24.7109 150.918 27.3359C150.918 30.0195 152.23 31.6133 154.188 31.6133C155.559 31.6133 156.391 31.0039 156.988 29.9375C157.34 29.3281 157.609 29.1172 158.16 29.1172C158.781 29.1172 159.238 29.5391 159.238 30.1719C159.238 30.3711 159.191 30.582 159.098 30.8281C158.453 32.5273 156.449 33.7344 154.164 33.7344ZM164.898 33.7109C162.484 33.7109 160.785 32.2109 160.785 29.9961C160.785 27.8398 162.449 26.5156 165.367 26.3516L168.754 26.1523V25.2031C168.754 23.832 167.828 23.0117 166.281 23.0117C165.062 23.0117 164.254 23.4453 163.551 24.5703C163.293 24.9453 162.965 25.1094 162.52 25.1094C161.887 25.1094 161.43 24.6875 161.43 24.0547C161.43 23.7969 161.5 23.5156 161.652 23.2344C162.297 21.8398 164.16 20.9492 166.375 20.9492C169.363 20.9492 171.273 22.5312 171.273 25.0039V32.4453C171.273 33.2422 170.77 33.7227 170.055 33.7227C169.352 33.7227 168.871 33.2656 168.848 32.5156V31.4727H168.789C168.074 32.8438 166.504 33.7109 164.898 33.7109ZM165.59 31.707C167.359 31.707 168.754 30.4883 168.754 28.8828V27.9102L165.707 28.0977C164.195 28.2031 163.34 28.8711 163.34 29.9258C163.34 31.0039 164.242 31.707 165.59 31.707ZM175.094 33.7227C174.355 33.7227 173.828 33.2188 173.828 32.3867V17.7031C173.828 16.8711 174.355 16.3672 175.094 16.3672C175.832 16.3672 176.359 16.8711 176.359 17.7031V32.3867C176.359 33.2188 175.832 33.7227 175.094 33.7227ZM180.309 19.3086C179.5 19.3086 178.844 18.6523 178.844 17.8555C178.844 17.0469 179.5 16.4141 180.309 16.4141C181.129 16.4141 181.785 17.0469 181.785 17.8555C181.785 18.6523 181.129 19.3086 180.309 19.3086ZM180.309 33.7227C179.547 33.7227 179.043 33.1953 179.043 32.3867V22.2969C179.043 21.4766 179.547 20.9492 180.309 20.9492C181.07 20.9492 181.574 21.4766 181.574 22.2969V32.3867C181.574 33.1953 181.07 33.7227 180.309 33.7227ZM185.125 33.5C184.387 33.5 183.895 33.0547 183.895 32.3633C183.895 31.9766 184 31.7305 184.293 31.3672L190.48 23.2344V23.1875H184.891C184.211 23.1875 183.812 22.8242 183.812 22.1797C183.812 21.5469 184.199 21.1719 184.891 21.1719H192.039C192.895 21.1719 193.41 21.6289 193.41 22.3906C193.41 22.7891 193.27 23.0938 192.906 23.5859L186.977 31.4375V31.4844H192.531C193.223 31.4844 193.609 31.8477 193.609 32.4922C193.609 33.1367 193.211 33.5 192.531 33.5H185.125ZM199.328 33.7109C196.914 33.7109 195.215 32.2109 195.215 29.9961C195.215 27.8398 196.879 26.5156 199.797 26.3516L203.184 26.1523V25.2031C203.184 23.832 202.258 23.0117 200.711 23.0117C199.492 23.0117 198.684 23.4453 197.98 24.5703C197.723 24.9453 197.395 25.1094 196.949 25.1094C196.316 25.1094 195.859 24.6875 195.859 24.0547C195.859 23.7969 195.93 23.5156 196.082 23.2344C196.727 21.8398 198.59 20.9492 200.805 20.9492C203.793 20.9492 205.703 22.5312 205.703 25.0039V32.4453C205.703 33.2422 205.199 33.7227 204.484 33.7227C203.781 33.7227 203.301 33.2656 203.277 32.5156V31.4727H203.219C202.504 32.8438 200.934 33.7109 199.328 33.7109ZM200.02 31.707C201.789 31.707 203.184 30.4883 203.184 28.8828V27.9102L200.137 28.0977C198.625 28.2031 197.77 28.8711 197.77 29.9258C197.77 31.0039 198.672 31.707 200.02 31.707ZM213.344 38.9492C212.922 38.9492 212.582 38.9258 212.312 38.8555C211.785 38.75 211.539 38.5156 211.539 38.1523C211.539 37.8008 211.797 37.5898 212.207 37.5898C212.453 37.5898 212.699 37.6484 213.051 37.6484C213.941 37.6484 214.422 37.3789 214.422 36.8633C214.422 36.3945 213.977 36.1602 213.074 36.1602H212.781C212.312 36.1602 211.996 35.9023 211.996 35.5156C211.996 35.3398 212.043 35.1641 212.148 34.9297L212.664 33.6875C209.582 33.3594 207.613 30.9922 207.613 27.3594C207.613 23.457 209.898 20.9492 213.414 20.9492C215.793 20.9492 217.832 22.2148 218.371 23.9375C218.441 24.1367 218.488 24.3477 218.488 24.5234C218.488 25.168 218.031 25.5664 217.41 25.5664C216.871 25.5664 216.566 25.3555 216.262 24.793C215.629 23.6211 214.762 23.0586 213.461 23.0586C211.48 23.0586 210.191 24.7109 210.191 27.3359C210.191 30.0195 211.504 31.6133 213.461 31.6133C214.832 31.6133 215.664 31.0039 216.262 29.9375C216.613 29.3281 216.883 29.1172 217.434 29.1172C218.055 29.1172 218.512 29.5391 218.512 30.1719C218.512 30.3711 218.465 30.582 218.371 30.8281C217.809 32.3047 216.203 33.418 214.281 33.6758L213.73 34.9414C215.172 34.9531 216.121 35.6328 216.121 36.8281C216.121 38.1992 214.938 38.9492 213.344 38.9492ZM222.484 19.5312C222.016 19.5312 221.723 19.2266 221.723 18.7227C221.723 17.1641 222.73 16.1797 224.066 16.1797C225.695 16.1797 226.246 17.8906 227.113 17.8906C227.535 17.8906 227.77 17.5742 227.898 16.8242C227.992 16.2734 228.203 16.0156 228.672 16.0156C229.129 16.0156 229.434 16.332 229.434 16.8242C229.434 18.3359 228.414 19.3789 227.137 19.3789C225.566 19.3789 224.969 17.668 224.09 17.668C223.598 17.668 223.363 17.9727 223.258 18.7812C223.188 19.2734 222.941 19.5312 222.484 19.5312ZM224.172 33.7109C221.758 33.7109 220.059 32.2109 220.059 29.9961C220.059 27.8398 221.723 26.5156 224.641 26.3516L228.027 26.1523V25.2031C228.027 23.832 227.102 23.0117 225.555 23.0117C224.336 23.0117 223.527 23.4453 222.824 24.5703C222.566 24.9453 222.238 25.1094 221.793 25.1094C221.16 25.1094 220.703 24.6875 220.703 24.0547C220.703 23.7969 220.773 23.5156 220.926 23.2344C221.57 21.8398 223.434 20.9492 225.648 20.9492C228.637 20.9492 230.547 22.5312 230.547 25.0039V32.4453C230.547 33.2422 230.043 33.7227 229.328 33.7227C228.625 33.7227 228.145 33.2656 228.121 32.5156V31.4727H228.062C227.348 32.8438 225.777 33.7109 224.172 33.7109ZM224.863 31.707C226.633 31.707 228.027 30.4883 228.027 28.8828V27.9102L224.98 28.0977C223.469 28.2031 222.613 28.8711 222.613 29.9258C222.613 31.0039 223.516 31.707 224.863 31.707ZM238.305 33.7344C234.777 33.7344 232.457 31.3086 232.457 27.3359C232.457 23.375 234.789 20.9492 238.305 20.9492C241.82 20.9492 244.152 23.375 244.152 27.3359C244.152 31.3086 241.832 33.7344 238.305 33.7344ZM238.305 31.6484C240.297 31.6484 241.574 30.0781 241.574 27.3359C241.574 24.6055 240.285 23.0352 238.305 23.0352C236.324 23.0352 235.035 24.6055 235.035 27.3359C235.035 30.0781 236.324 31.6484 238.305 31.6484Z" fill="white"/>
</svg>
