<svg width="213" height="50" viewBox="0 0 213 50" fill="none" xmlns="http://www.w3.org/2000/svg">
<rect width="50" height="50" rx="15" fill="white" fill-opacity="0.2"/>
<path d="M34.1667 25C33.5036 25 32.8677 24.7366 32.3989 24.2678C31.9301 23.7989 31.6667 23.163 31.6667 22.5C31.6667 21.837 31.9301 21.2011 32.3989 20.7322C32.8677 20.2634 33.5036 20 34.1667 20C34.8297 20 35.4656 20.2634 35.9344 20.7322C36.4033 21.2011 36.6667 21.837 36.6667 22.5C36.6667 23.163 36.4033 23.7989 35.9344 24.2678C35.4656 24.7366 34.8297 25 34.1667 25ZM29.1667 18.3333C28.5036 18.3333 27.8677 18.0699 27.3989 17.6011C26.9301 17.1323 26.6667 16.4964 26.6667 15.8333C26.6667 15.1703 26.9301 14.5344 27.3989 14.0656C27.8677 13.5967 28.5036 13.3333 29.1667 13.3333C29.8297 13.3333 30.4656 13.5967 30.9344 14.0656C31.4033 14.5344 31.6667 15.1703 31.6667 15.8333C31.6667 16.4964 31.4033 17.1323 30.9344 17.6011C30.4656 18.0699 29.8297 18.3333 29.1667 18.3333ZM20.8333 18.3333C20.1703 18.3333 19.5344 18.0699 19.0656 17.6011C18.5967 17.1323 18.3333 16.4964 18.3333 15.8333C18.3333 15.1703 18.5967 14.5344 19.0656 14.0656C19.5344 13.5967 20.1703 13.3333 20.8333 13.3333C21.4964 13.3333 22.1323 13.5967 22.6011 14.0656C23.0699 14.5344 23.3333 15.1703 23.3333 15.8333C23.3333 16.4964 23.0699 17.1323 22.6011 17.6011C22.1323 18.0699 21.4964 18.3333 20.8333 18.3333ZM15.8333 25C15.1703 25 14.5344 24.7366 14.0656 24.2678C13.5967 23.7989 13.3333 23.163 13.3333 22.5C13.3333 21.837 13.5967 21.2011 14.0656 20.7322C14.5344 20.2634 15.1703 20 15.8333 20C16.4964 20 17.1323 20.2634 17.6011 20.7322C18.0699 21.2011 18.3333 21.837 18.3333 22.5C18.3333 23.163 18.0699 23.7989 17.6011 24.2678C17.1323 24.7366 16.4964 25 15.8333 25ZM25 10C21.0218 10 17.2064 11.5804 14.3934 14.3934C11.5804 17.2064 10 21.0218 10 25C10 28.9782 11.5804 32.7936 14.3934 35.6066C17.2064 38.4196 21.0218 40 25 40C25.663 40 26.2989 39.7366 26.7678 39.2678C27.2366 38.7989 27.5 38.163 27.5 37.5C27.5 36.85 27.25 36.2667 26.85 35.8333C26.4667 35.3833 26.2167 34.8 26.2167 34.1667C26.2167 33.5036 26.4801 32.8677 26.9489 32.3989C27.4177 31.9301 28.0536 31.6667 28.7167 31.6667H31.6667C33.8768 31.6667 35.9964 30.7887 37.5592 29.2259C39.122 27.6631 40 25.5435 40 23.3333C40 15.9667 33.2833 10 25 10Z" fill="white"/>
<path d="M62.9414 33.6875C62.1211 33.6875 61.6289 33.1719 61.6289 32.3281V17.9492C61.6289 17.1055 62.1211 16.5898 62.9414 16.5898H67.9688C71.25 16.5898 73.5352 18.8516 73.5352 22.1445C73.5352 25.4492 71.2031 27.7227 67.8867 27.7227H64.2539V32.3281C64.2539 33.1719 63.75 33.6875 62.9414 33.6875ZM64.2539 25.5195H67.2656C69.5508 25.5195 70.8516 24.2891 70.8516 22.1562C70.8516 20.0234 69.5508 18.8047 67.2773 18.8047H64.2539V25.5195ZM76.793 33.7227C76.0312 33.7227 75.5273 33.207 75.5273 32.3867V22.2266C75.5273 21.4531 76.0195 20.9492 76.7344 20.9492C77.4375 20.9492 77.9297 21.4531 77.9297 22.2266V23.2812H77.9883C78.3281 21.8984 79.4648 20.9727 80.6953 20.9727C81.1406 20.9727 81.4805 21.0781 81.6914 21.2773C81.9258 21.4648 82.0312 21.7695 82.0312 22.168C82.0312 22.5664 81.9023 22.8594 81.6562 23.0586C81.3984 23.2812 81.0234 23.3867 80.4961 23.3867C78.7617 23.3984 78.0586 24.5586 78.0586 26.0938V32.3867C78.0586 33.207 77.543 33.7227 76.793 33.7227ZM88.1602 33.7344C84.6328 33.7344 82.3125 31.3086 82.3125 27.3359C82.3125 23.375 84.6445 20.9492 88.1602 20.9492C91.6758 20.9492 94.0078 23.375 94.0078 27.3359C94.0078 31.3086 91.6875 33.7344 88.1602 33.7344ZM88.1602 31.6484C90.1523 31.6484 91.4297 30.0781 91.4297 27.3359C91.4297 24.6055 90.1406 23.0352 88.1602 23.0352C86.1797 23.0352 84.8906 24.6055 84.8906 27.3359C84.8906 30.0781 86.1797 31.6484 88.1602 31.6484ZM97.3008 19.3086C96.4922 19.3086 95.8359 18.6523 95.8359 17.8555C95.8359 17.0469 96.4922 16.4141 97.3008 16.4141C98.1328 16.4141 98.7891 17.0469 98.7891 17.8555C98.7891 18.6523 98.1328 19.3086 97.3008 19.3086ZM97.3008 20.9492C98.0508 20.9492 98.5664 21.4531 98.5664 22.2969V34.332C98.5664 36.5703 97.3477 37.7773 95.2852 37.7773H95.2617C94.3125 37.7773 93.7383 37.3672 93.7383 36.7109C93.7383 36.1836 94.043 35.8438 94.7344 35.7383L94.8398 35.7266C95.707 35.5859 96.0352 35.1055 96.0352 34.1328V22.2969C96.0352 21.4531 96.5625 20.9492 97.3008 20.9492ZM106.512 33.7344C102.797 33.7344 100.617 31.3789 100.617 27.3945C100.617 23.4805 102.844 20.9492 106.336 20.9492C109.617 20.9492 111.879 23.3164 111.879 26.6797C111.879 27.5 111.41 27.9688 110.625 27.9688H103.172V28.0273C103.172 30.2773 104.438 31.6836 106.453 31.6836C107.836 31.6836 108.703 31.2031 109.641 29.9258C109.91 29.6094 110.168 29.4805 110.531 29.4805C111.141 29.4805 111.586 29.8789 111.586 30.5117C111.586 30.7109 111.516 30.9453 111.41 31.1914C110.602 32.8086 108.809 33.7344 106.512 33.7344ZM103.184 26.1992H109.348C109.289 24.2656 108.082 22.9883 106.324 22.9883C104.578 22.9883 103.312 24.2773 103.184 26.1992ZM114.586 30.5469V23.1758H113.695C113.039 23.1758 112.641 22.8008 112.641 22.1797C112.641 21.5469 113.039 21.1719 113.695 21.1719H114.586V19.3438C114.586 18.5352 115.09 17.9961 115.863 17.9961C116.625 17.9961 117.129 18.5352 117.129 19.3438V21.1719H118.57C119.227 21.1719 119.625 21.5586 119.625 22.1797C119.625 22.8008 119.227 23.1758 118.57 23.1758H117.129V29.9844C117.129 30.9688 117.469 31.4141 118.383 31.4844L118.582 31.4961C119.309 31.5664 119.672 31.8594 119.672 32.457C119.672 33.2188 119.086 33.6055 117.844 33.6055H117.715C115.641 33.6055 114.586 32.5859 114.586 30.5469ZM126.551 33.7344C123.023 33.7344 120.703 31.3086 120.703 27.3359C120.703 23.375 123.035 20.9492 126.551 20.9492C130.066 20.9492 132.398 23.375 132.398 27.3359C132.398 31.3086 130.078 33.7344 126.551 33.7344ZM126.551 31.6484C128.543 31.6484 129.82 30.0781 129.82 27.3359C129.82 24.6055 128.531 23.0352 126.551 23.0352C124.57 23.0352 123.281 24.6055 123.281 27.3359C123.281 30.0781 124.57 31.6484 126.551 31.6484ZM138.902 33.7344C136.477 33.7344 134.695 32.7383 134.109 31.2266C134.027 31.0391 134.004 30.8633 134.004 30.6992C134.004 30.0664 134.461 29.6914 135.094 29.6914C135.516 29.6914 135.879 29.8906 136.195 30.3594C136.828 31.3555 137.566 31.8008 139.031 31.8008C140.473 31.8008 141.445 31.1797 141.445 30.1602C141.445 29.3516 140.965 28.918 139.641 28.6016L137.695 28.1445C135.305 27.582 134.133 26.4102 134.133 24.6523C134.133 22.4258 136.066 20.9492 138.996 20.9492C141.223 20.9492 143.051 22.0859 143.402 23.5391C143.426 23.6797 143.449 23.7969 143.449 23.9141C143.449 24.4766 143.098 24.8516 142.465 24.8516C142.055 24.8516 141.691 24.7109 141.445 24.3125C140.895 23.375 140.145 22.8828 138.902 22.8828C137.543 22.8828 136.605 23.5508 136.605 24.5117C136.605 25.2852 137.203 25.8242 138.504 26.1289L140.414 26.5742C143.004 27.1719 144 28.0977 144 29.9258C144 32.2109 141.949 33.7344 138.902 33.7344ZM157.98 33.7812C153.738 33.7812 151.137 31.2031 151.137 27.5586V17.7617C151.137 16.918 151.629 16.4023 152.449 16.4023C153.258 16.4023 153.762 16.918 153.762 17.7617V27.3359C153.762 29.75 155.285 31.4492 157.98 31.4492C160.676 31.4492 162.211 29.75 162.211 27.3359V17.7617C162.211 16.918 162.703 16.4023 163.523 16.4023C164.332 16.4023 164.824 16.918 164.824 17.7617V27.5586C164.824 31.2031 162.223 33.7812 157.98 33.7812ZM168.738 33.6875C168.035 33.6875 167.484 33.1836 167.484 32.5508C167.484 32.2461 167.578 31.9766 167.801 31.6602L172.512 25.0273V24.9453L167.93 18.5586C167.672 18.2188 167.59 17.9492 167.59 17.6328C167.59 16.9297 168.176 16.4023 168.938 16.4023C169.441 16.4023 169.746 16.6016 170.121 17.1523L174.258 23.1289H174.352L178.582 17.082C178.922 16.5898 179.18 16.4023 179.672 16.4023C180.375 16.4023 180.961 16.9062 180.961 17.5273C180.961 17.832 180.867 18.1016 180.645 18.418L175.805 25.0391V25.1094L180.492 31.6016C180.703 31.8828 180.809 32.1758 180.809 32.4922C180.809 33.1719 180.234 33.6875 179.508 33.6875C179.016 33.6875 178.711 33.5 178.371 33.0195L174.152 27.0547H174.07L169.852 33.0078C169.488 33.5234 169.23 33.6875 168.738 33.6875ZM183.375 37.543C182.719 37.543 182.297 37.1445 182.297 36.5586C182.297 36.3945 182.332 36.2188 182.367 36.1016L187.828 17.3164C188.016 16.6719 188.367 16.3672 188.965 16.3672C189.598 16.3672 190.031 16.7773 190.031 17.375C190.031 17.5156 190.02 17.6211 189.973 17.7852L184.465 36.6641C184.301 37.25 183.949 37.543 183.375 37.543ZM198.785 33.7812C194.543 33.7812 191.941 31.2031 191.941 27.5586V17.7617C191.941 16.918 192.434 16.4023 193.254 16.4023C194.062 16.4023 194.566 16.918 194.566 17.7617V27.3359C194.566 29.75 196.09 31.4492 198.785 31.4492C201.48 31.4492 203.016 29.75 203.016 27.3359V17.7617C203.016 16.918 203.508 16.4023 204.328 16.4023C205.137 16.4023 205.629 16.918 205.629 17.7617V27.5586C205.629 31.2031 203.027 33.7812 198.785 33.7812ZM210.059 33.6875C209.238 33.6875 208.746 33.1719 208.746 32.3281V17.7617C208.746 16.918 209.238 16.4023 210.059 16.4023C210.867 16.4023 211.371 16.918 211.371 17.7617V32.3281C211.371 33.1719 210.867 33.6875 210.059 33.6875Z" fill="white"/>
</svg>
