<svg width="254" height="50" viewBox="0 0 254 50" fill="none" xmlns="http://www.w3.org/2000/svg">
<rect width="50" height="50" rx="15" fill="white" fill-opacity="0.2"/>
<path d="M32.4857 31.8323V18.1524L23.4942 24.9816M10.3709 20.8712C10.1513 20.6371 10.0273 20.3293 10.0234 20.0083C10.0194 19.6874 10.1357 19.3766 10.3495 19.1371L12.1478 17.4673C12.4475 17.189 13.1754 17.0819 13.7106 17.4673L18.8272 21.385L30.7088 10.4882C31.1798 10.0172 32.0147 9.80312 32.9567 10.3169L38.951 13.1856C39.4862 13.5068 40 13.9991 40 14.9197V35.2362C40 35.8356 39.5718 36.4779 39.1009 36.7348L32.5071 39.9032C32.0361 40.0959 31.1369 39.9032 30.8158 39.6035L18.8057 28.621L13.7106 32.5388C13.1325 32.9241 12.4261 32.8171 12.1263 32.5388L10.328 30.8903C9.85706 30.3979 9.89988 29.5844 10.4137 29.092L14.9094 25.0244" fill="white"/>
<path d="M63.2031 33.6875C62.3828 33.6875 61.8906 33.1719 61.8906 32.3281V17.9492C61.8906 17.1055 62.3828 16.5898 63.2031 16.5898H68.2305C71.5117 16.5898 73.7969 18.8516 73.7969 22.1445C73.7969 25.4492 71.4648 27.7227 68.1484 27.7227H64.5156V32.3281C64.5156 33.1719 64.0117 33.6875 63.2031 33.6875ZM64.5156 25.5195H67.5273C69.8125 25.5195 71.1133 24.2891 71.1133 22.1562C71.1133 20.0234 69.8125 18.8047 67.5391 18.8047H64.5156V25.5195ZM77.0547 33.7227C76.293 33.7227 75.7891 33.207 75.7891 32.3867V22.2266C75.7891 21.4531 76.2812 20.9492 76.9961 20.9492C77.6992 20.9492 78.1914 21.4531 78.1914 22.2266V23.2812H78.25C78.5898 21.8984 79.7266 20.9727 80.957 20.9727C81.4023 20.9727 81.7422 21.0781 81.9531 21.2773C82.1875 21.4648 82.293 21.7695 82.293 22.168C82.293 22.5664 82.1641 22.8594 81.918 23.0586C81.6602 23.2812 81.2852 23.3867 80.7578 23.3867C79.0234 23.3984 78.3203 24.5586 78.3203 26.0938V32.3867C78.3203 33.207 77.8047 33.7227 77.0547 33.7227ZM88.4219 33.7344C84.8945 33.7344 82.5742 31.3086 82.5742 27.3359C82.5742 23.375 84.9062 20.9492 88.4219 20.9492C91.9375 20.9492 94.2695 23.375 94.2695 27.3359C94.2695 31.3086 91.9492 33.7344 88.4219 33.7344ZM88.4219 31.6484C90.4141 31.6484 91.6914 30.0781 91.6914 27.3359C91.6914 24.6055 90.4023 23.0352 88.4219 23.0352C86.4414 23.0352 85.1523 24.6055 85.1523 27.3359C85.1523 30.0781 86.4414 31.6484 88.4219 31.6484ZM97.5625 19.3086C96.7539 19.3086 96.0977 18.6523 96.0977 17.8555C96.0977 17.0469 96.7539 16.4141 97.5625 16.4141C98.3945 16.4141 99.0508 17.0469 99.0508 17.8555C99.0508 18.6523 98.3945 19.3086 97.5625 19.3086ZM97.5625 20.9492C98.3125 20.9492 98.8281 21.4531 98.8281 22.2969V34.332C98.8281 36.5703 97.6094 37.7773 95.5469 37.7773H95.5234C94.5742 37.7773 94 37.3672 94 36.7109C94 36.1836 94.3047 35.8438 94.9961 35.7383L95.1016 35.7266C95.9688 35.5859 96.2969 35.1055 96.2969 34.1328V22.2969C96.2969 21.4531 96.8242 20.9492 97.5625 20.9492ZM106.773 33.7344C103.059 33.7344 100.879 31.3789 100.879 27.3945C100.879 23.4805 103.105 20.9492 106.598 20.9492C109.879 20.9492 112.141 23.3164 112.141 26.6797C112.141 27.5 111.672 27.9688 110.887 27.9688H103.434V28.0273C103.434 30.2773 104.699 31.6836 106.715 31.6836C108.098 31.6836 108.965 31.2031 109.902 29.9258C110.172 29.6094 110.43 29.4805 110.793 29.4805C111.402 29.4805 111.848 29.8789 111.848 30.5117C111.848 30.7109 111.777 30.9453 111.672 31.1914C110.863 32.8086 109.07 33.7344 106.773 33.7344ZM103.445 26.1992H109.609C109.551 24.2656 108.344 22.9883 106.586 22.9883C104.84 22.9883 103.574 24.2773 103.445 26.1992ZM114.848 30.5469V23.1758H113.957C113.301 23.1758 112.902 22.8008 112.902 22.1797C112.902 21.5469 113.301 21.1719 113.957 21.1719H114.848V19.3438C114.848 18.5352 115.352 17.9961 116.125 17.9961C116.887 17.9961 117.391 18.5352 117.391 19.3438V21.1719H118.832C119.488 21.1719 119.887 21.5586 119.887 22.1797C119.887 22.8008 119.488 23.1758 118.832 23.1758H117.391V29.9844C117.391 30.9688 117.73 31.4141 118.645 31.4844L118.844 31.4961C119.57 31.5664 119.934 31.8594 119.934 32.457C119.934 33.2188 119.348 33.6055 118.105 33.6055H117.977C115.902 33.6055 114.848 32.5859 114.848 30.5469ZM126.812 33.7344C123.285 33.7344 120.965 31.3086 120.965 27.3359C120.965 23.375 123.297 20.9492 126.812 20.9492C130.328 20.9492 132.66 23.375 132.66 27.3359C132.66 31.3086 130.34 33.7344 126.812 33.7344ZM126.812 31.6484C128.805 31.6484 130.082 30.0781 130.082 27.3359C130.082 24.6055 128.793 23.0352 126.812 23.0352C124.832 23.0352 123.543 24.6055 123.543 27.3359C123.543 30.0781 124.832 31.6484 126.812 31.6484ZM139.164 33.7344C136.738 33.7344 134.957 32.7383 134.371 31.2266C134.289 31.0391 134.266 30.8633 134.266 30.6992C134.266 30.0664 134.723 29.6914 135.355 29.6914C135.777 29.6914 136.141 29.8906 136.457 30.3594C137.09 31.3555 137.828 31.8008 139.293 31.8008C140.734 31.8008 141.707 31.1797 141.707 30.1602C141.707 29.3516 141.227 28.918 139.902 28.6016L137.957 28.1445C135.566 27.582 134.395 26.4102 134.395 24.6523C134.395 22.4258 136.328 20.9492 139.258 20.9492C141.484 20.9492 143.312 22.0859 143.664 23.5391C143.688 23.6797 143.711 23.7969 143.711 23.9141C143.711 24.4766 143.359 24.8516 142.727 24.8516C142.316 24.8516 141.953 24.7109 141.707 24.3125C141.156 23.375 140.406 22.8828 139.164 22.8828C137.805 22.8828 136.867 23.5508 136.867 24.5117C136.867 25.2852 137.465 25.8242 138.766 26.1289L140.676 26.5742C143.266 27.1719 144.262 28.0977 144.262 29.9258C144.262 32.2109 142.211 33.7344 139.164 33.7344ZM152.711 33.6875C151.891 33.6875 151.398 33.1719 151.398 32.3281V17.9492C151.398 17.1055 151.891 16.5898 152.711 16.5898H160.914C161.652 16.5898 162.145 17.0352 162.145 17.7266C162.145 18.418 161.641 18.8633 160.914 18.8633H154.023V24.207H160.293C160.996 24.207 161.477 24.6406 161.477 25.3086C161.477 25.9883 160.996 26.4219 160.293 26.4219H154.023V32.3281C154.023 33.1719 153.52 33.6875 152.711 33.6875ZM165.203 33.7227C164.441 33.7227 163.938 33.207 163.938 32.3867V22.2266C163.938 21.4531 164.43 20.9492 165.145 20.9492C165.848 20.9492 166.34 21.4531 166.34 22.2266V23.2812H166.398C166.738 21.8984 167.875 20.9727 169.105 20.9727C169.551 20.9727 169.891 21.0781 170.102 21.2773C170.336 21.4648 170.441 21.7695 170.441 22.168C170.441 22.5664 170.312 22.8594 170.066 23.0586C169.809 23.2812 169.434 23.3867 168.906 23.3867C167.172 23.3984 166.469 24.5586 166.469 26.0938V32.3867C166.469 33.207 165.953 33.7227 165.203 33.7227ZM176.57 33.7344C173.043 33.7344 170.723 31.3086 170.723 27.3359C170.723 23.375 173.055 20.9492 176.57 20.9492C180.086 20.9492 182.418 23.375 182.418 27.3359C182.418 31.3086 180.098 33.7344 176.57 33.7344ZM176.57 31.6484C178.562 31.6484 179.84 30.0781 179.84 27.3359C179.84 24.6055 178.551 23.0352 176.57 23.0352C174.59 23.0352 173.301 24.6055 173.301 27.3359C173.301 30.0781 174.59 31.6484 176.57 31.6484ZM185.641 33.7227C184.891 33.7227 184.375 33.2188 184.375 32.3867V22.2266C184.375 21.4531 184.844 20.9492 185.582 20.9492C186.309 20.9492 186.812 21.4531 186.812 22.2383V23.2109H186.871C187.539 21.8047 188.828 20.9609 190.727 20.9609C193.445 20.9609 195.004 22.6953 195.004 25.5195V32.3867C195.004 33.2188 194.477 33.7227 193.727 33.7227C192.988 33.7227 192.461 33.2188 192.461 32.3867V26.0117C192.461 24.1602 191.594 23.1406 189.836 23.1406C188.055 23.1406 186.906 24.4062 186.906 26.3164V32.3867C186.906 33.2188 186.379 33.7227 185.641 33.7227ZM198.191 30.5469V23.1758H197.301C196.645 23.1758 196.246 22.8008 196.246 22.1797C196.246 21.5469 196.645 21.1719 197.301 21.1719H198.191V19.3438C198.191 18.5352 198.695 17.9961 199.469 17.9961C200.23 17.9961 200.734 18.5352 200.734 19.3438V21.1719H202.176C202.832 21.1719 203.23 21.5586 203.23 22.1797C203.23 22.8008 202.832 23.1758 202.176 23.1758H200.734V29.9844C200.734 30.9688 201.074 31.4141 201.988 31.4844L202.188 31.4961C202.914 31.5664 203.277 31.8594 203.277 32.457C203.277 33.2188 202.691 33.6055 201.449 33.6055H201.32C199.246 33.6055 198.191 32.5859 198.191 30.5469ZM206.23 27.7812C205.527 27.7812 205.012 27.3477 205.012 26.6328C205.012 25.9297 205.527 25.4961 206.23 25.4961H211.844C212.547 25.4961 213.074 25.9297 213.074 26.6328C213.074 27.3477 212.547 27.7812 211.844 27.7812H206.23ZM220.844 33.7344C217.129 33.7344 214.949 31.3789 214.949 27.3945C214.949 23.4805 217.176 20.9492 220.668 20.9492C223.949 20.9492 226.211 23.3164 226.211 26.6797C226.211 27.5 225.742 27.9688 224.957 27.9688H217.504V28.0273C217.504 30.2773 218.77 31.6836 220.785 31.6836C222.168 31.6836 223.035 31.2031 223.973 29.9258C224.242 29.6094 224.5 29.4805 224.863 29.4805C225.473 29.4805 225.918 29.8789 225.918 30.5117C225.918 30.7109 225.848 30.9453 225.742 31.1914C224.934 32.8086 223.141 33.7344 220.844 33.7344ZM217.516 26.1992H223.68C223.621 24.2656 222.414 22.9883 220.656 22.9883C218.91 22.9883 217.645 24.2773 217.516 26.1992ZM229.445 33.7227C228.695 33.7227 228.18 33.2188 228.18 32.3867V22.2266C228.18 21.4531 228.648 20.9492 229.387 20.9492C230.113 20.9492 230.617 21.4531 230.617 22.2383V23.2109H230.676C231.344 21.8047 232.633 20.9609 234.531 20.9609C237.25 20.9609 238.809 22.6953 238.809 25.5195V32.3867C238.809 33.2188 238.281 33.7227 237.531 33.7227C236.793 33.7227 236.266 33.2188 236.266 32.3867V26.0117C236.266 24.1602 235.398 23.1406 233.641 23.1406C231.859 23.1406 230.711 24.4062 230.711 26.3164V32.3867C230.711 33.2188 230.184 33.7227 229.445 33.7227ZM245.887 33.7109C242.77 33.7109 240.707 31.2266 240.707 27.3359C240.707 23.4453 242.77 20.9727 245.863 20.9727C247.633 20.9727 249.039 21.8633 249.73 23.2227H249.777V17.7031C249.777 16.8711 250.305 16.3672 251.055 16.3672C251.793 16.3672 252.32 16.8711 252.32 17.7031V32.457C252.32 33.2539 251.805 33.7227 251.066 33.7227C250.352 33.7227 249.777 33.2539 249.777 32.457V31.3086H249.742C249.109 32.75 247.809 33.7109 245.887 33.7109ZM246.555 31.5664C248.5 31.5664 249.801 29.9141 249.801 27.3359C249.801 24.7812 248.5 23.1055 246.555 23.1055C244.551 23.1055 243.297 24.7461 243.297 27.3359C243.297 29.9375 244.551 31.5664 246.555 31.5664Z" fill="white"/>
</svg>
