<svg width="128" height="128" viewBox="0 0 128 128" fill="none" xmlns="http://www.w3.org/2000/svg">
<rect width="128" height="128" rx="64" fill="#262626"/>
<path d="M64 51.8336C86.6417 51.8336 100.499 59.7113 100.499 64C100.499 68.2887 86.6417 76.1664 64 76.1664C41.3583 76.1664 27.5007 68.2887 27.5007 64C27.5007 59.7113 41.3583 51.8336 64 51.8336ZM64 45.7504C40.4823 45.7504 21.4175 53.9201 21.4175 64C21.4175 74.0799 40.4823 82.2496 64 82.2496C87.5177 82.2496 106.582 74.0799 106.582 64C106.582 53.9201 87.5177 45.7504 64 45.7504Z" fill="#00BCD4"/>
<path d="M64 57.9168C62.7968 57.9168 61.6207 58.2736 60.6203 58.942C59.62 59.6104 58.8403 60.5605 58.3798 61.6721C57.9194 62.7836 57.7989 64.0067 58.0337 65.1868C58.2684 66.3668 58.8478 67.4507 59.6985 68.3015C60.5493 69.1522 61.6332 69.7316 62.8132 69.9663C63.9932 70.201 65.2164 70.0806 66.3279 69.6202C67.4395 69.1597 68.3896 68.38 69.058 67.3797C69.7264 66.3793 70.0832 65.2031 70.0832 64C70.0832 62.3866 69.4423 60.8393 68.3015 59.6985C67.1606 58.5577 65.6134 57.9168 64 57.9168Z" fill="#00BCD4"/>
<path d="M47.1434 32.0845C53.2783 32.0845 65.2014 41.7476 74.5361 57.9168C85.857 77.526 85.9634 93.464 82.2496 95.6083C81.8212 95.8305 81.3416 95.9354 80.8596 95.9125C74.7247 95.9125 62.7986 86.2524 53.4639 70.0832C42.143 50.474 42.0366 34.536 45.7504 32.3917C46.1797 32.169 46.6604 32.061 47.1434 32.0845ZM47.1404 26.0043C45.5903 25.9762 44.0606 26.3615 42.7088 27.1206C33.9794 32.1605 36.437 52.7582 48.1958 73.1248C58.1844 90.4315 71.677 101.999 80.8626 101.999C82.4123 102.024 83.9408 101.637 85.2912 100.876C94.0206 95.8395 91.563 75.2418 79.8042 54.8752C69.8155 37.5685 56.326 26.0043 47.1404 26.0043Z" fill="#00BCD4"/>
<path d="M80.8596 32.0845C81.3416 32.0615 81.8212 32.1665 82.2496 32.3886C85.9634 34.536 85.857 50.474 74.5361 70.0832C65.1984 86.2524 53.2753 95.9155 47.1404 95.9155C46.6583 95.9385 46.1788 95.8335 45.7504 95.6114C42.0366 93.461 42.143 77.523 53.4639 57.9168C62.8016 41.7476 74.7247 32.0845 80.8596 32.0845ZM80.8596 26.0012C71.674 26.0012 58.1844 37.5715 48.1928 54.8752C36.44 75.2418 33.9794 95.8395 42.7088 100.876C44.06 101.638 45.5897 102.025 47.1404 101.999C56.326 101.999 69.8155 90.4285 79.8072 73.1248C91.56 52.7582 94.0206 32.1605 85.2912 27.1236C83.9399 26.3625 82.4103 25.9751 80.8596 26.0012Z" fill="#00BCD4"/>
</svg>
