<svg width="128" height="128" viewBox="0 0 128 128" fill="none" xmlns="http://www.w3.org/2000/svg">
<rect width="128" height="128" rx="64" fill="#262626"/>
<rect x="20" y="20" width="88" height="88" rx="44" fill="#00BCD4"/>
<path d="M64 56.8571C77.2929 56.8571 85.4286 61.4821 85.4286 64C85.4286 66.5179 77.2929 71.1429 64 71.1429C50.7071 71.1429 42.5714 66.5179 42.5714 64C42.5714 61.4821 50.7071 56.8571 64 56.8571ZM64 53.2857C50.1929 53.2857 39 58.0821 39 64C39 69.9179 50.1929 74.7143 64 74.7143C77.8072 74.7143 89 69.9179 89 64C89 58.0821 77.8072 53.2857 64 53.2857Z" fill="#262626"/>
<path d="M64 60.4286C63.2936 60.4286 62.6031 60.638 62.0158 61.0305C61.4285 61.4229 60.9708 61.9807 60.7004 62.6333C60.4301 63.2859 60.3594 64.004 60.4972 64.6967C60.635 65.3895 60.9752 66.0259 61.4746 66.5254C61.9741 67.0249 62.6105 67.365 63.3033 67.5028C63.996 67.6406 64.7141 67.5699 65.3667 67.2996C66.0193 67.0293 66.5771 66.5715 66.9695 65.9842C67.362 65.3969 67.5714 64.7064 67.5714 64C67.5714 63.0528 67.1952 62.1444 66.5254 61.4746C65.8556 60.8048 64.9472 60.4286 64 60.4286Z" fill="#262626"/>
<path d="M54.1036 45.2625C57.7054 45.2625 64.7054 50.9357 70.1857 60.4286C76.8322 71.9411 76.8947 81.2982 74.7143 82.5571C74.4628 82.6876 74.1812 82.7492 73.8982 82.7357C70.2964 82.7357 63.2947 77.0643 57.8143 67.5714C51.1679 56.0589 51.1054 46.7018 53.2857 45.4428C53.5378 45.3121 53.82 45.2487 54.1036 45.2625ZM54.1018 41.6928C53.1917 41.6764 52.2937 41.9026 51.5 42.3482C46.375 45.3071 47.8179 57.4 54.7214 69.3571C60.5857 79.5179 68.5072 86.3089 73.9 86.3089C74.8098 86.324 75.7072 86.0966 76.5 85.65C81.625 82.6929 80.1822 70.6 73.2786 58.6429C67.4143 48.4821 59.4946 41.6928 54.1018 41.6928Z" fill="#262626"/>
<path d="M73.8982 45.2625C74.1812 45.249 74.4628 45.3106 74.7143 45.4411C76.8947 46.7018 76.8322 56.0589 70.1857 67.5714C64.7036 77.0643 57.7036 82.7375 54.1018 82.7375C53.8188 82.751 53.5372 82.6893 53.2857 82.5589C51.1054 81.2964 51.1679 71.9393 57.8143 60.4286C63.2964 50.9357 70.2964 45.2625 73.8982 45.2625ZM73.8982 41.6911C68.5054 41.6911 60.5857 48.4839 54.7196 58.6429C47.8196 70.6 46.375 82.6929 51.5 85.65C52.2933 86.0969 53.1914 86.3243 54.1018 86.3089C59.4946 86.3089 67.4143 79.5161 73.2804 69.3571C80.1804 57.4 81.625 45.3071 76.5 42.35C75.7067 41.9031 74.8086 41.6757 73.8982 41.6911Z" fill="#262626"/>
</svg>
