<svg width="870" height="207" viewBox="0 0 870 207" fill="none" xmlns="http://www.w3.org/2000/svg">
<rect width="550" height="207" rx="30" fill="#9ADDFF" fill-opacity="0.2"/>
<path d="M188.023 47C187.203 47 186.711 46.4844 186.711 45.6406V31.4492C186.711 30.6055 187.203 30.0898 188.023 30.0898H192.676C197.703 30.0898 200.68 33.1836 200.68 38.5156C200.68 43.8594 197.715 47 192.676 47H188.023ZM189.336 44.7266H192.43C196.016 44.7266 197.996 42.5352 197.996 38.5391C197.996 34.5547 196.004 32.3516 192.43 32.3516H189.336V44.7266ZM208.227 47.2344C204.512 47.2344 202.332 44.8789 202.332 40.8945C202.332 36.9805 204.559 34.4492 208.051 34.4492C211.332 34.4492 213.594 36.8164 213.594 40.1797C213.594 41 213.125 41.4688 212.34 41.4688H204.887V41.5273C204.887 43.7773 206.152 45.1836 208.168 45.1836C209.551 45.1836 210.418 44.7031 211.355 43.4258C211.625 43.1094 211.883 42.9805 212.246 42.9805C212.855 42.9805 213.301 43.3789 213.301 44.0117C213.301 44.2109 213.23 44.4453 213.125 44.6914C212.316 46.3086 210.523 47.2344 208.227 47.2344ZM204.898 39.6992H211.062C211.004 37.7656 209.797 36.4883 208.039 36.4883C206.293 36.4883 205.027 37.7773 204.898 39.6992ZM220.109 47.2344C217.684 47.2344 215.902 46.2383 215.316 44.7266C215.234 44.5391 215.211 44.3633 215.211 44.1992C215.211 43.5664 215.668 43.1914 216.301 43.1914C216.723 43.1914 217.086 43.3906 217.402 43.8594C218.035 44.8555 218.773 45.3008 220.238 45.3008C221.68 45.3008 222.652 44.6797 222.652 43.6602C222.652 42.8516 222.172 42.418 220.848 42.1016L218.902 41.6445C216.512 41.082 215.34 39.9102 215.34 38.1523C215.34 35.9258 217.273 34.4492 220.203 34.4492C222.43 34.4492 224.258 35.5859 224.609 37.0391C224.633 37.1797 224.656 37.2969 224.656 37.4141C224.656 37.9766 224.305 38.3516 223.672 38.3516C223.262 38.3516 222.898 38.2109 222.652 37.8125C222.102 36.875 221.352 36.3828 220.109 36.3828C218.75 36.3828 217.812 37.0508 217.812 38.0117C217.812 38.7852 218.41 39.3242 219.711 39.6289L221.621 40.0742C224.211 40.6719 225.207 41.5977 225.207 43.4258C225.207 45.7109 223.156 47.2344 220.109 47.2344ZM232.508 47.2344C228.793 47.2344 226.613 44.8789 226.613 40.8945C226.613 36.9805 228.84 34.4492 232.332 34.4492C235.613 34.4492 237.875 36.8164 237.875 40.1797C237.875 41 237.406 41.4688 236.621 41.4688H229.168V41.5273C229.168 43.7773 230.434 45.1836 232.449 45.1836C233.832 45.1836 234.699 44.7031 235.637 43.4258C235.906 43.1094 236.164 42.9805 236.527 42.9805C237.137 42.9805 237.582 43.3789 237.582 44.0117C237.582 44.2109 237.512 44.4453 237.406 44.6914C236.598 46.3086 234.805 47.2344 232.508 47.2344ZM229.18 39.6992H235.344C235.285 37.7656 234.078 36.4883 232.32 36.4883C230.574 36.4883 229.309 37.7773 229.18 39.6992ZM241.109 47.2227C240.359 47.2227 239.844 46.7188 239.844 45.8867V35.7266C239.844 34.9531 240.312 34.4492 241.051 34.4492C241.777 34.4492 242.281 34.9531 242.281 35.7383V36.7109H242.34C243.008 35.3047 244.297 34.4609 246.195 34.4609C248.914 34.4609 250.473 36.1953 250.473 39.0195V45.8867C250.473 46.7188 249.945 47.2227 249.195 47.2227C248.457 47.2227 247.93 46.7188 247.93 45.8867V39.5117C247.93 37.6602 247.062 36.6406 245.305 36.6406C243.523 36.6406 242.375 37.9062 242.375 39.8164V45.8867C242.375 46.7188 241.848 47.2227 241.109 47.2227ZM257.645 47.2227C256.742 47.2227 256.25 46.8477 255.898 45.9336L252.242 36.3125C252.16 36.0898 252.102 35.8438 252.102 35.6094C252.102 34.9062 252.641 34.4492 253.379 34.4492C253.965 34.4492 254.363 34.7656 254.574 35.4453L257.633 44.5273H257.68L260.738 35.4219C260.949 34.7656 261.348 34.4492 261.922 34.4492C262.648 34.4492 263.164 34.9297 263.164 35.5977C263.164 35.8203 263.117 36.0664 263.035 36.2773L259.379 45.9336C259.051 46.8242 258.512 47.2227 257.645 47.2227ZM269.82 47.2344C266.293 47.2344 263.973 44.8086 263.973 40.8359C263.973 36.875 266.305 34.4492 269.82 34.4492C273.336 34.4492 275.668 36.875 275.668 40.8359C275.668 44.8086 273.348 47.2344 269.82 47.2344ZM269.82 45.1484C271.812 45.1484 273.09 43.5781 273.09 40.8359C273.09 38.1055 271.801 36.5352 269.82 36.5352C267.84 36.5352 266.551 38.1055 266.551 40.8359C266.551 43.5781 267.84 45.1484 269.82 45.1484ZM278.984 47.2227C278.246 47.2227 277.719 46.7188 277.719 45.8867V31.2031C277.719 30.3711 278.246 29.8672 278.984 29.8672C279.723 29.8672 280.25 30.3711 280.25 31.2031V45.8867C280.25 46.7188 279.723 47.2227 278.984 47.2227ZM287.598 47.2227C286.695 47.2227 286.203 46.8477 285.852 45.9336L282.195 36.3125C282.113 36.0898 282.055 35.8438 282.055 35.6094C282.055 34.9062 282.594 34.4492 283.332 34.4492C283.918 34.4492 284.316 34.7656 284.527 35.4453L287.586 44.5273H287.633L290.691 35.4219C290.902 34.7656 291.301 34.4492 291.875 34.4492C292.602 34.4492 293.117 34.9297 293.117 35.5977C293.117 35.8203 293.07 36.0664 292.988 36.2773L289.332 45.9336C289.004 46.8242 288.465 47.2227 287.598 47.2227ZM296.176 32.8086C295.367 32.8086 294.711 32.1523 294.711 31.3555C294.711 30.5469 295.367 29.9141 296.176 29.9141C296.996 29.9141 297.652 30.5469 297.652 31.3555C297.652 32.1523 296.996 32.8086 296.176 32.8086ZM296.176 47.2227C295.414 47.2227 294.91 46.6953 294.91 45.8867V35.7969C294.91 34.9766 295.414 34.4492 296.176 34.4492C296.938 34.4492 297.441 34.9766 297.441 35.7969V45.8867C297.441 46.6953 296.938 47.2227 296.176 47.2227ZM301.297 47.2227C300.535 47.2227 300.031 46.6953 300.031 45.8867V35.7383C300.031 34.9414 300.523 34.4492 301.238 34.4492C301.941 34.4492 302.445 34.9297 302.445 35.7383V36.7461H302.504C303.055 35.375 304.344 34.4609 306.008 34.4609C307.719 34.4609 308.961 35.3398 309.453 36.875H309.512C310.145 35.375 311.598 34.4609 313.355 34.4609C315.793 34.4609 317.387 36.0781 317.387 38.5273V45.8867C317.387 46.6953 316.871 47.2227 316.109 47.2227C315.348 47.2227 314.844 46.6953 314.844 45.8867V39.1367C314.844 37.543 313.988 36.6289 312.488 36.6289C310.988 36.6289 309.945 37.7422 309.945 39.3008V45.8867C309.945 46.6953 309.465 47.2227 308.703 47.2227C307.941 47.2227 307.461 46.6953 307.461 45.8867V38.9492C307.461 37.5312 306.559 36.6289 305.129 36.6289C303.629 36.6289 302.562 37.8008 302.562 39.3828V45.8867C302.562 46.6953 302.059 47.2227 301.297 47.2227ZM325.18 47.2344C321.465 47.2344 319.285 44.8789 319.285 40.8945C319.285 36.9805 321.512 34.4492 325.004 34.4492C328.285 34.4492 330.547 36.8164 330.547 40.1797C330.547 41 330.078 41.4688 329.293 41.4688H321.84V41.5273C321.84 43.7773 323.105 45.1836 325.121 45.1836C326.504 45.1836 327.371 44.7031 328.309 43.4258C328.578 43.1094 328.836 42.9805 329.199 42.9805C329.809 42.9805 330.254 43.3789 330.254 44.0117C330.254 44.2109 330.184 44.4453 330.078 44.6914C329.27 46.3086 327.477 47.2344 325.18 47.2344ZM321.852 39.6992H328.016C327.957 37.7656 326.75 36.4883 324.992 36.4883C323.246 36.4883 321.98 37.7773 321.852 39.6992ZM333.781 47.2227C333.031 47.2227 332.516 46.7188 332.516 45.8867V35.7266C332.516 34.9531 332.984 34.4492 333.723 34.4492C334.449 34.4492 334.953 34.9531 334.953 35.7383V36.7109H335.012C335.68 35.3047 336.969 34.4609 338.867 34.4609C341.586 34.4609 343.145 36.1953 343.145 39.0195V45.8867C343.145 46.7188 342.617 47.2227 341.867 47.2227C341.129 47.2227 340.602 46.7188 340.602 45.8867V39.5117C340.602 37.6602 339.734 36.6406 337.977 36.6406C336.195 36.6406 335.047 37.9062 335.047 39.8164V45.8867C335.047 46.7188 334.52 47.2227 333.781 47.2227ZM346.332 44.0469V36.6758H345.441C344.785 36.6758 344.387 36.3008 344.387 35.6797C344.387 35.0469 344.785 34.6719 345.441 34.6719H346.332V32.8438C346.332 32.0352 346.836 31.4961 347.609 31.4961C348.371 31.4961 348.875 32.0352 348.875 32.8438V34.6719H350.316C350.973 34.6719 351.371 35.0586 351.371 35.6797C351.371 36.3008 350.973 36.6758 350.316 36.6758H348.875V43.4844C348.875 44.4688 349.215 44.9141 350.129 44.9844L350.328 44.9961C351.055 45.0664 351.418 45.3594 351.418 45.957C351.418 46.7188 350.832 47.1055 349.59 47.1055H349.461C347.387 47.1055 346.332 46.0859 346.332 44.0469ZM358.297 47.2344C354.77 47.2344 352.449 44.8086 352.449 40.8359C352.449 36.875 354.781 34.4492 358.297 34.4492C361.812 34.4492 364.145 36.875 364.145 40.8359C364.145 44.8086 361.824 47.2344 358.297 47.2344ZM358.297 45.1484C360.289 45.1484 361.566 43.5781 361.566 40.8359C361.566 38.1055 360.277 36.5352 358.297 36.5352C356.316 36.5352 355.027 38.1055 355.027 40.8359C355.027 43.5781 356.316 45.1484 358.297 45.1484Z" fill="#9ADDFF"/>
<rect x="30" y="77" width="100" height="100" rx="20" fill="#F95801" fill-opacity="0.2"/>
<path d="M55 91.5L59.1667 137.333L80 141.5L100.833 137.333L105 91.5H55ZM96.0833 106.083H70.1667L70.7708 112.333H95.4792L93.8083 131.781L79.9792 135.25L66.1562 131.821L65.2708 122.75H71.5625L71.9583 126.917L80 128.521L88 126.917L88.6042 118.583H65.0833L63.3333 99.8333H96.6667L96.0833 106.083Z" fill="#E65100"/>
<path d="M61.4551 162.639C60.7593 162.639 60.3491 162.214 60.3491 161.489V152.942C60.3491 152.209 60.7593 151.785 61.4551 151.785C62.1509 151.785 62.561 152.209 62.561 152.942V156.223H67.3218V152.942C67.3218 152.209 67.7319 151.785 68.4277 151.785C69.1235 151.785 69.5337 152.209 69.5337 152.942V161.489C69.5337 162.214 69.1235 162.639 68.4277 162.639C67.7319 162.639 67.3218 162.214 67.3218 161.489V158.047H62.561V161.489C62.561 162.214 62.1509 162.639 61.4551 162.639ZM74.9243 162.639C74.2285 162.639 73.8184 162.214 73.8184 161.489V153.762H71.6357C71.0352 153.762 70.6323 153.418 70.6323 152.847C70.6323 152.275 71.0278 151.931 71.6357 151.931H78.2202C78.8208 151.931 79.2163 152.275 79.2163 152.847C79.2163 153.418 78.8135 153.762 78.2202 153.762H76.0303V161.489C76.0303 162.214 75.6201 162.639 74.9243 162.639ZM81.3037 162.639C80.6812 162.639 80.3149 162.258 80.3149 161.606V153.213C80.3149 152.319 80.8423 151.785 81.7432 151.785C82.5122 151.785 82.937 152.107 83.2593 152.927L85.8813 159.424H85.9399L88.5547 152.927C88.877 152.114 89.3091 151.785 90.0854 151.785C90.979 151.785 91.5063 152.312 91.5063 153.213V161.606C91.5063 162.258 91.1401 162.639 90.5176 162.639C89.895 162.639 89.5361 162.258 89.5361 161.606V155.366H89.4775L86.8628 161.76C86.6724 162.229 86.3794 162.434 85.918 162.434C85.4492 162.434 85.1416 162.222 84.9585 161.768L82.3438 155.366H82.2852V161.606C82.2852 162.258 81.9263 162.639 81.3037 162.639ZM94.3701 162.5C93.6743 162.5 93.2642 162.075 93.2642 161.343V152.942C93.2642 152.209 93.6743 151.785 94.3701 151.785C95.0659 151.785 95.4761 152.209 95.4761 152.942V160.669H99.2261C99.8267 160.669 100.229 161.013 100.229 161.584C100.229 162.156 99.834 162.5 99.2261 162.5H94.3701Z" fill="#E65100"/>
<rect x="160" y="77" width="100" height="100" rx="20" fill="#B976FF" fill-opacity="0.2"/>
<path d="M185 91.5H227C231.418 91.5 235 95.0812 235 99.5V133.5C235 137.919 231.419 141.5 227 141.5H193C188.582 141.5 185 137.919 185 133.5V91.5Z" fill="#AB7ED9"/>
<path d="M202.905 137.501C199.694 137.498 197.712 135.688 197.75 132.36V123.941C197.75 122.254 198.244 120.971 199.232 120.093C201.007 118.382 205.123 118.279 206.861 120.119C207.932 121.063 208.337 122.992 208.241 124.793H204.555C204.584 124.086 204.545 123.014 204.129 122.611C203.589 121.88 202.162 121.965 201.784 122.727C201.552 123.14 201.436 123.75 201.436 124.561V131.87C201.436 133.402 201.968 134.177 203.034 134.194C203.532 134.193 203.91 134.012 204.168 133.651C204.527 133.221 204.584 132.273 204.555 131.584H208.241C208.493 135.088 206.423 137.544 202.905 137.501ZM214.607 137.501C211.048 137.55 209.457 135.016 209.554 131.585H213.035C212.937 133.082 213.452 134.444 214.684 134.35C215.234 134.35 215.62 134.177 215.844 133.832C216.268 133.202 216.349 131.385 215.74 130.682C215.316 130.004 213.789 129.406 212.983 129.003C211.831 128.452 211.002 127.798 210.496 127.039C209.352 125.358 209.458 121.667 211.062 120.17C212.621 118.323 216.693 118.239 218.254 120.132C219.216 121.107 219.636 123.026 219.555 124.793H216.204C216.233 124.067 216.164 122.895 215.882 122.469C215.684 122.107 215.31 121.926 214.761 121.926C213.781 121.926 213.291 122.512 213.291 123.682C213.302 124.925 213.787 125.436 214.916 125.954C216.378 126.522 218.237 127.493 218.911 128.666C220.921 132.244 219.541 137.71 214.607 137.501ZM225.845 137.501C222.286 137.55 220.695 135.016 220.793 131.585H224.273C224.175 133.082 224.689 134.444 225.923 134.35C226.472 134.35 226.858 134.177 227.082 133.832C227.506 133.202 227.586 131.385 226.979 130.682C226.554 130.004 225.027 129.406 224.221 129.003C223.069 128.452 222.24 127.798 221.734 127.039C220.589 125.358 220.696 121.667 222.3 120.17C223.86 118.323 227.93 118.239 229.492 120.132C230.454 121.107 230.874 123.026 230.793 124.793H227.442C227.47 124.067 227.403 122.895 227.12 122.469C226.922 122.107 226.548 121.926 225.999 121.926C225.019 121.926 224.529 122.512 224.529 123.682C224.54 124.925 225.025 125.436 226.154 125.954C227.616 126.522 229.475 127.493 230.149 128.666C232.159 132.244 230.78 137.71 225.845 137.501Z" fill="#464364"/>
<path d="M200.764 162.676C197.629 162.676 195.725 160.625 195.725 157.212C195.725 153.806 197.666 151.748 200.706 151.748C202.683 151.748 204.214 152.627 204.939 154.15C205.085 154.429 205.159 154.714 205.159 154.978C205.159 155.557 204.771 155.93 204.185 155.93C203.687 155.93 203.372 155.71 203.13 155.198C202.646 154.121 201.782 153.579 200.728 153.579C199.058 153.579 197.981 154.978 197.981 157.205C197.981 159.46 199.043 160.852 200.735 160.852C201.848 160.852 202.683 160.347 203.159 159.285C203.386 158.787 203.665 158.589 204.133 158.589C204.756 158.589 205.166 158.984 205.166 159.57C205.166 159.819 205.107 160.054 204.998 160.31C204.338 161.775 202.764 162.676 200.764 162.676ZM210.615 162.676C208.433 162.676 207.034 161.804 206.609 160.647C206.536 160.457 206.492 160.251 206.492 160.054C206.492 159.468 206.895 159.08 207.466 159.08C207.92 159.08 208.22 159.255 208.484 159.724C208.828 160.53 209.656 160.896 210.667 160.896C211.853 160.896 212.659 160.325 212.659 159.548C212.659 158.853 212.161 158.457 210.835 158.186L209.714 157.966C207.605 157.549 206.572 156.538 206.572 154.963C206.572 153.03 208.257 151.748 210.608 151.748C212.542 151.748 213.999 152.561 214.468 153.938C214.519 154.084 214.548 154.238 214.548 154.429C214.548 154.956 214.167 155.315 213.604 155.315C213.105 155.315 212.798 155.117 212.549 154.663C212.197 153.865 211.516 153.535 210.608 153.535C209.517 153.535 208.792 154.048 208.792 154.824C208.792 155.476 209.297 155.879 210.549 156.128L211.663 156.355C213.904 156.802 214.871 157.703 214.871 159.307C214.871 161.372 213.252 162.676 210.615 162.676ZM220.093 162.676C217.91 162.676 216.511 161.804 216.086 160.647C216.013 160.457 215.969 160.251 215.969 160.054C215.969 159.468 216.372 159.08 216.943 159.08C217.397 159.08 217.698 159.255 217.961 159.724C218.306 160.53 219.133 160.896 220.144 160.896C221.331 160.896 222.136 160.325 222.136 159.548C222.136 158.853 221.638 158.457 220.312 158.186L219.192 157.966C217.083 157.549 216.05 156.538 216.05 154.963C216.05 153.03 217.734 151.748 220.085 151.748C222.019 151.748 223.477 152.561 223.945 153.938C223.997 154.084 224.026 154.238 224.026 154.429C224.026 154.956 223.645 155.315 223.081 155.315C222.583 155.315 222.275 155.117 222.026 154.663C221.675 153.865 220.994 153.535 220.085 153.535C218.994 153.535 218.269 154.048 218.269 154.824C218.269 155.476 218.774 155.879 220.027 156.128L221.14 156.355C223.381 156.802 224.348 157.703 224.348 159.307C224.348 161.372 222.729 162.676 220.093 162.676Z" fill="#AB7ED9"/>
<rect x="290" y="77" width="100" height="100" rx="20" fill="#FFCA28" fill-opacity="0.2"/>
<path d="M325 91.5C319.477 91.5 315 95.9772 315 101.5V131.5C315 137.023 319.477 141.5 325 141.5H355C360.523 141.5 365 137.023 365 131.5V101.5C365 95.9772 360.523 91.5 355 91.5H325ZM342.211 130.495C342.211 135.361 339.354 137.582 335.191 137.582C332.428 137.582 330.52 136.534 329.259 135.044C328.492 134.137 328.911 132.819 329.928 132.205C331.044 131.531 332.347 132.076 333.381 132.869C333.801 133.191 334.313 133.386 334.991 133.386C336.53 133.386 337.513 132.782 337.513 130.429V116.806C337.513 115.509 338.564 114.457 339.862 114.457C341.159 114.457 342.211 115.509 342.211 116.806V130.495ZM353.326 137.581C353.325 137.582 353.325 137.582 353.324 137.582C349.989 137.582 347.554 136.37 345.978 134.582C345.17 133.665 345.592 132.305 346.65 131.694C347.731 131.07 349.059 131.491 350.008 132.302C350.824 132.998 351.848 133.43 353.225 133.43C355.166 133.43 356.418 132.459 356.418 131.109C356.418 129.502 355.145 128.932 352.991 127.984L351.82 127.482C348.427 126.043 346.184 124.223 346.184 120.395C346.184 116.868 348.873 114.189 353.059 114.189C355.343 114.189 357.132 114.794 358.537 116.293C359.323 117.131 358.976 118.435 358.009 119.055C356.959 119.727 355.646 119.204 354.546 118.62C354.112 118.389 353.624 118.286 353.048 118.286C351.677 118.286 350.805 119.157 350.805 120.295C350.805 121.702 351.677 122.27 353.696 123.152L354.868 123.654C358.864 125.361 361.107 127.114 361.107 131.041C361.107 135.26 357.781 137.58 353.328 137.58C353.327 137.58 353.326 137.581 353.326 137.581Z" fill="#FFCA28"/>
<path d="M307.07 162.676C305.481 162.676 304.258 161.951 303.76 160.735C303.635 160.427 303.577 160.164 303.577 159.841C303.577 159.204 303.979 158.801 304.602 158.801C305.159 158.801 305.481 159.065 305.657 159.666C305.854 160.376 306.345 160.771 307.048 160.771C307.971 160.771 308.469 160.2 308.469 159.138V152.942C308.469 152.209 308.879 151.785 309.575 151.785C310.271 151.785 310.681 152.209 310.681 152.942V159.153C310.681 161.401 309.333 162.676 307.07 162.676ZM314.666 162.625C313.171 162.625 312.036 161.658 312.036 160.244C312.036 158.816 313.135 157.988 315.098 157.871L317.075 157.754V157.234C317.075 156.501 316.562 156.077 315.757 156.077C315.105 156.077 314.709 156.289 314.233 156.904C313.999 157.168 313.728 157.3 313.384 157.3C312.864 157.3 312.49 156.963 312.49 156.479C312.49 156.311 312.527 156.157 312.6 155.996C312.966 155.059 314.226 154.48 315.852 154.48C317.866 154.48 319.177 155.52 319.177 157.102V161.577C319.177 162.288 318.745 162.654 318.137 162.654C317.559 162.654 317.156 162.332 317.112 161.702V161.299H317.068C316.628 162.134 315.647 162.625 314.666 162.625ZM315.369 161.079C316.306 161.079 317.075 160.471 317.075 159.622V159.05L315.42 159.153C314.622 159.211 314.167 159.57 314.167 160.127C314.167 160.713 314.651 161.079 315.369 161.079ZM323.813 162.654C322.993 162.654 322.554 162.324 322.268 161.562L320.225 156.084C320.159 155.894 320.107 155.667 320.107 155.447C320.107 154.868 320.569 154.487 321.177 154.487C321.697 154.487 322.041 154.766 322.202 155.344L323.792 160.61H323.835L325.425 155.322C325.571 154.758 325.93 154.487 326.428 154.487C327.021 154.487 327.468 154.897 327.468 155.439C327.468 155.637 327.417 155.857 327.351 156.04L325.308 161.562C325.037 162.317 324.59 162.654 323.813 162.654ZM330.574 162.625C329.08 162.625 327.944 161.658 327.944 160.244C327.944 158.816 329.043 157.988 331.006 157.871L332.983 157.754V157.234C332.983 156.501 332.471 156.077 331.665 156.077C331.013 156.077 330.618 156.289 330.142 156.904C329.907 157.168 329.636 157.3 329.292 157.3C328.772 157.3 328.398 156.963 328.398 156.479C328.398 156.311 328.435 156.157 328.508 155.996C328.875 155.059 330.134 154.48 331.76 154.48C333.774 154.48 335.085 155.52 335.085 157.102V161.577C335.085 162.288 334.653 162.654 334.045 162.654C333.467 162.654 333.064 162.332 333.02 161.702V161.299H332.976C332.537 162.134 331.555 162.625 330.574 162.625ZM331.277 161.079C332.214 161.079 332.983 160.471 332.983 159.622V159.05L331.328 159.153C330.53 159.211 330.076 159.57 330.076 160.127C330.076 160.713 330.559 161.079 331.277 161.079ZM340.52 162.676C338.337 162.676 336.938 161.804 336.514 160.647C336.44 160.457 336.396 160.251 336.396 160.054C336.396 159.468 336.799 159.08 337.371 159.08C337.825 159.08 338.125 159.255 338.389 159.724C338.733 160.53 339.561 160.896 340.571 160.896C341.758 160.896 342.563 160.325 342.563 159.548C342.563 158.853 342.065 158.457 340.74 158.186L339.619 157.966C337.51 157.549 336.477 156.538 336.477 154.963C336.477 153.03 338.162 151.748 340.513 151.748C342.446 151.748 343.904 152.561 344.373 153.938C344.424 154.084 344.453 154.238 344.453 154.429C344.453 154.956 344.072 155.315 343.508 155.315C343.01 155.315 342.703 155.117 342.454 154.663C342.102 153.865 341.421 153.535 340.513 153.535C339.421 153.535 338.696 154.048 338.696 154.824C338.696 155.476 339.202 155.879 340.454 156.128L341.567 156.355C343.809 156.802 344.775 157.703 344.775 159.307C344.775 161.372 343.157 162.676 340.52 162.676ZM349.529 162.668C347.163 162.668 345.662 161.116 345.662 158.574C345.662 156.062 347.156 154.48 349.514 154.48C351.089 154.48 352.4 155.242 352.825 156.355C352.898 156.538 352.942 156.729 352.942 156.882C352.942 157.41 352.532 157.717 352.026 157.717C351.602 157.717 351.345 157.549 351.125 157.161C350.737 156.472 350.261 156.157 349.58 156.157C348.496 156.157 347.83 157.051 347.83 158.567C347.83 160.112 348.496 160.991 349.565 160.991C350.312 160.991 350.774 160.625 351.104 160.068C351.389 159.622 351.624 159.438 352.078 159.438C352.576 159.438 352.979 159.768 352.979 160.295C352.979 160.464 352.935 160.64 352.839 160.852C352.371 161.921 351.03 162.668 349.529 162.668ZM355.19 162.654C354.546 162.654 354.121 162.251 354.121 161.541V155.564C354.121 154.883 354.539 154.487 355.154 154.487C355.754 154.487 356.165 154.883 356.165 155.564V156.077H356.208C356.414 155.103 357.058 154.524 357.842 154.524C358.127 154.524 358.354 154.59 358.508 154.722C358.713 154.883 358.816 155.146 358.816 155.513C358.816 155.85 358.713 156.106 358.508 156.282C358.303 156.458 357.996 156.553 357.578 156.56C356.604 156.575 356.26 157.124 356.26 158.054V161.541C356.26 162.251 355.842 162.654 355.19 162.654ZM360.691 153.674C360.046 153.674 359.548 153.184 359.548 152.568C359.548 151.946 360.046 151.462 360.691 151.462C361.335 151.462 361.833 151.946 361.833 152.568C361.833 153.184 361.335 153.674 360.691 153.674ZM360.691 162.654C360.024 162.654 359.622 162.236 359.622 161.541V155.608C359.622 154.912 360.024 154.487 360.691 154.487C361.35 154.487 361.76 154.912 361.76 155.608V161.541C361.76 162.236 361.35 162.654 360.691 162.654ZM364.258 165.298C363.635 165.298 363.188 164.917 363.188 164.185V155.586C363.188 154.868 363.628 154.487 364.243 154.487C364.858 154.487 365.298 154.868 365.298 155.593V156.018H365.342C365.767 155.095 366.638 154.524 367.773 154.524C369.766 154.524 370.989 156.04 370.989 158.574C370.989 161.101 369.773 162.625 367.81 162.625C366.667 162.625 365.789 162.068 365.371 161.182H365.327V164.185C365.327 164.917 364.888 165.298 364.258 165.298ZM367.056 160.903C368.125 160.903 368.799 160.002 368.799 158.574C368.799 157.153 368.125 156.238 367.056 156.238C366.008 156.238 365.32 157.168 365.32 158.574C365.32 159.995 366.008 160.903 367.056 160.903ZM372.666 160.493V156.26H372.256C371.75 156.26 371.428 155.952 371.428 155.454C371.428 154.956 371.75 154.648 372.256 154.648H372.666V153.777C372.666 153.088 373.069 152.664 373.735 152.664C374.402 152.664 374.805 153.088 374.805 153.777V154.648H375.559C376.064 154.648 376.379 154.963 376.379 155.454C376.379 155.945 376.064 156.26 375.559 156.26H374.805V160.017C374.805 160.574 374.995 160.808 375.457 160.845L375.596 160.859C376.123 160.918 376.409 161.138 376.409 161.636C376.409 162.266 375.793 162.588 374.893 162.588H374.819C373.391 162.588 372.666 161.877 372.666 160.493Z" fill="#FFCA28"/>
<rect x="420" y="77" width="100" height="100" rx="20" fill="#61DAFB" fill-opacity="0.2"/>
<path d="M470 121.598C472.816 121.598 475.099 119.316 475.099 116.5C475.099 113.684 472.816 111.402 470 111.402C467.184 111.402 464.902 113.684 464.902 116.5C464.902 119.316 467.184 121.598 470 121.598Z" fill="#61DAFB"/>
<path d="M489.365 108.092C488.381 107.734 487.352 107.377 486.279 107.064C486.547 105.99 486.771 104.917 486.95 103.888C487.889 97.9848 486.86 93.8256 483.998 92.2156C483.149 91.7236 482.209 91.5 481.136 91.5C478.005 91.5 474.025 93.8256 470 97.7165C465.975 93.8256 461.995 91.5 458.864 91.5C457.791 91.5 456.852 91.7236 456.002 92.2156C453.14 93.8703 452.111 98.0295 453.05 103.888C453.229 104.917 453.453 105.99 453.721 107.064C452.648 107.377 451.619 107.69 450.635 108.092C445.045 110.239 442.004 113.191 442.004 116.5C442.004 119.809 445.089 122.761 450.635 124.908C451.619 125.266 452.648 125.623 453.721 125.936C453.453 127.01 453.229 128.083 453.05 129.112C452.111 135.015 453.14 139.174 456.002 140.784C456.852 141.276 457.791 141.5 458.864 141.5C462.039 141.5 466.02 139.174 470 135.284C474.025 139.174 478.005 141.5 481.136 141.5C482.209 141.5 483.149 141.276 483.998 140.784C486.86 139.13 487.889 134.97 486.95 129.112C486.771 128.083 486.547 127.01 486.279 125.936C487.352 125.623 488.381 125.31 489.365 124.908C494.955 122.761 497.996 119.809 497.996 116.5C497.996 113.191 494.955 110.239 489.365 108.092ZM482.746 94.4517C484.58 95.525 485.206 98.8345 484.445 103.53C484.311 104.47 484.088 105.453 483.819 106.482C481.494 105.945 479.034 105.588 476.44 105.364C474.92 103.217 473.354 101.294 471.789 99.5501C475.098 96.2853 478.453 94.0492 481.181 94.0492C481.762 94.0492 482.299 94.1834 482.746 94.4517ZM477.737 120.972C476.932 122.403 475.993 123.835 475.009 125.266C473.354 125.4 471.699 125.445 470 125.445C468.256 125.445 466.601 125.4 464.991 125.266C464.007 123.835 463.113 122.403 462.308 120.972C461.458 119.496 460.653 117.976 459.937 116.5C460.653 115.024 461.458 113.504 462.308 112.028C463.113 110.597 464.052 109.165 465.036 107.734C466.691 107.6 468.345 107.555 470.045 107.555C471.789 107.555 473.444 107.6 475.054 107.734C476.038 109.165 476.932 110.597 477.737 112.028C478.587 113.504 479.392 115.024 480.107 116.5C479.347 117.976 478.587 119.452 477.737 120.972ZM481.449 119.496C482.12 121.062 482.657 122.582 483.149 124.103C481.628 124.461 480.018 124.729 478.318 124.953C478.855 124.103 479.437 123.208 479.928 122.269C480.465 121.33 480.957 120.391 481.449 119.496ZM470 131.616C468.927 130.453 467.898 129.201 466.914 127.904C467.943 127.949 468.971 127.994 470 127.994C471.029 127.994 472.057 127.949 473.086 127.904C472.102 129.201 471.073 130.453 470 131.616ZM461.682 124.908C459.982 124.684 458.372 124.416 456.852 124.058C457.343 122.582 457.88 121.017 458.551 119.452C459.043 120.346 459.535 121.285 460.072 122.18C460.608 123.164 461.145 124.013 461.682 124.908ZM458.551 113.504C457.88 111.938 457.343 110.418 456.852 108.897C458.372 108.539 459.982 108.271 461.682 108.047C461.145 108.897 460.564 109.792 460.072 110.731C459.535 111.67 459.043 112.609 458.551 113.504ZM470 101.384C471.073 102.547 472.102 103.799 473.086 105.096C472.057 105.051 471.029 105.006 470 105.006C468.971 105.006 467.943 105.051 466.914 105.096C467.898 103.799 468.927 102.547 470 101.384ZM479.928 110.775L478.318 108.092C480.018 108.316 481.628 108.584 483.149 108.942C482.657 110.418 482.12 111.983 481.449 113.548C480.957 112.609 480.465 111.67 479.928 110.775ZM455.555 103.53C454.794 98.8345 455.42 95.525 457.254 94.4517C457.701 94.1834 458.238 94.0492 458.819 94.0492C461.503 94.0492 464.857 96.2406 468.211 99.5501C466.646 101.25 465.081 103.217 463.56 105.364C460.966 105.588 458.506 105.99 456.181 106.482C455.912 105.453 455.733 104.47 455.555 103.53ZM444.508 116.5C444.508 114.398 447.057 112.162 451.53 110.507C452.424 110.149 453.408 109.836 454.392 109.568C455.107 111.804 456.002 114.174 457.075 116.545C456.002 118.915 455.063 121.241 454.392 123.477C448.22 121.688 444.508 119.004 444.508 116.5ZM457.254 138.548C455.42 137.475 454.794 134.165 455.555 129.47C455.689 128.53 455.912 127.547 456.181 126.518C458.506 127.055 460.966 127.412 463.56 127.636C465.081 129.783 466.646 131.706 468.211 133.45C464.902 136.715 461.547 138.951 458.819 138.951C458.238 138.951 457.701 138.817 457.254 138.548ZM484.445 129.47C485.206 134.165 484.58 137.475 482.746 138.548C482.299 138.817 481.762 138.951 481.181 138.951C478.497 138.951 475.143 136.759 471.789 133.45C473.354 131.75 474.92 129.783 476.44 127.636C479.034 127.412 481.494 127.01 483.819 126.518C484.088 127.547 484.267 128.53 484.445 129.47ZM488.471 122.493C487.576 122.851 486.592 123.164 485.608 123.432C484.893 121.196 483.998 118.826 482.925 116.455C483.998 114.085 484.937 111.759 485.608 109.523C491.78 111.312 495.492 113.996 495.492 116.5C495.492 118.602 492.898 120.838 488.471 122.493Z" fill="#61DAFB"/>
<path d="M452.188 162.654C451.499 162.654 451.082 162.229 451.082 161.504V153.081C451.082 152.356 451.492 151.931 452.188 151.931H455.41C457.842 151.931 459.233 153.213 459.233 155.3C459.233 156.619 458.582 157.747 457.417 158.245L458.94 160.881C459.124 161.196 459.175 161.387 459.175 161.643C459.175 162.229 458.706 162.654 458.062 162.654C457.534 162.654 457.292 162.463 456.934 161.819L455.176 158.633H453.293V161.504C453.293 162.229 452.883 162.654 452.188 162.654ZM453.293 157.029H455.198C456.311 157.029 456.963 156.392 456.963 155.344C456.963 154.319 456.274 153.66 455.176 153.66H453.293V157.029ZM464.045 162.668C461.592 162.668 460.149 161.152 460.149 158.611C460.149 156.084 461.621 154.48 463.943 154.48C466.169 154.48 467.664 156.003 467.664 158.135C467.664 158.728 467.327 159.065 466.733 159.065H462.251V159.16C462.251 160.325 462.954 161.086 464.038 161.086C464.822 161.086 465.334 160.823 465.913 160.142C466.14 159.907 466.331 159.827 466.609 159.827C467.07 159.827 467.444 160.12 467.444 160.61C467.444 160.779 467.393 160.955 467.297 161.13C466.777 162.097 465.562 162.668 464.045 162.668ZM462.273 157.754H465.605C465.562 156.729 464.902 156.062 463.965 156.062C463.027 156.062 462.346 156.75 462.273 157.754ZM471.091 162.625C469.597 162.625 468.462 161.658 468.462 160.244C468.462 158.816 469.561 157.988 471.523 157.871L473.501 157.754V157.234C473.501 156.501 472.988 156.077 472.183 156.077C471.531 156.077 471.135 156.289 470.659 156.904C470.425 157.168 470.154 157.3 469.81 157.3C469.29 157.3 468.916 156.963 468.916 156.479C468.916 156.311 468.953 156.157 469.026 155.996C469.392 155.059 470.652 154.48 472.278 154.48C474.292 154.48 475.603 155.52 475.603 157.102V161.577C475.603 162.288 475.171 162.654 474.563 162.654C473.984 162.654 473.582 162.332 473.538 161.702V161.299H473.494C473.054 162.134 472.073 162.625 471.091 162.625ZM471.794 161.079C472.732 161.079 473.501 160.471 473.501 159.622V159.05L471.846 159.153C471.047 159.211 470.593 159.57 470.593 160.127C470.593 160.713 471.077 161.079 471.794 161.079ZM480.569 162.668C478.203 162.668 476.702 161.116 476.702 158.574C476.702 156.062 478.196 154.48 480.554 154.48C482.129 154.48 483.44 155.242 483.865 156.355C483.938 156.538 483.982 156.729 483.982 156.882C483.982 157.41 483.572 157.717 483.066 157.717C482.642 157.717 482.385 157.549 482.166 157.161C481.777 156.472 481.301 156.157 480.62 156.157C479.536 156.157 478.87 157.051 478.87 158.567C478.87 160.112 479.536 160.991 480.605 160.991C481.353 160.991 481.814 160.625 482.144 160.068C482.429 159.622 482.664 159.438 483.118 159.438C483.616 159.438 484.019 159.768 484.019 160.295C484.019 160.464 483.975 160.64 483.879 160.852C483.411 161.921 482.07 162.668 480.569 162.668ZM485.732 160.493V156.26H485.322C484.817 156.26 484.495 155.952 484.495 155.454C484.495 154.956 484.817 154.648 485.322 154.648H485.732V153.777C485.732 153.088 486.135 152.664 486.802 152.664C487.468 152.664 487.871 153.088 487.871 153.777V154.648H488.625C489.131 154.648 489.446 154.963 489.446 155.454C489.446 155.945 489.131 156.26 488.625 156.26H487.871V160.017C487.871 160.574 488.062 160.808 488.523 160.845L488.662 160.859C489.189 160.918 489.475 161.138 489.475 161.636C489.475 162.266 488.86 162.588 487.959 162.588H487.886C486.458 162.588 485.732 161.877 485.732 160.493Z" fill="#61DAFB"/>
<rect x="580" width="290" height="207" rx="30" fill="#C89AFF" fill-opacity="0.2"/>
<path d="M691.566 47C690.746 47 690.254 46.4844 690.254 45.6406V31.4492C690.254 30.6055 690.746 30.0898 691.566 30.0898H696.219C701.246 30.0898 704.223 33.1836 704.223 38.5156C704.223 43.8594 701.258 47 696.219 47H691.566ZM692.879 44.7266H695.973C699.559 44.7266 701.539 42.5352 701.539 38.5391C701.539 34.5547 699.547 32.3516 695.973 32.3516H692.879V44.7266ZM711.77 47.2344C708.055 47.2344 705.875 44.8789 705.875 40.8945C705.875 36.9805 708.102 34.4492 711.594 34.4492C714.875 34.4492 717.137 36.8164 717.137 40.1797C717.137 41 716.668 41.4688 715.883 41.4688H708.43V41.5273C708.43 43.7773 709.695 45.1836 711.711 45.1836C713.094 45.1836 713.961 44.7031 714.898 43.4258C715.168 43.1094 715.426 42.9805 715.789 42.9805C716.398 42.9805 716.844 43.3789 716.844 44.0117C716.844 44.2109 716.773 44.4453 716.668 44.6914C715.859 46.3086 714.066 47.2344 711.77 47.2344ZM708.441 39.6992H714.605C714.547 37.7656 713.34 36.4883 711.582 36.4883C709.836 36.4883 708.57 37.7773 708.441 39.6992ZM723.652 47.2344C721.227 47.2344 719.445 46.2383 718.859 44.7266C718.777 44.5391 718.754 44.3633 718.754 44.1992C718.754 43.5664 719.211 43.1914 719.844 43.1914C720.266 43.1914 720.629 43.3906 720.945 43.8594C721.578 44.8555 722.316 45.3008 723.781 45.3008C725.223 45.3008 726.195 44.6797 726.195 43.6602C726.195 42.8516 725.715 42.418 724.391 42.1016L722.445 41.6445C720.055 41.082 718.883 39.9102 718.883 38.1523C718.883 35.9258 720.816 34.4492 723.746 34.4492C725.973 34.4492 727.801 35.5859 728.152 37.0391C728.176 37.1797 728.199 37.2969 728.199 37.4141C728.199 37.9766 727.848 38.3516 727.215 38.3516C726.805 38.3516 726.441 38.2109 726.195 37.8125C725.645 36.875 724.895 36.3828 723.652 36.3828C722.293 36.3828 721.355 37.0508 721.355 38.0117C721.355 38.7852 721.953 39.3242 723.254 39.6289L725.164 40.0742C727.754 40.6719 728.75 41.5977 728.75 43.4258C728.75 45.7109 726.699 47.2344 723.652 47.2344ZM732.055 32.8086C731.246 32.8086 730.59 32.1523 730.59 31.3555C730.59 30.5469 731.246 29.9141 732.055 29.9141C732.875 29.9141 733.531 30.5469 733.531 31.3555C733.531 32.1523 732.875 32.8086 732.055 32.8086ZM732.055 47.2227C731.293 47.2227 730.789 46.6953 730.789 45.8867V35.7969C730.789 34.9766 731.293 34.4492 732.055 34.4492C732.816 34.4492 733.32 34.9766 733.32 35.7969V45.8867C733.32 46.6953 732.816 47.2227 732.055 47.2227ZM741.078 51.6406C738.84 51.6172 737.07 50.75 736.227 49.4141C736.062 49.1328 735.992 48.875 735.992 48.582C735.992 47.9961 736.426 47.5742 737.07 47.5742C737.457 47.5742 737.703 47.7031 738.043 48.043C739.051 49.0977 739.918 49.5547 741.125 49.5781C743.188 49.6016 744.441 48.4297 744.441 46.707V44.75H744.383C743.691 46.0859 742.238 46.9648 740.48 46.9648C737.375 46.9648 735.359 44.5391 735.359 40.7305C735.359 36.875 737.352 34.4727 740.539 34.4727C742.285 34.4727 743.645 35.3516 744.395 36.7461H744.441V35.75C744.441 34.9297 744.992 34.4492 745.719 34.4492C746.445 34.4492 746.984 34.9297 746.984 35.75V46.6602C746.984 49.707 744.746 51.6758 741.078 51.6406ZM741.16 44.9023C743.141 44.9023 744.453 43.2852 744.453 40.7539C744.453 38.2227 743.141 36.5586 741.16 36.5586C739.215 36.5586 737.949 38.1758 737.949 40.7422C737.949 43.3203 739.215 44.9023 741.16 44.9023ZM750.746 47.2227C749.996 47.2227 749.48 46.7188 749.48 45.8867V35.7266C749.48 34.9531 749.949 34.4492 750.688 34.4492C751.414 34.4492 751.918 34.9531 751.918 35.7383V36.7109H751.977C752.645 35.3047 753.934 34.4609 755.832 34.4609C758.551 34.4609 760.109 36.1953 760.109 39.0195V45.8867C760.109 46.7188 759.582 47.2227 758.832 47.2227C758.094 47.2227 757.566 46.7188 757.566 45.8867V39.5117C757.566 37.6602 756.699 36.6406 754.941 36.6406C753.16 36.6406 752.012 37.9062 752.012 39.8164V45.8867C752.012 46.7188 751.484 47.2227 750.746 47.2227Z" fill="#C89AFF"/>
<rect x="610" y="77" width="100" height="100" rx="20" fill="white" fill-opacity="0.2"/>
<path d="M643 91.5H677V108.167H660L643 91.5ZM643 108.167H660L677 124.833H660V141.5L643 124.833V108.167Z" fill="white"/>
<path d="M637.749 162.639C637.053 162.639 636.643 162.214 636.643 161.489V153.081C636.643 152.356 637.053 151.931 637.749 151.931H642.693C643.301 151.931 643.696 152.275 643.696 152.847C643.696 153.418 643.293 153.762 642.693 153.762H638.855V156.589H642.334C642.905 156.589 643.279 156.919 643.279 157.461C643.279 158.01 642.913 158.34 642.334 158.34H638.855V161.489C638.855 162.214 638.445 162.639 637.749 162.639ZM645.762 162.654C645.117 162.654 644.692 162.251 644.692 161.541V155.564C644.692 154.883 645.11 154.487 645.725 154.487C646.326 154.487 646.736 154.883 646.736 155.564V156.077H646.78C646.985 155.103 647.629 154.524 648.413 154.524C648.699 154.524 648.926 154.59 649.08 154.722C649.285 154.883 649.387 155.146 649.387 155.513C649.387 155.85 649.285 156.106 649.08 156.282C648.875 156.458 648.567 156.553 648.149 156.56C647.175 156.575 646.831 157.124 646.831 158.054V161.541C646.831 162.251 646.414 162.654 645.762 162.654ZM652.288 162.625C650.793 162.625 649.658 161.658 649.658 160.244C649.658 158.816 650.757 157.988 652.72 157.871L654.697 157.754V157.234C654.697 156.501 654.185 156.077 653.379 156.077C652.727 156.077 652.332 156.289 651.855 156.904C651.621 157.168 651.35 157.3 651.006 157.3C650.486 157.3 650.112 156.963 650.112 156.479C650.112 156.311 650.149 156.157 650.222 155.996C650.588 155.059 651.848 154.48 653.474 154.48C655.488 154.48 656.799 155.52 656.799 157.102V161.577C656.799 162.288 656.367 162.654 655.759 162.654C655.181 162.654 654.778 162.332 654.734 161.702V161.299H654.69C654.25 162.134 653.269 162.625 652.288 162.625ZM652.991 161.079C653.928 161.079 654.697 160.471 654.697 159.622V159.05L653.042 159.153C652.244 159.211 651.79 159.57 651.79 160.127C651.79 160.713 652.273 161.079 652.991 161.079ZM659.253 162.654C658.616 162.654 658.184 162.266 658.184 161.541V155.579C658.184 154.861 658.608 154.487 659.216 154.487C659.824 154.487 660.249 154.861 660.249 155.579V156.069H660.293C660.623 155.125 661.465 154.502 662.534 154.502C663.669 154.502 664.46 155.088 664.724 156.113H664.768C665.12 155.125 666.057 154.502 667.207 154.502C668.745 154.502 669.778 155.557 669.778 157.139V161.541C669.778 162.266 669.338 162.654 668.701 162.654C668.071 162.654 667.639 162.266 667.639 161.541V157.673C667.639 156.765 667.185 156.267 666.357 156.267C665.544 156.267 665.01 156.86 665.01 157.732V161.541C665.01 162.266 664.614 162.654 663.977 162.654C663.347 162.654 662.952 162.266 662.952 161.541V157.607C662.952 156.765 662.476 156.267 661.685 156.267C660.872 156.267 660.322 156.882 660.322 157.761V161.541C660.322 162.266 659.883 162.654 659.253 162.654ZM674.744 162.668C672.29 162.668 670.847 161.152 670.847 158.611C670.847 156.084 672.319 154.48 674.641 154.48C676.868 154.48 678.362 156.003 678.362 158.135C678.362 158.728 678.025 159.065 677.432 159.065H672.949V159.16C672.949 160.325 673.652 161.086 674.736 161.086C675.52 161.086 676.033 160.823 676.611 160.142C676.838 159.907 677.029 159.827 677.307 159.827C677.769 159.827 678.142 160.12 678.142 160.61C678.142 160.779 678.091 160.955 677.996 161.13C677.476 162.097 676.26 162.668 674.744 162.668ZM672.971 157.754H676.304C676.26 156.729 675.601 156.062 674.663 156.062C673.726 156.062 673.044 156.75 672.971 157.754ZM680.537 162.654C679.893 162.654 679.468 162.251 679.468 161.541V155.564C679.468 154.883 679.885 154.487 680.5 154.487C681.101 154.487 681.511 154.883 681.511 155.564V156.077H681.555C681.76 155.103 682.405 154.524 683.188 154.524C683.474 154.524 683.701 154.59 683.855 154.722C684.06 154.883 684.163 155.146 684.163 155.513C684.163 155.85 684.06 156.106 683.855 156.282C683.65 156.458 683.342 156.553 682.925 156.56C681.951 156.575 681.606 157.124 681.606 158.054V161.541C681.606 162.251 681.189 162.654 680.537 162.654Z" fill="white"/>
<rect x="740" y="77" width="100" height="100" rx="20" fill="black" fill-opacity="0.2"/>
<path d="M781.5 141.5C786.205 141.5 790 137.779 790 133.167V124.833H781.5C776.795 124.833 773 128.554 773 133.167C773 137.779 776.795 141.5 781.5 141.5Z" fill="#0ACF83"/>
<path d="M773 116.5C773 111.888 776.795 108.167 781.5 108.167H790V124.833H781.5C776.795 124.833 773 121.112 773 116.5Z" fill="#A259FF"/>
<path d="M773 99.8333C773 95.2209 776.795 91.5 781.5 91.5H790V108.167H781.5C776.795 108.167 773 104.446 773 99.8333Z" fill="#F24E1E"/>
<path d="M790 91.5H798.5C803.205 91.5 807 95.2209 807 99.8333C807 104.446 803.205 108.167 798.5 108.167H790V91.5Z" fill="#FF7262"/>
<path d="M807 116.5C807 121.112 803.205 124.833 798.5 124.833C793.795 124.833 790 121.112 790 116.5C790 111.888 793.795 108.167 798.5 108.167C803.205 108.167 807 111.888 807 116.5Z" fill="#1ABCFE"/>
<path d="M771.03 162.639C770.334 162.639 769.924 162.214 769.924 161.489V153.081C769.924 152.356 770.334 151.931 771.03 151.931H775.974C776.582 151.931 776.978 152.275 776.978 152.847C776.978 153.418 776.575 153.762 775.974 153.762H772.136V156.589H775.615C776.187 156.589 776.56 156.919 776.56 157.461C776.56 158.01 776.194 158.34 775.615 158.34H772.136V161.489C772.136 162.214 771.726 162.639 771.03 162.639ZM779.08 153.674C778.435 153.674 777.937 153.184 777.937 152.568C777.937 151.946 778.435 151.462 779.08 151.462C779.724 151.462 780.222 151.946 780.222 152.568C780.222 153.184 779.724 153.674 779.08 153.674ZM779.08 162.654C778.413 162.654 778.01 162.236 778.01 161.541V155.608C778.01 154.912 778.413 154.487 779.08 154.487C779.739 154.487 780.149 154.912 780.149 155.608V161.541C780.149 162.236 779.739 162.654 779.08 162.654ZM785.085 165.452C783.481 165.444 782.288 164.836 781.782 164.009C781.665 163.811 781.621 163.613 781.621 163.416C781.621 162.969 781.958 162.632 782.493 162.632C782.771 162.632 782.991 162.72 783.232 162.939C783.811 163.489 784.368 163.789 785.078 163.796C786.25 163.804 786.938 163.159 786.938 162.178V160.925H786.895C786.528 161.768 785.613 162.332 784.478 162.332C782.522 162.332 781.292 160.837 781.292 158.442C781.292 155.981 782.493 154.524 784.514 154.524C785.642 154.524 786.499 155.117 786.909 156.003H786.953V155.571C786.953 154.846 787.415 154.487 788.03 154.487C788.645 154.487 789.092 154.846 789.092 155.571V162.192C789.092 164.236 787.612 165.466 785.085 165.452ZM785.203 160.742C786.272 160.742 786.96 159.893 786.96 158.472C786.96 157.058 786.272 156.15 785.203 156.15C784.148 156.15 783.481 157.043 783.481 158.464C783.481 159.9 784.141 160.742 785.203 160.742ZM791.553 162.654C790.916 162.654 790.483 162.266 790.483 161.541V155.579C790.483 154.861 790.908 154.487 791.516 154.487C792.124 154.487 792.549 154.861 792.549 155.579V156.069H792.593C792.922 155.125 793.765 154.502 794.834 154.502C795.969 154.502 796.76 155.088 797.024 156.113H797.068C797.419 155.125 798.357 154.502 799.507 154.502C801.045 154.502 802.078 155.557 802.078 157.139V161.541C802.078 162.266 801.638 162.654 801.001 162.654C800.371 162.654 799.939 162.266 799.939 161.541V157.673C799.939 156.765 799.485 156.267 798.657 156.267C797.844 156.267 797.31 156.86 797.31 157.732V161.541C797.31 162.266 796.914 162.654 796.277 162.654C795.647 162.654 795.251 162.266 795.251 161.541V157.607C795.251 156.765 794.775 156.267 793.984 156.267C793.171 156.267 792.622 156.882 792.622 157.761V161.541C792.622 162.266 792.183 162.654 791.553 162.654ZM805.754 162.625C804.26 162.625 803.125 161.658 803.125 160.244C803.125 158.816 804.224 157.988 806.187 157.871L808.164 157.754V157.234C808.164 156.501 807.651 156.077 806.846 156.077C806.194 156.077 805.798 156.289 805.322 156.904C805.088 157.168 804.817 157.3 804.473 157.3C803.953 157.3 803.579 156.963 803.579 156.479C803.579 156.311 803.616 156.157 803.689 155.996C804.055 155.059 805.315 154.48 806.941 154.48C808.955 154.48 810.266 155.52 810.266 157.102V161.577C810.266 162.288 809.834 162.654 809.226 162.654C808.647 162.654 808.245 162.332 808.201 161.702V161.299H808.157C807.717 162.134 806.736 162.625 805.754 162.625ZM806.458 161.079C807.395 161.079 808.164 160.471 808.164 159.622V159.05L806.509 159.153C805.71 159.211 805.256 159.57 805.256 160.127C805.256 160.713 805.74 161.079 806.458 161.079Z" fill="white"/>
</svg>
