<svg width="337" height="50" viewBox="0 0 337 50" fill="none" xmlns="http://www.w3.org/2000/svg">
<rect width="50" height="50" rx="15" fill="white" fill-opacity="0.2"/>
<path d="M27.6344 11.9687C26.86 9.34375 23.14 9.34375 22.3656 11.9687L22.1781 12.6063C22.0624 12.9992 21.8602 13.3613 21.5864 13.666C21.3125 13.9707 20.9739 14.2102 20.5954 14.367C20.2169 14.5238 19.8082 14.5939 19.3991 14.5721C18.99 14.5503 18.591 14.4373 18.2312 14.2413L17.65 13.9225C15.2444 12.6137 12.6137 15.2444 13.9244 17.6481L14.2413 18.2312C15.0775 19.7688 14.2844 21.6831 12.6063 22.1781L11.9687 22.3656C9.34375 23.14 9.34375 26.86 11.9687 27.6344L12.6063 27.8219C12.9992 27.9376 13.3613 28.1398 13.666 28.4136C13.9707 28.6875 14.2102 29.0261 14.367 29.4046C14.5238 29.7831 14.5939 30.1918 14.5721 30.6009C14.5503 31.01 14.4373 31.409 14.2413 31.7687L13.9225 32.35C12.6137 34.7556 15.2444 37.3862 17.6481 36.0756L18.2312 35.7587C18.591 35.5627 18.99 35.4497 19.3991 35.4279C19.8082 35.4061 20.2169 35.4762 20.5954 35.633C20.9739 35.7898 21.3125 36.0293 21.5864 36.334C21.8602 36.6387 22.0624 37.0008 22.1781 37.3937L22.3656 38.0312C23.14 40.6562 26.86 40.6562 27.6344 38.0312L27.8219 37.3937C27.9376 37.0008 28.1398 36.6387 28.4136 36.334C28.6875 36.0293 29.0261 35.7898 29.4046 35.633C29.7831 35.4762 30.1918 35.4061 30.6009 35.4279C31.01 35.4497 31.409 35.5627 31.7687 35.7587L32.35 36.0775C34.7556 37.3862 37.3862 34.7556 36.0756 32.3519L35.7587 31.7687C35.5627 31.409 35.4497 31.01 35.4279 30.6009C35.4061 30.1918 35.4762 29.7831 35.633 29.4046C35.7898 29.0261 36.0293 28.6875 36.334 28.4136C36.6387 28.1398 37.0008 27.9376 37.3937 27.8219L38.0312 27.6344C40.6562 26.86 40.6562 23.14 38.0312 22.3656L37.3937 22.1781C37.0008 22.0624 36.6387 21.8602 36.334 21.5864C36.0293 21.3125 35.7898 20.9739 35.633 20.5954C35.4762 20.2169 35.4061 19.8082 35.4279 19.3991C35.4497 18.99 35.5627 18.591 35.7587 18.2312L36.0775 17.65C37.3862 15.2444 34.7556 12.6137 32.3519 13.9244L31.7687 14.2413C31.409 14.4373 31.01 14.5503 30.6009 14.5721C30.1918 14.5939 29.7831 14.5238 29.4046 14.367C29.0261 14.2102 28.6875 13.9707 28.4136 13.666C28.1398 13.3613 27.9376 12.9992 27.8219 12.6063L27.6344 11.9687ZM25 30.4938C23.543 30.4938 22.1456 29.9149 21.1153 28.8847C20.0851 27.8544 19.5063 26.457 19.5063 25C19.5063 23.543 20.0851 22.1456 21.1153 21.1153C22.1456 20.0851 23.543 19.5063 25 19.5063C26.4565 19.5063 27.8534 20.0849 28.8833 21.1148C29.9133 22.1447 30.4919 23.5416 30.4919 24.9981C30.4919 26.4547 29.9133 27.8515 28.8833 28.8815C27.8534 29.9114 26.4565 30.49 25 30.49V30.4938Z" fill="white"/>
<path d="M67.5078 33.6875C66.6875 33.6875 66.1953 33.1719 66.1953 32.3281V18.8633H62.0469C61.3203 18.8633 60.8281 18.418 60.8281 17.7266C60.8281 17.0352 61.3203 16.5898 62.0469 16.5898H72.957C73.6836 16.5898 74.1758 17.0352 74.1758 17.7266C74.1758 18.418 73.6836 18.8633 72.957 18.8633H68.8203V32.3281C68.8203 33.1719 68.3164 33.6875 67.5078 33.6875ZM78.1484 33.7344C74.4336 33.7344 72.2539 31.3789 72.2539 27.3945C72.2539 23.4805 74.4805 20.9492 77.9727 20.9492C81.2539 20.9492 83.5156 23.3164 83.5156 26.6797C83.5156 27.5 83.0469 27.9688 82.2617 27.9688H74.8086V28.0273C74.8086 30.2773 76.0742 31.6836 78.0898 31.6836C79.4727 31.6836 80.3398 31.2031 81.2773 29.9258C81.5469 29.6094 81.8047 29.4805 82.168 29.4805C82.7773 29.4805 83.2227 29.8789 83.2227 30.5117C83.2227 30.7109 83.1523 30.9453 83.0469 31.1914C82.2383 32.8086 80.4453 33.7344 78.1484 33.7344ZM74.8203 26.1992H80.9844C80.9258 24.2656 79.7188 22.9883 77.9609 22.9883C76.2148 22.9883 74.9492 24.2773 74.8203 26.1992ZM90.7578 33.7344C87.2305 33.7344 84.9336 31.2852 84.9336 27.3594C84.9336 23.457 87.2188 20.9492 90.7344 20.9492C93.1133 20.9492 95.1523 22.2148 95.6914 23.9375C95.7617 24.1367 95.8086 24.3477 95.8086 24.5234C95.8086 25.168 95.3516 25.5664 94.7305 25.5664C94.1914 25.5664 93.8867 25.3555 93.582 24.793C92.9492 23.6211 92.082 23.0586 90.7812 23.0586C88.8008 23.0586 87.5117 24.7109 87.5117 27.3359C87.5117 30.0195 88.8242 31.6133 90.7812 31.6133C92.1523 31.6133 92.9844 31.0039 93.582 29.9375C93.9336 29.3281 94.2031 29.1172 94.7539 29.1172C95.375 29.1172 95.832 29.5391 95.832 30.1719C95.832 30.3711 95.7852 30.582 95.6914 30.8281C95.0469 32.5273 93.043 33.7344 90.7578 33.7344ZM99.1484 33.7227C98.3984 33.7227 97.8828 33.2188 97.8828 32.3867V22.2266C97.8828 21.4531 98.3516 20.9492 99.0898 20.9492C99.8164 20.9492 100.32 21.4531 100.32 22.2383V23.2109H100.379C101.047 21.8047 102.336 20.9609 104.234 20.9609C106.953 20.9609 108.512 22.6953 108.512 25.5195V32.3867C108.512 33.2188 107.984 33.7227 107.234 33.7227C106.496 33.7227 105.969 33.2188 105.969 32.3867V26.0117C105.969 24.1602 105.102 23.1406 103.344 23.1406C101.562 23.1406 100.414 24.4062 100.414 26.3164V32.3867C100.414 33.2188 99.8867 33.7227 99.1484 33.7227ZM116.258 33.7344C112.73 33.7344 110.41 31.3086 110.41 27.3359C110.41 23.375 112.742 20.9492 116.258 20.9492C119.773 20.9492 122.105 23.375 122.105 27.3359C122.105 31.3086 119.785 33.7344 116.258 33.7344ZM116.258 31.6484C118.25 31.6484 119.527 30.0781 119.527 27.3359C119.527 24.6055 118.238 23.0352 116.258 23.0352C114.277 23.0352 112.988 24.6055 112.988 27.3359C112.988 30.0781 114.277 31.6484 116.258 31.6484ZM125.422 33.7227C124.684 33.7227 124.156 33.2188 124.156 32.3867V17.7031C124.156 16.8711 124.684 16.3672 125.422 16.3672C126.16 16.3672 126.688 16.8711 126.688 17.7031V32.3867C126.688 33.2188 126.16 33.7227 125.422 33.7227ZM134.586 33.7344C131.059 33.7344 128.738 31.3086 128.738 27.3359C128.738 23.375 131.07 20.9492 134.586 20.9492C138.102 20.9492 140.434 23.375 140.434 27.3359C140.434 31.3086 138.113 33.7344 134.586 33.7344ZM134.586 31.6484C136.578 31.6484 137.855 30.0781 137.855 27.3359C137.855 24.6055 136.566 23.0352 134.586 23.0352C132.605 23.0352 131.316 24.6055 131.316 27.3359C131.316 30.0781 132.605 31.6484 134.586 31.6484ZM147.559 38.1406C145.32 38.1172 143.551 37.25 142.707 35.9141C142.543 35.6328 142.473 35.375 142.473 35.082C142.473 34.4961 142.906 34.0742 143.551 34.0742C143.938 34.0742 144.184 34.2031 144.523 34.543C145.531 35.5977 146.398 36.0547 147.605 36.0781C149.668 36.1016 150.922 34.9297 150.922 33.207V31.25H150.863C150.172 32.5859 148.719 33.4648 146.961 33.4648C143.855 33.4648 141.84 31.0391 141.84 27.2305C141.84 23.375 143.832 20.9727 147.02 20.9727C148.766 20.9727 150.125 21.8516 150.875 23.2461H150.922V22.25C150.922 21.4297 151.473 20.9492 152.199 20.9492C152.926 20.9492 153.465 21.4297 153.465 22.25V33.1602C153.465 36.207 151.227 38.1758 147.559 38.1406ZM147.641 31.4023C149.621 31.4023 150.934 29.7852 150.934 27.2539C150.934 24.7227 149.621 23.0586 147.641 23.0586C145.695 23.0586 144.43 24.6758 144.43 27.2422C144.43 29.8203 145.695 31.4023 147.641 31.4023ZM157.309 19.3086C156.5 19.3086 155.844 18.6523 155.844 17.8555C155.844 17.0469 156.5 16.4141 157.309 16.4141C158.129 16.4141 158.785 17.0469 158.785 17.8555C158.785 18.6523 158.129 19.3086 157.309 19.3086ZM157.309 33.7227C156.547 33.7227 156.043 33.1953 156.043 32.3867V22.2969C156.043 21.4766 156.547 20.9492 157.309 20.9492C158.07 20.9492 158.574 21.4766 158.574 22.2969V32.3867C158.574 33.1953 158.07 33.7227 157.309 33.7227ZM164.773 33.7109C162.359 33.7109 160.66 32.2109 160.66 29.9961C160.66 27.8398 162.324 26.5156 165.242 26.3516L168.629 26.1523V25.2031C168.629 23.832 167.703 23.0117 166.156 23.0117C164.938 23.0117 164.129 23.4453 163.426 24.5703C163.168 24.9453 162.84 25.1094 162.395 25.1094C161.762 25.1094 161.305 24.6875 161.305 24.0547C161.305 23.7969 161.375 23.5156 161.527 23.2344C162.172 21.8398 164.035 20.9492 166.25 20.9492C169.238 20.9492 171.148 22.5312 171.148 25.0039V32.4453C171.148 33.2422 170.645 33.7227 169.93 33.7227C169.227 33.7227 168.746 33.2656 168.723 32.5156V31.4727H168.664C167.949 32.8438 166.379 33.7109 164.773 33.7109ZM165.465 31.707C167.234 31.707 168.629 30.4883 168.629 28.8828V27.9102L165.582 28.0977C164.07 28.2031 163.215 28.8711 163.215 29.9258C163.215 31.0039 164.117 31.707 165.465 31.707ZM178.156 33.7344C175.73 33.7344 173.949 32.7383 173.363 31.2266C173.281 31.0391 173.258 30.8633 173.258 30.6992C173.258 30.0664 173.715 29.6914 174.348 29.6914C174.77 29.6914 175.133 29.8906 175.449 30.3594C176.082 31.3555 176.82 31.8008 178.285 31.8008C179.727 31.8008 180.699 31.1797 180.699 30.1602C180.699 29.3516 180.219 28.918 178.895 28.6016L176.949 28.1445C174.559 27.582 173.387 26.4102 173.387 24.6523C173.387 22.4258 175.32 20.9492 178.25 20.9492C180.477 20.9492 182.305 22.0859 182.656 23.5391C182.68 23.6797 182.703 23.7969 182.703 23.9141C182.703 24.4766 182.352 24.8516 181.719 24.8516C181.309 24.8516 180.945 24.7109 180.699 24.3125C180.148 23.375 179.398 22.8828 178.156 22.8828C176.797 22.8828 175.859 23.5508 175.859 24.5117C175.859 25.2852 176.457 25.8242 177.758 26.1289L179.668 26.5742C182.258 27.1719 183.254 28.0977 183.254 29.9258C183.254 32.2109 181.203 33.7344 178.156 33.7344ZM195.43 33.7344C191.715 33.7344 189.535 31.3789 189.535 27.3945C189.535 23.4805 191.762 20.9492 195.254 20.9492C198.535 20.9492 200.797 23.3164 200.797 26.6797C200.797 27.5 200.328 27.9688 199.543 27.9688H192.09V28.0273C192.09 30.2773 193.355 31.6836 195.371 31.6836C196.754 31.6836 197.621 31.2031 198.559 29.9258C198.828 29.6094 199.086 29.4805 199.449 29.4805C200.059 29.4805 200.504 29.8789 200.504 30.5117C200.504 30.7109 200.434 30.9453 200.328 31.1914C199.52 32.8086 197.727 33.7344 195.43 33.7344ZM192.102 26.1992H198.266C198.207 24.2656 197 22.9883 195.242 22.9883C193.496 22.9883 192.23 24.2773 192.102 26.1992ZM209.258 33.6875C208.438 33.6875 207.945 33.1719 207.945 32.3281V17.9492C207.945 17.1055 208.438 16.5898 209.258 16.5898H217.461C218.199 16.5898 218.691 17.0352 218.691 17.7266C218.691 18.418 218.188 18.8633 217.461 18.8633H210.57V24.207H216.84C217.543 24.207 218.023 24.6406 218.023 25.3086C218.023 25.9883 217.543 26.4219 216.84 26.4219H210.57V32.3281C210.57 33.1719 210.066 33.6875 209.258 33.6875ZM225.406 33.7344C221.691 33.7344 219.512 31.3789 219.512 27.3945C219.512 23.4805 221.738 20.9492 225.23 20.9492C228.512 20.9492 230.773 23.3164 230.773 26.6797C230.773 27.5 230.305 27.9688 229.52 27.9688H222.066V28.0273C222.066 30.2773 223.332 31.6836 225.348 31.6836C226.73 31.6836 227.598 31.2031 228.535 29.9258C228.805 29.6094 229.062 29.4805 229.426 29.4805C230.035 29.4805 230.48 29.8789 230.48 30.5117C230.48 30.7109 230.41 30.9453 230.305 31.1914C229.496 32.8086 227.703 33.7344 225.406 33.7344ZM222.078 26.1992H228.242C228.184 24.2656 226.977 22.9883 225.219 22.9883C223.473 22.9883 222.207 24.2773 222.078 26.1992ZM234.008 33.7227C233.246 33.7227 232.742 33.207 232.742 32.3867V22.2266C232.742 21.4531 233.234 20.9492 233.949 20.9492C234.652 20.9492 235.145 21.4531 235.145 22.2266V23.2812H235.203C235.543 21.8984 236.68 20.9727 237.91 20.9727C238.355 20.9727 238.695 21.0781 238.906 21.2773C239.141 21.4648 239.246 21.7695 239.246 22.168C239.246 22.5664 239.117 22.8594 238.871 23.0586C238.613 23.2812 238.238 23.3867 237.711 23.3867C235.977 23.3984 235.273 24.5586 235.273 26.0938V32.3867C235.273 33.207 234.758 33.7227 234.008 33.7227ZM241.883 33.7227C241.121 33.7227 240.617 33.207 240.617 32.3867V22.2266C240.617 21.4531 241.109 20.9492 241.824 20.9492C242.527 20.9492 243.02 21.4531 243.02 22.2266V23.2812H243.078C243.418 21.8984 244.555 20.9727 245.785 20.9727C246.23 20.9727 246.57 21.0781 246.781 21.2773C247.016 21.4648 247.121 21.7695 247.121 22.168C247.121 22.5664 246.992 22.8594 246.746 23.0586C246.488 23.2812 246.113 23.3867 245.586 23.3867C243.852 23.3984 243.148 24.5586 243.148 26.0938V32.3867C243.148 33.207 242.633 33.7227 241.883 33.7227ZM251.844 33.7109C249.43 33.7109 247.73 32.2109 247.73 29.9961C247.73 27.8398 249.395 26.5156 252.312 26.3516L255.699 26.1523V25.2031C255.699 23.832 254.773 23.0117 253.227 23.0117C252.008 23.0117 251.199 23.4453 250.496 24.5703C250.238 24.9453 249.91 25.1094 249.465 25.1094C248.832 25.1094 248.375 24.6875 248.375 24.0547C248.375 23.7969 248.445 23.5156 248.598 23.2344C249.242 21.8398 251.105 20.9492 253.32 20.9492C256.309 20.9492 258.219 22.5312 258.219 25.0039V32.4453C258.219 33.2422 257.715 33.7227 257 33.7227C256.297 33.7227 255.816 33.2656 255.793 32.5156V31.4727H255.734C255.02 32.8438 253.449 33.7109 251.844 33.7109ZM252.535 31.707C254.305 31.707 255.699 30.4883 255.699 28.8828V27.9102L252.652 28.0977C251.141 28.2031 250.285 28.8711 250.285 29.9258C250.285 31.0039 251.188 31.707 252.535 31.707ZM261.945 33.7227C261.184 33.7227 260.68 33.1953 260.68 32.3867V22.2383C260.68 21.4414 261.172 20.9492 261.887 20.9492C262.59 20.9492 263.094 21.4297 263.094 22.2383V23.2461H263.152C263.703 21.875 264.992 20.9609 266.656 20.9609C268.367 20.9609 269.609 21.8398 270.102 23.375H270.16C270.793 21.875 272.246 20.9609 274.004 20.9609C276.441 20.9609 278.035 22.5781 278.035 25.0273V32.3867C278.035 33.1953 277.52 33.7227 276.758 33.7227C275.996 33.7227 275.492 33.1953 275.492 32.3867V25.6367C275.492 24.043 274.637 23.1289 273.137 23.1289C271.637 23.1289 270.594 24.2422 270.594 25.8008V32.3867C270.594 33.1953 270.113 33.7227 269.352 33.7227C268.59 33.7227 268.109 33.1953 268.109 32.3867V25.4492C268.109 24.0312 267.207 23.1289 265.777 23.1289C264.277 23.1289 263.211 24.3008 263.211 25.8828V32.3867C263.211 33.1953 262.707 33.7227 261.945 33.7227ZM285.828 33.7344C282.113 33.7344 279.934 31.3789 279.934 27.3945C279.934 23.4805 282.16 20.9492 285.652 20.9492C288.934 20.9492 291.195 23.3164 291.195 26.6797C291.195 27.5 290.727 27.9688 289.941 27.9688H282.488V28.0273C282.488 30.2773 283.754 31.6836 285.77 31.6836C287.152 31.6836 288.02 31.2031 288.957 29.9258C289.227 29.6094 289.484 29.4805 289.848 29.4805C290.457 29.4805 290.902 29.8789 290.902 30.5117C290.902 30.7109 290.832 30.9453 290.727 31.1914C289.918 32.8086 288.125 33.7344 285.828 33.7344ZM282.5 26.1992H288.664C288.605 24.2656 287.398 22.9883 285.641 22.9883C283.895 22.9883 282.629 24.2773 282.5 26.1992ZM294.43 33.7227C293.68 33.7227 293.164 33.2188 293.164 32.3867V22.2266C293.164 21.4531 293.633 20.9492 294.371 20.9492C295.098 20.9492 295.602 21.4531 295.602 22.2383V23.2109H295.66C296.328 21.8047 297.617 20.9609 299.516 20.9609C302.234 20.9609 303.793 22.6953 303.793 25.5195V32.3867C303.793 33.2188 303.266 33.7227 302.516 33.7227C301.777 33.7227 301.25 33.2188 301.25 32.3867V26.0117C301.25 24.1602 300.383 23.1406 298.625 23.1406C296.844 23.1406 295.695 24.4062 295.695 26.3164V32.3867C295.695 33.2188 295.168 33.7227 294.43 33.7227ZM306.98 30.5469V23.1758H306.09C305.434 23.1758 305.035 22.8008 305.035 22.1797C305.035 21.5469 305.434 21.1719 306.09 21.1719H306.98V19.3438C306.98 18.5352 307.484 17.9961 308.258 17.9961C309.02 17.9961 309.523 18.5352 309.523 19.3438V21.1719H310.965C311.621 21.1719 312.02 21.5586 312.02 22.1797C312.02 22.8008 311.621 23.1758 310.965 23.1758H309.523V29.9844C309.523 30.9688 309.863 31.4141 310.777 31.4844L310.977 31.4961C311.703 31.5664 312.066 31.8594 312.066 32.457C312.066 33.2188 311.48 33.6055 310.238 33.6055H310.109C308.035 33.6055 306.98 32.5859 306.98 30.5469ZM317.375 33.7109C314.961 33.7109 313.262 32.2109 313.262 29.9961C313.262 27.8398 314.926 26.5156 317.844 26.3516L321.23 26.1523V25.2031C321.23 23.832 320.305 23.0117 318.758 23.0117C317.539 23.0117 316.73 23.4453 316.027 24.5703C315.77 24.9453 315.441 25.1094 314.996 25.1094C314.363 25.1094 313.906 24.6875 313.906 24.0547C313.906 23.7969 313.977 23.5156 314.129 23.2344C314.773 21.8398 316.637 20.9492 318.852 20.9492C321.84 20.9492 323.75 22.5312 323.75 25.0039V32.4453C323.75 33.2422 323.246 33.7227 322.531 33.7227C321.828 33.7227 321.348 33.2656 321.324 32.5156V31.4727H321.266C320.551 32.8438 318.98 33.7109 317.375 33.7109ZM318.066 31.707C319.836 31.707 321.23 30.4883 321.23 28.8828V27.9102L318.184 28.0977C316.672 28.2031 315.816 28.8711 315.816 29.9258C315.816 31.0039 316.719 31.707 318.066 31.707ZM330.758 33.7344C328.332 33.7344 326.551 32.7383 325.965 31.2266C325.883 31.0391 325.859 30.8633 325.859 30.6992C325.859 30.0664 326.316 29.6914 326.949 29.6914C327.371 29.6914 327.734 29.8906 328.051 30.3594C328.684 31.3555 329.422 31.8008 330.887 31.8008C332.328 31.8008 333.301 31.1797 333.301 30.1602C333.301 29.3516 332.82 28.918 331.496 28.6016L329.551 28.1445C327.16 27.582 325.988 26.4102 325.988 24.6523C325.988 22.4258 327.922 20.9492 330.852 20.9492C333.078 20.9492 334.906 22.0859 335.258 23.5391C335.281 23.6797 335.305 23.7969 335.305 23.9141C335.305 24.4766 334.953 24.8516 334.32 24.8516C333.91 24.8516 333.547 24.7109 333.301 24.3125C332.75 23.375 332 22.8828 330.758 22.8828C329.398 22.8828 328.461 23.5508 328.461 24.5117C328.461 25.2852 329.059 25.8242 330.359 26.1289L332.27 26.5742C334.859 27.1719 335.855 28.0977 335.855 29.9258C335.855 32.2109 333.805 33.7344 330.758 33.7344Z" fill="white"/>
</svg>
