<svg width="870" height="287" viewBox="0 0 870 287" fill="none" xmlns="http://www.w3.org/2000/svg">
<rect x="266.5" width="50" height="50" rx="15" fill="white" fill-opacity="0.2"/>
<path d="M294.134 11.9687C293.36 9.34375 289.64 9.34375 288.866 11.9687L288.678 12.6062C288.562 12.9992 288.36 13.3613 288.086 13.666C287.812 13.9707 287.474 14.2102 287.095 14.367C286.717 14.5238 286.308 14.5939 285.899 14.5721C285.49 14.5503 285.091 14.4373 284.731 14.2413L284.15 13.9225C281.744 12.6137 279.114 15.2444 280.424 17.6481L280.741 18.2312C281.578 19.7687 280.784 21.6831 279.106 22.1781L278.469 22.3656C275.844 23.14 275.844 26.86 278.469 27.6344L279.106 27.8219C279.499 27.9376 279.861 28.1398 280.166 28.4136C280.471 28.6875 280.71 29.0261 280.867 29.4046C281.024 29.7831 281.094 30.1918 281.072 30.6009C281.05 31.01 280.937 31.409 280.741 31.7687L280.423 32.35C279.114 34.7556 281.744 37.3862 284.148 36.0756L284.731 35.7587C285.091 35.5627 285.49 35.4497 285.899 35.4279C286.308 35.4061 286.717 35.4762 287.095 35.633C287.474 35.7898 287.812 36.0293 288.086 36.334C288.36 36.6387 288.562 37.0008 288.678 37.3937L288.866 38.0312C289.64 40.6562 293.36 40.6562 294.134 38.0312L294.322 37.3937C294.438 37.0008 294.64 36.6387 294.914 36.334C295.188 36.0293 295.526 35.7898 295.905 35.633C296.283 35.4762 296.692 35.4061 297.101 35.4279C297.51 35.4497 297.909 35.5627 298.269 35.7587L298.85 36.0775C301.256 37.3863 303.886 34.7556 302.576 32.3519L302.259 31.7687C302.063 31.409 301.95 31.01 301.928 30.6009C301.906 30.1918 301.976 29.7831 302.133 29.4046C302.29 29.0261 302.529 28.6875 302.834 28.4136C303.139 28.1398 303.501 27.9376 303.894 27.8219L304.531 27.6344C307.156 26.86 307.156 23.14 304.531 22.3656L303.894 22.1781C303.501 22.0624 303.139 21.8602 302.834 21.5864C302.529 21.3125 302.29 20.9739 302.133 20.5954C301.976 20.2169 301.906 19.8082 301.928 19.3991C301.95 18.99 302.063 18.591 302.259 18.2312L302.577 17.65C303.886 15.2444 301.256 12.6137 298.852 13.9244L298.269 14.2413C297.909 14.4373 297.51 14.5503 297.101 14.5721C296.692 14.5939 296.283 14.5238 295.905 14.367C295.526 14.2102 295.188 13.9707 294.914 13.666C294.64 13.3613 294.438 12.9992 294.322 12.6062L294.134 11.9687ZM291.5 30.4938C290.043 30.4938 288.646 29.9149 287.615 28.8847C286.585 27.8544 286.006 26.457 286.006 25C286.006 23.543 286.585 22.1456 287.615 21.1153C288.646 20.0851 290.043 19.5063 291.5 19.5063C292.957 19.5063 294.353 20.0849 295.383 21.1148C296.413 22.1447 296.992 23.5416 296.992 24.9981C296.992 26.4547 296.413 27.8515 295.383 28.8815C294.353 29.9114 292.957 30.49 291.5 30.49V30.4938Z" fill="white"/>
<path d="M334.008 33.6875C333.188 33.6875 332.695 33.1719 332.695 32.3281V18.8633H328.547C327.82 18.8633 327.328 18.418 327.328 17.7266C327.328 17.0352 327.82 16.5898 328.547 16.5898H339.457C340.184 16.5898 340.676 17.0352 340.676 17.7266C340.676 18.418 340.184 18.8633 339.457 18.8633H335.32V32.3281C335.32 33.1719 334.816 33.6875 334.008 33.6875ZM344.648 33.7344C340.934 33.7344 338.754 31.3789 338.754 27.3945C338.754 23.4805 340.98 20.9492 344.473 20.9492C347.754 20.9492 350.016 23.3164 350.016 26.6797C350.016 27.5 349.547 27.9688 348.762 27.9688H341.309V28.0273C341.309 30.2773 342.574 31.6836 344.59 31.6836C345.973 31.6836 346.84 31.2031 347.777 29.9258C348.047 29.6094 348.305 29.4805 348.668 29.4805C349.277 29.4805 349.723 29.8789 349.723 30.5117C349.723 30.7109 349.652 30.9453 349.547 31.1914C348.738 32.8086 346.945 33.7344 344.648 33.7344ZM341.32 26.1992H347.484C347.426 24.2656 346.219 22.9883 344.461 22.9883C342.715 22.9883 341.449 24.2773 341.32 26.1992ZM357.258 33.7344C353.73 33.7344 351.434 31.2852 351.434 27.3594C351.434 23.457 353.719 20.9492 357.234 20.9492C359.613 20.9492 361.652 22.2148 362.191 23.9375C362.262 24.1367 362.309 24.3477 362.309 24.5234C362.309 25.168 361.852 25.5664 361.23 25.5664C360.691 25.5664 360.387 25.3555 360.082 24.793C359.449 23.6211 358.582 23.0586 357.281 23.0586C355.301 23.0586 354.012 24.7109 354.012 27.3359C354.012 30.0195 355.324 31.6133 357.281 31.6133C358.652 31.6133 359.484 31.0039 360.082 29.9375C360.434 29.3281 360.703 29.1172 361.254 29.1172C361.875 29.1172 362.332 29.5391 362.332 30.1719C362.332 30.3711 362.285 30.582 362.191 30.8281C361.547 32.5273 359.543 33.7344 357.258 33.7344ZM365.648 33.7227C364.898 33.7227 364.383 33.2188 364.383 32.3867V22.2266C364.383 21.4531 364.852 20.9492 365.59 20.9492C366.316 20.9492 366.82 21.4531 366.82 22.2383V23.2109H366.879C367.547 21.8047 368.836 20.9609 370.734 20.9609C373.453 20.9609 375.012 22.6953 375.012 25.5195V32.3867C375.012 33.2188 374.484 33.7227 373.734 33.7227C372.996 33.7227 372.469 33.2188 372.469 32.3867V26.0117C372.469 24.1602 371.602 23.1406 369.844 23.1406C368.062 23.1406 366.914 24.4062 366.914 26.3164V32.3867C366.914 33.2188 366.387 33.7227 365.648 33.7227ZM382.758 33.7344C379.23 33.7344 376.91 31.3086 376.91 27.3359C376.91 23.375 379.242 20.9492 382.758 20.9492C386.273 20.9492 388.605 23.375 388.605 27.3359C388.605 31.3086 386.285 33.7344 382.758 33.7344ZM382.758 31.6484C384.75 31.6484 386.027 30.0781 386.027 27.3359C386.027 24.6055 384.738 23.0352 382.758 23.0352C380.777 23.0352 379.488 24.6055 379.488 27.3359C379.488 30.0781 380.777 31.6484 382.758 31.6484ZM391.922 33.7227C391.184 33.7227 390.656 33.2188 390.656 32.3867V17.7031C390.656 16.8711 391.184 16.3672 391.922 16.3672C392.66 16.3672 393.188 16.8711 393.188 17.7031V32.3867C393.188 33.2188 392.66 33.7227 391.922 33.7227ZM401.086 33.7344C397.559 33.7344 395.238 31.3086 395.238 27.3359C395.238 23.375 397.57 20.9492 401.086 20.9492C404.602 20.9492 406.934 23.375 406.934 27.3359C406.934 31.3086 404.613 33.7344 401.086 33.7344ZM401.086 31.6484C403.078 31.6484 404.355 30.0781 404.355 27.3359C404.355 24.6055 403.066 23.0352 401.086 23.0352C399.105 23.0352 397.816 24.6055 397.816 27.3359C397.816 30.0781 399.105 31.6484 401.086 31.6484ZM414.059 38.1406C411.82 38.1172 410.051 37.25 409.207 35.9141C409.043 35.6328 408.973 35.375 408.973 35.082C408.973 34.4961 409.406 34.0742 410.051 34.0742C410.438 34.0742 410.684 34.2031 411.023 34.543C412.031 35.5977 412.898 36.0547 414.105 36.0781C416.168 36.1016 417.422 34.9297 417.422 33.207V31.25H417.363C416.672 32.5859 415.219 33.4648 413.461 33.4648C410.355 33.4648 408.34 31.0391 408.34 27.2305C408.34 23.375 410.332 20.9727 413.52 20.9727C415.266 20.9727 416.625 21.8516 417.375 23.2461H417.422V22.25C417.422 21.4297 417.973 20.9492 418.699 20.9492C419.426 20.9492 419.965 21.4297 419.965 22.25V33.1602C419.965 36.207 417.727 38.1758 414.059 38.1406ZM414.141 31.4023C416.121 31.4023 417.434 29.7852 417.434 27.2539C417.434 24.7227 416.121 23.0586 414.141 23.0586C412.195 23.0586 410.93 24.6758 410.93 27.2422C410.93 29.8203 412.195 31.4023 414.141 31.4023ZM423.809 19.3086C423 19.3086 422.344 18.6523 422.344 17.8555C422.344 17.0469 423 16.4141 423.809 16.4141C424.629 16.4141 425.285 17.0469 425.285 17.8555C425.285 18.6523 424.629 19.3086 423.809 19.3086ZM423.809 33.7227C423.047 33.7227 422.543 33.1953 422.543 32.3867V22.2969C422.543 21.4766 423.047 20.9492 423.809 20.9492C424.57 20.9492 425.074 21.4766 425.074 22.2969V32.3867C425.074 33.1953 424.57 33.7227 423.809 33.7227ZM431.273 33.7109C428.859 33.7109 427.16 32.2109 427.16 29.9961C427.16 27.8398 428.824 26.5156 431.742 26.3516L435.129 26.1523V25.2031C435.129 23.832 434.203 23.0117 432.656 23.0117C431.438 23.0117 430.629 23.4453 429.926 24.5703C429.668 24.9453 429.34 25.1094 428.895 25.1094C428.262 25.1094 427.805 24.6875 427.805 24.0547C427.805 23.7969 427.875 23.5156 428.027 23.2344C428.672 21.8398 430.535 20.9492 432.75 20.9492C435.738 20.9492 437.648 22.5312 437.648 25.0039V32.4453C437.648 33.2422 437.145 33.7227 436.43 33.7227C435.727 33.7227 435.246 33.2656 435.223 32.5156V31.4727H435.164C434.449 32.8438 432.879 33.7109 431.273 33.7109ZM431.965 31.707C433.734 31.707 435.129 30.4883 435.129 28.8828V27.9102L432.082 28.0977C430.57 28.2031 429.715 28.8711 429.715 29.9258C429.715 31.0039 430.617 31.707 431.965 31.707ZM444.656 33.7344C442.23 33.7344 440.449 32.7383 439.863 31.2266C439.781 31.0391 439.758 30.8633 439.758 30.6992C439.758 30.0664 440.215 29.6914 440.848 29.6914C441.27 29.6914 441.633 29.8906 441.949 30.3594C442.582 31.3555 443.32 31.8008 444.785 31.8008C446.227 31.8008 447.199 31.1797 447.199 30.1602C447.199 29.3516 446.719 28.918 445.395 28.6016L443.449 28.1445C441.059 27.582 439.887 26.4102 439.887 24.6523C439.887 22.4258 441.82 20.9492 444.75 20.9492C446.977 20.9492 448.805 22.0859 449.156 23.5391C449.18 23.6797 449.203 23.7969 449.203 23.9141C449.203 24.4766 448.852 24.8516 448.219 24.8516C447.809 24.8516 447.445 24.7109 447.199 24.3125C446.648 23.375 445.898 22.8828 444.656 22.8828C443.297 22.8828 442.359 23.5508 442.359 24.5117C442.359 25.2852 442.957 25.8242 444.258 26.1289L446.168 26.5742C448.758 27.1719 449.754 28.0977 449.754 29.9258C449.754 32.2109 447.703 33.7344 444.656 33.7344ZM461.93 33.7344C458.215 33.7344 456.035 31.3789 456.035 27.3945C456.035 23.4805 458.262 20.9492 461.754 20.9492C465.035 20.9492 467.297 23.3164 467.297 26.6797C467.297 27.5 466.828 27.9688 466.043 27.9688H458.59V28.0273C458.59 30.2773 459.855 31.6836 461.871 31.6836C463.254 31.6836 464.121 31.2031 465.059 29.9258C465.328 29.6094 465.586 29.4805 465.949 29.4805C466.559 29.4805 467.004 29.8789 467.004 30.5117C467.004 30.7109 466.934 30.9453 466.828 31.1914C466.02 32.8086 464.227 33.7344 461.93 33.7344ZM458.602 26.1992H464.766C464.707 24.2656 463.5 22.9883 461.742 22.9883C459.996 22.9883 458.73 24.2773 458.602 26.1992ZM475.758 33.6875C474.938 33.6875 474.445 33.1719 474.445 32.3281V17.9492C474.445 17.1055 474.938 16.5898 475.758 16.5898H483.961C484.699 16.5898 485.191 17.0352 485.191 17.7266C485.191 18.418 484.688 18.8633 483.961 18.8633H477.07V24.207H483.34C484.043 24.207 484.523 24.6406 484.523 25.3086C484.523 25.9883 484.043 26.4219 483.34 26.4219H477.07V32.3281C477.07 33.1719 476.566 33.6875 475.758 33.6875ZM491.906 33.7344C488.191 33.7344 486.012 31.3789 486.012 27.3945C486.012 23.4805 488.238 20.9492 491.73 20.9492C495.012 20.9492 497.273 23.3164 497.273 26.6797C497.273 27.5 496.805 27.9688 496.02 27.9688H488.566V28.0273C488.566 30.2773 489.832 31.6836 491.848 31.6836C493.23 31.6836 494.098 31.2031 495.035 29.9258C495.305 29.6094 495.562 29.4805 495.926 29.4805C496.535 29.4805 496.98 29.8789 496.98 30.5117C496.98 30.7109 496.91 30.9453 496.805 31.1914C495.996 32.8086 494.203 33.7344 491.906 33.7344ZM488.578 26.1992H494.742C494.684 24.2656 493.477 22.9883 491.719 22.9883C489.973 22.9883 488.707 24.2773 488.578 26.1992ZM500.508 33.7227C499.746 33.7227 499.242 33.207 499.242 32.3867V22.2266C499.242 21.4531 499.734 20.9492 500.449 20.9492C501.152 20.9492 501.645 21.4531 501.645 22.2266V23.2812H501.703C502.043 21.8984 503.18 20.9727 504.41 20.9727C504.855 20.9727 505.195 21.0781 505.406 21.2773C505.641 21.4648 505.746 21.7695 505.746 22.168C505.746 22.5664 505.617 22.8594 505.371 23.0586C505.113 23.2812 504.738 23.3867 504.211 23.3867C502.477 23.3984 501.773 24.5586 501.773 26.0938V32.3867C501.773 33.207 501.258 33.7227 500.508 33.7227ZM508.383 33.7227C507.621 33.7227 507.117 33.207 507.117 32.3867V22.2266C507.117 21.4531 507.609 20.9492 508.324 20.9492C509.027 20.9492 509.52 21.4531 509.52 22.2266V23.2812H509.578C509.918 21.8984 511.055 20.9727 512.285 20.9727C512.73 20.9727 513.07 21.0781 513.281 21.2773C513.516 21.4648 513.621 21.7695 513.621 22.168C513.621 22.5664 513.492 22.8594 513.246 23.0586C512.988 23.2812 512.613 23.3867 512.086 23.3867C510.352 23.3984 509.648 24.5586 509.648 26.0938V32.3867C509.648 33.207 509.133 33.7227 508.383 33.7227ZM518.344 33.7109C515.93 33.7109 514.23 32.2109 514.23 29.9961C514.23 27.8398 515.895 26.5156 518.812 26.3516L522.199 26.1523V25.2031C522.199 23.832 521.273 23.0117 519.727 23.0117C518.508 23.0117 517.699 23.4453 516.996 24.5703C516.738 24.9453 516.41 25.1094 515.965 25.1094C515.332 25.1094 514.875 24.6875 514.875 24.0547C514.875 23.7969 514.945 23.5156 515.098 23.2344C515.742 21.8398 517.605 20.9492 519.82 20.9492C522.809 20.9492 524.719 22.5312 524.719 25.0039V32.4453C524.719 33.2422 524.215 33.7227 523.5 33.7227C522.797 33.7227 522.316 33.2656 522.293 32.5156V31.4727H522.234C521.52 32.8438 519.949 33.7109 518.344 33.7109ZM519.035 31.707C520.805 31.707 522.199 30.4883 522.199 28.8828V27.9102L519.152 28.0977C517.641 28.2031 516.785 28.8711 516.785 29.9258C516.785 31.0039 517.688 31.707 519.035 31.707ZM528.445 33.7227C527.684 33.7227 527.18 33.1953 527.18 32.3867V22.2383C527.18 21.4414 527.672 20.9492 528.387 20.9492C529.09 20.9492 529.594 21.4297 529.594 22.2383V23.2461H529.652C530.203 21.875 531.492 20.9609 533.156 20.9609C534.867 20.9609 536.109 21.8398 536.602 23.375H536.66C537.293 21.875 538.746 20.9609 540.504 20.9609C542.941 20.9609 544.535 22.5781 544.535 25.0273V32.3867C544.535 33.1953 544.02 33.7227 543.258 33.7227C542.496 33.7227 541.992 33.1953 541.992 32.3867V25.6367C541.992 24.043 541.137 23.1289 539.637 23.1289C538.137 23.1289 537.094 24.2422 537.094 25.8008V32.3867C537.094 33.1953 536.613 33.7227 535.852 33.7227C535.09 33.7227 534.609 33.1953 534.609 32.3867V25.4492C534.609 24.0312 533.707 23.1289 532.277 23.1289C530.777 23.1289 529.711 24.3008 529.711 25.8828V32.3867C529.711 33.1953 529.207 33.7227 528.445 33.7227ZM552.328 33.7344C548.613 33.7344 546.434 31.3789 546.434 27.3945C546.434 23.4805 548.66 20.9492 552.152 20.9492C555.434 20.9492 557.695 23.3164 557.695 26.6797C557.695 27.5 557.227 27.9688 556.441 27.9688H548.988V28.0273C548.988 30.2773 550.254 31.6836 552.27 31.6836C553.652 31.6836 554.52 31.2031 555.457 29.9258C555.727 29.6094 555.984 29.4805 556.348 29.4805C556.957 29.4805 557.402 29.8789 557.402 30.5117C557.402 30.7109 557.332 30.9453 557.227 31.1914C556.418 32.8086 554.625 33.7344 552.328 33.7344ZM549 26.1992H555.164C555.105 24.2656 553.898 22.9883 552.141 22.9883C550.395 22.9883 549.129 24.2773 549 26.1992ZM560.93 33.7227C560.18 33.7227 559.664 33.2188 559.664 32.3867V22.2266C559.664 21.4531 560.133 20.9492 560.871 20.9492C561.598 20.9492 562.102 21.4531 562.102 22.2383V23.2109H562.16C562.828 21.8047 564.117 20.9609 566.016 20.9609C568.734 20.9609 570.293 22.6953 570.293 25.5195V32.3867C570.293 33.2188 569.766 33.7227 569.016 33.7227C568.277 33.7227 567.75 33.2188 567.75 32.3867V26.0117C567.75 24.1602 566.883 23.1406 565.125 23.1406C563.344 23.1406 562.195 24.4062 562.195 26.3164V32.3867C562.195 33.2188 561.668 33.7227 560.93 33.7227ZM573.48 30.5469V23.1758H572.59C571.934 23.1758 571.535 22.8008 571.535 22.1797C571.535 21.5469 571.934 21.1719 572.59 21.1719H573.48V19.3438C573.48 18.5352 573.984 17.9961 574.758 17.9961C575.52 17.9961 576.023 18.5352 576.023 19.3438V21.1719H577.465C578.121 21.1719 578.52 21.5586 578.52 22.1797C578.52 22.8008 578.121 23.1758 577.465 23.1758H576.023V29.9844C576.023 30.9688 576.363 31.4141 577.277 31.4844L577.477 31.4961C578.203 31.5664 578.566 31.8594 578.566 32.457C578.566 33.2188 577.98 33.6055 576.738 33.6055H576.609C574.535 33.6055 573.48 32.5859 573.48 30.5469ZM583.875 33.7109C581.461 33.7109 579.762 32.2109 579.762 29.9961C579.762 27.8398 581.426 26.5156 584.344 26.3516L587.73 26.1523V25.2031C587.73 23.832 586.805 23.0117 585.258 23.0117C584.039 23.0117 583.23 23.4453 582.527 24.5703C582.27 24.9453 581.941 25.1094 581.496 25.1094C580.863 25.1094 580.406 24.6875 580.406 24.0547C580.406 23.7969 580.477 23.5156 580.629 23.2344C581.273 21.8398 583.137 20.9492 585.352 20.9492C588.34 20.9492 590.25 22.5312 590.25 25.0039V32.4453C590.25 33.2422 589.746 33.7227 589.031 33.7227C588.328 33.7227 587.848 33.2656 587.824 32.5156V31.4727H587.766C587.051 32.8438 585.48 33.7109 583.875 33.7109ZM584.566 31.707C586.336 31.707 587.73 30.4883 587.73 28.8828V27.9102L584.684 28.0977C583.172 28.2031 582.316 28.8711 582.316 29.9258C582.316 31.0039 583.219 31.707 584.566 31.707ZM597.258 33.7344C594.832 33.7344 593.051 32.7383 592.465 31.2266C592.383 31.0391 592.359 30.8633 592.359 30.6992C592.359 30.0664 592.816 29.6914 593.449 29.6914C593.871 29.6914 594.234 29.8906 594.551 30.3594C595.184 31.3555 595.922 31.8008 597.387 31.8008C598.828 31.8008 599.801 31.1797 599.801 30.1602C599.801 29.3516 599.32 28.918 597.996 28.6016L596.051 28.1445C593.66 27.582 592.488 26.4102 592.488 24.6523C592.488 22.4258 594.422 20.9492 597.352 20.9492C599.578 20.9492 601.406 22.0859 601.758 23.5391C601.781 23.6797 601.805 23.7969 601.805 23.9141C601.805 24.4766 601.453 24.8516 600.82 24.8516C600.41 24.8516 600.047 24.7109 599.801 24.3125C599.25 23.375 598.5 22.8828 597.258 22.8828C595.898 22.8828 594.961 23.5508 594.961 24.5117C594.961 25.2852 595.559 25.8242 596.859 26.1289L598.77 26.5742C601.359 27.1719 602.355 28.0977 602.355 29.9258C602.355 32.2109 600.305 33.7344 597.258 33.7344Z" fill="white"/>
<rect y="80" width="550" height="207" rx="30" fill="#9ADDFF" fill-opacity="0.2"/>
<path d="M188.023 127C187.203 127 186.711 126.484 186.711 125.641V111.449C186.711 110.605 187.203 110.09 188.023 110.09H192.676C197.703 110.09 200.68 113.184 200.68 118.516C200.68 123.859 197.715 127 192.676 127H188.023ZM189.336 124.727H192.43C196.016 124.727 197.996 122.535 197.996 118.539C197.996 114.555 196.004 112.352 192.43 112.352H189.336V124.727ZM208.227 127.234C204.512 127.234 202.332 124.879 202.332 120.895C202.332 116.98 204.559 114.449 208.051 114.449C211.332 114.449 213.594 116.816 213.594 120.18C213.594 121 213.125 121.469 212.34 121.469H204.887V121.527C204.887 123.777 206.152 125.184 208.168 125.184C209.551 125.184 210.418 124.703 211.355 123.426C211.625 123.109 211.883 122.98 212.246 122.98C212.855 122.98 213.301 123.379 213.301 124.012C213.301 124.211 213.23 124.445 213.125 124.691C212.316 126.309 210.523 127.234 208.227 127.234ZM204.898 119.699H211.062C211.004 117.766 209.797 116.488 208.039 116.488C206.293 116.488 205.027 117.777 204.898 119.699ZM220.109 127.234C217.684 127.234 215.902 126.238 215.316 124.727C215.234 124.539 215.211 124.363 215.211 124.199C215.211 123.566 215.668 123.191 216.301 123.191C216.723 123.191 217.086 123.391 217.402 123.859C218.035 124.855 218.773 125.301 220.238 125.301C221.68 125.301 222.652 124.68 222.652 123.66C222.652 122.852 222.172 122.418 220.848 122.102L218.902 121.645C216.512 121.082 215.34 119.91 215.34 118.152C215.34 115.926 217.273 114.449 220.203 114.449C222.43 114.449 224.258 115.586 224.609 117.039C224.633 117.18 224.656 117.297 224.656 117.414C224.656 117.977 224.305 118.352 223.672 118.352C223.262 118.352 222.898 118.211 222.652 117.812C222.102 116.875 221.352 116.383 220.109 116.383C218.75 116.383 217.812 117.051 217.812 118.012C217.812 118.785 218.41 119.324 219.711 119.629L221.621 120.074C224.211 120.672 225.207 121.598 225.207 123.426C225.207 125.711 223.156 127.234 220.109 127.234ZM232.508 127.234C228.793 127.234 226.613 124.879 226.613 120.895C226.613 116.98 228.84 114.449 232.332 114.449C235.613 114.449 237.875 116.816 237.875 120.18C237.875 121 237.406 121.469 236.621 121.469H229.168V121.527C229.168 123.777 230.434 125.184 232.449 125.184C233.832 125.184 234.699 124.703 235.637 123.426C235.906 123.109 236.164 122.98 236.527 122.98C237.137 122.98 237.582 123.379 237.582 124.012C237.582 124.211 237.512 124.445 237.406 124.691C236.598 126.309 234.805 127.234 232.508 127.234ZM229.18 119.699H235.344C235.285 117.766 234.078 116.488 232.32 116.488C230.574 116.488 229.309 117.777 229.18 119.699ZM241.109 127.223C240.359 127.223 239.844 126.719 239.844 125.887V115.727C239.844 114.953 240.312 114.449 241.051 114.449C241.777 114.449 242.281 114.953 242.281 115.738V116.711H242.34C243.008 115.305 244.297 114.461 246.195 114.461C248.914 114.461 250.473 116.195 250.473 119.02V125.887C250.473 126.719 249.945 127.223 249.195 127.223C248.457 127.223 247.93 126.719 247.93 125.887V119.512C247.93 117.66 247.062 116.641 245.305 116.641C243.523 116.641 242.375 117.906 242.375 119.816V125.887C242.375 126.719 241.848 127.223 241.109 127.223ZM257.645 127.223C256.742 127.223 256.25 126.848 255.898 125.934L252.242 116.312C252.16 116.09 252.102 115.844 252.102 115.609C252.102 114.906 252.641 114.449 253.379 114.449C253.965 114.449 254.363 114.766 254.574 115.445L257.633 124.527H257.68L260.738 115.422C260.949 114.766 261.348 114.449 261.922 114.449C262.648 114.449 263.164 114.93 263.164 115.598C263.164 115.82 263.117 116.066 263.035 116.277L259.379 125.934C259.051 126.824 258.512 127.223 257.645 127.223ZM269.82 127.234C266.293 127.234 263.973 124.809 263.973 120.836C263.973 116.875 266.305 114.449 269.82 114.449C273.336 114.449 275.668 116.875 275.668 120.836C275.668 124.809 273.348 127.234 269.82 127.234ZM269.82 125.148C271.812 125.148 273.09 123.578 273.09 120.836C273.09 118.105 271.801 116.535 269.82 116.535C267.84 116.535 266.551 118.105 266.551 120.836C266.551 123.578 267.84 125.148 269.82 125.148ZM278.984 127.223C278.246 127.223 277.719 126.719 277.719 125.887V111.203C277.719 110.371 278.246 109.867 278.984 109.867C279.723 109.867 280.25 110.371 280.25 111.203V125.887C280.25 126.719 279.723 127.223 278.984 127.223ZM287.598 127.223C286.695 127.223 286.203 126.848 285.852 125.934L282.195 116.312C282.113 116.09 282.055 115.844 282.055 115.609C282.055 114.906 282.594 114.449 283.332 114.449C283.918 114.449 284.316 114.766 284.527 115.445L287.586 124.527H287.633L290.691 115.422C290.902 114.766 291.301 114.449 291.875 114.449C292.602 114.449 293.117 114.93 293.117 115.598C293.117 115.82 293.07 116.066 292.988 116.277L289.332 125.934C289.004 126.824 288.465 127.223 287.598 127.223ZM296.176 112.809C295.367 112.809 294.711 112.152 294.711 111.355C294.711 110.547 295.367 109.914 296.176 109.914C296.996 109.914 297.652 110.547 297.652 111.355C297.652 112.152 296.996 112.809 296.176 112.809ZM296.176 127.223C295.414 127.223 294.91 126.695 294.91 125.887V115.797C294.91 114.977 295.414 114.449 296.176 114.449C296.938 114.449 297.441 114.977 297.441 115.797V125.887C297.441 126.695 296.938 127.223 296.176 127.223ZM301.297 127.223C300.535 127.223 300.031 126.695 300.031 125.887V115.738C300.031 114.941 300.523 114.449 301.238 114.449C301.941 114.449 302.445 114.93 302.445 115.738V116.746H302.504C303.055 115.375 304.344 114.461 306.008 114.461C307.719 114.461 308.961 115.34 309.453 116.875H309.512C310.145 115.375 311.598 114.461 313.355 114.461C315.793 114.461 317.387 116.078 317.387 118.527V125.887C317.387 126.695 316.871 127.223 316.109 127.223C315.348 127.223 314.844 126.695 314.844 125.887V119.137C314.844 117.543 313.988 116.629 312.488 116.629C310.988 116.629 309.945 117.742 309.945 119.301V125.887C309.945 126.695 309.465 127.223 308.703 127.223C307.941 127.223 307.461 126.695 307.461 125.887V118.949C307.461 117.531 306.559 116.629 305.129 116.629C303.629 116.629 302.562 117.801 302.562 119.383V125.887C302.562 126.695 302.059 127.223 301.297 127.223ZM325.18 127.234C321.465 127.234 319.285 124.879 319.285 120.895C319.285 116.98 321.512 114.449 325.004 114.449C328.285 114.449 330.547 116.816 330.547 120.18C330.547 121 330.078 121.469 329.293 121.469H321.84V121.527C321.84 123.777 323.105 125.184 325.121 125.184C326.504 125.184 327.371 124.703 328.309 123.426C328.578 123.109 328.836 122.98 329.199 122.98C329.809 122.98 330.254 123.379 330.254 124.012C330.254 124.211 330.184 124.445 330.078 124.691C329.27 126.309 327.477 127.234 325.18 127.234ZM321.852 119.699H328.016C327.957 117.766 326.75 116.488 324.992 116.488C323.246 116.488 321.98 117.777 321.852 119.699ZM333.781 127.223C333.031 127.223 332.516 126.719 332.516 125.887V115.727C332.516 114.953 332.984 114.449 333.723 114.449C334.449 114.449 334.953 114.953 334.953 115.738V116.711H335.012C335.68 115.305 336.969 114.461 338.867 114.461C341.586 114.461 343.145 116.195 343.145 119.02V125.887C343.145 126.719 342.617 127.223 341.867 127.223C341.129 127.223 340.602 126.719 340.602 125.887V119.512C340.602 117.66 339.734 116.641 337.977 116.641C336.195 116.641 335.047 117.906 335.047 119.816V125.887C335.047 126.719 334.52 127.223 333.781 127.223ZM346.332 124.047V116.676H345.441C344.785 116.676 344.387 116.301 344.387 115.68C344.387 115.047 344.785 114.672 345.441 114.672H346.332V112.844C346.332 112.035 346.836 111.496 347.609 111.496C348.371 111.496 348.875 112.035 348.875 112.844V114.672H350.316C350.973 114.672 351.371 115.059 351.371 115.68C351.371 116.301 350.973 116.676 350.316 116.676H348.875V123.484C348.875 124.469 349.215 124.914 350.129 124.984L350.328 124.996C351.055 125.066 351.418 125.359 351.418 125.957C351.418 126.719 350.832 127.105 349.59 127.105H349.461C347.387 127.105 346.332 126.086 346.332 124.047ZM358.297 127.234C354.77 127.234 352.449 124.809 352.449 120.836C352.449 116.875 354.781 114.449 358.297 114.449C361.812 114.449 364.145 116.875 364.145 120.836C364.145 124.809 361.824 127.234 358.297 127.234ZM358.297 125.148C360.289 125.148 361.566 123.578 361.566 120.836C361.566 118.105 360.277 116.535 358.297 116.535C356.316 116.535 355.027 118.105 355.027 120.836C355.027 123.578 356.316 125.148 358.297 125.148Z" fill="#9ADDFF"/>
<rect x="30" y="157" width="100" height="100" rx="20" fill="#F95801" fill-opacity="0.2"/>
<path d="M55 171.5L59.1667 217.333L80 221.5L100.833 217.333L105 171.5H55ZM96.0833 186.083H70.1667L70.7708 192.333H95.4792L93.8083 211.781L79.9792 215.25L66.1562 211.821L65.2708 202.75H71.5625L71.9583 206.917L80 208.521L88 206.917L88.6042 198.583H65.0833L63.3333 179.833H96.6667L96.0833 186.083Z" fill="#E65100"/>
<path d="M61.4551 242.639C60.7593 242.639 60.3491 242.214 60.3491 241.489V232.942C60.3491 232.209 60.7593 231.785 61.4551 231.785C62.1509 231.785 62.561 232.209 62.561 232.942V236.223H67.3218V232.942C67.3218 232.209 67.7319 231.785 68.4277 231.785C69.1235 231.785 69.5337 232.209 69.5337 232.942V241.489C69.5337 242.214 69.1235 242.639 68.4277 242.639C67.7319 242.639 67.3218 242.214 67.3218 241.489V238.047H62.561V241.489C62.561 242.214 62.1509 242.639 61.4551 242.639ZM74.9243 242.639C74.2285 242.639 73.8184 242.214 73.8184 241.489V233.762H71.6357C71.0352 233.762 70.6323 233.418 70.6323 232.847C70.6323 232.275 71.0278 231.931 71.6357 231.931H78.2202C78.8208 231.931 79.2163 232.275 79.2163 232.847C79.2163 233.418 78.8135 233.762 78.2202 233.762H76.0303V241.489C76.0303 242.214 75.6201 242.639 74.9243 242.639ZM81.3037 242.639C80.6812 242.639 80.3149 242.258 80.3149 241.606V233.213C80.3149 232.319 80.8423 231.785 81.7432 231.785C82.5122 231.785 82.937 232.107 83.2593 232.927L85.8813 239.424H85.9399L88.5547 232.927C88.877 232.114 89.3091 231.785 90.0854 231.785C90.979 231.785 91.5063 232.312 91.5063 233.213V241.606C91.5063 242.258 91.1401 242.639 90.5176 242.639C89.895 242.639 89.5361 242.258 89.5361 241.606V235.366H89.4775L86.8628 241.76C86.6724 242.229 86.3794 242.434 85.918 242.434C85.4492 242.434 85.1416 242.222 84.9585 241.768L82.3438 235.366H82.2852V241.606C82.2852 242.258 81.9263 242.639 81.3037 242.639ZM94.3701 242.5C93.6743 242.5 93.2642 242.075 93.2642 241.343V232.942C93.2642 232.209 93.6743 231.785 94.3701 231.785C95.0659 231.785 95.4761 232.209 95.4761 232.942V240.669H99.2261C99.8267 240.669 100.229 241.013 100.229 241.584C100.229 242.156 99.834 242.5 99.2261 242.5H94.3701Z" fill="#E65100"/>
<rect x="160" y="157" width="100" height="100" rx="20" fill="#B976FF" fill-opacity="0.2"/>
<path d="M185 171.5H227C231.418 171.5 235 175.081 235 179.5V213.5C235 217.919 231.419 221.5 227 221.5H193C188.582 221.5 185 217.919 185 213.5V171.5Z" fill="#AB7ED9"/>
<path d="M202.905 217.501C199.694 217.498 197.712 215.688 197.75 212.36V203.941C197.75 202.254 198.244 200.971 199.232 200.093C201.007 198.382 205.123 198.279 206.861 200.119C207.932 201.063 208.337 202.992 208.241 204.793H204.555C204.584 204.086 204.545 203.014 204.129 202.611C203.589 201.88 202.162 201.965 201.784 202.727C201.552 203.14 201.436 203.75 201.436 204.561V211.87C201.436 213.402 201.968 214.177 203.034 214.194C203.532 214.193 203.91 214.012 204.168 213.651C204.527 213.221 204.584 212.273 204.555 211.584H208.241C208.493 215.088 206.423 217.544 202.905 217.501ZM214.607 217.501C211.048 217.55 209.457 215.016 209.554 211.585H213.035C212.937 213.082 213.452 214.444 214.684 214.35C215.234 214.35 215.62 214.177 215.844 213.832C216.268 213.202 216.349 211.385 215.74 210.682C215.316 210.004 213.789 209.406 212.983 209.003C211.831 208.452 211.002 207.798 210.496 207.039C209.352 205.358 209.458 201.667 211.062 200.17C212.621 198.323 216.693 198.239 218.254 200.132C219.216 201.107 219.636 203.026 219.555 204.793H216.204C216.233 204.067 216.164 202.895 215.882 202.469C215.684 202.107 215.31 201.926 214.761 201.926C213.781 201.926 213.291 202.512 213.291 203.682C213.302 204.925 213.787 205.436 214.916 205.954C216.378 206.522 218.237 207.493 218.911 208.666C220.921 212.244 219.541 217.71 214.607 217.501ZM225.845 217.501C222.286 217.55 220.695 215.016 220.793 211.585H224.273C224.175 213.082 224.689 214.444 225.923 214.35C226.472 214.35 226.858 214.177 227.082 213.832C227.506 213.202 227.586 211.385 226.979 210.682C226.554 210.004 225.027 209.406 224.221 209.003C223.069 208.452 222.24 207.798 221.734 207.039C220.589 205.358 220.696 201.667 222.3 200.17C223.86 198.323 227.93 198.239 229.492 200.132C230.454 201.107 230.874 203.026 230.793 204.793H227.442C227.47 204.067 227.403 202.895 227.12 202.469C226.922 202.107 226.548 201.926 225.999 201.926C225.019 201.926 224.529 202.512 224.529 203.682C224.54 204.925 225.025 205.436 226.154 205.954C227.616 206.522 229.475 207.493 230.149 208.666C232.159 212.244 230.78 217.71 225.845 217.501Z" fill="#464364"/>
<path d="M200.764 242.676C197.629 242.676 195.725 240.625 195.725 237.212C195.725 233.806 197.666 231.748 200.706 231.748C202.683 231.748 204.214 232.627 204.939 234.15C205.085 234.429 205.159 234.714 205.159 234.978C205.159 235.557 204.771 235.93 204.185 235.93C203.687 235.93 203.372 235.71 203.13 235.198C202.646 234.121 201.782 233.579 200.728 233.579C199.058 233.579 197.981 234.978 197.981 237.205C197.981 239.46 199.043 240.852 200.735 240.852C201.848 240.852 202.683 240.347 203.159 239.285C203.386 238.787 203.665 238.589 204.133 238.589C204.756 238.589 205.166 238.984 205.166 239.57C205.166 239.819 205.107 240.054 204.998 240.31C204.338 241.775 202.764 242.676 200.764 242.676ZM210.615 242.676C208.433 242.676 207.034 241.804 206.609 240.647C206.536 240.457 206.492 240.251 206.492 240.054C206.492 239.468 206.895 239.08 207.466 239.08C207.92 239.08 208.22 239.255 208.484 239.724C208.828 240.53 209.656 240.896 210.667 240.896C211.853 240.896 212.659 240.325 212.659 239.548C212.659 238.853 212.161 238.457 210.835 238.186L209.714 237.966C207.605 237.549 206.572 236.538 206.572 234.963C206.572 233.03 208.257 231.748 210.608 231.748C212.542 231.748 213.999 232.561 214.468 233.938C214.519 234.084 214.548 234.238 214.548 234.429C214.548 234.956 214.167 235.315 213.604 235.315C213.105 235.315 212.798 235.117 212.549 234.663C212.197 233.865 211.516 233.535 210.608 233.535C209.517 233.535 208.792 234.048 208.792 234.824C208.792 235.476 209.297 235.879 210.549 236.128L211.663 236.355C213.904 236.802 214.871 237.703 214.871 239.307C214.871 241.372 213.252 242.676 210.615 242.676ZM220.093 242.676C217.91 242.676 216.511 241.804 216.086 240.647C216.013 240.457 215.969 240.251 215.969 240.054C215.969 239.468 216.372 239.08 216.943 239.08C217.397 239.08 217.698 239.255 217.961 239.724C218.306 240.53 219.133 240.896 220.144 240.896C221.331 240.896 222.136 240.325 222.136 239.548C222.136 238.853 221.638 238.457 220.312 238.186L219.192 237.966C217.083 237.549 216.05 236.538 216.05 234.963C216.05 233.03 217.734 231.748 220.085 231.748C222.019 231.748 223.477 232.561 223.945 233.938C223.997 234.084 224.026 234.238 224.026 234.429C224.026 234.956 223.645 235.315 223.081 235.315C222.583 235.315 222.275 235.117 222.026 234.663C221.675 233.865 220.994 233.535 220.085 233.535C218.994 233.535 218.269 234.048 218.269 234.824C218.269 235.476 218.774 235.879 220.027 236.128L221.14 236.355C223.381 236.802 224.348 237.703 224.348 239.307C224.348 241.372 222.729 242.676 220.093 242.676Z" fill="#AB7ED9"/>
<rect x="290" y="157" width="100" height="100" rx="20" fill="#FFCA28" fill-opacity="0.2"/>
<path d="M325 171.5C319.477 171.5 315 175.977 315 181.5V211.5C315 217.023 319.477 221.5 325 221.5H355C360.523 221.5 365 217.023 365 211.5V181.5C365 175.977 360.523 171.5 355 171.5H325ZM342.211 210.495C342.211 215.361 339.354 217.582 335.191 217.582C332.428 217.582 330.52 216.534 329.259 215.044C328.492 214.137 328.911 212.819 329.928 212.205C331.044 211.531 332.347 212.076 333.381 212.869C333.801 213.191 334.313 213.386 334.991 213.386C336.53 213.386 337.513 212.782 337.513 210.429V196.806C337.513 195.509 338.564 194.457 339.862 194.457C341.159 194.457 342.211 195.509 342.211 196.806V210.495ZM353.326 217.581C353.325 217.582 353.325 217.582 353.324 217.582C349.989 217.582 347.554 216.37 345.978 214.582C345.17 213.665 345.592 212.305 346.65 211.694C347.731 211.07 349.059 211.491 350.008 212.302C350.824 212.998 351.848 213.43 353.225 213.43C355.166 213.43 356.418 212.459 356.418 211.109C356.418 209.502 355.145 208.932 352.991 207.984L351.82 207.482C348.427 206.043 346.184 204.223 346.184 200.395C346.184 196.868 348.873 194.189 353.059 194.189C355.343 194.189 357.132 194.794 358.537 196.293C359.323 197.131 358.976 198.435 358.009 199.055C356.959 199.727 355.646 199.204 354.546 198.62C354.112 198.389 353.624 198.286 353.048 198.286C351.677 198.286 350.805 199.157 350.805 200.295C350.805 201.702 351.677 202.27 353.696 203.152L354.868 203.654C358.864 205.361 361.107 207.114 361.107 211.041C361.107 215.26 357.781 217.58 353.328 217.58C353.327 217.58 353.326 217.581 353.326 217.581Z" fill="#FFCA28"/>
<path d="M307.07 242.676C305.481 242.676 304.258 241.951 303.76 240.735C303.635 240.427 303.577 240.164 303.577 239.841C303.577 239.204 303.979 238.801 304.602 238.801C305.159 238.801 305.481 239.065 305.657 239.666C305.854 240.376 306.345 240.771 307.048 240.771C307.971 240.771 308.469 240.2 308.469 239.138V232.942C308.469 232.209 308.879 231.785 309.575 231.785C310.271 231.785 310.681 232.209 310.681 232.942V239.153C310.681 241.401 309.333 242.676 307.07 242.676ZM314.666 242.625C313.171 242.625 312.036 241.658 312.036 240.244C312.036 238.816 313.135 237.988 315.098 237.871L317.075 237.754V237.234C317.075 236.501 316.562 236.077 315.757 236.077C315.105 236.077 314.709 236.289 314.233 236.904C313.999 237.168 313.728 237.3 313.384 237.3C312.864 237.3 312.49 236.963 312.49 236.479C312.49 236.311 312.527 236.157 312.6 235.996C312.966 235.059 314.226 234.48 315.852 234.48C317.866 234.48 319.177 235.52 319.177 237.102V241.577C319.177 242.288 318.745 242.654 318.137 242.654C317.559 242.654 317.156 242.332 317.112 241.702V241.299H317.068C316.628 242.134 315.647 242.625 314.666 242.625ZM315.369 241.079C316.306 241.079 317.075 240.471 317.075 239.622V239.05L315.42 239.153C314.622 239.211 314.167 239.57 314.167 240.127C314.167 240.713 314.651 241.079 315.369 241.079ZM323.813 242.654C322.993 242.654 322.554 242.324 322.268 241.562L320.225 236.084C320.159 235.894 320.107 235.667 320.107 235.447C320.107 234.868 320.569 234.487 321.177 234.487C321.697 234.487 322.041 234.766 322.202 235.344L323.792 240.61H323.835L325.425 235.322C325.571 234.758 325.93 234.487 326.428 234.487C327.021 234.487 327.468 234.897 327.468 235.439C327.468 235.637 327.417 235.857 327.351 236.04L325.308 241.562C325.037 242.317 324.59 242.654 323.813 242.654ZM330.574 242.625C329.08 242.625 327.944 241.658 327.944 240.244C327.944 238.816 329.043 237.988 331.006 237.871L332.983 237.754V237.234C332.983 236.501 332.471 236.077 331.665 236.077C331.013 236.077 330.618 236.289 330.142 236.904C329.907 237.168 329.636 237.3 329.292 237.3C328.772 237.3 328.398 236.963 328.398 236.479C328.398 236.311 328.435 236.157 328.508 235.996C328.875 235.059 330.134 234.48 331.76 234.48C333.774 234.48 335.085 235.52 335.085 237.102V241.577C335.085 242.288 334.653 242.654 334.045 242.654C333.467 242.654 333.064 242.332 333.02 241.702V241.299H332.976C332.537 242.134 331.555 242.625 330.574 242.625ZM331.277 241.079C332.214 241.079 332.983 240.471 332.983 239.622V239.05L331.328 239.153C330.53 239.211 330.076 239.57 330.076 240.127C330.076 240.713 330.559 241.079 331.277 241.079ZM340.52 242.676C338.337 242.676 336.938 241.804 336.514 240.647C336.44 240.457 336.396 240.251 336.396 240.054C336.396 239.468 336.799 239.08 337.371 239.08C337.825 239.08 338.125 239.255 338.389 239.724C338.733 240.53 339.561 240.896 340.571 240.896C341.758 240.896 342.563 240.325 342.563 239.548C342.563 238.853 342.065 238.457 340.74 238.186L339.619 237.966C337.51 237.549 336.477 236.538 336.477 234.963C336.477 233.03 338.162 231.748 340.513 231.748C342.446 231.748 343.904 232.561 344.373 233.938C344.424 234.084 344.453 234.238 344.453 234.429C344.453 234.956 344.072 235.315 343.508 235.315C343.01 235.315 342.703 235.117 342.454 234.663C342.102 233.865 341.421 233.535 340.513 233.535C339.421 233.535 338.696 234.048 338.696 234.824C338.696 235.476 339.202 235.879 340.454 236.128L341.567 236.355C343.809 236.802 344.775 237.703 344.775 239.307C344.775 241.372 343.157 242.676 340.52 242.676ZM349.529 242.668C347.163 242.668 345.662 241.116 345.662 238.574C345.662 236.062 347.156 234.48 349.514 234.48C351.089 234.48 352.4 235.242 352.825 236.355C352.898 236.538 352.942 236.729 352.942 236.882C352.942 237.41 352.532 237.717 352.026 237.717C351.602 237.717 351.345 237.549 351.125 237.161C350.737 236.472 350.261 236.157 349.58 236.157C348.496 236.157 347.83 237.051 347.83 238.567C347.83 240.112 348.496 240.991 349.565 240.991C350.312 240.991 350.774 240.625 351.104 240.068C351.389 239.622 351.624 239.438 352.078 239.438C352.576 239.438 352.979 239.768 352.979 240.295C352.979 240.464 352.935 240.64 352.839 240.852C352.371 241.921 351.03 242.668 349.529 242.668ZM355.19 242.654C354.546 242.654 354.121 242.251 354.121 241.541V235.564C354.121 234.883 354.539 234.487 355.154 234.487C355.754 234.487 356.165 234.883 356.165 235.564V236.077H356.208C356.414 235.103 357.058 234.524 357.842 234.524C358.127 234.524 358.354 234.59 358.508 234.722C358.713 234.883 358.816 235.146 358.816 235.513C358.816 235.85 358.713 236.106 358.508 236.282C358.303 236.458 357.996 236.553 357.578 236.56C356.604 236.575 356.26 237.124 356.26 238.054V241.541C356.26 242.251 355.842 242.654 355.19 242.654ZM360.691 233.674C360.046 233.674 359.548 233.184 359.548 232.568C359.548 231.946 360.046 231.462 360.691 231.462C361.335 231.462 361.833 231.946 361.833 232.568C361.833 233.184 361.335 233.674 360.691 233.674ZM360.691 242.654C360.024 242.654 359.622 242.236 359.622 241.541V235.608C359.622 234.912 360.024 234.487 360.691 234.487C361.35 234.487 361.76 234.912 361.76 235.608V241.541C361.76 242.236 361.35 242.654 360.691 242.654ZM364.258 245.298C363.635 245.298 363.188 244.917 363.188 244.185V235.586C363.188 234.868 363.628 234.487 364.243 234.487C364.858 234.487 365.298 234.868 365.298 235.593V236.018H365.342C365.767 235.095 366.638 234.524 367.773 234.524C369.766 234.524 370.989 236.04 370.989 238.574C370.989 241.101 369.773 242.625 367.81 242.625C366.667 242.625 365.789 242.068 365.371 241.182H365.327V244.185C365.327 244.917 364.888 245.298 364.258 245.298ZM367.056 240.903C368.125 240.903 368.799 240.002 368.799 238.574C368.799 237.153 368.125 236.238 367.056 236.238C366.008 236.238 365.32 237.168 365.32 238.574C365.32 239.995 366.008 240.903 367.056 240.903ZM372.666 240.493V236.26H372.256C371.75 236.26 371.428 235.952 371.428 235.454C371.428 234.956 371.75 234.648 372.256 234.648H372.666V233.777C372.666 233.088 373.069 232.664 373.735 232.664C374.402 232.664 374.805 233.088 374.805 233.777V234.648H375.559C376.064 234.648 376.379 234.963 376.379 235.454C376.379 235.945 376.064 236.26 375.559 236.26H374.805V240.017C374.805 240.574 374.995 240.808 375.457 240.845L375.596 240.859C376.123 240.918 376.409 241.138 376.409 241.636C376.409 242.266 375.793 242.588 374.893 242.588H374.819C373.391 242.588 372.666 241.877 372.666 240.493Z" fill="#FFCA28"/>
<rect x="420" y="157" width="100" height="100" rx="20" fill="#61DAFB" fill-opacity="0.2"/>
<path d="M470 201.598C472.816 201.598 475.099 199.316 475.099 196.5C475.099 193.684 472.816 191.402 470 191.402C467.184 191.402 464.902 193.684 464.902 196.5C464.902 199.316 467.184 201.598 470 201.598Z" fill="#61DAFB"/>
<path d="M489.365 188.092C488.381 187.734 487.352 187.377 486.279 187.064C486.547 185.99 486.771 184.917 486.95 183.888C487.889 177.985 486.86 173.826 483.998 172.216C483.149 171.724 482.209 171.5 481.136 171.5C478.005 171.5 474.025 173.826 470 177.716C465.975 173.826 461.995 171.5 458.864 171.5C457.791 171.5 456.852 171.724 456.002 172.216C453.14 173.87 452.111 178.03 453.05 183.888C453.229 184.917 453.453 185.99 453.721 187.064C452.648 187.377 451.619 187.69 450.635 188.092C445.045 190.239 442.004 193.191 442.004 196.5C442.004 199.809 445.089 202.761 450.635 204.908C451.619 205.266 452.648 205.623 453.721 205.936C453.453 207.01 453.229 208.083 453.05 209.112C452.111 215.015 453.14 219.174 456.002 220.784C456.852 221.276 457.791 221.5 458.864 221.5C462.039 221.5 466.02 219.174 470 215.284C474.025 219.174 478.005 221.5 481.136 221.5C482.209 221.5 483.149 221.276 483.998 220.784C486.86 219.13 487.889 214.97 486.95 209.112C486.771 208.083 486.547 207.01 486.279 205.936C487.352 205.623 488.381 205.31 489.365 204.908C494.955 202.761 497.996 199.809 497.996 196.5C497.996 193.191 494.955 190.239 489.365 188.092ZM482.746 174.452C484.58 175.525 485.206 178.835 484.445 183.53C484.311 184.47 484.088 185.453 483.819 186.482C481.494 185.945 479.034 185.588 476.44 185.364C474.92 183.217 473.354 181.294 471.789 179.55C475.098 176.285 478.453 174.049 481.181 174.049C481.762 174.049 482.299 174.183 482.746 174.452ZM477.737 200.972C476.932 202.403 475.993 203.835 475.009 205.266C473.354 205.4 471.699 205.445 470 205.445C468.256 205.445 466.601 205.4 464.991 205.266C464.007 203.835 463.113 202.403 462.308 200.972C461.458 199.496 460.653 197.976 459.937 196.5C460.653 195.024 461.458 193.504 462.308 192.028C463.113 190.597 464.052 189.165 465.036 187.734C466.691 187.6 468.345 187.555 470.045 187.555C471.789 187.555 473.444 187.6 475.054 187.734C476.038 189.165 476.932 190.597 477.737 192.028C478.587 193.504 479.392 195.024 480.107 196.5C479.347 197.976 478.587 199.452 477.737 200.972ZM481.449 199.496C482.12 201.062 482.657 202.582 483.149 204.103C481.628 204.461 480.018 204.729 478.318 204.953C478.855 204.103 479.437 203.208 479.928 202.269C480.465 201.33 480.957 200.391 481.449 199.496ZM470 211.616C468.927 210.453 467.898 209.201 466.914 207.904C467.943 207.949 468.971 207.994 470 207.994C471.029 207.994 472.057 207.949 473.086 207.904C472.102 209.201 471.073 210.453 470 211.616ZM461.682 204.908C459.982 204.684 458.372 204.416 456.852 204.058C457.343 202.582 457.88 201.017 458.551 199.452C459.043 200.346 459.535 201.285 460.072 202.18C460.608 203.164 461.145 204.013 461.682 204.908ZM458.551 193.504C457.88 191.938 457.343 190.418 456.852 188.897C458.372 188.539 459.982 188.271 461.682 188.047C461.145 188.897 460.564 189.792 460.072 190.731C459.535 191.67 459.043 192.609 458.551 193.504ZM470 181.384C471.073 182.547 472.102 183.799 473.086 185.096C472.057 185.051 471.029 185.006 470 185.006C468.971 185.006 467.943 185.051 466.914 185.096C467.898 183.799 468.927 182.547 470 181.384ZM479.928 190.775L478.318 188.092C480.018 188.316 481.628 188.584 483.149 188.942C482.657 190.418 482.12 191.983 481.449 193.548C480.957 192.609 480.465 191.67 479.928 190.775ZM455.555 183.53C454.794 178.835 455.42 175.525 457.254 174.452C457.701 174.183 458.238 174.049 458.819 174.049C461.503 174.049 464.857 176.241 468.211 179.55C466.646 181.25 465.081 183.217 463.56 185.364C460.966 185.588 458.506 185.99 456.181 186.482C455.912 185.453 455.733 184.47 455.555 183.53ZM444.508 196.5C444.508 194.398 447.057 192.162 451.53 190.507C452.424 190.149 453.408 189.836 454.392 189.568C455.107 191.804 456.002 194.174 457.075 196.545C456.002 198.915 455.063 201.241 454.392 203.477C448.22 201.688 444.508 199.004 444.508 196.5ZM457.254 218.548C455.42 217.475 454.794 214.165 455.555 209.47C455.689 208.53 455.912 207.547 456.181 206.518C458.506 207.055 460.966 207.412 463.56 207.636C465.081 209.783 466.646 211.706 468.211 213.45C464.902 216.715 461.547 218.951 458.819 218.951C458.238 218.951 457.701 218.817 457.254 218.548ZM484.445 209.47C485.206 214.165 484.58 217.475 482.746 218.548C482.299 218.817 481.762 218.951 481.181 218.951C478.497 218.951 475.143 216.759 471.789 213.45C473.354 211.75 474.92 209.783 476.44 207.636C479.034 207.412 481.494 207.01 483.819 206.518C484.088 207.547 484.267 208.53 484.445 209.47ZM488.471 202.493C487.576 202.851 486.592 203.164 485.608 203.432C484.893 201.196 483.998 198.826 482.925 196.455C483.998 194.085 484.937 191.759 485.608 189.523C491.78 191.312 495.492 193.996 495.492 196.5C495.492 198.602 492.898 200.838 488.471 202.493Z" fill="#61DAFB"/>
<path d="M452.188 242.654C451.499 242.654 451.082 242.229 451.082 241.504V233.081C451.082 232.356 451.492 231.931 452.188 231.931H455.41C457.842 231.931 459.233 233.213 459.233 235.3C459.233 236.619 458.582 237.747 457.417 238.245L458.94 240.881C459.124 241.196 459.175 241.387 459.175 241.643C459.175 242.229 458.706 242.654 458.062 242.654C457.534 242.654 457.292 242.463 456.934 241.819L455.176 238.633H453.293V241.504C453.293 242.229 452.883 242.654 452.188 242.654ZM453.293 237.029H455.198C456.311 237.029 456.963 236.392 456.963 235.344C456.963 234.319 456.274 233.66 455.176 233.66H453.293V237.029ZM464.045 242.668C461.592 242.668 460.149 241.152 460.149 238.611C460.149 236.084 461.621 234.48 463.943 234.48C466.169 234.48 467.664 236.003 467.664 238.135C467.664 238.728 467.327 239.065 466.733 239.065H462.251V239.16C462.251 240.325 462.954 241.086 464.038 241.086C464.822 241.086 465.334 240.823 465.913 240.142C466.14 239.907 466.331 239.827 466.609 239.827C467.07 239.827 467.444 240.12 467.444 240.61C467.444 240.779 467.393 240.955 467.297 241.13C466.777 242.097 465.562 242.668 464.045 242.668ZM462.273 237.754H465.605C465.562 236.729 464.902 236.062 463.965 236.062C463.027 236.062 462.346 236.75 462.273 237.754ZM471.091 242.625C469.597 242.625 468.462 241.658 468.462 240.244C468.462 238.816 469.561 237.988 471.523 237.871L473.501 237.754V237.234C473.501 236.501 472.988 236.077 472.183 236.077C471.531 236.077 471.135 236.289 470.659 236.904C470.425 237.168 470.154 237.3 469.81 237.3C469.29 237.3 468.916 236.963 468.916 236.479C468.916 236.311 468.953 236.157 469.026 235.996C469.392 235.059 470.652 234.48 472.278 234.48C474.292 234.48 475.603 235.52 475.603 237.102V241.577C475.603 242.288 475.171 242.654 474.563 242.654C473.984 242.654 473.582 242.332 473.538 241.702V241.299H473.494C473.054 242.134 472.073 242.625 471.091 242.625ZM471.794 241.079C472.732 241.079 473.501 240.471 473.501 239.622V239.05L471.846 239.153C471.047 239.211 470.593 239.57 470.593 240.127C470.593 240.713 471.077 241.079 471.794 241.079ZM480.569 242.668C478.203 242.668 476.702 241.116 476.702 238.574C476.702 236.062 478.196 234.48 480.554 234.48C482.129 234.48 483.44 235.242 483.865 236.355C483.938 236.538 483.982 236.729 483.982 236.882C483.982 237.41 483.572 237.717 483.066 237.717C482.642 237.717 482.385 237.549 482.166 237.161C481.777 236.472 481.301 236.157 480.62 236.157C479.536 236.157 478.87 237.051 478.87 238.567C478.87 240.112 479.536 240.991 480.605 240.991C481.353 240.991 481.814 240.625 482.144 240.068C482.429 239.622 482.664 239.438 483.118 239.438C483.616 239.438 484.019 239.768 484.019 240.295C484.019 240.464 483.975 240.64 483.879 240.852C483.411 241.921 482.07 242.668 480.569 242.668ZM485.732 240.493V236.26H485.322C484.817 236.26 484.495 235.952 484.495 235.454C484.495 234.956 484.817 234.648 485.322 234.648H485.732V233.777C485.732 233.088 486.135 232.664 486.802 232.664C487.468 232.664 487.871 233.088 487.871 233.777V234.648H488.625C489.131 234.648 489.446 234.963 489.446 235.454C489.446 235.945 489.131 236.26 488.625 236.26H487.871V240.017C487.871 240.574 488.062 240.808 488.523 240.845L488.662 240.859C489.189 240.918 489.475 241.138 489.475 241.636C489.475 242.266 488.86 242.588 487.959 242.588H487.886C486.458 242.588 485.732 241.877 485.732 240.493Z" fill="#61DAFB"/>
<rect x="580" y="80" width="290" height="207" rx="30" fill="#C89AFF" fill-opacity="0.2"/>
<path d="M691.566 127C690.746 127 690.254 126.484 690.254 125.641V111.449C690.254 110.605 690.746 110.09 691.566 110.09H696.219C701.246 110.09 704.223 113.184 704.223 118.516C704.223 123.859 701.258 127 696.219 127H691.566ZM692.879 124.727H695.973C699.559 124.727 701.539 122.535 701.539 118.539C701.539 114.555 699.547 112.352 695.973 112.352H692.879V124.727ZM711.77 127.234C708.055 127.234 705.875 124.879 705.875 120.895C705.875 116.98 708.102 114.449 711.594 114.449C714.875 114.449 717.137 116.816 717.137 120.18C717.137 121 716.668 121.469 715.883 121.469H708.43V121.527C708.43 123.777 709.695 125.184 711.711 125.184C713.094 125.184 713.961 124.703 714.898 123.426C715.168 123.109 715.426 122.98 715.789 122.98C716.398 122.98 716.844 123.379 716.844 124.012C716.844 124.211 716.773 124.445 716.668 124.691C715.859 126.309 714.066 127.234 711.77 127.234ZM708.441 119.699H714.605C714.547 117.766 713.34 116.488 711.582 116.488C709.836 116.488 708.57 117.777 708.441 119.699ZM723.652 127.234C721.227 127.234 719.445 126.238 718.859 124.727C718.777 124.539 718.754 124.363 718.754 124.199C718.754 123.566 719.211 123.191 719.844 123.191C720.266 123.191 720.629 123.391 720.945 123.859C721.578 124.855 722.316 125.301 723.781 125.301C725.223 125.301 726.195 124.68 726.195 123.66C726.195 122.852 725.715 122.418 724.391 122.102L722.445 121.645C720.055 121.082 718.883 119.91 718.883 118.152C718.883 115.926 720.816 114.449 723.746 114.449C725.973 114.449 727.801 115.586 728.152 117.039C728.176 117.18 728.199 117.297 728.199 117.414C728.199 117.977 727.848 118.352 727.215 118.352C726.805 118.352 726.441 118.211 726.195 117.812C725.645 116.875 724.895 116.383 723.652 116.383C722.293 116.383 721.355 117.051 721.355 118.012C721.355 118.785 721.953 119.324 723.254 119.629L725.164 120.074C727.754 120.672 728.75 121.598 728.75 123.426C728.75 125.711 726.699 127.234 723.652 127.234ZM732.055 112.809C731.246 112.809 730.59 112.152 730.59 111.355C730.59 110.547 731.246 109.914 732.055 109.914C732.875 109.914 733.531 110.547 733.531 111.355C733.531 112.152 732.875 112.809 732.055 112.809ZM732.055 127.223C731.293 127.223 730.789 126.695 730.789 125.887V115.797C730.789 114.977 731.293 114.449 732.055 114.449C732.816 114.449 733.32 114.977 733.32 115.797V125.887C733.32 126.695 732.816 127.223 732.055 127.223ZM741.078 131.641C738.84 131.617 737.07 130.75 736.227 129.414C736.062 129.133 735.992 128.875 735.992 128.582C735.992 127.996 736.426 127.574 737.07 127.574C737.457 127.574 737.703 127.703 738.043 128.043C739.051 129.098 739.918 129.555 741.125 129.578C743.188 129.602 744.441 128.43 744.441 126.707V124.75H744.383C743.691 126.086 742.238 126.965 740.48 126.965C737.375 126.965 735.359 124.539 735.359 120.73C735.359 116.875 737.352 114.473 740.539 114.473C742.285 114.473 743.645 115.352 744.395 116.746H744.441V115.75C744.441 114.93 744.992 114.449 745.719 114.449C746.445 114.449 746.984 114.93 746.984 115.75V126.66C746.984 129.707 744.746 131.676 741.078 131.641ZM741.16 124.902C743.141 124.902 744.453 123.285 744.453 120.754C744.453 118.223 743.141 116.559 741.16 116.559C739.215 116.559 737.949 118.176 737.949 120.742C737.949 123.32 739.215 124.902 741.16 124.902ZM750.746 127.223C749.996 127.223 749.48 126.719 749.48 125.887V115.727C749.48 114.953 749.949 114.449 750.688 114.449C751.414 114.449 751.918 114.953 751.918 115.738V116.711H751.977C752.645 115.305 753.934 114.461 755.832 114.461C758.551 114.461 760.109 116.195 760.109 119.02V125.887C760.109 126.719 759.582 127.223 758.832 127.223C758.094 127.223 757.566 126.719 757.566 125.887V119.512C757.566 117.66 756.699 116.641 754.941 116.641C753.16 116.641 752.012 117.906 752.012 119.816V125.887C752.012 126.719 751.484 127.223 750.746 127.223Z" fill="#C89AFF"/>
<rect x="610" y="157" width="100" height="100" rx="20" fill="white" fill-opacity="0.2"/>
<path d="M643 171.5H677V188.167H660L643 171.5ZM643 188.167H660L677 204.833H660V221.5L643 204.833V188.167Z" fill="white"/>
<path d="M637.749 242.639C637.053 242.639 636.643 242.214 636.643 241.489V233.081C636.643 232.356 637.053 231.931 637.749 231.931H642.693C643.301 231.931 643.696 232.275 643.696 232.847C643.696 233.418 643.293 233.762 642.693 233.762H638.855V236.589H642.334C642.905 236.589 643.279 236.919 643.279 237.461C643.279 238.01 642.913 238.34 642.334 238.34H638.855V241.489C638.855 242.214 638.445 242.639 637.749 242.639ZM645.762 242.654C645.117 242.654 644.692 242.251 644.692 241.541V235.564C644.692 234.883 645.11 234.487 645.725 234.487C646.326 234.487 646.736 234.883 646.736 235.564V236.077H646.78C646.985 235.103 647.629 234.524 648.413 234.524C648.699 234.524 648.926 234.59 649.08 234.722C649.285 234.883 649.387 235.146 649.387 235.513C649.387 235.85 649.285 236.106 649.08 236.282C648.875 236.458 648.567 236.553 648.149 236.56C647.175 236.575 646.831 237.124 646.831 238.054V241.541C646.831 242.251 646.414 242.654 645.762 242.654ZM652.288 242.625C650.793 242.625 649.658 241.658 649.658 240.244C649.658 238.816 650.757 237.988 652.72 237.871L654.697 237.754V237.234C654.697 236.501 654.185 236.077 653.379 236.077C652.727 236.077 652.332 236.289 651.855 236.904C651.621 237.168 651.35 237.3 651.006 237.3C650.486 237.3 650.112 236.963 650.112 236.479C650.112 236.311 650.149 236.157 650.222 235.996C650.588 235.059 651.848 234.48 653.474 234.48C655.488 234.48 656.799 235.52 656.799 237.102V241.577C656.799 242.288 656.367 242.654 655.759 242.654C655.181 242.654 654.778 242.332 654.734 241.702V241.299H654.69C654.25 242.134 653.269 242.625 652.288 242.625ZM652.991 241.079C653.928 241.079 654.697 240.471 654.697 239.622V239.05L653.042 239.153C652.244 239.211 651.79 239.57 651.79 240.127C651.79 240.713 652.273 241.079 652.991 241.079ZM659.253 242.654C658.616 242.654 658.184 242.266 658.184 241.541V235.579C658.184 234.861 658.608 234.487 659.216 234.487C659.824 234.487 660.249 234.861 660.249 235.579V236.069H660.293C660.623 235.125 661.465 234.502 662.534 234.502C663.669 234.502 664.46 235.088 664.724 236.113H664.768C665.12 235.125 666.057 234.502 667.207 234.502C668.745 234.502 669.778 235.557 669.778 237.139V241.541C669.778 242.266 669.338 242.654 668.701 242.654C668.071 242.654 667.639 242.266 667.639 241.541V237.673C667.639 236.765 667.185 236.267 666.357 236.267C665.544 236.267 665.01 236.86 665.01 237.732V241.541C665.01 242.266 664.614 242.654 663.977 242.654C663.347 242.654 662.952 242.266 662.952 241.541V237.607C662.952 236.765 662.476 236.267 661.685 236.267C660.872 236.267 660.322 236.882 660.322 237.761V241.541C660.322 242.266 659.883 242.654 659.253 242.654ZM674.744 242.668C672.29 242.668 670.847 241.152 670.847 238.611C670.847 236.084 672.319 234.48 674.641 234.48C676.868 234.48 678.362 236.003 678.362 238.135C678.362 238.728 678.025 239.065 677.432 239.065H672.949V239.16C672.949 240.325 673.652 241.086 674.736 241.086C675.52 241.086 676.033 240.823 676.611 240.142C676.838 239.907 677.029 239.827 677.307 239.827C677.769 239.827 678.142 240.12 678.142 240.61C678.142 240.779 678.091 240.955 677.996 241.13C677.476 242.097 676.26 242.668 674.744 242.668ZM672.971 237.754H676.304C676.26 236.729 675.601 236.062 674.663 236.062C673.726 236.062 673.044 236.75 672.971 237.754ZM680.537 242.654C679.893 242.654 679.468 242.251 679.468 241.541V235.564C679.468 234.883 679.885 234.487 680.5 234.487C681.101 234.487 681.511 234.883 681.511 235.564V236.077H681.555C681.76 235.103 682.405 234.524 683.188 234.524C683.474 234.524 683.701 234.59 683.855 234.722C684.06 234.883 684.163 235.146 684.163 235.513C684.163 235.85 684.06 236.106 683.855 236.282C683.65 236.458 683.342 236.553 682.925 236.56C681.951 236.575 681.606 237.124 681.606 238.054V241.541C681.606 242.251 681.189 242.654 680.537 242.654Z" fill="white"/>
<rect x="740" y="157" width="100" height="100" rx="20" fill="black" fill-opacity="0.2"/>
<path d="M781.5 221.5C786.205 221.5 790 217.779 790 213.167V204.833H781.5C776.795 204.833 773 208.554 773 213.167C773 217.779 776.795 221.5 781.5 221.5Z" fill="#0ACF83"/>
<path d="M773 196.5C773 191.888 776.795 188.167 781.5 188.167H790V204.833H781.5C776.795 204.833 773 201.112 773 196.5Z" fill="#A259FF"/>
<path d="M773 179.833C773 175.221 776.795 171.5 781.5 171.5H790V188.167H781.5C776.795 188.167 773 184.446 773 179.833Z" fill="#F24E1E"/>
<path d="M790 171.5H798.5C803.205 171.5 807 175.221 807 179.833C807 184.446 803.205 188.167 798.5 188.167H790V171.5Z" fill="#FF7262"/>
<path d="M807 196.5C807 201.112 803.205 204.833 798.5 204.833C793.795 204.833 790 201.112 790 196.5C790 191.888 793.795 188.167 798.5 188.167C803.205 188.167 807 191.888 807 196.5Z" fill="#1ABCFE"/>
<path d="M771.03 242.639C770.334 242.639 769.924 242.214 769.924 241.489V233.081C769.924 232.356 770.334 231.931 771.03 231.931H775.974C776.582 231.931 776.978 232.275 776.978 232.847C776.978 233.418 776.575 233.762 775.974 233.762H772.136V236.589H775.615C776.187 236.589 776.56 236.919 776.56 237.461C776.56 238.01 776.194 238.34 775.615 238.34H772.136V241.489C772.136 242.214 771.726 242.639 771.03 242.639ZM779.08 233.674C778.435 233.674 777.937 233.184 777.937 232.568C777.937 231.946 778.435 231.462 779.08 231.462C779.724 231.462 780.222 231.946 780.222 232.568C780.222 233.184 779.724 233.674 779.08 233.674ZM779.08 242.654C778.413 242.654 778.01 242.236 778.01 241.541V235.608C778.01 234.912 778.413 234.487 779.08 234.487C779.739 234.487 780.149 234.912 780.149 235.608V241.541C780.149 242.236 779.739 242.654 779.08 242.654ZM785.085 245.452C783.481 245.444 782.288 244.836 781.782 244.009C781.665 243.811 781.621 243.613 781.621 243.416C781.621 242.969 781.958 242.632 782.493 242.632C782.771 242.632 782.991 242.72 783.232 242.939C783.811 243.489 784.368 243.789 785.078 243.796C786.25 243.804 786.938 243.159 786.938 242.178V240.925H786.895C786.528 241.768 785.613 242.332 784.478 242.332C782.522 242.332 781.292 240.837 781.292 238.442C781.292 235.981 782.493 234.524 784.514 234.524C785.642 234.524 786.499 235.117 786.909 236.003H786.953V235.571C786.953 234.846 787.415 234.487 788.03 234.487C788.645 234.487 789.092 234.846 789.092 235.571V242.192C789.092 244.236 787.612 245.466 785.085 245.452ZM785.203 240.742C786.272 240.742 786.96 239.893 786.96 238.472C786.96 237.058 786.272 236.15 785.203 236.15C784.148 236.15 783.481 237.043 783.481 238.464C783.481 239.9 784.141 240.742 785.203 240.742ZM791.553 242.654C790.916 242.654 790.483 242.266 790.483 241.541V235.579C790.483 234.861 790.908 234.487 791.516 234.487C792.124 234.487 792.549 234.861 792.549 235.579V236.069H792.593C792.922 235.125 793.765 234.502 794.834 234.502C795.969 234.502 796.76 235.088 797.024 236.113H797.068C797.419 235.125 798.357 234.502 799.507 234.502C801.045 234.502 802.078 235.557 802.078 237.139V241.541C802.078 242.266 801.638 242.654 801.001 242.654C800.371 242.654 799.939 242.266 799.939 241.541V237.673C799.939 236.765 799.485 236.267 798.657 236.267C797.844 236.267 797.31 236.86 797.31 237.732V241.541C797.31 242.266 796.914 242.654 796.277 242.654C795.647 242.654 795.251 242.266 795.251 241.541V237.607C795.251 236.765 794.775 236.267 793.984 236.267C793.171 236.267 792.622 236.882 792.622 237.761V241.541C792.622 242.266 792.183 242.654 791.553 242.654ZM805.754 242.625C804.26 242.625 803.125 241.658 803.125 240.244C803.125 238.816 804.224 237.988 806.187 237.871L808.164 237.754V237.234C808.164 236.501 807.651 236.077 806.846 236.077C806.194 236.077 805.798 236.289 805.322 236.904C805.088 237.168 804.817 237.3 804.473 237.3C803.953 237.3 803.579 236.963 803.579 236.479C803.579 236.311 803.616 236.157 803.689 235.996C804.055 235.059 805.315 234.48 806.941 234.48C808.955 234.48 810.266 235.52 810.266 237.102V241.577C810.266 242.288 809.834 242.654 809.226 242.654C808.647 242.654 808.245 242.332 808.201 241.702V241.299H808.157C807.717 242.134 806.736 242.625 805.754 242.625ZM806.458 241.079C807.395 241.079 808.164 240.471 808.164 239.622V239.05L806.509 239.153C805.71 239.211 805.256 239.57 805.256 240.127C805.256 240.713 805.74 241.079 806.458 241.079Z" fill="white"/>
</svg>
