<svg width="150" height="150" viewBox="0 0 150 150" fill="none" xmlns="http://www.w3.org/2000/svg">
<rect width="150" height="150" rx="75" fill="#731010"/>
<path d="M75 25C47.3858 25 25 47.3858 25 75C25 102.614 47.3858 125 75 125C102.614 125 125 102.614 125 75C125 47.3858 102.614 25 75 25ZM86.0658 53.6253C92.007 53.5324 97.3801 56.7624 99.9272 62.2689C102.283 69.5486 100.312 76.9543 96.1563 82.5355C93.4136 86.3203 90.1357 89.5842 86.7844 92.4361C83.7013 95.306 76.8004 100.985 74.9715 101.143C73.3551 100.834 71.5404 99.0032 70.2571 98.0623C63.0459 92.5806 55.2848 85.9172 51.3488 78.6284C48.0488 71.6309 48.0428 62.9731 53.1788 57.6083C59.8386 51.6043 69.878 52.7795 74.9715 59.0521C76.3394 57.2775 78.0219 55.8799 80.0183 54.8632C82.0416 54.0557 84.0853 53.6563 86.0658 53.6253Z" fill="white"/>
</svg>
